<?xml version="1.0" encoding="utf-8" standalone="no"?>
<!DOCTYPE svg PUBLIC "-//W3C//DTD SVG 1.1//EN"
  "http://www.w3.org/Graphics/SVG/1.1/DTD/svg11.dtd">
<svg height="207.97pt" version="1.1" viewBox="0 0 388.325 207.97" width="388.325pt" xmlns="http://www.w3.org/2000/svg" xmlns:xlink="http://www.w3.org/1999/xlink">
 <metadata>
  <rdf:RDF xmlns:cc="http://creativecommons.org/ns#" xmlns:dc="http://purl.org/dc/elements/1.1/" xmlns:rdf="http://www.w3.org/1999/02/22-rdf-syntax-ns#">
   <cc:Work>
    <dc:type rdf:resource="http://purl.org/dc/dcmitype/StillImage"/>
    <dc:date>2023-10-15T08:39:57.997417</dc:date>
    <dc:format>image/svg+xml</dc:format>
    <dc:creator>
     <cc:Agent>
      <dc:title>Matplotlib v3.4.0, https://matplotlib.org/</dc:title>
     </cc:Agent>
    </dc:creator>
   </cc:Work>
  </rdf:RDF>
 </metadata>
 <defs>
  <style type="text/css">*{stroke-linecap:butt;stroke-linejoin:round;}</style>
 </defs>
 <g id="figure_1">
  <g id="patch_1">
   <path d="M 0 207.97 
L 388.325 207.97 
L 388.325 0 
L 0 0 
z
" style="fill:#ffffff;"/>
  </g>
  <g id="axes_1">
   <g id="patch_2">
    <path d="M 46.325 173.52 
L 381.125 173.52 
L 381.125 7.2 
L 46.325 7.2 
z
" style="fill:#ffffff;"/>
   </g>
   <g id="matplotlib.axis_1">
    <g id="xtick_1">
     <g id="line2d_1">
      <path clip-path="url(#p5ff43f0ba1)" d="M 60.013716 173.52 
L 60.013716 7.2 
" style="fill:none;stroke:#b0b0b0;stroke-linecap:square;stroke-width:0.8;"/>
     </g>
     <g id="line2d_2">
      <defs>
       <path d="M 0 0 
L 0 3.5 
" id="m2b65c8bd03" style="stroke:#000000;stroke-width:0.8;"/>
      </defs>
      <g>
       <use style="stroke:#000000;stroke-width:0.8;" x="60.013716" xlink:href="#m2b65c8bd03" y="173.52"/>
      </g>
     </g>
     <g id="text_1">
      <!-- 0 -->
      <g transform="translate(57.513716 187.395)scale(0.1 -0.1)">
       <defs>
        <path d="M 225 2537 
Q 250 3200 412 3587 
Q 575 3975 875 4225 
Q 1175 4475 1612 4475 
Q 2050 4475 2375 4112 
Q 2700 3750 2800 3200 
Q 2900 2650 2862 1937 
Q 2825 1225 2612 775 
Q 2400 325 1975 150 
Q 1550 -25 1125 187 
Q 700 400 525 750 
Q 350 1100 275 1487 
Q 200 1875 225 2537 
z
M 750 2687 
Q 675 2000 800 1462 
Q 925 925 1212 700 
Q 1500 475 1800 612 
Q 2100 750 2237 1162 
Q 2375 1575 2375 2062 
Q 2375 2550 2337 2950 
Q 2300 3350 2112 3675 
Q 1925 4000 1612 4012 
Q 1300 4025 1062 3700 
Q 825 3375 750 2687 
z
" id="SimHei-30" transform="scale(0.015625)"/>
       </defs>
       <use xlink:href="#SimHei-30"/>
      </g>
     </g>
    </g>
    <g id="xtick_2">
     <g id="line2d_3">
      <path clip-path="url(#p5ff43f0ba1)" d="M 121.192337 173.52 
L 121.192337 7.2 
" style="fill:none;stroke:#b0b0b0;stroke-linecap:square;stroke-width:0.8;"/>
     </g>
     <g id="line2d_4">
      <g>
       <use style="stroke:#000000;stroke-width:0.8;" x="121.192337" xlink:href="#m2b65c8bd03" y="173.52"/>
      </g>
     </g>
     <g id="text_2">
      <!-- 200 -->
      <g transform="translate(113.692337 187.395)scale(0.1 -0.1)">
       <defs>
        <path d="M 300 250 
Q 325 625 650 925 
Q 975 1225 1475 1862 
Q 1975 2500 2125 2850 
Q 2275 3200 2237 3450 
Q 2200 3700 2000 3862 
Q 1800 4025 1537 4000 
Q 1275 3975 1037 3800 
Q 800 3625 675 3275 
L 200 3350 
Q 400 3925 712 4187 
Q 1025 4450 1450 4475 
Q 1700 4500 1900 4462 
Q 2100 4425 2312 4287 
Q 2525 4150 2662 3875 
Q 2800 3600 2762 3212 
Q 2725 2825 2375 2287 
Q 2025 1750 1025 600 
L 2825 600 
L 2825 150 
L 300 150 
L 300 250 
z
" id="SimHei-32" transform="scale(0.015625)"/>
       </defs>
       <use xlink:href="#SimHei-32"/>
       <use x="50" xlink:href="#SimHei-30"/>
       <use x="100" xlink:href="#SimHei-30"/>
      </g>
     </g>
    </g>
    <g id="xtick_3">
     <g id="line2d_5">
      <path clip-path="url(#p5ff43f0ba1)" d="M 182.370957 173.52 
L 182.370957 7.2 
" style="fill:none;stroke:#b0b0b0;stroke-linecap:square;stroke-width:0.8;"/>
     </g>
     <g id="line2d_6">
      <g>
       <use style="stroke:#000000;stroke-width:0.8;" x="182.370957" xlink:href="#m2b65c8bd03" y="173.52"/>
      </g>
     </g>
     <g id="text_3">
      <!-- 400 -->
      <g transform="translate(174.870957 187.395)scale(0.1 -0.1)">
       <defs>
        <path d="M 2000 1100 
L 75 1100 
L 75 1525 
L 2100 4450 
L 2475 4450 
L 2475 1525 
L 3075 1525 
L 3075 1100 
L 2475 1100 
L 2475 150 
L 2000 150 
L 2000 1100 
z
M 2000 1525 
L 2000 3500 
L 600 1525 
L 2000 1525 
z
" id="SimHei-34" transform="scale(0.015625)"/>
       </defs>
       <use xlink:href="#SimHei-34"/>
       <use x="50" xlink:href="#SimHei-30"/>
       <use x="100" xlink:href="#SimHei-30"/>
      </g>
     </g>
    </g>
    <g id="xtick_4">
     <g id="line2d_7">
      <path clip-path="url(#p5ff43f0ba1)" d="M 243.549577 173.52 
L 243.549577 7.2 
" style="fill:none;stroke:#b0b0b0;stroke-linecap:square;stroke-width:0.8;"/>
     </g>
     <g id="line2d_8">
      <g>
       <use style="stroke:#000000;stroke-width:0.8;" x="243.549577" xlink:href="#m2b65c8bd03" y="173.52"/>
      </g>
     </g>
     <g id="text_4">
      <!-- 600 -->
      <g transform="translate(236.049577 187.395)scale(0.1 -0.1)">
       <defs>
        <path d="M 250 1612 
Q 275 1975 387 2225 
Q 500 2475 725 2850 
L 1750 4450 
L 2325 4450 
L 1275 2800 
Q 1950 2975 2350 2750 
Q 2750 2525 2887 2237 
Q 3025 1950 3037 1612 
Q 3050 1275 2937 950 
Q 2825 625 2537 362 
Q 2250 100 1737 75 
Q 1225 50 862 262 
Q 500 475 362 862 
Q 225 1250 250 1612 
z
M 1025 787 
Q 1250 550 1625 525 
Q 2000 500 2250 775 
Q 2500 1050 2500 1575 
Q 2500 2100 2187 2300 
Q 1875 2500 1487 2450 
Q 1100 2400 925 2075 
Q 750 1750 775 1387 
Q 800 1025 1025 787 
z
" id="SimHei-36" transform="scale(0.015625)"/>
       </defs>
       <use xlink:href="#SimHei-36"/>
       <use x="50" xlink:href="#SimHei-30"/>
       <use x="100" xlink:href="#SimHei-30"/>
      </g>
     </g>
    </g>
    <g id="xtick_5">
     <g id="line2d_9">
      <path clip-path="url(#p5ff43f0ba1)" d="M 304.728198 173.52 
L 304.728198 7.2 
" style="fill:none;stroke:#b0b0b0;stroke-linecap:square;stroke-width:0.8;"/>
     </g>
     <g id="line2d_10">
      <g>
       <use style="stroke:#000000;stroke-width:0.8;" x="304.728198" xlink:href="#m2b65c8bd03" y="173.52"/>
      </g>
     </g>
     <g id="text_5">
      <!-- 800 -->
      <g transform="translate(297.228198 187.395)scale(0.1 -0.1)">
       <defs>
        <path d="M 175 1375 
Q 175 1675 325 1962 
Q 475 2250 825 2425 
Q 525 2600 425 2812 
Q 325 3025 312 3300 
Q 300 3575 387 3775 
Q 475 3975 650 4150 
Q 825 4325 1037 4387 
Q 1250 4450 1500 4450 
Q 1750 4450 1950 4400 
Q 2150 4350 2375 4187 
Q 2600 4025 2700 3725 
Q 2800 3425 2687 3025 
Q 2575 2625 2100 2400 
Q 2525 2275 2700 2012 
Q 2875 1750 2875 1375 
Q 2875 1000 2762 775 
Q 2650 550 2512 400 
Q 2375 250 2137 162 
Q 1900 75 1537 75 
Q 1175 75 912 162 
Q 650 250 475 425 
Q 300 600 237 837 
Q 175 1075 175 1375 
z
M 687 1400 
Q 675 1100 787 875 
Q 900 650 1200 587 
Q 1500 525 1825 600 
Q 2150 675 2275 950 
Q 2400 1225 2362 1500 
Q 2325 1775 2050 1962 
Q 1775 2150 1450 2125 
Q 1125 2100 912 1900 
Q 700 1700 687 1400 
z
M 775 3350 
Q 775 3100 950 2875 
Q 1125 2650 1500 2650 
Q 1875 2650 2062 2875 
Q 2250 3100 2237 3412 
Q 2225 3725 2012 3875 
Q 1800 4025 1437 4000 
Q 1075 3975 925 3787 
Q 775 3600 775 3350 
z
" id="SimHei-38" transform="scale(0.015625)"/>
       </defs>
       <use xlink:href="#SimHei-38"/>
       <use x="50" xlink:href="#SimHei-30"/>
       <use x="100" xlink:href="#SimHei-30"/>
      </g>
     </g>
    </g>
    <g id="xtick_6">
     <g id="line2d_11">
      <path clip-path="url(#p5ff43f0ba1)" d="M 365.906818 173.52 
L 365.906818 7.2 
" style="fill:none;stroke:#b0b0b0;stroke-linecap:square;stroke-width:0.8;"/>
     </g>
     <g id="line2d_12">
      <g>
       <use style="stroke:#000000;stroke-width:0.8;" x="365.906818" xlink:href="#m2b65c8bd03" y="173.52"/>
      </g>
     </g>
     <g id="text_6">
      <!-- 1000 -->
      <g transform="translate(355.906818 187.395)scale(0.1 -0.1)">
       <defs>
        <path d="M 1400 3600 
Q 1075 3275 575 2975 
L 575 3450 
Q 1200 3875 1600 4450 
L 1900 4450 
L 1900 150 
L 1400 150 
L 1400 3600 
z
" id="SimHei-31" transform="scale(0.015625)"/>
       </defs>
       <use xlink:href="#SimHei-31"/>
       <use x="50" xlink:href="#SimHei-30"/>
       <use x="100" xlink:href="#SimHei-30"/>
       <use x="150" xlink:href="#SimHei-30"/>
      </g>
     </g>
    </g>
    <g id="text_7">
     <!-- time -->
     <g transform="translate(203.725 199.52)scale(0.1 -0.1)">
      <defs>
       <path d="M 2750 200 
Q 2625 150 2462 112 
Q 2300 75 2025 75 
Q 1575 75 1300 325 
Q 1025 575 1025 1025 
L 1025 2525 
L 175 2525 
L 175 2925 
L 1025 2925 
L 1025 3900 
L 1525 3900 
L 1525 2925 
L 2550 2925 
L 2550 2525 
L 1525 2525 
L 1525 1000 
Q 1525 800 1625 662 
Q 1725 525 2000 525 
Q 2275 525 2450 575 
Q 2625 625 2750 700 
L 2750 200 
z
" id="SimHei-74" transform="scale(0.015625)"/>
       <path d="M 1800 3725 
L 1300 3725 
L 1300 4375 
L 1800 4375 
L 1800 3725 
z
M 1800 125 
L 1300 125 
L 1300 2925 
L 1800 2925 
L 1800 125 
z
" id="SimHei-69" transform="scale(0.015625)"/>
       <path d="M 3050 125 
L 2550 125 
L 2550 2150 
Q 2550 2300 2500 2400 
Q 2450 2500 2300 2500 
Q 2125 2500 1975 2312 
Q 1825 2125 1825 1825 
L 1825 125 
L 1325 125 
L 1325 2150 
Q 1325 2300 1275 2400 
Q 1225 2500 1075 2500 
Q 900 2500 750 2312 
Q 600 2125 600 1825 
L 600 125 
L 100 125 
L 100 2925 
L 600 2925 
L 600 2550 
Q 725 2750 900 2862 
Q 1075 2975 1275 2975 
Q 1475 2975 1612 2862 
Q 1750 2750 1800 2550 
Q 1925 2750 2087 2862 
Q 2250 2975 2450 2975 
Q 2750 2975 2900 2812 
Q 3050 2650 3050 2350 
L 3050 125 
z
" id="SimHei-6d" transform="scale(0.015625)"/>
       <path d="M 2850 1075 
Q 2800 625 2450 350 
Q 2100 75 1625 75 
Q 1025 75 637 462 
Q 250 850 250 1525 
Q 250 2200 637 2587 
Q 1025 2975 1625 2975 
Q 2150 2975 2487 2637 
Q 2825 2300 2825 1525 
L 800 1525 
Q 800 975 1037 750 
Q 1275 525 1625 525 
Q 1900 525 2075 662 
Q 2250 800 2300 1075 
L 2850 1075 
z
M 2250 1925 
Q 2200 2275 2025 2412 
Q 1850 2550 1575 2550 
Q 1325 2550 1125 2412 
Q 925 2275 825 1925 
L 2250 1925 
z
" id="SimHei-65" transform="scale(0.015625)"/>
      </defs>
      <use xlink:href="#SimHei-74"/>
      <use x="50" xlink:href="#SimHei-69"/>
      <use x="100" xlink:href="#SimHei-6d"/>
      <use x="150" xlink:href="#SimHei-65"/>
     </g>
    </g>
   </g>
   <g id="matplotlib.axis_2">
    <g id="ytick_1">
     <g id="line2d_13">
      <path clip-path="url(#p5ff43f0ba1)" d="M 46.325 162.444046 
L 381.125 162.444046 
" style="fill:none;stroke:#b0b0b0;stroke-linecap:square;stroke-width:0.8;"/>
     </g>
     <g id="line2d_14">
      <defs>
       <path d="M 0 0 
L -3.5 0 
" id="m937f15dab8" style="stroke:#000000;stroke-width:0.8;"/>
      </defs>
      <g>
       <use style="stroke:#000000;stroke-width:0.8;" x="46.325" xlink:href="#m937f15dab8" y="162.444046"/>
      </g>
     </g>
     <g id="text_8">
      <!-- -1.0 -->
      <g transform="translate(19.325 165.881546)scale(0.1 -0.1)">
       <defs>
        <path d="M 2975 2125 
L 125 2125 
L 125 2525 
L 2975 2525 
L 2975 2125 
z
" id="SimHei-2d" transform="scale(0.015625)"/>
        <path d="M 1075 125 
L 500 125 
L 500 675 
L 1075 675 
L 1075 125 
z
" id="SimHei-2e" transform="scale(0.015625)"/>
       </defs>
       <use xlink:href="#SimHei-2d"/>
       <use x="50" xlink:href="#SimHei-31"/>
       <use x="100" xlink:href="#SimHei-2e"/>
       <use x="150" xlink:href="#SimHei-30"/>
      </g>
     </g>
    </g>
    <g id="ytick_2">
     <g id="line2d_15">
      <path clip-path="url(#p5ff43f0ba1)" d="M 46.325 126.11481 
L 381.125 126.11481 
" style="fill:none;stroke:#b0b0b0;stroke-linecap:square;stroke-width:0.8;"/>
     </g>
     <g id="line2d_16">
      <g>
       <use style="stroke:#000000;stroke-width:0.8;" x="46.325" xlink:href="#m937f15dab8" y="126.11481"/>
      </g>
     </g>
     <g id="text_9">
      <!-- -0.5 -->
      <g transform="translate(19.325 129.55231)scale(0.1 -0.1)">
       <defs>
        <path d="M 550 1325 
Q 725 650 1150 575 
Q 1575 500 1837 662 
Q 2100 825 2212 1087 
Q 2325 1350 2312 1675 
Q 2300 2000 2137 2225 
Q 1975 2450 1725 2525 
Q 1475 2600 1162 2525 
Q 850 2450 650 2175 
L 225 2225 
Q 275 2375 700 4375 
L 2675 4375 
L 2675 3925 
L 1075 3925 
Q 950 3250 825 2850 
Q 1200 3025 1525 3012 
Q 1850 3000 2150 2862 
Q 2450 2725 2587 2487 
Q 2725 2250 2787 2012 
Q 2850 1775 2837 1500 
Q 2825 1225 2725 937 
Q 2625 650 2425 462 
Q 2225 275 1937 162 
Q 1650 50 1275 75 
Q 900 100 562 350 
Q 225 600 100 1200 
L 550 1325 
z
" id="SimHei-35" transform="scale(0.015625)"/>
       </defs>
       <use xlink:href="#SimHei-2d"/>
       <use x="50" xlink:href="#SimHei-30"/>
       <use x="100" xlink:href="#SimHei-2e"/>
       <use x="150" xlink:href="#SimHei-35"/>
      </g>
     </g>
    </g>
    <g id="ytick_3">
     <g id="line2d_17">
      <path clip-path="url(#p5ff43f0ba1)" d="M 46.325 89.785574 
L 381.125 89.785574 
" style="fill:none;stroke:#b0b0b0;stroke-linecap:square;stroke-width:0.8;"/>
     </g>
     <g id="line2d_18">
      <g>
       <use style="stroke:#000000;stroke-width:0.8;" x="46.325" xlink:href="#m937f15dab8" y="89.785574"/>
      </g>
     </g>
     <g id="text_10">
      <!-- 0.0 -->
      <g transform="translate(24.325 93.223074)scale(0.1 -0.1)">
       <use xlink:href="#SimHei-30"/>
       <use x="50" xlink:href="#SimHei-2e"/>
       <use x="100" xlink:href="#SimHei-30"/>
      </g>
     </g>
    </g>
    <g id="ytick_4">
     <g id="line2d_19">
      <path clip-path="url(#p5ff43f0ba1)" d="M 46.325 53.456338 
L 381.125 53.456338 
" style="fill:none;stroke:#b0b0b0;stroke-linecap:square;stroke-width:0.8;"/>
     </g>
     <g id="line2d_20">
      <g>
       <use style="stroke:#000000;stroke-width:0.8;" x="46.325" xlink:href="#m937f15dab8" y="53.456338"/>
      </g>
     </g>
     <g id="text_11">
      <!-- 0.5 -->
      <g transform="translate(24.325 56.893838)scale(0.1 -0.1)">
       <use xlink:href="#SimHei-30"/>
       <use x="50" xlink:href="#SimHei-2e"/>
       <use x="100" xlink:href="#SimHei-35"/>
      </g>
     </g>
    </g>
    <g id="ytick_5">
     <g id="line2d_21">
      <path clip-path="url(#p5ff43f0ba1)" d="M 46.325 17.127102 
L 381.125 17.127102 
" style="fill:none;stroke:#b0b0b0;stroke-linecap:square;stroke-width:0.8;"/>
     </g>
     <g id="line2d_22">
      <g>
       <use style="stroke:#000000;stroke-width:0.8;" x="46.325" xlink:href="#m937f15dab8" y="17.127102"/>
      </g>
     </g>
     <g id="text_12">
      <!-- 1.0 -->
      <g transform="translate(24.325 20.564602)scale(0.1 -0.1)">
       <use xlink:href="#SimHei-31"/>
       <use x="50" xlink:href="#SimHei-2e"/>
       <use x="100" xlink:href="#SimHei-30"/>
      </g>
     </g>
    </g>
    <g id="text_13">
     <!-- x -->
     <g transform="translate(14.075 92.86)rotate(-90)scale(0.1 -0.1)">
      <defs>
       <path d="M 2875 125 
L 2275 125 
L 1550 1200 
L 825 125 
L 225 125 
L 1250 1550 
L 300 2925 
L 900 2925 
L 1550 1875 
L 2200 2925 
L 2800 2925 
L 1850 1550 
L 2875 125 
z
" id="SimHei-78" transform="scale(0.015625)"/>
      </defs>
      <use xlink:href="#SimHei-78"/>
     </g>
    </g>
   </g>
   <g id="line2d_23">
    <path clip-path="url(#p5ff43f0ba1)" d="M 61.543182 85.204813 
L 61.849075 84.978959 
L 62.154968 83.573607 
L 62.460861 100.983088 
L 62.766754 93.898871 
L 63.072647 96.30847 
L 63.684434 67.028737 
L 64.29622 89.449197 
L 64.602113 84.560134 
L 64.908006 87.375951 
L 65.213899 77.867243 
L 65.519792 61.465617 
L 65.825685 57.868452 
L 66.131578 58.511331 
L 66.437471 64.421457 
L 66.743365 80.308819 
L 67.049258 74.559998 
L 67.661044 53.922442 
L 67.966937 64.499227 
L 68.27283 89.170159 
L 68.578723 58.449721 
L 68.884616 40.944127 
L 69.190509 66.056487 
L 69.496402 69.030511 
L 69.802296 54.285527 
L 70.108189 54.854938 
L 70.414082 54.892971 
L 71.025868 93.924862 
L 71.331761 62.696201 
L 71.637654 61.510653 
L 71.943547 67.796485 
L 72.555333 49.663872 
L 72.861227 48.263963 
L 73.16712 55.520207 
L 73.778906 85.060764 
L 74.084799 61.90802 
L 74.696585 58.393702 
L 75.308371 47.661218 
L 75.614265 60.907964 
L 76.226051 67.830651 
L 76.531944 59.213697 
L 77.14373 31.473594 
L 77.449623 39.662809 
L 77.755516 41.674817 
L 78.061409 46.911451 
L 78.367302 41.393996 
L 78.673196 73.124683 
L 78.979089 61.961843 
L 79.284982 36.064656 
L 79.590875 27.367237 
L 80.202661 57.369204 
L 80.508554 53.119884 
L 80.814447 38.04129 
L 81.12034 44.302991 
L 81.426233 40.417616 
L 82.03802 46.838911 
L 82.343913 56.83602 
L 82.649806 49.422716 
L 82.955699 32.536052 
L 83.261592 42.9185 
L 83.567485 40.724578 
L 83.873378 48.549384 
L 84.179271 43.574402 
L 84.485164 44.276383 
L 84.791058 28.358947 
L 85.096951 46.965075 
L 85.402844 51.69959 
L 86.01463 31.237198 
L 86.320523 40.013567 
L 86.626416 41.141728 
L 86.932309 37.761231 
L 87.238202 53.532005 
L 87.544095 50.011937 
L 87.849989 68.233348 
L 88.155882 54.227312 
L 88.461775 52.931837 
L 88.767668 41.240647 
L 89.073561 52.099547 
L 89.379454 48.44897 
L 89.685347 40.572498 
L 89.99124 29.059213 
L 90.297133 24.244582 
L 90.603026 38.947229 
L 90.90892 31.532042 
L 91.214813 32.612265 
L 91.520706 31.705555 
L 92.132492 45.876005 
L 92.438385 29.30372 
L 92.744278 37.958585 
L 93.050171 49.980309 
L 93.661958 22.414528 
L 93.967851 24.021525 
L 94.273744 28.006356 
L 94.579637 26.346545 
L 94.88553 33.058249 
L 95.191423 43.149076 
L 95.497316 34.075207 
L 95.803209 45.155622 
L 96.109102 41.964264 
L 96.414995 43.035085 
L 96.720889 57.983707 
L 97.332675 16.145963 
L 97.638568 23.942428 
L 97.944461 35.62901 
L 98.250354 24.982409 
L 98.556247 38.199979 
L 98.86214 41.678532 
L 99.168033 36.239607 
L 99.473926 21.762563 
L 99.77982 15.798911 
L 100.391606 38.421979 
L 100.697499 29.419768 
L 101.003392 30.160591 
L 101.309285 50.7769 
L 101.921071 25.130721 
L 102.226964 42.085171 
L 103.144644 23.944316 
L 103.450537 24.008334 
L 103.75643 38.506009 
L 104.062323 45.000463 
L 104.368216 43.343662 
L 104.674109 25.799654 
L 104.980002 25.949672 
L 105.285895 19.204418 
L 105.591788 40.278278 
L 105.897682 24.74267 
L 106.203575 42.227715 
L 106.509468 46.257876 
L 106.815361 36.429685 
L 107.121254 16.177084 
L 107.427147 16.637749 
L 107.73304 17.742744 
L 108.344826 38.086352 
L 108.65072 35.497978 
L 108.956613 25.650224 
L 109.262506 21.565928 
L 109.568399 28.362632 
L 110.180185 51.256417 
L 110.486078 48.080589 
L 110.791971 34.64144 
L 111.097864 34.458256 
L 111.403757 18.573895 
L 112.015544 41.691209 
L 112.321437 38.721301 
L 112.62733 27.614464 
L 112.933223 34.854228 
L 113.239116 34.551329 
L 113.545009 27.133834 
L 113.850902 30.184311 
L 114.156795 17.505595 
L 114.462688 32.080388 
L 114.768582 31.336343 
L 115.074475 21.12748 
L 115.380368 26.35593 
L 115.686261 21.296051 
L 115.992154 36.827012 
L 116.298047 38.417765 
L 116.60394 36.584961 
L 116.909833 33.60951 
L 117.215726 36.894685 
L 117.521619 34.757453 
L 117.827513 23.025177 
L 118.133406 24.378044 
L 118.439299 50.933796 
L 118.745192 54.936712 
L 119.051085 28.517064 
L 119.356978 24.936477 
L 119.662871 43.327543 
L 119.968764 54.674587 
L 120.274657 45.369511 
L 120.58055 28.090603 
L 120.886444 39.875173 
L 121.192337 23.671849 
L 121.49823 20.905887 
L 121.804123 41.917916 
L 122.110016 30.018849 
L 122.415909 36.281152 
L 122.721802 47.141247 
L 123.027695 36.79409 
L 123.333588 33.942984 
L 123.639481 42.48479 
L 123.945375 38.904995 
L 124.251268 21.955863 
L 124.557161 23.347508 
L 124.863054 42.768616 
L 125.168947 29.97581 
L 125.47484 31.259852 
L 125.780733 48.129029 
L 126.086626 30.68802 
L 126.392519 43.256232 
L 126.698413 27.16854 
L 127.004306 30.072612 
L 127.616092 50.249272 
L 127.921985 57.490973 
L 128.533771 30.134005 
L 128.839664 33.602823 
L 129.145557 38.415526 
L 129.45145 63.836725 
L 129.757344 55.988373 
L 130.063237 29.727634 
L 130.36913 35.059135 
L 130.675023 47.10515 
L 130.980916 37.965597 
L 131.286809 36.752419 
L 131.592702 58.67959 
L 131.898595 40.21565 
L 132.204488 51.144817 
L 132.510381 41.067693 
L 132.816275 46.29079 
L 133.122168 49.152207 
L 133.428061 50.59253 
L 133.733954 32.157714 
L 134.039847 51.122414 
L 134.34574 47.543663 
L 134.651633 46.177661 
L 134.957526 46.341988 
L 135.263419 29.856648 
L 135.569312 33.913829 
L 136.181099 54.286683 
L 136.486992 45.868157 
L 136.792885 53.080071 
L 137.404671 47.277697 
L 137.710564 40.895756 
L 138.016457 51.071787 
L 138.32235 52.357934 
L 138.628243 60.940337 
L 138.934137 61.54258 
L 139.545923 46.052354 
L 139.851816 53.319732 
L 140.157709 43.736507 
L 140.463602 45.756804 
L 140.769495 45.752984 
L 141.075388 60.435333 
L 141.381281 60.249993 
L 141.687175 47.513525 
L 141.993068 64.905606 
L 142.298961 65.546094 
L 142.604854 51.760143 
L 142.910747 65.179768 
L 143.21664 56.796246 
L 143.522533 56.458189 
L 143.828426 57.456655 
L 144.134319 60.134807 
L 144.440212 61.820742 
L 144.746106 80.868806 
L 145.051999 63.368212 
L 145.663785 52.79038 
L 145.969678 59.507086 
L 146.275571 60.947955 
L 146.581464 63.110397 
L 146.887357 70.484504 
L 147.19325 62.078479 
L 147.499143 68.071611 
L 147.805037 64.618024 
L 148.11093 65.566327 
L 148.416823 64.225383 
L 148.722716 65.071039 
L 149.028609 74.04497 
L 149.334502 73.71921 
L 149.946288 91.276402 
L 150.558074 60.904452 
L 150.863968 64.628526 
L 151.169861 85.308321 
L 151.475754 87.853463 
L 151.781647 85.363268 
L 152.08754 87.910381 
L 152.393433 79.915041 
L 152.699326 61.563177 
L 153.005219 62.222378 
L 153.311112 63.893762 
L 153.617005 70.611725 
L 153.922899 99.300886 
L 154.228792 109.380944 
L 154.534685 95.809088 
L 154.840578 66.601206 
L 155.146471 61.819122 
L 155.452364 82.856004 
L 155.758257 75.256873 
L 156.06415 92.67786 
L 156.370043 94.128834 
L 156.675937 106.915952 
L 156.98183 91.414369 
L 157.287723 86.266308 
L 157.593616 105.908907 
L 158.205402 100.614908 
L 158.511295 96.957845 
L 158.817188 109.113297 
L 159.428974 80.24596 
L 159.734868 87.869248 
L 160.040761 78.248543 
L 160.652547 112.534823 
L 160.95844 122.599882 
L 161.264333 113.200161 
L 161.570226 109.661544 
L 161.876119 95.489665 
L 162.182012 120.22149 
L 162.487905 112.273222 
L 162.793799 90.704132 
L 163.099692 88.943152 
L 163.405585 110.129311 
L 163.711478 121.145579 
L 164.017371 118.151523 
L 164.323264 97.99395 
L 164.629157 96.159157 
L 164.93505 117.044272 
L 165.240943 99.69675 
L 165.546836 125.41923 
L 165.85273 137.163827 
L 166.464516 97.610221 
L 167.076302 119.314446 
L 167.382195 122.676155 
L 167.993981 149.417767 
L 168.299874 113.460134 
L 168.605767 106.590851 
L 168.911661 108.911275 
L 169.217554 121.850552 
L 169.523447 127.561339 
L 169.82934 123.248317 
L 170.135233 107.348426 
L 170.441126 131.805254 
L 170.747019 124.268588 
L 171.052912 126.68261 
L 171.358805 127.74428 
L 171.970592 136.992574 
L 172.276485 138.085465 
L 172.582378 110.164612 
L 172.888271 138.063066 
L 173.194164 139.135905 
L 173.500057 131.515183 
L 173.80595 114.936766 
L 174.111843 124.067272 
L 174.417736 142.04163 
L 174.72363 124.924945 
L 175.029523 129.005663 
L 175.335416 159.667962 
L 175.641309 134.022286 
L 175.947202 125.414353 
L 176.253095 131.62612 
L 176.558988 129.891005 
L 176.864881 129.808032 
L 177.170774 113.812469 
L 177.476667 109.297507 
L 177.782561 139.607826 
L 178.088454 124.077272 
L 178.394347 130.092772 
L 178.70024 132.439753 
L 179.312026 126.51762 
L 179.617919 140.311348 
L 179.923812 116.686068 
L 180.229705 120.613997 
L 180.535598 151.631165 
L 180.841492 138.824608 
L 181.147385 135.468693 
L 181.453278 124.223063 
L 181.759171 123.409911 
L 182.065064 126.470839 
L 182.370957 143.255219 
L 182.67685 139.504827 
L 182.982743 139.558056 
L 183.288636 139.800623 
L 183.594529 148.921628 
L 183.900423 124.801812 
L 184.206316 133.645049 
L 184.512209 146.469067 
L 184.818102 150.596186 
L 185.123995 151.640454 
L 185.429888 157.897417 
L 185.735781 139.561361 
L 186.041674 133.937134 
L 186.347567 145.313021 
L 186.65346 138.493004 
L 186.959354 152.442138 
L 187.265247 147.024637 
L 187.57114 155.088125 
L 187.877033 141.834727 
L 188.182926 141.625624 
L 188.488819 136.23276 
L 188.794712 141.867074 
L 189.100605 136.408828 
L 189.406498 138.63188 
L 190.018285 152.565843 
L 190.324178 146.312877 
L 190.630071 153.26613 
L 190.935964 149.155347 
L 191.241857 151.926372 
L 191.54775 141.283986 
L 191.853643 138.551167 
L 192.159536 137.408901 
L 192.465429 143.930427 
L 192.771323 146.149776 
L 193.077216 149.721255 
L 193.383109 160.099533 
L 193.689002 144.555086 
L 193.994895 150.788148 
L 194.300788 146.859348 
L 194.606681 153.013282 
L 194.912574 165.96 
L 195.218467 144.937217 
L 195.52436 143.440391 
L 195.830254 154.306887 
L 196.136147 147.598366 
L 196.44204 149.482352 
L 197.053826 157.526174 
L 197.359719 144.933324 
L 197.665612 145.97842 
L 197.971505 131.137495 
L 198.583291 153.350316 
L 198.889185 146.525532 
L 199.195078 152.483857 
L 199.500971 155.822877 
L 199.806864 155.533061 
L 200.112757 155.609915 
L 200.41865 154.790384 
L 200.724543 145.281337 
L 201.030436 146.409549 
L 201.336329 151.565675 
L 201.642222 154.172364 
L 201.948116 158.619618 
L 202.559902 150.972548 
L 202.865795 142.498116 
L 203.171688 143.685192 
L 203.477581 147.04675 
L 203.783474 140.841501 
L 204.089367 158.662268 
L 204.39526 136.23506 
L 204.701153 138.65145 
L 205.007047 149.872096 
L 205.31294 138.448441 
L 205.618833 158.723418 
L 205.924726 156.071377 
L 206.230619 145.508361 
L 206.536512 139.954076 
L 206.842405 154.383481 
L 207.148298 156.056705 
L 207.454191 155.600379 
L 207.760085 144.339695 
L 208.065978 142.284557 
L 208.371871 153.810527 
L 208.677764 149.006572 
L 208.983657 142.440101 
L 209.28955 155.050222 
L 209.595443 148.730848 
L 209.901336 159.401186 
L 210.207229 135.283128 
L 210.513122 126.975579 
L 210.819016 148.163269 
L 211.124909 144.813357 
L 211.430802 157.575804 
L 212.042588 150.895897 
L 212.348481 152.469331 
L 212.654374 142.295604 
L 212.960267 143.515244 
L 213.26616 134.82167 
L 213.572053 145.880003 
L 213.877947 146.994603 
L 214.18384 159.807535 
L 214.489733 145.045985 
L 214.795626 153.887043 
L 215.101519 150.162311 
L 215.407412 148.806221 
L 215.713305 153.086429 
L 216.019198 148.538631 
L 216.325091 146.392984 
L 216.630984 153.917108 
L 216.936878 149.531168 
L 217.242771 136.309515 
L 217.548664 140.651882 
L 217.854557 135.618985 
L 218.16045 147.740702 
L 219.078129 123.304361 
L 219.384022 143.292157 
L 219.689915 144.003401 
L 219.995809 138.377329 
L 220.301702 160.614186 
L 220.913488 138.03958 
L 221.219381 145.73765 
L 221.525274 146.839825 
L 221.831167 145.438501 
L 222.442953 104.945515 
L 222.748847 105.766381 
L 223.05474 137.831534 
L 223.666526 150.231326 
L 223.972419 140.19974 
L 224.278312 151.061238 
L 224.584205 140.713275 
L 224.890098 138.418246 
L 225.195991 132.271571 
L 225.501884 129.257585 
L 226.113671 152.935947 
L 226.419564 151.663416 
L 226.725457 128.943512 
L 227.03135 120.982161 
L 227.643136 146.934817 
L 227.949029 136.813358 
L 228.254922 138.312237 
L 228.560815 137.50621 
L 228.866709 134.121465 
L 229.172602 132.845253 
L 229.478495 122.389826 
L 229.784388 148.57497 
L 230.090281 149.649351 
L 230.396174 135.042908 
L 230.702067 112.983613 
L 231.00796 113.13542 
L 231.313853 107.155338 
L 231.619746 133.278552 
L 231.92564 132.378152 
L 232.231533 125.055886 
L 232.537426 131.594232 
L 232.843319 121.929888 
L 233.149212 130.796554 
L 233.455105 127.488655 
L 233.760998 126.139664 
L 234.066891 138.087435 
L 234.372784 131.425977 
L 234.678677 133.326359 
L 234.984571 117.724646 
L 235.290464 127.331721 
L 235.596357 122.272011 
L 235.90225 124.261542 
L 236.208143 125.350738 
L 236.514036 125.32811 
L 236.819929 138.04961 
L 237.431715 113.758382 
L 237.737608 118.977689 
L 238.043502 105.853791 
L 238.349395 112.260572 
L 238.655288 102.750151 
L 238.961181 114.47788 
L 239.267074 117.442673 
L 239.572967 107.8617 
L 239.87886 121.850769 
L 240.184753 123.247667 
L 240.490646 124.124144 
L 240.79654 114.504389 
L 241.102433 128.266723 
L 241.408326 125.132043 
L 241.714219 124.006126 
L 242.020112 115.796803 
L 242.326005 121.350174 
L 242.631898 117.285522 
L 242.937791 110.640127 
L 243.243684 96.067869 
L 244.161364 121.152872 
L 244.467257 101.174487 
L 244.77315 107.535795 
L 245.079043 105.660997 
L 245.384936 106.068427 
L 245.690829 107.323325 
L 245.996722 112.261473 
L 246.302615 98.430628 
L 246.608508 97.289565 
L 246.914402 121.114358 
L 247.526188 107.351475 
L 247.832081 104.066481 
L 248.137974 106.140097 
L 248.443867 114.952946 
L 248.74976 97.456545 
L 249.055653 97.572011 
L 249.361546 93.847671 
L 249.667439 88.566752 
L 249.973333 91.267284 
L 250.279226 109.116822 
L 250.585119 114.695 
L 250.891012 104.140401 
L 251.196905 109.202437 
L 251.502798 89.143404 
L 252.114584 74.572685 
L 252.72637 106.372497 
L 253.032264 85.468027 
L 253.338157 93.263387 
L 253.64405 71.794872 
L 253.949943 74.423788 
L 254.255836 87.79368 
L 254.561729 85.0098 
L 254.867622 94.868331 
L 255.173515 88.882556 
L 255.479408 93.71952 
L 255.785302 69.323982 
L 256.091195 80.806066 
L 256.397088 77.053956 
L 256.702981 69.068789 
L 257.008874 72.506869 
L 257.314767 80.938511 
L 257.62066 67.029096 
L 257.926553 67.373511 
L 258.232446 83.045369 
L 258.538339 77.27621 
L 258.844233 75.195001 
L 259.150126 72.03908 
L 259.456019 75.453178 
L 259.761912 75.496693 
L 260.067805 56.745255 
L 260.373698 57.516338 
L 260.985484 100.693317 
L 261.59727 54.527245 
L 261.903164 58.472843 
L 262.209057 58.844723 
L 262.51495 67.860091 
L 262.820843 63.681367 
L 263.126736 54.807286 
L 263.432629 52.740979 
L 263.738522 54.441781 
L 264.044415 54.062569 
L 264.350308 65.335825 
L 264.656201 55.031248 
L 264.962095 56.11766 
L 265.267988 70.242697 
L 265.573881 57.735051 
L 265.879774 36.630417 
L 266.185667 55.051473 
L 266.49156 56.763198 
L 266.797453 70.673902 
L 267.103346 69.958661 
L 267.409239 52.6726 
L 267.715132 52.145804 
L 268.021026 44.644789 
L 268.326919 53.045303 
L 268.632812 58.335237 
L 268.938705 57.099418 
L 269.244598 49.622681 
L 269.550491 51.827154 
L 269.856384 48.091165 
L 270.162277 40.279512 
L 270.46817 38.050904 
L 270.774063 47.955993 
L 271.079957 67.46607 
L 271.691743 45.904367 
L 271.997636 46.27315 
L 272.303529 50.63786 
L 272.609422 40.722504 
L 272.915315 54.392207 
L 273.221208 49.534238 
L 273.527101 38.875217 
L 273.832995 59.907826 
L 274.138888 60.641885 
L 274.444781 41.007876 
L 274.750674 36.153866 
L 275.056567 55.333165 
L 275.36246 52.403291 
L 275.668353 54.062019 
L 275.974246 39.159355 
L 276.280139 42.111806 
L 276.586032 28.62594 
L 276.891926 53.104094 
L 277.197819 53.621319 
L 277.503712 46.328169 
L 277.809605 29.59422 
L 278.421391 61.386234 
L 278.727284 33.475714 
L 279.033177 37.223903 
L 279.644963 52.36712 
L 279.950857 51.121041 
L 280.25675 48.191258 
L 280.562643 41.176261 
L 280.868536 37.453438 
L 281.174429 42.099398 
L 281.480322 52.424589 
L 281.786215 47.450716 
L 282.092108 46.829786 
L 282.398001 22.729034 
L 282.703894 42.139852 
L 283.009788 44.814487 
L 283.315681 46.107381 
L 283.621574 40.195737 
L 283.927467 25.171175 
L 284.23336 22.952008 
L 284.539253 40.636776 
L 284.845146 26.497014 
L 285.151039 30.712563 
L 285.456932 47.10373 
L 285.762825 42.400989 
L 286.068719 43.97768 
L 286.374612 53.183083 
L 286.680505 52.170853 
L 286.986398 26.082692 
L 287.292291 24.487747 
L 287.598184 38.101241 
L 287.904077 32.833957 
L 288.20997 42.884941 
L 288.515863 43.321289 
L 288.821757 46.477325 
L 289.12765 46.763902 
L 289.433543 25.542163 
L 289.739436 35.645588 
L 290.045329 37.254868 
L 290.351222 24.718656 
L 290.657115 24.813452 
L 291.268901 42.024666 
L 291.574794 23.890649 
L 291.880688 34.124959 
L 292.186581 38.273238 
L 292.492474 22.792718 
L 293.410153 34.510343 
L 293.716046 32.384145 
L 294.021939 36.45638 
L 294.327832 56.83683 
L 294.633725 34.273098 
L 294.939619 20.741664 
L 295.245512 33.505428 
L 295.551405 25.77473 
L 295.857298 22.768227 
L 296.163191 32.869297 
L 296.469084 29.216992 
L 296.774977 21.779718 
L 297.08087 22.920762 
L 297.386763 30.740388 
L 297.692656 45.073658 
L 297.99855 39.872566 
L 298.304443 32.209805 
L 298.610336 39.830956 
L 298.916229 22.001761 
L 299.222122 14.76 
L 299.528015 23.218902 
L 299.833908 43.916001 
L 300.139801 26.901435 
L 300.445694 24.778949 
L 301.057481 47.265268 
L 301.363374 26.093536 
L 301.669267 25.381201 
L 301.97516 36.985246 
L 302.586946 16.766945 
L 302.892839 30.144546 
L 303.198732 26.144722 
L 303.504625 26.76719 
L 303.810519 20.255139 
L 304.116412 32.779758 
L 304.422305 32.970455 
L 304.728198 46.33311 
L 305.339984 22.636875 
L 305.645877 18.712766 
L 305.95177 34.519273 
L 306.257663 36.010526 
L 306.563556 43.646336 
L 306.86945 19.841519 
L 307.175343 43.818476 
L 307.481236 53.048733 
L 307.787129 35.681603 
L 308.093022 40.750792 
L 308.398915 54.517154 
L 308.704808 26.814547 
L 309.010701 19.448687 
L 309.316594 47.003442 
L 309.928381 22.63529 
L 310.540167 41.878641 
L 310.84606 30.847319 
L 311.151953 31.58201 
L 311.457846 29.880879 
L 312.069632 58.618964 
L 312.375525 24.726685 
L 312.681418 25.419926 
L 313.293205 40.394681 
L 313.599098 34.194304 
L 313.904991 54.265813 
L 314.516777 32.056231 
L 314.82267 40.50881 
L 315.128563 43.566658 
L 315.434456 30.358357 
L 315.740349 31.410065 
L 316.046243 31.828458 
L 316.352136 29.536192 
L 316.658029 35.223146 
L 316.963922 46.187938 
L 317.269815 47.054818 
L 317.575708 28.955898 
L 318.187494 40.892612 
L 318.493387 48.413518 
L 318.79928 46.026092 
L 319.105174 28.802714 
L 319.411067 27.915154 
L 319.71696 40.37831 
L 320.022853 38.172231 
L 320.328746 42.469346 
L 320.634639 41.082738 
L 320.940532 51.025734 
L 321.246425 36.094374 
L 321.552318 55.824886 
L 321.858212 49.521281 
L 322.164105 36.971422 
L 322.469998 41.894405 
L 322.775891 42.916842 
L 323.081784 47.520481 
L 323.387677 40.036057 
L 323.69357 43.865222 
L 323.999463 54.31223 
L 324.305356 20.753097 
L 324.611249 21.02297 
L 324.917143 47.222194 
L 325.223036 58.29568 
L 325.528929 31.069657 
L 325.834822 43.848835 
L 326.140715 41.312062 
L 326.446608 42.833513 
L 326.752501 40.363205 
L 327.058394 40.385543 
L 327.364287 48.210773 
L 327.67018 66.928642 
L 328.281967 46.59213 
L 328.58786 47.812107 
L 328.893753 52.69189 
L 329.199646 55.185957 
L 329.505539 58.992377 
L 329.811432 35.093591 
L 330.117325 41.326574 
L 330.423218 59.358748 
L 330.729111 42.705283 
L 331.035005 39.905683 
L 331.340898 46.083432 
L 331.646791 57.458643 
L 331.952684 53.227421 
L 332.258577 41.573974 
L 332.56447 50.759663 
L 332.870363 52.34528 
L 333.176256 56.689808 
L 333.482149 63.891163 
L 333.788042 67.040201 
L 334.093936 44.314675 
L 334.399829 44.789663 
L 334.705722 58.586847 
L 335.011615 57.444391 
L 335.929294 75.649432 
L 336.235187 91.673494 
L 336.54108 77.221981 
L 336.846974 43.529864 
L 337.152867 51.791784 
L 337.45876 72.736348 
L 337.764653 83.441265 
L 338.070546 51.235227 
L 338.376439 45.481895 
L 338.988225 78.372996 
L 339.294118 67.973174 
L 339.600011 49.924654 
L 339.905905 46.944764 
L 340.517691 87.098977 
L 340.823584 81.161458 
L 341.129477 72.908452 
L 341.43537 87.392194 
L 341.741263 91.540385 
L 342.047156 79.322476 
L 342.658942 69.299758 
L 342.964836 87.422271 
L 343.270729 93.364796 
L 343.882515 79.612507 
L 344.188408 84.117999 
L 344.494301 98.465348 
L 344.800194 80.209836 
L 345.106087 82.660762 
L 345.41198 77.368429 
L 345.717873 83.434966 
L 346.023767 95.508599 
L 346.32966 84.668794 
L 346.635553 83.978112 
L 346.941446 91.471076 
L 347.247339 78.016088 
L 347.553232 85.547344 
L 347.859125 85.391886 
L 348.165018 88.737956 
L 348.470911 88.301363 
L 348.776804 75.171387 
L 349.388591 115.027522 
L 349.694484 100.437056 
L 350.000377 91.155149 
L 350.30627 103.151801 
L 350.612163 81.506156 
L 350.918056 90.495589 
L 351.223949 104.620423 
L 351.529842 109.302803 
L 352.141629 93.275973 
L 352.447522 92.948338 
L 352.753415 93.069854 
L 353.059308 103.855884 
L 353.365201 82.994704 
L 353.671094 84.463688 
L 353.976987 89.435611 
L 354.28288 112.557174 
L 354.588773 106.902641 
L 354.894667 106.337819 
L 355.20056 92.435538 
L 355.506453 108.149395 
L 355.812346 112.914416 
L 356.118239 111.779972 
L 356.730025 104.656819 
L 357.035918 101.743586 
L 357.341811 97.213272 
L 357.647704 94.655628 
L 357.953598 94.23743 
L 358.259491 98.856816 
L 358.565384 116.185257 
L 358.871277 122.426668 
L 359.17717 112.795207 
L 359.483063 106.899147 
L 359.788956 130.593895 
L 360.094849 136.591457 
L 360.706635 116.366833 
L 361.012529 120.276512 
L 361.318422 127.462185 
L 361.624315 117.332732 
L 361.930208 118.949288 
L 362.236101 138.510228 
L 362.847887 123.763866 
L 363.15378 116.496289 
L 363.459673 120.035106 
L 363.765566 130.914243 
L 364.07146 115.8704 
L 364.377353 109.824333 
L 364.989139 134.421484 
L 365.295032 130.575689 
L 365.600925 119.753211 
L 365.906818 128.968652 
L 365.906818 128.968652 
" style="fill:none;stroke:#1f77b4;stroke-linecap:square;stroke-width:1.5;"/>
   </g>
   <g id="line2d_24">
    <path clip-path="url(#p5ff43f0ba1)" d="M 245.079043 105.660997 
L 245.690829 107.630003 
L 246.914402 114.032286 
L 248.137974 120.024846 
L 249.055653 123.261257 
L 249.667439 124.661633 
L 250.279226 125.553441 
L 250.891012 126.078137 
L 251.808691 126.45546 
L 253.032264 126.615842 
L 256.091195 126.661662 
L 365.906818 126.662446 
L 365.906818 126.662446 
" style="fill:none;stroke:#bf00bf;stroke-dasharray:5.55,2.4;stroke-dashoffset:0;stroke-width:1.5;"/>
   </g>
   <g id="patch_3">
    <path d="M 46.325 173.52 
L 46.325 7.2 
" style="fill:none;stroke:#000000;stroke-linecap:square;stroke-linejoin:miter;stroke-width:0.8;"/>
   </g>
   <g id="patch_4">
    <path d="M 381.125 173.52 
L 381.125 7.2 
" style="fill:none;stroke:#000000;stroke-linecap:square;stroke-linejoin:miter;stroke-width:0.8;"/>
   </g>
   <g id="patch_5">
    <path d="M 46.325 173.52 
L 381.125 173.52 
" style="fill:none;stroke:#000000;stroke-linecap:square;stroke-linejoin:miter;stroke-width:0.8;"/>
   </g>
   <g id="patch_6">
    <path d="M 46.325 7.2 
L 381.125 7.2 
" style="fill:none;stroke:#000000;stroke-linecap:square;stroke-linejoin:miter;stroke-width:0.8;"/>
   </g>
   <g id="legend_1">
    <g id="patch_7">
     <path d="M 267.125 41.7 
L 374.125 41.7 
Q 376.125 41.7 376.125 39.7 
L 376.125 14.2 
Q 376.125 12.2 374.125 12.2 
L 267.125 12.2 
Q 265.125 12.2 265.125 14.2 
L 265.125 39.7 
Q 265.125 41.7 267.125 41.7 
z
" style="fill:#ffffff;opacity:0.8;stroke:#cccccc;stroke-linejoin:miter;"/>
    </g>
    <g id="line2d_25">
     <path d="M 269.125 19.7 
L 289.125 19.7 
" style="fill:none;stroke:#1f77b4;stroke-linecap:square;stroke-width:1.5;"/>
    </g>
    <g id="line2d_26"/>
    <g id="text_14">
     <!-- 1-step preds -->
     <g transform="translate(297.125 23.2)scale(0.1 -0.1)">
      <defs>
       <path d="M 2750 900 
Q 2750 500 2437 287 
Q 2125 75 1650 75 
Q 1050 75 725 312 
Q 400 550 400 1000 
L 900 1000 
Q 900 700 1112 600 
Q 1325 500 1625 500 
Q 1925 500 2075 612 
Q 2225 725 2225 900 
Q 2225 1025 2100 1150 
Q 1975 1275 1475 1350 
Q 900 1425 687 1637 
Q 475 1850 475 2200 
Q 475 2500 762 2737 
Q 1050 2975 1600 2975 
Q 2100 2975 2387 2750 
Q 2675 2525 2675 2150 
L 2175 2150 
Q 2175 2375 2012 2462 
Q 1850 2550 1600 2550 
Q 1275 2550 1137 2437 
Q 1000 2325 1000 2175 
Q 1000 2000 1125 1900 
Q 1250 1800 1650 1750 
Q 2300 1650 2525 1437 
Q 2750 1225 2750 900 
z
" id="SimHei-73" transform="scale(0.015625)"/>
       <path d="M 2825 1525 
Q 2825 800 2475 425 
Q 2125 50 1625 50 
Q 1350 50 1150 162 
Q 950 275 800 500 
L 800 -800 
L 300 -800 
L 300 2925 
L 800 2925 
L 800 2550 
Q 950 2775 1150 2875 
Q 1350 2975 1625 2975 
Q 2125 2975 2475 2612 
Q 2825 2250 2825 1525 
z
M 2275 1525 
Q 2275 2000 2087 2262 
Q 1900 2525 1525 2525 
Q 1225 2525 1012 2262 
Q 800 2000 800 1525 
Q 800 1050 1012 775 
Q 1225 500 1525 500 
Q 1900 500 2087 775 
Q 2275 1050 2275 1525 
z
" id="SimHei-70" transform="scale(0.015625)"/>
       <path id="SimHei-20" transform="scale(0.015625)"/>
       <path d="M 2500 2425 
Q 2025 2500 1700 2287 
Q 1375 2075 1150 1550 
L 1150 125 
L 650 125 
L 650 2925 
L 1150 2925 
L 1150 2200 
Q 1375 2600 1712 2787 
Q 2050 2975 2500 2975 
L 2500 2425 
z
" id="SimHei-72" transform="scale(0.015625)"/>
       <path d="M 2750 125 
L 2250 125 
L 2250 500 
Q 2100 275 1900 175 
Q 1700 75 1425 75 
Q 925 75 575 437 
Q 225 800 225 1525 
Q 225 2250 575 2625 
Q 925 3000 1425 3000 
Q 1700 3000 1900 2887 
Q 2100 2775 2250 2550 
L 2250 4400 
L 2750 4400 
L 2750 125 
z
M 2250 1525 
Q 2250 2000 2037 2275 
Q 1825 2550 1525 2550 
Q 1150 2550 962 2275 
Q 775 2000 775 1525 
Q 775 1050 962 787 
Q 1150 525 1525 525 
Q 1825 525 2037 787 
Q 2250 1050 2250 1525 
z
" id="SimHei-64" transform="scale(0.015625)"/>
      </defs>
      <use xlink:href="#SimHei-31"/>
      <use x="50" xlink:href="#SimHei-2d"/>
      <use x="100" xlink:href="#SimHei-73"/>
      <use x="150" xlink:href="#SimHei-74"/>
      <use x="200" xlink:href="#SimHei-65"/>
      <use x="250" xlink:href="#SimHei-70"/>
      <use x="300" xlink:href="#SimHei-20"/>
      <use x="350" xlink:href="#SimHei-70"/>
      <use x="400" xlink:href="#SimHei-72"/>
      <use x="450" xlink:href="#SimHei-65"/>
      <use x="500" xlink:href="#SimHei-64"/>
      <use x="550" xlink:href="#SimHei-73"/>
     </g>
    </g>
    <g id="line2d_27">
     <path d="M 269.125 32.95 
L 289.125 32.95 
" style="fill:none;stroke:#bf00bf;stroke-dasharray:5.55,2.4;stroke-dashoffset:0;stroke-width:1.5;"/>
    </g>
    <g id="line2d_28"/>
    <g id="text_15">
     <!-- multistep preds -->
     <g transform="translate(297.125 36.45)scale(0.1 -0.1)">
      <defs>
       <path d="M 2800 125 
L 2300 125 
L 2300 650 
Q 2100 375 1862 225 
Q 1625 75 1250 75 
Q 800 75 575 325 
Q 350 575 350 950 
L 350 2925 
L 850 2925 
L 850 1125 
Q 850 825 1000 650 
Q 1150 475 1400 475 
Q 1725 475 2012 812 
Q 2300 1150 2300 1650 
L 2300 2925 
L 2800 2925 
L 2800 125 
z
" id="SimHei-75" transform="scale(0.015625)"/>
       <path d="M 1825 125 
L 1325 125 
L 1325 4400 
L 1825 4400 
L 1825 125 
z
" id="SimHei-6c" transform="scale(0.015625)"/>
      </defs>
      <use xlink:href="#SimHei-6d"/>
      <use x="50" xlink:href="#SimHei-75"/>
      <use x="100" xlink:href="#SimHei-6c"/>
      <use x="150" xlink:href="#SimHei-74"/>
      <use x="200" xlink:href="#SimHei-69"/>
      <use x="250" xlink:href="#SimHei-73"/>
      <use x="300" xlink:href="#SimHei-74"/>
      <use x="350" xlink:href="#SimHei-65"/>
      <use x="400" xlink:href="#SimHei-70"/>
      <use x="450" xlink:href="#SimHei-20"/>
      <use x="500" xlink:href="#SimHei-70"/>
      <use x="550" xlink:href="#SimHei-72"/>
      <use x="600" xlink:href="#SimHei-65"/>
      <use x="650" xlink:href="#SimHei-64"/>
      <use x="700" xlink:href="#SimHei-73"/>
     </g>
    </g>
   </g>
  </g>
 </g>
 <defs>
  <clipPath id="p5ff43f0ba1">
   <rect height="166.32" width="334.8" x="46.325" y="7.2"/>
  </clipPath>
 </defs>
</svg>
