<?xml version="1.0" encoding="utf-8" standalone="no"?>
<!DOCTYPE svg PUBLIC "-//W3C//DTD SVG 1.1//EN"
  "http://www.w3.org/Graphics/SVG/1.1/DTD/svg11.dtd">
<svg height="207.97pt" version="1.1" viewBox="0 0 388.325 207.97" width="388.325pt" xmlns="http://www.w3.org/2000/svg" xmlns:xlink="http://www.w3.org/1999/xlink">
 <metadata>
  <rdf:RDF xmlns:cc="http://creativecommons.org/ns#" xmlns:dc="http://purl.org/dc/elements/1.1/" xmlns:rdf="http://www.w3.org/1999/02/22-rdf-syntax-ns#">
   <cc:Work>
    <dc:type rdf:resource="http://purl.org/dc/dcmitype/StillImage"/>
    <dc:date>2023-10-12T06:58:02.336106</dc:date>
    <dc:format>image/svg+xml</dc:format>
    <dc:creator>
     <cc:Agent>
      <dc:title>Matplotlib v3.4.0, https://matplotlib.org/</dc:title>
     </cc:Agent>
    </dc:creator>
   </cc:Work>
  </rdf:RDF>
 </metadata>
 <defs>
  <style type="text/css">*{stroke-linecap:butt;stroke-linejoin:round;}</style>
 </defs>
 <g id="figure_1">
  <g id="patch_1">
   <path d="M 0 207.97 
L 388.325 207.97 
L 388.325 0 
L 0 0 
z
" style="fill:#ffffff;"/>
  </g>
  <g id="axes_1">
   <g id="patch_2">
    <path d="M 46.325 173.52 
L 381.125 173.52 
L 381.125 7.2 
L 46.325 7.2 
z
" style="fill:#ffffff;"/>
   </g>
   <g id="matplotlib.axis_1">
    <g id="xtick_1">
     <g id="line2d_1">
      <path clip-path="url(#p8b27d97e9c)" d="M 60.013716 173.52 
L 60.013716 7.2 
" style="fill:none;stroke:#b0b0b0;stroke-linecap:square;stroke-width:0.8;"/>
     </g>
     <g id="line2d_2">
      <defs>
       <path d="M 0 0 
L 0 3.5 
" id="m6662fe58d6" style="stroke:#000000;stroke-width:0.8;"/>
      </defs>
      <g>
       <use style="stroke:#000000;stroke-width:0.8;" x="60.013716" xlink:href="#m6662fe58d6" y="173.52"/>
      </g>
     </g>
     <g id="text_1">
      <!-- 0 -->
      <g transform="translate(57.513716 187.395)scale(0.1 -0.1)">
       <defs>
        <path d="M 225 2537 
Q 250 3200 412 3587 
Q 575 3975 875 4225 
Q 1175 4475 1612 4475 
Q 2050 4475 2375 4112 
Q 2700 3750 2800 3200 
Q 2900 2650 2862 1937 
Q 2825 1225 2612 775 
Q 2400 325 1975 150 
Q 1550 -25 1125 187 
Q 700 400 525 750 
Q 350 1100 275 1487 
Q 200 1875 225 2537 
z
M 750 2687 
Q 675 2000 800 1462 
Q 925 925 1212 700 
Q 1500 475 1800 612 
Q 2100 750 2237 1162 
Q 2375 1575 2375 2062 
Q 2375 2550 2337 2950 
Q 2300 3350 2112 3675 
Q 1925 4000 1612 4012 
Q 1300 4025 1062 3700 
Q 825 3375 750 2687 
z
" id="SimHei-30" transform="scale(0.015625)"/>
       </defs>
       <use xlink:href="#SimHei-30"/>
      </g>
     </g>
    </g>
    <g id="xtick_2">
     <g id="line2d_3">
      <path clip-path="url(#p8b27d97e9c)" d="M 121.192337 173.52 
L 121.192337 7.2 
" style="fill:none;stroke:#b0b0b0;stroke-linecap:square;stroke-width:0.8;"/>
     </g>
     <g id="line2d_4">
      <g>
       <use style="stroke:#000000;stroke-width:0.8;" x="121.192337" xlink:href="#m6662fe58d6" y="173.52"/>
      </g>
     </g>
     <g id="text_2">
      <!-- 200 -->
      <g transform="translate(113.692337 187.395)scale(0.1 -0.1)">
       <defs>
        <path d="M 300 250 
Q 325 625 650 925 
Q 975 1225 1475 1862 
Q 1975 2500 2125 2850 
Q 2275 3200 2237 3450 
Q 2200 3700 2000 3862 
Q 1800 4025 1537 4000 
Q 1275 3975 1037 3800 
Q 800 3625 675 3275 
L 200 3350 
Q 400 3925 712 4187 
Q 1025 4450 1450 4475 
Q 1700 4500 1900 4462 
Q 2100 4425 2312 4287 
Q 2525 4150 2662 3875 
Q 2800 3600 2762 3212 
Q 2725 2825 2375 2287 
Q 2025 1750 1025 600 
L 2825 600 
L 2825 150 
L 300 150 
L 300 250 
z
" id="SimHei-32" transform="scale(0.015625)"/>
       </defs>
       <use xlink:href="#SimHei-32"/>
       <use x="50" xlink:href="#SimHei-30"/>
       <use x="100" xlink:href="#SimHei-30"/>
      </g>
     </g>
    </g>
    <g id="xtick_3">
     <g id="line2d_5">
      <path clip-path="url(#p8b27d97e9c)" d="M 182.370957 173.52 
L 182.370957 7.2 
" style="fill:none;stroke:#b0b0b0;stroke-linecap:square;stroke-width:0.8;"/>
     </g>
     <g id="line2d_6">
      <g>
       <use style="stroke:#000000;stroke-width:0.8;" x="182.370957" xlink:href="#m6662fe58d6" y="173.52"/>
      </g>
     </g>
     <g id="text_3">
      <!-- 400 -->
      <g transform="translate(174.870957 187.395)scale(0.1 -0.1)">
       <defs>
        <path d="M 2000 1100 
L 75 1100 
L 75 1525 
L 2100 4450 
L 2475 4450 
L 2475 1525 
L 3075 1525 
L 3075 1100 
L 2475 1100 
L 2475 150 
L 2000 150 
L 2000 1100 
z
M 2000 1525 
L 2000 3500 
L 600 1525 
L 2000 1525 
z
" id="SimHei-34" transform="scale(0.015625)"/>
       </defs>
       <use xlink:href="#SimHei-34"/>
       <use x="50" xlink:href="#SimHei-30"/>
       <use x="100" xlink:href="#SimHei-30"/>
      </g>
     </g>
    </g>
    <g id="xtick_4">
     <g id="line2d_7">
      <path clip-path="url(#p8b27d97e9c)" d="M 243.549577 173.52 
L 243.549577 7.2 
" style="fill:none;stroke:#b0b0b0;stroke-linecap:square;stroke-width:0.8;"/>
     </g>
     <g id="line2d_8">
      <g>
       <use style="stroke:#000000;stroke-width:0.8;" x="243.549577" xlink:href="#m6662fe58d6" y="173.52"/>
      </g>
     </g>
     <g id="text_4">
      <!-- 600 -->
      <g transform="translate(236.049577 187.395)scale(0.1 -0.1)">
       <defs>
        <path d="M 250 1612 
Q 275 1975 387 2225 
Q 500 2475 725 2850 
L 1750 4450 
L 2325 4450 
L 1275 2800 
Q 1950 2975 2350 2750 
Q 2750 2525 2887 2237 
Q 3025 1950 3037 1612 
Q 3050 1275 2937 950 
Q 2825 625 2537 362 
Q 2250 100 1737 75 
Q 1225 50 862 262 
Q 500 475 362 862 
Q 225 1250 250 1612 
z
M 1025 787 
Q 1250 550 1625 525 
Q 2000 500 2250 775 
Q 2500 1050 2500 1575 
Q 2500 2100 2187 2300 
Q 1875 2500 1487 2450 
Q 1100 2400 925 2075 
Q 750 1750 775 1387 
Q 800 1025 1025 787 
z
" id="SimHei-36" transform="scale(0.015625)"/>
       </defs>
       <use xlink:href="#SimHei-36"/>
       <use x="50" xlink:href="#SimHei-30"/>
       <use x="100" xlink:href="#SimHei-30"/>
      </g>
     </g>
    </g>
    <g id="xtick_5">
     <g id="line2d_9">
      <path clip-path="url(#p8b27d97e9c)" d="M 304.728198 173.52 
L 304.728198 7.2 
" style="fill:none;stroke:#b0b0b0;stroke-linecap:square;stroke-width:0.8;"/>
     </g>
     <g id="line2d_10">
      <g>
       <use style="stroke:#000000;stroke-width:0.8;" x="304.728198" xlink:href="#m6662fe58d6" y="173.52"/>
      </g>
     </g>
     <g id="text_5">
      <!-- 800 -->
      <g transform="translate(297.228198 187.395)scale(0.1 -0.1)">
       <defs>
        <path d="M 175 1375 
Q 175 1675 325 1962 
Q 475 2250 825 2425 
Q 525 2600 425 2812 
Q 325 3025 312 3300 
Q 300 3575 387 3775 
Q 475 3975 650 4150 
Q 825 4325 1037 4387 
Q 1250 4450 1500 4450 
Q 1750 4450 1950 4400 
Q 2150 4350 2375 4187 
Q 2600 4025 2700 3725 
Q 2800 3425 2687 3025 
Q 2575 2625 2100 2400 
Q 2525 2275 2700 2012 
Q 2875 1750 2875 1375 
Q 2875 1000 2762 775 
Q 2650 550 2512 400 
Q 2375 250 2137 162 
Q 1900 75 1537 75 
Q 1175 75 912 162 
Q 650 250 475 425 
Q 300 600 237 837 
Q 175 1075 175 1375 
z
M 687 1400 
Q 675 1100 787 875 
Q 900 650 1200 587 
Q 1500 525 1825 600 
Q 2150 675 2275 950 
Q 2400 1225 2362 1500 
Q 2325 1775 2050 1962 
Q 1775 2150 1450 2125 
Q 1125 2100 912 1900 
Q 700 1700 687 1400 
z
M 775 3350 
Q 775 3100 950 2875 
Q 1125 2650 1500 2650 
Q 1875 2650 2062 2875 
Q 2250 3100 2237 3412 
Q 2225 3725 2012 3875 
Q 1800 4025 1437 4000 
Q 1075 3975 925 3787 
Q 775 3600 775 3350 
z
" id="SimHei-38" transform="scale(0.015625)"/>
       </defs>
       <use xlink:href="#SimHei-38"/>
       <use x="50" xlink:href="#SimHei-30"/>
       <use x="100" xlink:href="#SimHei-30"/>
      </g>
     </g>
    </g>
    <g id="xtick_6">
     <g id="line2d_11">
      <path clip-path="url(#p8b27d97e9c)" d="M 365.906818 173.52 
L 365.906818 7.2 
" style="fill:none;stroke:#b0b0b0;stroke-linecap:square;stroke-width:0.8;"/>
     </g>
     <g id="line2d_12">
      <g>
       <use style="stroke:#000000;stroke-width:0.8;" x="365.906818" xlink:href="#m6662fe58d6" y="173.52"/>
      </g>
     </g>
     <g id="text_6">
      <!-- 1000 -->
      <g transform="translate(355.906818 187.395)scale(0.1 -0.1)">
       <defs>
        <path d="M 1400 3600 
Q 1075 3275 575 2975 
L 575 3450 
Q 1200 3875 1600 4450 
L 1900 4450 
L 1900 150 
L 1400 150 
L 1400 3600 
z
" id="SimHei-31" transform="scale(0.015625)"/>
       </defs>
       <use xlink:href="#SimHei-31"/>
       <use x="50" xlink:href="#SimHei-30"/>
       <use x="100" xlink:href="#SimHei-30"/>
       <use x="150" xlink:href="#SimHei-30"/>
      </g>
     </g>
    </g>
    <g id="text_7">
     <!-- time -->
     <g transform="translate(203.725 199.52)scale(0.1 -0.1)">
      <defs>
       <path d="M 2750 200 
Q 2625 150 2462 112 
Q 2300 75 2025 75 
Q 1575 75 1300 325 
Q 1025 575 1025 1025 
L 1025 2525 
L 175 2525 
L 175 2925 
L 1025 2925 
L 1025 3900 
L 1525 3900 
L 1525 2925 
L 2550 2925 
L 2550 2525 
L 1525 2525 
L 1525 1000 
Q 1525 800 1625 662 
Q 1725 525 2000 525 
Q 2275 525 2450 575 
Q 2625 625 2750 700 
L 2750 200 
z
" id="SimHei-74" transform="scale(0.015625)"/>
       <path d="M 1800 3725 
L 1300 3725 
L 1300 4375 
L 1800 4375 
L 1800 3725 
z
M 1800 125 
L 1300 125 
L 1300 2925 
L 1800 2925 
L 1800 125 
z
" id="SimHei-69" transform="scale(0.015625)"/>
       <path d="M 3050 125 
L 2550 125 
L 2550 2150 
Q 2550 2300 2500 2400 
Q 2450 2500 2300 2500 
Q 2125 2500 1975 2312 
Q 1825 2125 1825 1825 
L 1825 125 
L 1325 125 
L 1325 2150 
Q 1325 2300 1275 2400 
Q 1225 2500 1075 2500 
Q 900 2500 750 2312 
Q 600 2125 600 1825 
L 600 125 
L 100 125 
L 100 2925 
L 600 2925 
L 600 2550 
Q 725 2750 900 2862 
Q 1075 2975 1275 2975 
Q 1475 2975 1612 2862 
Q 1750 2750 1800 2550 
Q 1925 2750 2087 2862 
Q 2250 2975 2450 2975 
Q 2750 2975 2900 2812 
Q 3050 2650 3050 2350 
L 3050 125 
z
" id="SimHei-6d" transform="scale(0.015625)"/>
       <path d="M 2850 1075 
Q 2800 625 2450 350 
Q 2100 75 1625 75 
Q 1025 75 637 462 
Q 250 850 250 1525 
Q 250 2200 637 2587 
Q 1025 2975 1625 2975 
Q 2150 2975 2487 2637 
Q 2825 2300 2825 1525 
L 800 1525 
Q 800 975 1037 750 
Q 1275 525 1625 525 
Q 1900 525 2075 662 
Q 2250 800 2300 1075 
L 2850 1075 
z
M 2250 1925 
Q 2200 2275 2025 2412 
Q 1850 2550 1575 2550 
Q 1325 2550 1125 2412 
Q 925 2275 825 1925 
L 2250 1925 
z
" id="SimHei-65" transform="scale(0.015625)"/>
      </defs>
      <use xlink:href="#SimHei-74"/>
      <use x="50" xlink:href="#SimHei-69"/>
      <use x="100" xlink:href="#SimHei-6d"/>
      <use x="150" xlink:href="#SimHei-65"/>
     </g>
    </g>
   </g>
   <g id="matplotlib.axis_2">
    <g id="ytick_1">
     <g id="line2d_13">
      <path clip-path="url(#p8b27d97e9c)" d="M 46.325 170.634384 
L 381.125 170.634384 
" style="fill:none;stroke:#b0b0b0;stroke-linecap:square;stroke-width:0.8;"/>
     </g>
     <g id="line2d_14">
      <defs>
       <path d="M 0 0 
L -3.5 0 
" id="m21327ced60" style="stroke:#000000;stroke-width:0.8;"/>
      </defs>
      <g>
       <use style="stroke:#000000;stroke-width:0.8;" x="46.325" xlink:href="#m21327ced60" y="170.634384"/>
      </g>
     </g>
     <g id="text_8">
      <!-- -1.5 -->
      <g transform="translate(19.325 174.071884)scale(0.1 -0.1)">
       <defs>
        <path d="M 2975 2125 
L 125 2125 
L 125 2525 
L 2975 2525 
L 2975 2125 
z
" id="SimHei-2d" transform="scale(0.015625)"/>
        <path d="M 1075 125 
L 500 125 
L 500 675 
L 1075 675 
L 1075 125 
z
" id="SimHei-2e" transform="scale(0.015625)"/>
        <path d="M 550 1325 
Q 725 650 1150 575 
Q 1575 500 1837 662 
Q 2100 825 2212 1087 
Q 2325 1350 2312 1675 
Q 2300 2000 2137 2225 
Q 1975 2450 1725 2525 
Q 1475 2600 1162 2525 
Q 850 2450 650 2175 
L 225 2225 
Q 275 2375 700 4375 
L 2675 4375 
L 2675 3925 
L 1075 3925 
Q 950 3250 825 2850 
Q 1200 3025 1525 3012 
Q 1850 3000 2150 2862 
Q 2450 2725 2587 2487 
Q 2725 2250 2787 2012 
Q 2850 1775 2837 1500 
Q 2825 1225 2725 937 
Q 2625 650 2425 462 
Q 2225 275 1937 162 
Q 1650 50 1275 75 
Q 900 100 562 350 
Q 225 600 100 1200 
L 550 1325 
z
" id="SimHei-35" transform="scale(0.015625)"/>
       </defs>
       <use xlink:href="#SimHei-2d"/>
       <use x="50" xlink:href="#SimHei-31"/>
       <use x="100" xlink:href="#SimHei-2e"/>
       <use x="150" xlink:href="#SimHei-35"/>
      </g>
     </g>
    </g>
    <g id="ytick_2">
     <g id="line2d_15">
      <path clip-path="url(#p8b27d97e9c)" d="M 46.325 144.529986 
L 381.125 144.529986 
" style="fill:none;stroke:#b0b0b0;stroke-linecap:square;stroke-width:0.8;"/>
     </g>
     <g id="line2d_16">
      <g>
       <use style="stroke:#000000;stroke-width:0.8;" x="46.325" xlink:href="#m21327ced60" y="144.529986"/>
      </g>
     </g>
     <g id="text_9">
      <!-- -1.0 -->
      <g transform="translate(19.325 147.967486)scale(0.1 -0.1)">
       <use xlink:href="#SimHei-2d"/>
       <use x="50" xlink:href="#SimHei-31"/>
       <use x="100" xlink:href="#SimHei-2e"/>
       <use x="150" xlink:href="#SimHei-30"/>
      </g>
     </g>
    </g>
    <g id="ytick_3">
     <g id="line2d_17">
      <path clip-path="url(#p8b27d97e9c)" d="M 46.325 118.425589 
L 381.125 118.425589 
" style="fill:none;stroke:#b0b0b0;stroke-linecap:square;stroke-width:0.8;"/>
     </g>
     <g id="line2d_18">
      <g>
       <use style="stroke:#000000;stroke-width:0.8;" x="46.325" xlink:href="#m21327ced60" y="118.425589"/>
      </g>
     </g>
     <g id="text_10">
      <!-- -0.5 -->
      <g transform="translate(19.325 121.863089)scale(0.1 -0.1)">
       <use xlink:href="#SimHei-2d"/>
       <use x="50" xlink:href="#SimHei-30"/>
       <use x="100" xlink:href="#SimHei-2e"/>
       <use x="150" xlink:href="#SimHei-35"/>
      </g>
     </g>
    </g>
    <g id="ytick_4">
     <g id="line2d_19">
      <path clip-path="url(#p8b27d97e9c)" d="M 46.325 92.321192 
L 381.125 92.321192 
" style="fill:none;stroke:#b0b0b0;stroke-linecap:square;stroke-width:0.8;"/>
     </g>
     <g id="line2d_20">
      <g>
       <use style="stroke:#000000;stroke-width:0.8;" x="46.325" xlink:href="#m21327ced60" y="92.321192"/>
      </g>
     </g>
     <g id="text_11">
      <!-- 0.0 -->
      <g transform="translate(24.325 95.758692)scale(0.1 -0.1)">
       <use xlink:href="#SimHei-30"/>
       <use x="50" xlink:href="#SimHei-2e"/>
       <use x="100" xlink:href="#SimHei-30"/>
      </g>
     </g>
    </g>
    <g id="ytick_5">
     <g id="line2d_21">
      <path clip-path="url(#p8b27d97e9c)" d="M 46.325 66.216795 
L 381.125 66.216795 
" style="fill:none;stroke:#b0b0b0;stroke-linecap:square;stroke-width:0.8;"/>
     </g>
     <g id="line2d_22">
      <g>
       <use style="stroke:#000000;stroke-width:0.8;" x="46.325" xlink:href="#m21327ced60" y="66.216795"/>
      </g>
     </g>
     <g id="text_12">
      <!-- 0.5 -->
      <g transform="translate(24.325 69.654295)scale(0.1 -0.1)">
       <use xlink:href="#SimHei-30"/>
       <use x="50" xlink:href="#SimHei-2e"/>
       <use x="100" xlink:href="#SimHei-35"/>
      </g>
     </g>
    </g>
    <g id="ytick_6">
     <g id="line2d_23">
      <path clip-path="url(#p8b27d97e9c)" d="M 46.325 40.112397 
L 381.125 40.112397 
" style="fill:none;stroke:#b0b0b0;stroke-linecap:square;stroke-width:0.8;"/>
     </g>
     <g id="line2d_24">
      <g>
       <use style="stroke:#000000;stroke-width:0.8;" x="46.325" xlink:href="#m21327ced60" y="40.112397"/>
      </g>
     </g>
     <g id="text_13">
      <!-- 1.0 -->
      <g transform="translate(24.325 43.549897)scale(0.1 -0.1)">
       <use xlink:href="#SimHei-31"/>
       <use x="50" xlink:href="#SimHei-2e"/>
       <use x="100" xlink:href="#SimHei-30"/>
      </g>
     </g>
    </g>
    <g id="ytick_7">
     <g id="line2d_25">
      <path clip-path="url(#p8b27d97e9c)" d="M 46.325 14.008 
L 381.125 14.008 
" style="fill:none;stroke:#b0b0b0;stroke-linecap:square;stroke-width:0.8;"/>
     </g>
     <g id="line2d_26">
      <g>
       <use style="stroke:#000000;stroke-width:0.8;" x="46.325" xlink:href="#m21327ced60" y="14.008"/>
      </g>
     </g>
     <g id="text_14">
      <!-- 1.5 -->
      <g transform="translate(24.325 17.4455)scale(0.1 -0.1)">
       <use xlink:href="#SimHei-31"/>
       <use x="50" xlink:href="#SimHei-2e"/>
       <use x="100" xlink:href="#SimHei-35"/>
      </g>
     </g>
    </g>
    <g id="text_15">
     <!-- x -->
     <g transform="translate(14.075 92.86)rotate(-90)scale(0.1 -0.1)">
      <defs>
       <path d="M 2875 125 
L 2275 125 
L 1550 1200 
L 825 125 
L 225 125 
L 1250 1550 
L 300 2925 
L 900 2925 
L 1550 1875 
L 2200 2925 
L 2800 2925 
L 1850 1550 
L 2875 125 
z
" id="SimHei-78" transform="scale(0.015625)"/>
      </defs>
      <use xlink:href="#SimHei-78"/>
     </g>
    </g>
   </g>
   <g id="line2d_27">
    <path clip-path="url(#p8b27d97e9c)" d="M 61.543182 76.571342 
L 61.849075 78.683573 
L 62.154968 103.240717 
L 62.460861 80.936953 
L 62.766754 96.296388 
L 63.072647 83.394983 
L 63.37854 101.386258 
L 63.684434 73.690186 
L 63.990327 88.998299 
L 64.29622 93.463987 
L 64.602113 81.263966 
L 64.908006 74.796213 
L 65.213899 95.780952 
L 65.825685 56.079407 
L 66.131578 80.863095 
L 66.437471 93.438475 
L 67.049258 77.505702 
L 67.355151 83.276823 
L 67.661044 79.168495 
L 67.966937 81.316304 
L 68.27283 82.550949 
L 68.578723 77.207163 
L 68.884616 63.386282 
L 69.190509 76.765093 
L 69.496402 68.534587 
L 69.802296 72.681543 
L 70.108189 72.796309 
L 70.414082 75.084268 
L 70.719975 78.915763 
L 71.025868 61.620227 
L 71.331761 82.821066 
L 71.637654 82.93908 
L 71.943547 65.029025 
L 72.24944 78.847669 
L 72.555333 73.750109 
L 72.861227 71.204931 
L 73.16712 70.67837 
L 73.473013 79.744151 
L 73.778906 61.315763 
L 74.084799 81.290163 
L 74.390692 44.067363 
L 74.696585 67.485646 
L 75.002478 68.796777 
L 75.308371 50.372344 
L 75.614265 82.960764 
L 75.920158 82.91996 
L 76.531944 62.008914 
L 76.837837 61.446462 
L 77.14373 57.393594 
L 77.449623 77.139651 
L 77.755516 65.270878 
L 78.061409 73.046001 
L 78.367302 58.462222 
L 78.673196 76.024562 
L 78.979089 58.631708 
L 79.284982 66.250026 
L 79.590875 58.535236 
L 79.896768 57.851552 
L 80.202661 56.393284 
L 80.508554 64.284976 
L 80.814447 50.906505 
L 81.12034 52.616372 
L 81.426233 65.244623 
L 81.732127 67.545415 
L 82.03802 43.764153 
L 82.343913 62.710318 
L 82.649806 73.561961 
L 83.873378 39.980298 
L 84.179271 51.56021 
L 84.485164 71.61264 
L 85.096951 42.803445 
L 85.402844 64.201776 
L 85.708737 40.372159 
L 86.01463 38.170804 
L 86.320523 58.359405 
L 86.626416 56.796684 
L 86.932309 53.359484 
L 87.238202 43.01445 
L 87.544095 56.47091 
L 87.849989 36.595075 
L 88.155882 49.588298 
L 88.461775 51.394418 
L 88.767668 58.76701 
L 89.073561 40.145735 
L 89.379454 39.022571 
L 89.685347 54.312723 
L 89.99124 47.219869 
L 90.297133 72.105517 
L 90.603026 43.26744 
L 90.90892 58.591913 
L 91.214813 43.610516 
L 91.520706 53.452984 
L 91.826599 25.018191 
L 92.132492 49.444846 
L 92.744278 39.416679 
L 93.050171 53.690885 
L 93.356064 40.493921 
L 93.661958 40.832522 
L 93.967851 55.839098 
L 94.273744 37.903294 
L 94.579637 30.993574 
L 95.191423 59.655176 
L 95.497316 38.549801 
L 95.803209 58.274525 
L 96.414995 46.39778 
L 96.720889 68.418867 
L 97.332675 22.046956 
L 97.638568 50.079988 
L 97.944461 48.161952 
L 98.250354 34.335846 
L 98.556247 44.051959 
L 98.86214 27.33547 
L 99.168033 34.083957 
L 99.473926 46.897928 
L 100.085713 33.982503 
L 100.391606 42.741493 
L 100.697499 25.638023 
L 101.003392 50.613636 
L 101.309285 44.801289 
L 101.615178 35.188347 
L 102.226964 43.207592 
L 102.532857 47.046487 
L 102.838751 45.514007 
L 103.144644 41.842065 
L 103.450537 32.55434 
L 103.75643 49.143961 
L 104.062323 47.88379 
L 104.368216 50.372316 
L 104.674109 36.550681 
L 104.980002 50.42532 
L 105.285895 56.064986 
L 105.591788 47.044766 
L 105.897682 46.277048 
L 106.203575 42.465849 
L 106.509468 51.141954 
L 106.815361 26.233551 
L 107.121254 34.551935 
L 107.427147 23.740152 
L 108.038933 38.176113 
L 108.344826 24.023894 
L 108.65072 30.541342 
L 108.956613 46.891879 
L 109.262506 46.745076 
L 109.568399 44.181998 
L 109.874292 32.472697 
L 110.180185 31.337313 
L 110.486078 54.830143 
L 110.791971 31.897371 
L 111.097864 42.430423 
L 111.403757 46.62144 
L 111.709651 46.67241 
L 112.015544 44.264734 
L 112.321437 54.765067 
L 112.62733 32.590762 
L 112.933223 39.646087 
L 113.239116 55.323766 
L 113.545009 53.092304 
L 113.850902 39.995297 
L 114.156795 45.886083 
L 114.462688 32.612502 
L 115.074475 51.914887 
L 115.380368 38.207524 
L 115.686261 35.040813 
L 115.992154 51.900299 
L 116.298047 48.212159 
L 116.60394 47.490326 
L 116.909833 53.33964 
L 117.215726 39.948837 
L 117.521619 14.76 
L 118.133406 62.026347 
L 118.439299 50.867684 
L 118.745192 32.956434 
L 119.051085 38.20417 
L 119.662871 65.448296 
L 119.968764 27.803846 
L 120.274657 48.822216 
L 120.58055 41.872452 
L 120.886444 39.41676 
L 121.192337 44.097756 
L 121.49823 42.543963 
L 121.804123 56.175773 
L 122.110016 31.823483 
L 122.415909 40.797367 
L 122.721802 45.64203 
L 123.333588 29.901189 
L 123.639481 49.255089 
L 123.945375 33.277873 
L 124.251268 52.314425 
L 124.557161 33.521067 
L 124.863054 46.946916 
L 125.168947 45.653936 
L 125.47484 58.606589 
L 126.086626 48.415477 
L 126.392519 66.478078 
L 127.004306 27.401641 
L 127.310199 59.708312 
L 127.921985 47.451069 
L 128.533771 63.596639 
L 128.839664 76.335805 
L 129.145557 46.684602 
L 129.45145 59.963446 
L 129.757344 63.296273 
L 130.063237 60.522079 
L 130.36913 41.142699 
L 130.675023 59.987815 
L 130.980916 55.989953 
L 131.286809 59.227746 
L 131.592702 69.533148 
L 131.898595 60.190172 
L 132.204488 66.788098 
L 132.510381 58.856109 
L 132.816275 83.189332 
L 133.122168 64.55454 
L 133.428061 69.702743 
L 133.733954 51.892018 
L 134.039847 49.744032 
L 134.34574 78.36876 
L 134.651633 54.154244 
L 134.957526 70.570803 
L 135.263419 70.736661 
L 135.569312 48.649488 
L 135.875206 41.469939 
L 136.486992 72.989611 
L 137.098778 46.15237 
L 137.404671 58.10124 
L 138.016457 63.391777 
L 138.32235 71.649729 
L 138.628243 67.031757 
L 138.934137 54.810295 
L 139.24003 58.612722 
L 139.851816 44.628019 
L 140.157709 61.833646 
L 140.463602 69.079802 
L 140.769495 59.575708 
L 141.075388 62.506797 
L 141.381281 73.171519 
L 141.687175 72.914725 
L 141.993068 70.696928 
L 142.298961 78.280898 
L 142.604854 78.988089 
L 142.910747 67.867719 
L 143.21664 62.272036 
L 143.522533 75.232469 
L 143.828426 57.852286 
L 144.134319 85.038519 
L 144.440212 53.961911 
L 144.746106 65.141124 
L 145.357892 72.799172 
L 145.663785 69.544531 
L 145.969678 58.150324 
L 146.275571 81.976481 
L 146.581464 92.97726 
L 146.887357 67.397018 
L 147.19325 82.508752 
L 147.499143 75.271585 
L 147.805037 80.849326 
L 148.11093 60.77778 
L 148.416823 68.588332 
L 148.722716 65.58656 
L 149.028609 83.58626 
L 149.334502 73.221157 
L 149.640395 80.788629 
L 149.946288 97.19134 
L 150.252181 54.882753 
L 150.558074 93.142132 
L 150.863968 66.931576 
L 151.169861 81.180261 
L 151.475754 74.100176 
L 151.781647 86.987905 
L 152.08754 73.034442 
L 152.393433 74.1 
L 153.005219 101.683483 
L 153.311112 81.086886 
L 153.617005 97.106298 
L 153.922899 97.985201 
L 154.228792 77.89102 
L 154.534685 90.111597 
L 155.146471 85.165469 
L 155.452364 101.930597 
L 155.758257 111.304489 
L 156.06415 97.994353 
L 156.370043 94.12753 
L 156.675937 74.114147 
L 156.98183 94.626019 
L 157.287723 71.325601 
L 157.593616 103.466606 
L 157.899509 108.237171 
L 158.205402 81.611612 
L 158.511295 99.937785 
L 158.817188 98.930572 
L 159.123081 94.162871 
L 159.428974 102.43079 
L 159.734868 105.573707 
L 160.346654 100.777498 
L 160.652547 107.031981 
L 160.95844 96.847527 
L 161.264333 94.604249 
L 161.570226 110.031012 
L 161.876119 85.844828 
L 162.182012 107.571856 
L 162.487905 108.44106 
L 162.793799 102.91256 
L 163.099692 84.446987 
L 163.405585 104.589715 
L 163.711478 107.056781 
L 164.017371 116.524796 
L 164.323264 118.222534 
L 164.629157 117.340207 
L 165.240943 90.517989 
L 165.546836 105.268445 
L 165.85273 96.04263 
L 166.464516 102.432399 
L 166.770409 122.159978 
L 167.076302 115.755564 
L 167.382195 105.861888 
L 167.688088 107.016639 
L 167.993981 117.774326 
L 168.299874 104.817579 
L 168.605767 102.652109 
L 168.911661 122.075459 
L 169.217554 114.266486 
L 169.523447 113.695409 
L 169.82934 119.104092 
L 170.135233 109.773569 
L 170.441126 104.716713 
L 170.747019 134.008996 
L 171.052912 103.455704 
L 171.358805 124.259231 
L 171.664698 120.714659 
L 171.970592 121.766287 
L 172.276485 134.824342 
L 172.582378 113.594675 
L 172.888271 130.342304 
L 173.194164 110.030562 
L 173.500057 139.515635 
L 173.80595 120.274738 
L 174.111843 126.939549 
L 174.417736 127.944542 
L 174.72363 143.5805 
L 175.029523 107.790155 
L 175.335416 111.399948 
L 175.641309 131.886631 
L 175.947202 122.452557 
L 176.253095 132.385796 
L 176.558988 102.179266 
L 176.864881 121.131978 
L 177.170774 120.048478 
L 177.476667 110.468016 
L 177.782561 134.194051 
L 178.088454 125.432627 
L 178.394347 131.532622 
L 178.70024 109.065621 
L 179.312026 142.165416 
L 179.617919 129.873775 
L 179.923812 124.360492 
L 180.229705 133.188986 
L 180.535598 125.683542 
L 180.841492 130.455461 
L 181.147385 114.470862 
L 181.453278 131.236156 
L 182.065064 138.477834 
L 182.370957 124.756156 
L 182.67685 125.692087 
L 182.982743 113.763502 
L 183.288636 143.40278 
L 183.594529 138.743371 
L 183.900423 131.669203 
L 184.206316 147.815442 
L 184.512209 117.426351 
L 184.818102 139.56209 
L 185.123995 149.8276 
L 185.429888 126.844858 
L 185.735781 141.920212 
L 186.041674 123.703536 
L 186.347567 137.821502 
L 186.65346 131.806207 
L 186.959354 136.038762 
L 187.265247 123.055834 
L 187.57114 144.021258 
L 187.877033 126.288406 
L 188.182926 137.992124 
L 188.488819 125.76522 
L 188.794712 132.124248 
L 189.100605 127.831192 
L 189.712392 149.837626 
L 190.324178 156.365008 
L 190.630071 124.644483 
L 190.935964 139.396098 
L 191.241857 129.889711 
L 191.54775 136.360624 
L 191.853643 157.735514 
L 192.159536 141.882474 
L 192.465429 119.843075 
L 192.771323 141.239932 
L 193.077216 138.677306 
L 193.383109 147.611669 
L 193.689002 145.158114 
L 193.994895 125.782848 
L 194.300788 157.420516 
L 194.912574 136.558369 
L 195.218467 142.318241 
L 195.52436 153.909904 
L 195.830254 140.305616 
L 196.136147 139.929379 
L 196.44204 135.197417 
L 196.747933 142.722936 
L 197.053826 141.537416 
L 197.359719 140.796656 
L 197.971505 143.212021 
L 198.277398 157.117338 
L 198.583291 148.357551 
L 198.889185 121.789576 
L 199.195078 138.288478 
L 199.500971 140.649311 
L 199.806864 153.26176 
L 200.112757 138.465118 
L 200.41865 133.217712 
L 200.724543 130.4321 
L 201.030436 125.210404 
L 201.642222 142.760176 
L 201.948116 147.206377 
L 202.254009 143.971639 
L 202.559902 122.670526 
L 202.865795 148.126058 
L 203.171688 146.780938 
L 203.477581 141.83031 
L 203.783474 153.500012 
L 204.089367 128.913294 
L 204.39526 153.292312 
L 204.701153 161.760596 
L 205.007047 140.367443 
L 205.31294 165.225645 
L 205.924726 136.844003 
L 206.230619 143.45286 
L 206.536512 160.247342 
L 207.148298 146.205638 
L 207.454191 141.422973 
L 207.760085 134.001811 
L 208.065978 158.84225 
L 208.371871 134.527418 
L 208.677764 145.852127 
L 208.983657 138.643952 
L 209.28955 125.042973 
L 209.901336 141.334928 
L 210.207229 137.425397 
L 210.513122 165.96 
L 210.819016 136.01864 
L 211.124909 134.747799 
L 211.430802 160.536473 
L 211.736695 141.665647 
L 212.348481 160.078578 
L 212.654374 139.678826 
L 212.960267 158.548438 
L 213.26616 153.234917 
L 213.877947 122.428484 
L 214.18384 156.960915 
L 214.489733 147.285543 
L 214.795626 157.154637 
L 215.101519 128.811741 
L 215.407412 119.348681 
L 215.713305 145.362316 
L 216.019198 146.102105 
L 216.325091 150.81189 
L 216.630984 146.324026 
L 216.936878 146.527233 
L 217.242771 118.183974 
L 218.16045 158.670225 
L 218.466343 137.083382 
L 218.772236 137.591469 
L 219.078129 143.21523 
L 219.384022 142.08353 
L 219.689915 141.739676 
L 219.995809 140.190155 
L 220.301702 148.711765 
L 220.607595 139.369697 
L 220.913488 140.058386 
L 221.219381 133.319094 
L 221.525274 140.090578 
L 221.831167 139.114202 
L 222.13706 120.535131 
L 222.442953 123.768241 
L 222.748847 117.068761 
L 223.05474 117.326214 
L 223.360633 138.103259 
L 223.666526 146.639926 
L 223.972419 129.058451 
L 224.278312 140.682406 
L 224.584205 130.741385 
L 224.890098 129.363964 
L 225.195991 124.546278 
L 225.501884 113.258371 
L 225.807778 135.978379 
L 226.113671 131.068008 
L 226.419564 161.636338 
L 226.725457 132.091791 
L 227.03135 121.105353 
L 227.337243 115.912692 
L 227.643136 119.004207 
L 227.949029 110.210895 
L 228.254922 137.473223 
L 228.560815 117.38756 
L 228.866709 127.50539 
L 229.172602 121.336034 
L 229.478495 135.071373 
L 229.784388 123.599434 
L 230.090281 128.422519 
L 230.396174 128.209183 
L 230.702067 121.657862 
L 231.00796 110.54607 
L 231.313853 121.88981 
L 231.619746 120.15305 
L 231.92564 134.03176 
L 232.231533 117.238731 
L 232.537426 116.054885 
L 232.843319 131.347154 
L 233.149212 114.533023 
L 233.455105 112.852348 
L 233.760998 132.474808 
L 234.372784 96.031676 
L 234.678677 136.361153 
L 234.984571 109.989311 
L 235.290464 129.075259 
L 235.596357 119.645713 
L 235.90225 121.083812 
L 236.514036 112.394874 
L 236.819929 135.988561 
L 237.125822 107.385929 
L 237.431715 111.770163 
L 237.737608 145.978059 
L 238.043502 110.30042 
L 238.349395 123.433564 
L 239.267074 99.764109 
L 239.572967 95.21897 
L 239.87886 111.616694 
L 240.184753 104.998134 
L 240.490646 111.644575 
L 240.79654 122.950549 
L 241.102433 115.047244 
L 241.714219 111.158142 
L 242.020112 106.249421 
L 242.326005 110.372896 
L 242.631898 119.805088 
L 243.243684 107.939843 
L 243.549577 102.117031 
L 243.855471 103.055509 
L 244.161364 119.005483 
L 244.467257 115.147758 
L 244.77315 100.946357 
L 245.079043 116.104789 
L 245.384936 99.85832 
L 245.690829 99.451269 
L 245.996722 122.018023 
L 246.302615 102.092199 
L 246.608508 124.079921 
L 247.220295 92.90198 
L 247.526188 105.348859 
L 247.832081 95.303632 
L 248.137974 110.244246 
L 248.443867 103.969182 
L 248.74976 102.703288 
L 249.055653 85.681123 
L 249.361546 91.373849 
L 249.667439 119.469826 
L 249.973333 90.199023 
L 250.279226 107.493489 
L 250.585119 74.730602 
L 250.891012 120.418199 
L 251.196905 87.018196 
L 251.502798 121.717558 
L 251.808691 95.210371 
L 252.114584 92.872579 
L 252.420477 81.723926 
L 252.72637 91.828305 
L 253.032264 108.679669 
L 253.338157 78.93114 
L 253.64405 89.217719 
L 253.949943 88.748414 
L 254.255836 94.226338 
L 254.561729 94.612197 
L 254.867622 92.465189 
L 255.173515 64.323121 
L 255.479408 82.032129 
L 255.785302 87.879026 
L 256.091195 91.152426 
L 256.397088 67.312085 
L 256.702981 76.140805 
L 257.008874 94.389552 
L 257.314767 77.047284 
L 257.62066 66.512194 
L 258.232446 86.389299 
L 258.538339 67.703358 
L 258.844233 81.286723 
L 259.150126 81.28796 
L 259.456019 63.34916 
L 259.761912 89.90097 
L 260.067805 90.069151 
L 260.373698 99.817392 
L 260.679591 57.334468 
L 260.985484 88.54484 
L 261.291377 76.412191 
L 261.59727 85.662866 
L 261.903164 88.141061 
L 262.209057 74.019801 
L 262.51495 79.791057 
L 262.820843 68.816452 
L 263.126736 85.572065 
L 263.432629 82.798684 
L 264.044415 55.459382 
L 264.350308 65.090506 
L 264.656201 93.249558 
L 264.962095 71.566934 
L 265.267988 69.21126 
L 265.573881 57.25336 
L 265.879774 56.389158 
L 266.185667 66.164198 
L 266.49156 66.827664 
L 266.797453 68.056456 
L 267.103346 73.306807 
L 267.715132 60.951778 
L 268.021026 68.678613 
L 268.326919 81.856087 
L 268.632812 60.801412 
L 268.938705 68.995269 
L 269.244598 65.638357 
L 269.550491 56.253277 
L 269.856384 65.731904 
L 270.162277 67.215984 
L 270.46817 50.24265 
L 270.774063 56.713416 
L 271.38585 43.560679 
L 271.997636 68.254128 
L 272.303529 76.615911 
L 272.609422 51.596009 
L 273.221208 76.306323 
L 273.527101 61.836898 
L 273.832995 69.593465 
L 274.138888 56.644921 
L 274.444781 64.151118 
L 274.750674 51.633507 
L 275.056567 53.149108 
L 275.36246 77.883255 
L 275.668353 65.609983 
L 275.974246 41.574412 
L 276.586032 78.027662 
L 276.891926 44.653823 
L 277.503712 66.768962 
L 277.809605 41.627482 
L 278.421391 71.087916 
L 278.727284 48.026709 
L 279.033177 54.317136 
L 279.644963 41.81867 
L 279.950857 59.730646 
L 280.25675 44.350706 
L 280.562643 42.182029 
L 280.868536 31.776997 
L 281.174429 52.281492 
L 281.480322 49.921606 
L 281.786215 33.458095 
L 282.092108 47.97358 
L 282.398001 26.069959 
L 282.703894 47.587417 
L 283.009788 50.750074 
L 283.315681 50.457949 
L 283.621574 56.66441 
L 283.927467 53.959689 
L 284.23336 56.571371 
L 284.539253 30.827822 
L 284.845146 58.680138 
L 285.151039 75.836 
L 285.456932 40.713132 
L 285.762825 54.442766 
L 286.680505 33.271562 
L 286.986398 35.357895 
L 287.292291 62.094211 
L 287.598184 60.720157 
L 288.20997 39.87651 
L 288.821757 43.149624 
L 289.12765 43.979128 
L 289.433543 63.413669 
L 289.739436 36.449526 
L 290.045329 42.43211 
L 290.351222 42.731237 
L 290.657115 37.252175 
L 290.963008 54.706442 
L 291.268901 47.675922 
L 291.574794 52.459775 
L 291.880688 46.762558 
L 292.186581 50.194362 
L 292.492474 31.112 
L 292.798367 42.282381 
L 293.10426 34.221602 
L 293.410153 40.750848 
L 293.716046 39.455758 
L 294.021939 35.518948 
L 294.327832 46.069003 
L 294.633725 39.872832 
L 294.939619 59.249819 
L 295.245512 42.776761 
L 295.551405 64.474001 
L 296.163191 21.417757 
L 296.469084 48.864386 
L 296.774977 47.622861 
L 297.08087 37.206897 
L 297.386763 40.532925 
L 297.692656 56.432793 
L 297.99855 33.310299 
L 298.304443 26.917724 
L 298.610336 17.433814 
L 298.916229 26.609921 
L 299.222122 42.54701 
L 299.528015 29.755883 
L 299.833908 33.916756 
L 300.139801 41.61664 
L 300.445694 35.96818 
L 300.751587 23.350737 
L 301.057481 40.338361 
L 301.363374 32.774724 
L 301.669267 63.229545 
L 301.97516 25.14716 
L 302.281053 39.31179 
L 302.586946 37.825011 
L 302.892839 34.982776 
L 303.198732 44.298517 
L 303.504625 26.042606 
L 304.116412 32.328405 
L 304.422305 45.36281 
L 304.728198 45.853971 
L 305.034091 33.286922 
L 305.339984 44.736468 
L 305.645877 35.337257 
L 305.95177 45.297625 
L 306.257663 41.800618 
L 306.563556 46.833195 
L 306.86945 32.597982 
L 307.175343 49.751236 
L 307.481236 38.176356 
L 307.787129 55.264681 
L 308.093022 37.783088 
L 308.704808 50.592217 
L 309.010701 42.670253 
L 309.316594 45.737699 
L 309.622487 35.051673 
L 309.928381 60.076414 
L 310.234274 47.635253 
L 310.540167 48.431127 
L 310.84606 55.00711 
L 311.151953 33.545732 
L 311.457846 46.446036 
L 311.763739 25.595154 
L 312.069632 38.873443 
L 312.375525 38.807197 
L 312.681418 39.247287 
L 312.987312 59.83055 
L 313.293205 58.528599 
L 313.599098 58.363681 
L 313.904991 52.307968 
L 314.210884 58.627295 
L 314.516777 34.062828 
L 314.82267 43.070351 
L 315.128563 39.941057 
L 315.434456 55.628115 
L 315.740349 38.351412 
L 316.046243 60.19975 
L 316.352136 37.425557 
L 316.658029 61.303767 
L 316.963922 43.565263 
L 317.269815 53.878155 
L 317.575708 31.968602 
L 317.881601 48.521207 
L 318.187494 41.165093 
L 318.493387 44.330519 
L 318.79928 43.581753 
L 319.105174 69.478838 
L 319.411067 54.720997 
L 319.71696 32.371181 
L 320.022853 50.940733 
L 320.328746 48.72507 
L 320.634639 54.446419 
L 320.940532 46.667739 
L 321.246425 56.54727 
L 321.552318 46.225534 
L 321.858212 46.296771 
L 322.164105 37.450116 
L 322.469998 61.433735 
L 322.775891 52.890734 
L 323.081784 58.568894 
L 323.387677 56.509781 
L 323.69357 47.604492 
L 323.999463 53.59015 
L 324.305356 56.149001 
L 324.917143 63.244296 
L 325.223036 66.068961 
L 325.528929 52.314783 
L 325.834822 46.138883 
L 326.140715 56.896924 
L 326.446608 76.997324 
L 326.752501 42.336992 
L 327.058394 50.931316 
L 327.67018 44.198858 
L 327.976074 82.987466 
L 328.281967 46.030901 
L 328.58786 66.331969 
L 328.893753 68.921883 
L 329.199646 76.458936 
L 329.505539 76.737095 
L 329.811432 65.004802 
L 330.117325 48.466108 
L 330.423218 48.948612 
L 330.729111 74.97796 
L 331.340898 53.510675 
L 331.646791 63.864588 
L 331.952684 82.55352 
L 332.258577 55.439404 
L 332.56447 74.658738 
L 332.870363 59.425283 
L 333.176256 73.435911 
L 333.482149 57.351646 
L 333.788042 55.489704 
L 334.093936 58.550905 
L 334.399829 91.793343 
L 334.705722 77.183674 
L 335.011615 94.647083 
L 335.623401 76.334273 
L 335.929294 70.41417 
L 336.235187 74.243492 
L 336.54108 52.620399 
L 337.152867 77.424609 
L 337.45876 61.264728 
L 337.764653 60.647684 
L 338.070546 83.047722 
L 338.376439 65.958888 
L 338.682332 62.021791 
L 338.988225 97.072424 
L 339.294118 68.754691 
L 339.600011 101.137865 
L 339.905905 79.040943 
L 340.211798 77.912587 
L 340.517691 94.428215 
L 340.823584 79.245855 
L 341.129477 79.535184 
L 341.43537 88.18746 
L 341.741263 69.128774 
L 342.047156 83.771966 
L 342.353049 87.261556 
L 342.658942 67.455736 
L 342.964836 77.615001 
L 343.270729 94.541577 
L 343.576622 101.505322 
L 343.882515 69.513907 
L 344.188408 93.67332 
L 344.494301 81.467441 
L 344.800194 74.051805 
L 345.106087 87.70762 
L 345.41198 89.197091 
L 345.717873 84.103482 
L 346.023767 95.586799 
L 346.635553 89.245087 
L 346.941446 94.839447 
L 347.247339 78.002835 
L 347.859125 115.207341 
L 348.776804 82.569613 
L 349.082698 96.850899 
L 349.388591 84.354745 
L 349.694484 91.165398 
L 350.000377 86.157804 
L 350.30627 90.925165 
L 350.612163 82.000237 
L 350.918056 107.437941 
L 351.223949 95.177166 
L 351.835735 107.75895 
L 352.141629 95.764585 
L 352.447522 105.650803 
L 352.753415 102.146462 
L 353.059308 94.293558 
L 353.365201 106.098417 
L 353.671094 102.247464 
L 353.976987 116.415846 
L 354.28288 94.314593 
L 354.894667 107.036481 
L 355.20056 87.571989 
L 355.506453 91.264741 
L 355.812346 114.293732 
L 356.118239 120.958319 
L 356.424132 92.638726 
L 357.035918 107.946704 
L 357.341811 104.664026 
L 357.647704 99.653383 
L 357.953598 102.023385 
L 358.259491 98.103948 
L 358.565384 105.525862 
L 358.871277 106.110128 
L 359.483063 99.559651 
L 359.788956 118.932799 
L 360.094849 107.651396 
L 360.400742 106.896006 
L 360.706635 104.993376 
L 361.012529 104.390204 
L 361.318422 122.444479 
L 361.624315 112.451486 
L 361.930208 115.74433 
L 362.236101 115.190574 
L 362.541994 106.825593 
L 362.847887 132.653371 
L 363.15378 84.66762 
L 363.459673 123.654355 
L 363.765566 110.339084 
L 364.377353 120.413385 
L 364.683246 121.947367 
L 364.989139 113.914458 
L 365.295032 122.252783 
L 365.600925 110.177515 
L 365.906818 137.231006 
L 365.906818 137.231006 
" style="fill:none;stroke:#1f77b4;stroke-linecap:square;stroke-width:1.5;"/>
   </g>
   <g id="line2d_28">
    <path clip-path="url(#p8b27d97e9c)" d="M 61.543182 88.412936 
L 61.849075 85.888046 
L 62.154968 82.391473 
L 62.460861 85.275817 
L 62.766754 85.215717 
L 63.072647 89.794267 
L 63.37854 89.616768 
L 63.684434 90.396497 
L 63.990327 87.685104 
L 64.29622 86.922839 
L 64.602113 88.490799 
L 64.908006 84.932773 
L 65.213899 84.486668 
L 65.519792 86.148773 
L 66.131578 76.471384 
L 66.743365 78.126595 
L 67.355151 84.314097 
L 67.661044 84.457831 
L 67.966937 81.562002 
L 68.27283 81.223772 
L 68.578723 82.107065 
L 68.884616 80.857865 
L 69.190509 77.159187 
L 69.496402 76.401114 
L 69.802296 73.621604 
L 70.108189 73.426429 
L 70.414082 74.690898 
L 70.719975 74.766056 
L 71.025868 76.761989 
L 71.331761 74.148647 
L 71.637654 76.539492 
L 71.943547 78.022141 
L 72.24944 75.540331 
L 72.555333 78.471495 
L 73.16712 74.772925 
L 73.778906 75.904283 
L 74.084799 73.129723 
L 74.390692 75.599472 
L 74.696585 69.328379 
L 75.002478 68.511501 
L 75.308371 69.135817 
L 75.614265 65.131947 
L 75.920158 71.468194 
L 76.226051 74.377274 
L 76.531944 75.889351 
L 76.837837 76.519985 
L 77.449623 67.802239 
L 77.755516 69.554922 
L 78.061409 69.752025 
L 78.367302 72.126964 
L 78.673196 71.092508 
L 78.979089 71.851457 
L 79.284982 69.868864 
L 79.590875 69.466342 
L 79.896768 68.554229 
L 80.202661 66.269339 
L 80.508554 65.592363 
L 80.814447 65.95009 
L 81.12034 64.365732 
L 81.426233 63.698149 
L 82.03802 66.431065 
L 82.343913 64.274635 
L 82.955699 67.675361 
L 83.261592 67.925488 
L 83.567485 69.009084 
L 83.873378 65.787199 
L 84.179271 61.127765 
L 84.485164 60.385878 
L 84.791058 63.601266 
L 85.096951 64.711507 
L 85.402844 63.672298 
L 85.708737 65.527674 
L 86.01463 60.992313 
L 86.320523 58.986675 
L 86.626416 61.013421 
L 86.932309 61.195554 
L 87.238202 62.356543 
L 87.544095 61.619723 
L 87.849989 62.058891 
L 88.155882 59.08065 
L 88.767668 60.213178 
L 89.073561 61.597828 
L 89.685347 59.126 
L 89.99124 60.048954 
L 90.297133 59.289859 
L 90.603026 64.07779 
L 90.90892 62.620817 
L 91.214813 63.90048 
L 91.520706 61.987501 
L 91.826599 61.18456 
L 92.132492 57.48532 
L 92.438385 58.228762 
L 92.744278 58.025018 
L 93.050171 57.342273 
L 93.356064 59.838712 
L 93.661958 58.510459 
L 93.967851 58.193847 
L 94.273744 60.181297 
L 94.88553 56.824511 
L 95.191423 57.774688 
L 95.497316 59.712668 
L 95.803209 58.726356 
L 96.109102 61.772516 
L 96.414995 61.757169 
L 96.720889 60.659731 
L 97.026782 64.562902 
L 97.638568 57.40035 
L 97.944461 58.457436 
L 98.556247 56.844377 
L 98.86214 58.203419 
L 99.168033 55.539831 
L 99.473926 55.175273 
L 99.77982 56.701392 
L 100.085713 56.7366 
L 100.391606 56.46202 
L 100.697499 57.230634 
L 101.003392 54.875461 
L 101.309285 57.181768 
L 101.615178 57.631218 
L 101.921071 56.855885 
L 102.226964 57.430516 
L 102.532857 57.254966 
L 103.144644 58.645447 
L 103.450537 58.46155 
L 103.75643 56.866888 
L 104.062323 58.012424 
L 104.368216 58.43124 
L 104.674109 59.590567 
L 104.980002 58.611754 
L 105.285895 59.443176 
L 105.591788 60.657919 
L 105.897682 60.293882 
L 106.203575 60.661766 
L 106.509468 59.449773 
L 106.815361 59.725947 
L 107.121254 56.569401 
L 107.427147 56.006302 
L 107.73304 53.925259 
L 108.038933 53.715247 
L 108.344826 54.746318 
L 108.65072 53.554677 
L 108.956613 54.016976 
L 109.262506 55.997614 
L 109.874292 58.248376 
L 110.486078 55.769905 
L 110.791971 57.978439 
L 111.097864 56.160356 
L 111.709651 58.240164 
L 112.015544 58.311271 
L 112.321437 58.856872 
L 112.62733 60.500029 
L 112.933223 57.997667 
L 113.239116 57.643005 
L 113.545009 59.351568 
L 113.850902 59.965929 
L 114.156795 59.540478 
L 114.462688 59.858974 
L 114.768582 57.126046 
L 115.074475 57.116904 
L 115.380368 58.62901 
L 115.686261 57.624135 
L 115.992154 57.173322 
L 116.298047 58.696896 
L 116.60394 58.76415 
L 116.909833 59.562865 
L 117.215726 61.134041 
L 117.521619 59.341884 
L 117.827513 55.036835 
L 118.133406 55.49061 
L 118.439299 58.383737 
L 118.745192 59.483537 
L 119.356978 58.228364 
L 119.662871 58.236526 
L 119.968764 61.326679 
L 120.274657 58.481827 
L 120.58055 59.915467 
L 121.192337 57.141481 
L 121.49823 58.076821 
L 121.804123 57.717056 
L 122.110016 59.888854 
L 122.415909 57.725452 
L 122.721802 57.762216 
L 123.027695 58.012355 
L 123.639481 55.739981 
L 123.945375 57.404355 
L 124.251268 55.934629 
L 124.557161 58.37016 
L 124.863054 57.088119 
L 125.168947 58.000409 
L 125.47484 58.521376 
L 126.086626 61.813786 
L 126.392519 61.676381 
L 126.698413 64.65047 
L 127.004306 62.72176 
L 127.310199 58.859759 
L 127.616092 61.021593 
L 127.921985 60.105995 
L 128.227878 60.312189 
L 128.533771 62.394408 
L 128.839664 63.698108 
L 129.145557 67.835287 
L 129.45145 66.132238 
L 129.757344 66.938751 
L 130.063237 66.627834 
L 130.36913 65.402084 
L 130.675023 63.259693 
L 130.980916 63.862752 
L 131.286809 63.001506 
L 131.592702 63.685281 
L 131.898595 67.275118 
L 132.204488 67.115232 
L 132.510381 68.861626 
L 132.816275 68.131299 
L 133.122168 71.718097 
L 133.428061 71.646158 
L 133.733954 72.586466 
L 134.039847 69.876062 
L 134.34574 64.925916 
L 134.651633 68.044395 
L 134.957526 65.585816 
L 135.569312 71.388025 
L 135.875206 66.633137 
L 136.181099 63.806271 
L 136.486992 62.411029 
L 136.792885 64.624041 
L 137.098778 65.881819 
L 137.404671 65.154023 
L 137.710564 65.253572 
L 138.016457 64.26206 
L 138.32235 65.308572 
L 138.628243 68.891321 
L 138.934137 70.082158 
L 139.545923 67.475926 
L 140.157709 61.405189 
L 140.463602 62.967129 
L 140.769495 65.169757 
L 141.075388 66.151843 
L 141.687175 70.153135 
L 141.993068 71.263774 
L 142.298961 73.033504 
L 142.604854 75.826926 
L 142.910747 77.047245 
L 143.21664 75.866108 
L 143.522533 73.738069 
L 143.828426 73.412594 
L 144.134319 69.532057 
L 144.440212 73.682752 
L 144.746106 70.768046 
L 145.051999 69.898738 
L 145.357892 71.015111 
L 145.663785 70.314318 
L 145.969678 72.421293 
L 146.275571 70.632092 
L 146.581464 73.509982 
L 146.887357 78.020109 
L 147.19325 77.459993 
L 147.499143 81.87279 
L 149.028609 71.477294 
L 149.946288 77.884767 
L 150.252181 84.207921 
L 150.558074 77.70162 
L 150.863968 82.373233 
L 151.169861 78.224853 
L 151.475754 76.973627 
L 151.781647 79.192957 
L 152.08754 79.220927 
L 152.393433 79.624525 
L 152.699326 78.434737 
L 153.617005 86.790691 
L 153.922899 91.543871 
L 154.228792 92.925373 
L 154.534685 88.217197 
L 154.840578 89.849423 
L 155.452364 85.561479 
L 156.06415 95.318223 
L 156.370043 97.171414 
L 156.675937 98.222981 
L 156.98183 91.947321 
L 157.287723 89.416677 
L 157.593616 83.225736 
L 157.899509 86.663282 
L 158.205402 93.246311 
L 158.511295 90.920337 
L 158.817188 96.082381 
L 159.123081 94.95996 
L 159.428974 92.906113 
L 159.734868 96.699019 
L 160.346654 98.773588 
L 160.95844 100.591952 
L 161.570226 97.164812 
L 161.876119 99.172032 
L 162.182012 94.672943 
L 162.793799 99.588468 
L 163.099692 98.891444 
L 163.405585 97.298393 
L 163.711478 97.445489 
L 164.017371 97.339352 
L 164.323264 100.754582 
L 164.629157 105.793825 
L 164.93505 107.484112 
L 165.240943 106.356085 
L 165.546836 101.815883 
L 165.85273 100.486832 
L 166.158623 96.638486 
L 166.464516 96.170249 
L 166.770409 98.049904 
L 167.382195 104.812809 
L 167.688088 105.233883 
L 168.299874 105.52519 
L 168.605767 103.516091 
L 168.911661 102.916741 
L 169.217554 105.796602 
L 169.523447 105.191073 
L 169.82934 106.542881 
L 170.135233 108.510642 
L 170.747019 105.035552 
L 171.052912 109.14613 
L 171.358805 105.601456 
L 171.664698 108.836572 
L 171.970592 109.871623 
L 172.276485 109.211 
L 172.582378 113.028871 
L 172.888271 110.582455 
L 173.194164 112.664472 
L 173.500057 109.808125 
L 173.80595 112.677197 
L 174.111843 111.740052 
L 174.417736 112.318733 
L 174.72363 113.471487 
L 175.029523 115.295927 
L 175.335416 111.416083 
L 175.641309 110.100878 
L 175.947202 111.666067 
L 176.253095 109.486029 
L 176.558988 112.79094 
L 176.864881 109.276745 
L 177.170774 109.617369 
L 177.476667 109.099066 
L 177.782561 106.521386 
L 178.088454 111.368126 
L 178.394347 111.290758 
L 178.70024 113.100641 
L 179.006133 110.842671 
L 179.312026 111.639121 
L 179.617919 114.144128 
L 179.923812 113.599261 
L 180.229705 114.183297 
L 180.535598 115.041521 
L 180.841492 113.369744 
L 181.147385 113.876509 
L 181.453278 111.618213 
L 182.370957 115.108638 
L 182.982743 114.154836 
L 183.288636 111.335149 
L 183.594529 114.144028 
L 183.900423 115.051878 
L 184.206316 115.310796 
L 184.512209 118.456901 
L 184.818102 114.296358 
L 185.429888 118.042715 
L 185.735781 115.308406 
L 186.041674 117.802443 
L 186.347567 115.083438 
L 186.65346 115.740744 
L 186.959354 115.396233 
L 187.265247 115.610984 
L 187.57114 114.281807 
L 187.877033 116.469448 
L 188.182926 114.620984 
L 188.488819 115.912414 
L 188.794712 114.783309 
L 189.100605 114.680869 
L 189.406498 114.263749 
L 189.712392 115.654311 
L 190.324178 119.786212 
L 190.630071 121.388637 
L 190.935964 117.642486 
L 191.241857 118.236212 
L 191.54775 116.012757 
L 191.853643 115.688349 
L 192.159536 119.39127 
L 192.465429 118.453279 
L 192.771323 115.827238 
L 193.077216 117.511616 
L 193.383109 116.393042 
L 193.994895 118.973823 
L 194.300788 116.438612 
L 194.606681 119.993379 
L 195.218467 118.087414 
L 195.830254 119.946816 
L 196.136147 118.665761 
L 196.44204 118.716996 
L 196.747933 117.70318 
L 197.053826 117.892641 
L 197.665612 117.966555 
L 197.971505 118.356658 
L 198.277398 118.50619 
L 198.583291 120.54207 
L 198.889185 120.209466 
L 199.195078 116.743776 
L 199.500971 117.574998 
L 199.806864 116.961362 
L 200.112757 118.72058 
L 200.41865 118.343796 
L 201.030436 116.43133 
L 201.336329 114.326438 
L 201.642222 114.75964 
L 202.559902 118.719544 
L 202.865795 116.044716 
L 203.171688 118.389351 
L 203.783474 118.19573 
L 204.089367 120.516895 
L 204.39526 117.390616 
L 205.007047 121.452092 
L 205.31294 119.38864 
L 205.618833 122.855378 
L 206.230619 119.299494 
L 206.536512 119.58894 
L 206.842405 121.036997 
L 207.148298 120.698959 
L 207.454191 120.564912 
L 207.760085 119.759474 
L 208.065978 117.883769 
L 208.371871 120.423159 
L 208.677764 117.832946 
L 208.983657 119.154402 
L 209.28955 118.405265 
L 209.595443 115.598673 
L 210.207229 116.40379 
L 210.513122 116.26326 
L 210.819016 121.019664 
L 211.124909 118.614919 
L 211.430802 118.176722 
L 211.736695 121.118466 
L 212.042588 118.753461 
L 212.654374 121.944722 
L 212.960267 119.49914 
L 213.26616 121.786442 
L 213.572053 121.345279 
L 214.18384 116.377765 
L 214.489733 119.309732 
L 214.795626 118.491975 
L 215.101519 120.860771 
L 215.713305 115.306175 
L 216.019198 117.200184 
L 216.325091 116.992117 
L 216.630984 119.085617 
L 216.936878 119.883514 
L 217.242771 119.945522 
L 217.548664 115.792852 
L 217.854557 115.528837 
L 218.16045 115.819817 
L 218.466343 118.599833 
L 218.772236 118.036815 
L 219.384022 118.709561 
L 219.689915 118.01998 
L 219.995809 118.274638 
L 220.301702 118.205909 
L 220.607595 119.250049 
L 220.913488 118.329394 
L 221.219381 118.304969 
L 221.525274 117.171402 
L 221.831167 117.345525 
L 222.13706 117.246234 
L 222.442953 114.47565 
L 222.748847 113.821957 
L 223.360633 109.560733 
L 223.972419 115.520139 
L 224.278312 115.304582 
L 224.584205 117.505768 
L 225.195991 115.031918 
L 225.501884 114.070631 
L 225.807778 111.019999 
L 226.113671 113.140333 
L 226.419564 113.060192 
L 226.725457 118.53177 
L 227.03135 117.218896 
L 227.643136 113.203134 
L 228.254922 107.64105 
L 228.560815 111.281765 
L 228.866709 110.130743 
L 229.172602 111.927575 
L 229.478495 112.035753 
L 229.784388 113.160426 
L 230.090281 112.758371 
L 230.702067 113.642604 
L 231.00796 112.184215 
L 231.313853 109.978668 
L 231.619746 110.064077 
L 231.92564 109.189005 
L 232.231533 111.671678 
L 232.843319 110.40927 
L 233.149212 112.29745 
L 233.455105 109.484274 
L 233.760998 108.909415 
L 234.066891 111.636607 
L 234.678677 105.503279 
L 234.984571 110.313196 
L 235.290464 106.388718 
L 235.596357 109.938569 
L 235.90225 111.095506 
L 236.208143 110.155542 
L 236.514036 110.299852 
L 236.819929 108.323518 
L 237.125822 111.584785 
L 237.431715 108.305581 
L 237.737608 108.042786 
L 238.043502 113.360773 
L 238.349395 108.886452 
L 238.655288 111.458772 
L 238.961181 110.449186 
L 239.267074 106.298435 
L 239.572967 104.122722 
L 239.87886 99.815754 
L 240.184753 100.114828 
L 240.490646 99.729875 
L 240.79654 102.215397 
L 241.102433 106.545114 
L 241.408326 106.782851 
L 241.714219 107.653016 
L 242.020112 107.190919 
L 242.326005 104.884734 
L 242.631898 104.465502 
L 242.937791 105.89793 
L 243.243684 105.945435 
L 243.549577 105.830074 
L 244.161364 101.811744 
L 244.467257 103.553456 
L 244.77315 104.637437 
L 245.079043 103.808476 
L 245.384936 106.042743 
L 245.690829 102.511813 
L 245.996722 100.379763 
L 246.302615 104.305998 
L 246.608508 101.602489 
L 246.914402 106.405569 
L 247.220295 106.336354 
L 247.526188 101.863326 
L 247.832081 102.358823 
L 248.137974 97.484428 
L 248.74976 100.126726 
L 249.055653 99.95516 
L 249.667439 93.952563 
L 249.973333 97.706595 
L 250.279226 94.979244 
L 250.585119 99.585442 
L 250.891012 94.43493 
L 251.196905 96.904176 
L 251.502798 94.706577 
L 251.808691 99.662434 
L 252.114584 100.87576 
L 253.032264 89.62562 
L 253.338157 92.844726 
L 253.64405 89.679261 
L 253.949943 91.201228 
L 254.255836 89.924846 
L 254.561729 87.952293 
L 254.867622 90.967503 
L 255.173515 91.647975 
L 255.479408 85.639641 
L 255.785302 83.282586 
L 256.091195 81.920529 
L 256.397088 82.909552 
L 256.702981 82.373209 
L 257.008874 81.022406 
L 257.314767 82.600357 
L 257.62066 80.232089 
L 257.926553 79.5032 
L 258.232446 79.214552 
L 258.538339 78.366618 
L 258.844233 76.493992 
L 259.150126 79.387536 
L 259.456019 79.858011 
L 259.761912 75.466336 
L 260.067805 80.070849 
L 260.373698 81.958194 
L 260.679591 86.994936 
L 260.985484 83.792572 
L 261.291377 84.072764 
L 261.59727 80.440093 
L 261.903164 79.409984 
L 262.209057 84.73039 
L 262.51495 81.797554 
L 262.820843 82.279636 
L 263.126736 78.314123 
L 263.432629 78.65782 
L 263.738522 80.221889 
L 264.350308 73.894444 
L 264.656201 70.251349 
L 264.962095 73.88614 
L 265.267988 74.721333 
L 265.573881 76.834564 
L 265.879774 73.884409 
L 266.185667 67.790905 
L 266.49156 67.379629 
L 266.797453 67.593036 
L 267.103346 69.356609 
L 267.409239 72.032628 
L 267.715132 71.854236 
L 268.021026 70.554564 
L 268.326919 70.676195 
L 268.632812 72.997642 
L 268.938705 71.571642 
L 269.244598 72.889389 
L 269.550491 71.71796 
L 269.856384 67.781168 
L 270.162277 68.56049 
L 270.46817 68.521719 
L 270.774063 65.855909 
L 271.079957 65.724043 
L 271.691743 60.632775 
L 271.997636 61.690755 
L 272.303529 64.121278 
L 272.609422 68.471048 
L 272.915315 68.048163 
L 273.221208 69.163369 
L 273.527101 70.718422 
L 273.832995 68.812094 
L 274.138888 71.503484 
L 274.444781 69.34659 
L 274.750674 68.070938 
L 275.36246 63.898585 
L 275.668353 67.827753 
L 275.974246 68.180775 
L 276.280139 65.521892 
L 276.586032 65.869465 
L 276.891926 67.385117 
L 277.197819 63.988472 
L 277.809605 66.654214 
L 278.115498 61.933146 
L 278.421391 63.553353 
L 278.727284 65.984119 
L 279.033177 63.439909 
L 279.33907 64.584679 
L 279.644963 62.831691 
L 279.950857 59.821992 
L 280.25675 61.803595 
L 280.562643 60.23161 
L 280.868536 59.502305 
L 281.174429 57.446207 
L 281.786215 58.999411 
L 282.092108 57.517055 
L 282.398001 58.994815 
L 282.703894 55.729618 
L 283.621574 59.431136 
L 283.927467 61.990548 
L 284.23336 62.499354 
L 284.539253 63.308674 
L 284.845146 59.614062 
L 285.151039 61.173808 
L 285.456932 64.95968 
L 285.762825 62.208044 
L 286.068719 64.411857 
L 286.374612 62.209083 
L 286.680505 58.83694 
L 287.292291 56.05173 
L 287.904077 61.614196 
L 288.20997 62.195913 
L 288.515863 61.26259 
L 288.821757 59.107991 
L 289.12765 57.958121 
L 289.433543 57.926959 
L 289.739436 61.261625 
L 290.045329 59.256095 
L 290.351222 59.21401 
L 290.657115 58.576973 
L 290.963008 56.817951 
L 291.268901 59.190466 
L 291.574794 59.390268 
L 291.880688 60.688251 
L 292.186581 60.787533 
L 292.492474 60.681321 
L 292.798367 57.907945 
L 293.10426 57.635163 
L 293.410153 56.166838 
L 294.021939 56.61093 
L 294.327832 56.081703 
L 294.633725 57.409676 
L 294.939619 57.096804 
L 295.245512 60.071615 
L 295.551405 59.553887 
L 295.857298 62.779321 
L 296.163191 61.805026 
L 296.469084 57.110898 
L 296.774977 58.334277 
L 297.386763 57.075696 
L 297.692656 57.843918 
L 297.99855 59.594787 
L 298.916229 53.306028 
L 299.222122 52.601649 
L 299.528015 54.460669 
L 299.833908 54.134316 
L 300.445694 56.057232 
L 300.751587 55.679013 
L 301.057481 54.28982 
L 301.363374 55.458343 
L 301.669267 54.732598 
L 301.97516 59.053748 
L 302.281053 56.472248 
L 302.586946 57.037575 
L 302.892839 56.624547 
L 303.198732 55.436273 
L 303.504625 56.929157 
L 303.810519 54.981732 
L 304.116412 54.448467 
L 304.422305 54.304794 
L 305.034091 57.205686 
L 305.339984 56.582699 
L 305.645877 57.749301 
L 305.95177 56.482318 
L 306.257663 57.338003 
L 306.563556 57.542099 
L 306.86945 58.277239 
L 307.175343 56.931311 
L 307.481236 58.314115 
L 307.787129 57.325089 
L 308.093022 59.440027 
L 308.398915 58.441435 
L 308.704808 58.499683 
L 309.010701 59.553825 
L 309.316594 58.54394 
L 309.622487 59.140383 
L 309.928381 57.54097 
L 310.234274 60.087386 
L 310.540167 59.936105 
L 310.84606 60.435392 
L 311.151953 62.084716 
L 311.457846 58.616086 
L 311.763739 59.001307 
L 312.069632 55.802069 
L 312.375525 55.800439 
L 312.987312 56.067775 
L 313.293205 59.675531 
L 313.904991 63.700579 
L 314.210884 64.249945 
L 314.516777 64.388916 
L 314.82267 60.31138 
L 315.434456 57.720703 
L 315.740349 59.190522 
L 316.046243 58.330552 
L 316.352136 61.192078 
L 316.658029 59.315856 
L 316.963922 61.626149 
L 317.269815 60.642671 
L 317.575708 61.135725 
L 317.881601 58.719942 
L 318.187494 58.765021 
L 318.493387 57.968191 
L 318.79928 57.947115 
L 319.105174 58.393144 
L 319.411067 62.31991 
L 319.71696 63.018155 
L 320.022853 60.373767 
L 320.328746 61.10493 
L 320.634639 59.434606 
L 320.940532 60.474511 
L 321.246425 60.838614 
L 321.552318 62.003088 
L 322.164105 60.351679 
L 322.469998 58.647815 
L 322.775891 60.805298 
L 323.081784 61.201908 
L 323.69357 64.440119 
L 323.999463 62.534919 
L 324.305356 62.648388 
L 324.611249 62.623521 
L 324.917143 63.595643 
L 325.528929 67.391214 
L 325.834822 66.099172 
L 326.140715 63.681814 
L 326.446608 63.19491 
L 326.752501 66.353548 
L 327.058394 63.664077 
L 327.364287 63.993937 
L 327.67018 62.08499 
L 327.976074 59.378044 
L 328.281967 65.921215 
L 328.58786 63.728913 
L 329.199646 69.503031 
L 329.505539 70.301865 
L 329.811432 74.8034 
L 330.117325 74.123311 
L 330.729111 64.971268 
L 331.035005 66.308205 
L 331.646791 66.565254 
L 331.952684 68.220529 
L 332.258577 70.752531 
L 332.56447 68.814778 
L 332.870363 72.534889 
L 333.176256 70.58579 
L 333.482149 70.481293 
L 333.788042 69.529031 
L 334.093936 66.82379 
L 334.399829 66.277528 
L 334.705722 71.392774 
L 335.011615 74.491752 
L 335.317508 82.57303 
L 335.623401 86.519337 
L 336.54108 77.371387 
L 336.846974 70.943738 
L 337.152867 69.971827 
L 337.45876 71.463932 
L 337.764653 69.61169 
L 338.070546 70.242902 
L 338.376439 73.364764 
L 338.682332 71.496344 
L 338.988225 71.440243 
L 339.294118 78.584496 
L 339.600011 75.786076 
L 339.905905 84.002525 
L 340.211798 85.818145 
L 340.517691 82.802201 
L 340.823584 87.446295 
L 341.129477 83.158659 
L 341.43537 83.36198 
L 341.741263 85.115465 
L 342.047156 79.817186 
L 342.658942 82.431686 
L 342.964836 78.409668 
L 343.270729 79.804692 
L 343.576622 82.290607 
L 343.882515 86.385135 
L 344.188408 85.817764 
L 344.494301 89.166431 
L 344.800194 85.761798 
L 345.106087 80.907461 
L 345.41198 84.151028 
L 345.717873 83.625314 
L 346.023767 84.446712 
L 346.32966 88.846388 
L 346.635553 89.750588 
L 346.941446 89.925263 
L 347.247339 91.921437 
L 347.553232 87.904388 
L 347.859125 89.832365 
L 348.165018 95.339462 
L 348.776804 99.905196 
L 349.694484 88.916457 
L 350.000377 88.61919 
L 350.30627 88.757122 
L 350.918056 87.079461 
L 351.223949 91.265465 
L 351.529842 92.697309 
L 351.835735 95.717334 
L 352.141629 99.918052 
L 352.447522 97.758321 
L 352.753415 99.797979 
L 353.059308 99.387382 
L 353.365201 97.039157 
L 353.671094 99.043211 
L 353.976987 98.356151 
L 354.28288 101.633513 
L 354.588773 100.425973 
L 354.894667 99.842776 
L 355.20056 100.513635 
L 355.506453 95.20346 
L 355.812346 94.558824 
L 356.424132 100.940934 
L 356.730025 100.768141 
L 357.035918 102.133414 
L 357.341811 101.246254 
L 357.647704 99.064672 
L 357.953598 99.910918 
L 358.259491 99.925519 
L 358.565384 98.111652 
L 358.871277 98.667195 
L 359.17717 99.767515 
L 359.483063 99.983942 
L 359.788956 99.899348 
L 360.094849 102.874041 
L 360.400742 102.7115 
L 360.706635 103.442382 
L 361.012529 103.656349 
L 361.318422 101.659279 
L 361.624315 104.77026 
L 361.930208 105.177396 
L 362.236101 106.927364 
L 362.541994 107.863031 
L 362.847887 105.590575 
L 363.15378 109.535256 
L 363.459673 102.629891 
L 363.765566 106.111049 
L 364.377353 104.428927 
L 364.683246 108.660735 
L 364.989139 108.834151 
L 365.295032 108.67925 
L 365.600925 109.852478 
L 365.906818 107.864456 
L 365.906818 107.864456 
" style="fill:none;stroke:#bf00bf;stroke-dasharray:5.55,2.4;stroke-dashoffset:0;stroke-width:1.5;"/>
   </g>
   <g id="patch_3">
    <path d="M 46.325 173.52 
L 46.325 7.2 
" style="fill:none;stroke:#000000;stroke-linecap:square;stroke-linejoin:miter;stroke-width:0.8;"/>
   </g>
   <g id="patch_4">
    <path d="M 381.125 173.52 
L 381.125 7.2 
" style="fill:none;stroke:#000000;stroke-linecap:square;stroke-linejoin:miter;stroke-width:0.8;"/>
   </g>
   <g id="patch_5">
    <path d="M 46.325 173.52 
L 381.125 173.52 
" style="fill:none;stroke:#000000;stroke-linecap:square;stroke-linejoin:miter;stroke-width:0.8;"/>
   </g>
   <g id="patch_6">
    <path d="M 46.325 7.2 
L 381.125 7.2 
" style="fill:none;stroke:#000000;stroke-linecap:square;stroke-linejoin:miter;stroke-width:0.8;"/>
   </g>
   <g id="legend_1">
    <g id="patch_7">
     <path d="M 282.125 41.7 
L 374.125 41.7 
Q 376.125 41.7 376.125 39.7 
L 376.125 14.2 
Q 376.125 12.2 374.125 12.2 
L 282.125 12.2 
Q 280.125 12.2 280.125 14.2 
L 280.125 39.7 
Q 280.125 41.7 282.125 41.7 
z
" style="fill:#ffffff;opacity:0.8;stroke:#cccccc;stroke-linejoin:miter;"/>
    </g>
    <g id="line2d_29">
     <path d="M 284.125 19.7 
L 304.125 19.7 
" style="fill:none;stroke:#1f77b4;stroke-linecap:square;stroke-width:1.5;"/>
    </g>
    <g id="line2d_30"/>
    <g id="text_16">
     <!-- labels -->
     <g transform="translate(312.125 23.2)scale(0.1 -0.1)">
      <defs>
       <path d="M 1825 125 
L 1325 125 
L 1325 4400 
L 1825 4400 
L 1825 125 
z
" id="SimHei-6c" transform="scale(0.015625)"/>
       <path d="M 2875 125 
L 2275 125 
Q 2225 175 2200 262 
Q 2175 350 2175 475 
Q 2000 275 1750 175 
Q 1500 75 1225 75 
Q 825 75 550 275 
Q 275 475 275 850 
Q 275 1225 525 1450 
Q 775 1675 1300 1750 
Q 1650 1800 1912 1875 
Q 2175 1950 2175 2075 
Q 2175 2225 2062 2375 
Q 1950 2525 1575 2525 
Q 1275 2525 1137 2412 
Q 1000 2300 950 2100 
L 400 2100 
Q 450 2500 762 2737 
Q 1075 2975 1575 2975 
Q 2125 2975 2400 2725 
Q 2675 2475 2675 2025 
L 2675 650 
Q 2675 500 2725 375 
Q 2775 250 2875 125 
z
M 2175 1050 
L 2175 1550 
Q 2025 1500 1887 1462 
Q 1750 1425 1425 1375 
Q 1050 1325 937 1200 
Q 825 1075 825 900 
Q 825 750 937 637 
Q 1050 525 1275 525 
Q 1500 525 1762 650 
Q 2025 775 2175 1050 
z
" id="SimHei-61" transform="scale(0.015625)"/>
       <path d="M 2825 1525 
Q 2825 800 2475 437 
Q 2125 75 1625 75 
Q 1350 75 1150 175 
Q 950 275 800 500 
L 800 125 
L 300 125 
L 300 4400 
L 800 4400 
L 800 2550 
Q 950 2775 1150 2887 
Q 1350 3000 1625 3000 
Q 2125 3000 2475 2625 
Q 2825 2250 2825 1525 
z
M 2275 1525 
Q 2275 2000 2087 2275 
Q 1900 2550 1525 2550 
Q 1225 2550 1012 2275 
Q 800 2000 800 1525 
Q 800 1050 1012 787 
Q 1225 525 1525 525 
Q 1900 525 2087 787 
Q 2275 1050 2275 1525 
z
" id="SimHei-62" transform="scale(0.015625)"/>
       <path d="M 2750 900 
Q 2750 500 2437 287 
Q 2125 75 1650 75 
Q 1050 75 725 312 
Q 400 550 400 1000 
L 900 1000 
Q 900 700 1112 600 
Q 1325 500 1625 500 
Q 1925 500 2075 612 
Q 2225 725 2225 900 
Q 2225 1025 2100 1150 
Q 1975 1275 1475 1350 
Q 900 1425 687 1637 
Q 475 1850 475 2200 
Q 475 2500 762 2737 
Q 1050 2975 1600 2975 
Q 2100 2975 2387 2750 
Q 2675 2525 2675 2150 
L 2175 2150 
Q 2175 2375 2012 2462 
Q 1850 2550 1600 2550 
Q 1275 2550 1137 2437 
Q 1000 2325 1000 2175 
Q 1000 2000 1125 1900 
Q 1250 1800 1650 1750 
Q 2300 1650 2525 1437 
Q 2750 1225 2750 900 
z
" id="SimHei-73" transform="scale(0.015625)"/>
      </defs>
      <use xlink:href="#SimHei-6c"/>
      <use x="50" xlink:href="#SimHei-61"/>
      <use x="100" xlink:href="#SimHei-62"/>
      <use x="150" xlink:href="#SimHei-65"/>
      <use x="200" xlink:href="#SimHei-6c"/>
      <use x="250" xlink:href="#SimHei-73"/>
     </g>
    </g>
    <g id="line2d_31">
     <path d="M 284.125 32.95 
L 304.125 32.95 
" style="fill:none;stroke:#bf00bf;stroke-dasharray:5.55,2.4;stroke-dashoffset:0;stroke-width:1.5;"/>
    </g>
    <g id="line2d_32"/>
    <g id="text_17">
     <!-- 1-step preds -->
     <g transform="translate(312.125 36.45)scale(0.1 -0.1)">
      <defs>
       <path d="M 2825 1525 
Q 2825 800 2475 425 
Q 2125 50 1625 50 
Q 1350 50 1150 162 
Q 950 275 800 500 
L 800 -800 
L 300 -800 
L 300 2925 
L 800 2925 
L 800 2550 
Q 950 2775 1150 2875 
Q 1350 2975 1625 2975 
Q 2125 2975 2475 2612 
Q 2825 2250 2825 1525 
z
M 2275 1525 
Q 2275 2000 2087 2262 
Q 1900 2525 1525 2525 
Q 1225 2525 1012 2262 
Q 800 2000 800 1525 
Q 800 1050 1012 775 
Q 1225 500 1525 500 
Q 1900 500 2087 775 
Q 2275 1050 2275 1525 
z
" id="SimHei-70" transform="scale(0.015625)"/>
       <path id="SimHei-20" transform="scale(0.015625)"/>
       <path d="M 2500 2425 
Q 2025 2500 1700 2287 
Q 1375 2075 1150 1550 
L 1150 125 
L 650 125 
L 650 2925 
L 1150 2925 
L 1150 2200 
Q 1375 2600 1712 2787 
Q 2050 2975 2500 2975 
L 2500 2425 
z
" id="SimHei-72" transform="scale(0.015625)"/>
       <path d="M 2750 125 
L 2250 125 
L 2250 500 
Q 2100 275 1900 175 
Q 1700 75 1425 75 
Q 925 75 575 437 
Q 225 800 225 1525 
Q 225 2250 575 2625 
Q 925 3000 1425 3000 
Q 1700 3000 1900 2887 
Q 2100 2775 2250 2550 
L 2250 4400 
L 2750 4400 
L 2750 125 
z
M 2250 1525 
Q 2250 2000 2037 2275 
Q 1825 2550 1525 2550 
Q 1150 2550 962 2275 
Q 775 2000 775 1525 
Q 775 1050 962 787 
Q 1150 525 1525 525 
Q 1825 525 2037 787 
Q 2250 1050 2250 1525 
z
" id="SimHei-64" transform="scale(0.015625)"/>
      </defs>
      <use xlink:href="#SimHei-31"/>
      <use x="50" xlink:href="#SimHei-2d"/>
      <use x="100" xlink:href="#SimHei-73"/>
      <use x="150" xlink:href="#SimHei-74"/>
      <use x="200" xlink:href="#SimHei-65"/>
      <use x="250" xlink:href="#SimHei-70"/>
      <use x="300" xlink:href="#SimHei-20"/>
      <use x="350" xlink:href="#SimHei-70"/>
      <use x="400" xlink:href="#SimHei-72"/>
      <use x="450" xlink:href="#SimHei-65"/>
      <use x="500" xlink:href="#SimHei-64"/>
      <use x="550" xlink:href="#SimHei-73"/>
     </g>
    </g>
   </g>
  </g>
 </g>
 <defs>
  <clipPath id="p8b27d97e9c">
   <rect height="166.32" width="334.8" x="46.325" y="7.2"/>
  </clipPath>
 </defs>
</svg>
