<?xml version="1.0" encoding="utf-8" standalone="no"?>
<!DOCTYPE svg PUBLIC "-//W3C//DTD SVG 1.1//EN"
  "http://www.w3.org/Graphics/SVG/1.1/DTD/svg11.dtd">
<svg height="211.07625pt" version="1.1" viewBox="0 0 394.160937 211.07625" width="394.160937pt" xmlns="http://www.w3.org/2000/svg" xmlns:xlink="http://www.w3.org/1999/xlink">
 <metadata>
  <rdf:RDF xmlns:cc="http://creativecommons.org/ns#" xmlns:dc="http://purl.org/dc/elements/1.1/" xmlns:rdf="http://www.w3.org/1999/02/22-rdf-syntax-ns#">
   <cc:Work>
    <dc:type rdf:resource="http://purl.org/dc/dcmitype/StillImage"/>
    <dc:date>2023-09-04T08:14:13.402376</dc:date>
    <dc:format>image/svg+xml</dc:format>
    <dc:creator>
     <cc:Agent>
      <dc:title>Matplotlib v3.4.0, https://matplotlib.org/</dc:title>
     </cc:Agent>
    </dc:creator>
   </cc:Work>
  </rdf:RDF>
 </metadata>
 <defs>
  <style type="text/css">*{stroke-linecap:butt;stroke-linejoin:round;}</style>
 </defs>
 <g id="figure_1">
  <g id="patch_1">
   <path d="M 0 211.07625 
L 394.160937 211.07625 
L 394.160937 0 
L 0 0 
z
" style="fill:#ffffff;"/>
  </g>
  <g id="axes_1">
   <g id="patch_2">
    <path d="M 52.160938 173.52 
L 386.960938 173.52 
L 386.960938 7.2 
L 52.160938 7.2 
z
" style="fill:#ffffff;"/>
   </g>
   <g id="matplotlib.axis_1">
    <g id="xtick_1">
     <g id="line2d_1">
      <path clip-path="url(#pc207e62c47)" d="M 65.849654 173.52 
L 65.849654 7.2 
" style="fill:none;stroke:#b0b0b0;stroke-linecap:square;stroke-width:0.8;"/>
     </g>
     <g id="line2d_2">
      <defs>
       <path d="M 0 0 
L 0 3.5 
" id="m4cbf3fa812" style="stroke:#000000;stroke-width:0.8;"/>
      </defs>
      <g>
       <use style="stroke:#000000;stroke-width:0.8;" x="65.849654" xlink:href="#m4cbf3fa812" y="173.52"/>
      </g>
     </g>
     <g id="text_1">
      <!-- 0 -->
      <g transform="translate(62.668404 188.118438)scale(0.1 -0.1)">
       <defs>
        <path d="M 2034 4250 
Q 1547 4250 1301 3770 
Q 1056 3291 1056 2328 
Q 1056 1369 1301 889 
Q 1547 409 2034 409 
Q 2525 409 2770 889 
Q 3016 1369 3016 2328 
Q 3016 3291 2770 3770 
Q 2525 4250 2034 4250 
z
M 2034 4750 
Q 2819 4750 3233 4129 
Q 3647 3509 3647 2328 
Q 3647 1150 3233 529 
Q 2819 -91 2034 -91 
Q 1250 -91 836 529 
Q 422 1150 422 2328 
Q 422 3509 836 4129 
Q 1250 4750 2034 4750 
z
" id="DejaVuSans-30" transform="scale(0.015625)"/>
       </defs>
       <use xlink:href="#DejaVuSans-30"/>
      </g>
     </g>
    </g>
    <g id="xtick_2">
     <g id="line2d_3">
      <path clip-path="url(#pc207e62c47)" d="M 127.028274 173.52 
L 127.028274 7.2 
" style="fill:none;stroke:#b0b0b0;stroke-linecap:square;stroke-width:0.8;"/>
     </g>
     <g id="line2d_4">
      <g>
       <use style="stroke:#000000;stroke-width:0.8;" x="127.028274" xlink:href="#m4cbf3fa812" y="173.52"/>
      </g>
     </g>
     <g id="text_2">
      <!-- 200 -->
      <g transform="translate(117.484524 188.118438)scale(0.1 -0.1)">
       <defs>
        <path d="M 1228 531 
L 3431 531 
L 3431 0 
L 469 0 
L 469 531 
Q 828 903 1448 1529 
Q 2069 2156 2228 2338 
Q 2531 2678 2651 2914 
Q 2772 3150 2772 3378 
Q 2772 3750 2511 3984 
Q 2250 4219 1831 4219 
Q 1534 4219 1204 4116 
Q 875 4013 500 3803 
L 500 4441 
Q 881 4594 1212 4672 
Q 1544 4750 1819 4750 
Q 2544 4750 2975 4387 
Q 3406 4025 3406 3419 
Q 3406 3131 3298 2873 
Q 3191 2616 2906 2266 
Q 2828 2175 2409 1742 
Q 1991 1309 1228 531 
z
" id="DejaVuSans-32" transform="scale(0.015625)"/>
       </defs>
       <use xlink:href="#DejaVuSans-32"/>
       <use x="63.623047" xlink:href="#DejaVuSans-30"/>
       <use x="127.246094" xlink:href="#DejaVuSans-30"/>
      </g>
     </g>
    </g>
    <g id="xtick_3">
     <g id="line2d_5">
      <path clip-path="url(#pc207e62c47)" d="M 188.206895 173.52 
L 188.206895 7.2 
" style="fill:none;stroke:#b0b0b0;stroke-linecap:square;stroke-width:0.8;"/>
     </g>
     <g id="line2d_6">
      <g>
       <use style="stroke:#000000;stroke-width:0.8;" x="188.206895" xlink:href="#m4cbf3fa812" y="173.52"/>
      </g>
     </g>
     <g id="text_3">
      <!-- 400 -->
      <g transform="translate(178.663145 188.118438)scale(0.1 -0.1)">
       <defs>
        <path d="M 2419 4116 
L 825 1625 
L 2419 1625 
L 2419 4116 
z
M 2253 4666 
L 3047 4666 
L 3047 1625 
L 3713 1625 
L 3713 1100 
L 3047 1100 
L 3047 0 
L 2419 0 
L 2419 1100 
L 313 1100 
L 313 1709 
L 2253 4666 
z
" id="DejaVuSans-34" transform="scale(0.015625)"/>
       </defs>
       <use xlink:href="#DejaVuSans-34"/>
       <use x="63.623047" xlink:href="#DejaVuSans-30"/>
       <use x="127.246094" xlink:href="#DejaVuSans-30"/>
      </g>
     </g>
    </g>
    <g id="xtick_4">
     <g id="line2d_7">
      <path clip-path="url(#pc207e62c47)" d="M 249.385515 173.52 
L 249.385515 7.2 
" style="fill:none;stroke:#b0b0b0;stroke-linecap:square;stroke-width:0.8;"/>
     </g>
     <g id="line2d_8">
      <g>
       <use style="stroke:#000000;stroke-width:0.8;" x="249.385515" xlink:href="#m4cbf3fa812" y="173.52"/>
      </g>
     </g>
     <g id="text_4">
      <!-- 600 -->
      <g transform="translate(239.841765 188.118438)scale(0.1 -0.1)">
       <defs>
        <path d="M 2113 2584 
Q 1688 2584 1439 2293 
Q 1191 2003 1191 1497 
Q 1191 994 1439 701 
Q 1688 409 2113 409 
Q 2538 409 2786 701 
Q 3034 994 3034 1497 
Q 3034 2003 2786 2293 
Q 2538 2584 2113 2584 
z
M 3366 4563 
L 3366 3988 
Q 3128 4100 2886 4159 
Q 2644 4219 2406 4219 
Q 1781 4219 1451 3797 
Q 1122 3375 1075 2522 
Q 1259 2794 1537 2939 
Q 1816 3084 2150 3084 
Q 2853 3084 3261 2657 
Q 3669 2231 3669 1497 
Q 3669 778 3244 343 
Q 2819 -91 2113 -91 
Q 1303 -91 875 529 
Q 447 1150 447 2328 
Q 447 3434 972 4092 
Q 1497 4750 2381 4750 
Q 2619 4750 2861 4703 
Q 3103 4656 3366 4563 
z
" id="DejaVuSans-36" transform="scale(0.015625)"/>
       </defs>
       <use xlink:href="#DejaVuSans-36"/>
       <use x="63.623047" xlink:href="#DejaVuSans-30"/>
       <use x="127.246094" xlink:href="#DejaVuSans-30"/>
      </g>
     </g>
    </g>
    <g id="xtick_5">
     <g id="line2d_9">
      <path clip-path="url(#pc207e62c47)" d="M 310.564135 173.52 
L 310.564135 7.2 
" style="fill:none;stroke:#b0b0b0;stroke-linecap:square;stroke-width:0.8;"/>
     </g>
     <g id="line2d_10">
      <g>
       <use style="stroke:#000000;stroke-width:0.8;" x="310.564135" xlink:href="#m4cbf3fa812" y="173.52"/>
      </g>
     </g>
     <g id="text_5">
      <!-- 800 -->
      <g transform="translate(301.020385 188.118438)scale(0.1 -0.1)">
       <defs>
        <path d="M 2034 2216 
Q 1584 2216 1326 1975 
Q 1069 1734 1069 1313 
Q 1069 891 1326 650 
Q 1584 409 2034 409 
Q 2484 409 2743 651 
Q 3003 894 3003 1313 
Q 3003 1734 2745 1975 
Q 2488 2216 2034 2216 
z
M 1403 2484 
Q 997 2584 770 2862 
Q 544 3141 544 3541 
Q 544 4100 942 4425 
Q 1341 4750 2034 4750 
Q 2731 4750 3128 4425 
Q 3525 4100 3525 3541 
Q 3525 3141 3298 2862 
Q 3072 2584 2669 2484 
Q 3125 2378 3379 2068 
Q 3634 1759 3634 1313 
Q 3634 634 3220 271 
Q 2806 -91 2034 -91 
Q 1263 -91 848 271 
Q 434 634 434 1313 
Q 434 1759 690 2068 
Q 947 2378 1403 2484 
z
M 1172 3481 
Q 1172 3119 1398 2916 
Q 1625 2713 2034 2713 
Q 2441 2713 2670 2916 
Q 2900 3119 2900 3481 
Q 2900 3844 2670 4047 
Q 2441 4250 2034 4250 
Q 1625 4250 1398 4047 
Q 1172 3844 1172 3481 
z
" id="DejaVuSans-38" transform="scale(0.015625)"/>
       </defs>
       <use xlink:href="#DejaVuSans-38"/>
       <use x="63.623047" xlink:href="#DejaVuSans-30"/>
       <use x="127.246094" xlink:href="#DejaVuSans-30"/>
      </g>
     </g>
    </g>
    <g id="xtick_6">
     <g id="line2d_11">
      <path clip-path="url(#pc207e62c47)" d="M 371.742756 173.52 
L 371.742756 7.2 
" style="fill:none;stroke:#b0b0b0;stroke-linecap:square;stroke-width:0.8;"/>
     </g>
     <g id="line2d_12">
      <g>
       <use style="stroke:#000000;stroke-width:0.8;" x="371.742756" xlink:href="#m4cbf3fa812" y="173.52"/>
      </g>
     </g>
     <g id="text_6">
      <!-- 1000 -->
      <g transform="translate(359.017756 188.118438)scale(0.1 -0.1)">
       <defs>
        <path d="M 794 531 
L 1825 531 
L 1825 4091 
L 703 3866 
L 703 4441 
L 1819 4666 
L 2450 4666 
L 2450 531 
L 3481 531 
L 3481 0 
L 794 0 
L 794 531 
z
" id="DejaVuSans-31" transform="scale(0.015625)"/>
       </defs>
       <use xlink:href="#DejaVuSans-31"/>
       <use x="63.623047" xlink:href="#DejaVuSans-30"/>
       <use x="127.246094" xlink:href="#DejaVuSans-30"/>
       <use x="190.869141" xlink:href="#DejaVuSans-30"/>
      </g>
     </g>
    </g>
    <g id="text_7">
     <!-- time -->
     <g transform="translate(208.264844 201.796563)scale(0.1 -0.1)">
      <defs>
       <path d="M 1172 4494 
L 1172 3500 
L 2356 3500 
L 2356 3053 
L 1172 3053 
L 1172 1153 
Q 1172 725 1289 603 
Q 1406 481 1766 481 
L 2356 481 
L 2356 0 
L 1766 0 
Q 1100 0 847 248 
Q 594 497 594 1153 
L 594 3053 
L 172 3053 
L 172 3500 
L 594 3500 
L 594 4494 
L 1172 4494 
z
" id="DejaVuSans-74" transform="scale(0.015625)"/>
       <path d="M 603 3500 
L 1178 3500 
L 1178 0 
L 603 0 
L 603 3500 
z
M 603 4863 
L 1178 4863 
L 1178 4134 
L 603 4134 
L 603 4863 
z
" id="DejaVuSans-69" transform="scale(0.015625)"/>
       <path d="M 3328 2828 
Q 3544 3216 3844 3400 
Q 4144 3584 4550 3584 
Q 5097 3584 5394 3201 
Q 5691 2819 5691 2113 
L 5691 0 
L 5113 0 
L 5113 2094 
Q 5113 2597 4934 2840 
Q 4756 3084 4391 3084 
Q 3944 3084 3684 2787 
Q 3425 2491 3425 1978 
L 3425 0 
L 2847 0 
L 2847 2094 
Q 2847 2600 2669 2842 
Q 2491 3084 2119 3084 
Q 1678 3084 1418 2786 
Q 1159 2488 1159 1978 
L 1159 0 
L 581 0 
L 581 3500 
L 1159 3500 
L 1159 2956 
Q 1356 3278 1631 3431 
Q 1906 3584 2284 3584 
Q 2666 3584 2933 3390 
Q 3200 3197 3328 2828 
z
" id="DejaVuSans-6d" transform="scale(0.015625)"/>
       <path d="M 3597 1894 
L 3597 1613 
L 953 1613 
Q 991 1019 1311 708 
Q 1631 397 2203 397 
Q 2534 397 2845 478 
Q 3156 559 3463 722 
L 3463 178 
Q 3153 47 2828 -22 
Q 2503 -91 2169 -91 
Q 1331 -91 842 396 
Q 353 884 353 1716 
Q 353 2575 817 3079 
Q 1281 3584 2069 3584 
Q 2775 3584 3186 3129 
Q 3597 2675 3597 1894 
z
M 3022 2063 
Q 3016 2534 2758 2815 
Q 2500 3097 2075 3097 
Q 1594 3097 1305 2825 
Q 1016 2553 972 2059 
L 3022 2063 
z
" id="DejaVuSans-65" transform="scale(0.015625)"/>
      </defs>
      <use xlink:href="#DejaVuSans-74"/>
      <use x="39.208984" xlink:href="#DejaVuSans-69"/>
      <use x="66.992188" xlink:href="#DejaVuSans-6d"/>
      <use x="164.404297" xlink:href="#DejaVuSans-65"/>
     </g>
    </g>
   </g>
   <g id="matplotlib.axis_2">
    <g id="ytick_1">
     <g id="line2d_13">
      <path clip-path="url(#pc207e62c47)" d="M 52.160938 170.101989 
L 386.960938 170.101989 
" style="fill:none;stroke:#b0b0b0;stroke-linecap:square;stroke-width:0.8;"/>
     </g>
     <g id="line2d_14">
      <defs>
       <path d="M 0 0 
L -3.5 0 
" id="m2de50888d4" style="stroke:#000000;stroke-width:0.8;"/>
      </defs>
      <g>
       <use style="stroke:#000000;stroke-width:0.8;" x="52.160938" xlink:href="#m2de50888d4" y="170.101989"/>
      </g>
     </g>
     <g id="text_8">
      <!-- −1.5 -->
      <g transform="translate(20.878125 173.901208)scale(0.1 -0.1)">
       <defs>
        <path d="M 678 2272 
L 4684 2272 
L 4684 1741 
L 678 1741 
L 678 2272 
z
" id="DejaVuSans-2212" transform="scale(0.015625)"/>
        <path d="M 684 794 
L 1344 794 
L 1344 0 
L 684 0 
L 684 794 
z
" id="DejaVuSans-2e" transform="scale(0.015625)"/>
        <path d="M 691 4666 
L 3169 4666 
L 3169 4134 
L 1269 4134 
L 1269 2991 
Q 1406 3038 1543 3061 
Q 1681 3084 1819 3084 
Q 2600 3084 3056 2656 
Q 3513 2228 3513 1497 
Q 3513 744 3044 326 
Q 2575 -91 1722 -91 
Q 1428 -91 1123 -41 
Q 819 9 494 109 
L 494 744 
Q 775 591 1075 516 
Q 1375 441 1709 441 
Q 2250 441 2565 725 
Q 2881 1009 2881 1497 
Q 2881 1984 2565 2268 
Q 2250 2553 1709 2553 
Q 1456 2553 1204 2497 
Q 953 2441 691 2322 
L 691 4666 
z
" id="DejaVuSans-35" transform="scale(0.015625)"/>
       </defs>
       <use xlink:href="#DejaVuSans-2212"/>
       <use x="83.789062" xlink:href="#DejaVuSans-31"/>
       <use x="147.412109" xlink:href="#DejaVuSans-2e"/>
       <use x="179.199219" xlink:href="#DejaVuSans-35"/>
      </g>
     </g>
    </g>
    <g id="ytick_2">
     <g id="line2d_15">
      <path clip-path="url(#pc207e62c47)" d="M 52.160938 144.864639 
L 386.960938 144.864639 
" style="fill:none;stroke:#b0b0b0;stroke-linecap:square;stroke-width:0.8;"/>
     </g>
     <g id="line2d_16">
      <g>
       <use style="stroke:#000000;stroke-width:0.8;" x="52.160938" xlink:href="#m2de50888d4" y="144.864639"/>
      </g>
     </g>
     <g id="text_9">
      <!-- −1.0 -->
      <g transform="translate(20.878125 148.663858)scale(0.1 -0.1)">
       <use xlink:href="#DejaVuSans-2212"/>
       <use x="83.789062" xlink:href="#DejaVuSans-31"/>
       <use x="147.412109" xlink:href="#DejaVuSans-2e"/>
       <use x="179.199219" xlink:href="#DejaVuSans-30"/>
      </g>
     </g>
    </g>
    <g id="ytick_3">
     <g id="line2d_17">
      <path clip-path="url(#pc207e62c47)" d="M 52.160938 119.627289 
L 386.960938 119.627289 
" style="fill:none;stroke:#b0b0b0;stroke-linecap:square;stroke-width:0.8;"/>
     </g>
     <g id="line2d_18">
      <g>
       <use style="stroke:#000000;stroke-width:0.8;" x="52.160938" xlink:href="#m2de50888d4" y="119.627289"/>
      </g>
     </g>
     <g id="text_10">
      <!-- −0.5 -->
      <g transform="translate(20.878125 123.426508)scale(0.1 -0.1)">
       <use xlink:href="#DejaVuSans-2212"/>
       <use x="83.789062" xlink:href="#DejaVuSans-30"/>
       <use x="147.412109" xlink:href="#DejaVuSans-2e"/>
       <use x="179.199219" xlink:href="#DejaVuSans-35"/>
      </g>
     </g>
    </g>
    <g id="ytick_4">
     <g id="line2d_19">
      <path clip-path="url(#pc207e62c47)" d="M 52.160938 94.389939 
L 386.960938 94.389939 
" style="fill:none;stroke:#b0b0b0;stroke-linecap:square;stroke-width:0.8;"/>
     </g>
     <g id="line2d_20">
      <g>
       <use style="stroke:#000000;stroke-width:0.8;" x="52.160938" xlink:href="#m2de50888d4" y="94.389939"/>
      </g>
     </g>
     <g id="text_11">
      <!-- 0.0 -->
      <g transform="translate(29.257812 98.189158)scale(0.1 -0.1)">
       <use xlink:href="#DejaVuSans-30"/>
       <use x="63.623047" xlink:href="#DejaVuSans-2e"/>
       <use x="95.410156" xlink:href="#DejaVuSans-30"/>
      </g>
     </g>
    </g>
    <g id="ytick_5">
     <g id="line2d_21">
      <path clip-path="url(#pc207e62c47)" d="M 52.160938 69.15259 
L 386.960938 69.15259 
" style="fill:none;stroke:#b0b0b0;stroke-linecap:square;stroke-width:0.8;"/>
     </g>
     <g id="line2d_22">
      <g>
       <use style="stroke:#000000;stroke-width:0.8;" x="52.160938" xlink:href="#m2de50888d4" y="69.15259"/>
      </g>
     </g>
     <g id="text_12">
      <!-- 0.5 -->
      <g transform="translate(29.257812 72.951808)scale(0.1 -0.1)">
       <use xlink:href="#DejaVuSans-30"/>
       <use x="63.623047" xlink:href="#DejaVuSans-2e"/>
       <use x="95.410156" xlink:href="#DejaVuSans-35"/>
      </g>
     </g>
    </g>
    <g id="ytick_6">
     <g id="line2d_23">
      <path clip-path="url(#pc207e62c47)" d="M 52.160938 43.91524 
L 386.960938 43.91524 
" style="fill:none;stroke:#b0b0b0;stroke-linecap:square;stroke-width:0.8;"/>
     </g>
     <g id="line2d_24">
      <g>
       <use style="stroke:#000000;stroke-width:0.8;" x="52.160938" xlink:href="#m2de50888d4" y="43.91524"/>
      </g>
     </g>
     <g id="text_13">
      <!-- 1.0 -->
      <g transform="translate(29.257812 47.714458)scale(0.1 -0.1)">
       <use xlink:href="#DejaVuSans-31"/>
       <use x="63.623047" xlink:href="#DejaVuSans-2e"/>
       <use x="95.410156" xlink:href="#DejaVuSans-30"/>
      </g>
     </g>
    </g>
    <g id="ytick_7">
     <g id="line2d_25">
      <path clip-path="url(#pc207e62c47)" d="M 52.160938 18.67789 
L 386.960938 18.67789 
" style="fill:none;stroke:#b0b0b0;stroke-linecap:square;stroke-width:0.8;"/>
     </g>
     <g id="line2d_26">
      <g>
       <use style="stroke:#000000;stroke-width:0.8;" x="52.160938" xlink:href="#m2de50888d4" y="18.67789"/>
      </g>
     </g>
     <g id="text_14">
      <!-- 1.5 -->
      <g transform="translate(29.257812 22.477109)scale(0.1 -0.1)">
       <use xlink:href="#DejaVuSans-31"/>
       <use x="63.623047" xlink:href="#DejaVuSans-2e"/>
       <use x="95.410156" xlink:href="#DejaVuSans-35"/>
      </g>
     </g>
    </g>
    <g id="text_15">
     <!-- x -->
     <g transform="translate(14.798438 93.319375)rotate(-90)scale(0.1 -0.1)">
      <defs>
       <path d="M 3513 3500 
L 2247 1797 
L 3578 0 
L 2900 0 
L 1881 1375 
L 863 0 
L 184 0 
L 1544 1831 
L 300 3500 
L 978 3500 
L 1906 2253 
L 2834 3500 
L 3513 3500 
z
" id="DejaVuSans-78" transform="scale(0.015625)"/>
      </defs>
      <use xlink:href="#DejaVuSans-78"/>
     </g>
    </g>
   </g>
   <g id="line2d_27">
    <path clip-path="url(#pc207e62c47)" d="M 67.379119 93.654142 
L 67.685012 83.187967 
L 67.990906 84.269479 
L 68.296799 93.340057 
L 68.602692 84.554389 
L 68.908585 102.452605 
L 69.214478 91.236607 
L 69.520371 85.983672 
L 69.826264 93.893756 
L 70.132157 83.883001 
L 70.43805 98.051749 
L 70.743943 73.860765 
L 71.049837 80.541792 
L 71.35573 75.403405 
L 71.661623 100.550821 
L 72.273409 79.400649 
L 72.885195 88.249629 
L 73.191088 96.957462 
L 73.496981 80.095872 
L 73.802874 78.957128 
L 74.108768 71.835389 
L 74.414661 69.60067 
L 74.720554 85.32828 
L 75.026447 52.202972 
L 75.33234 59.880732 
L 75.638233 83.50583 
L 75.944126 66.265108 
L 76.250019 75.086586 
L 76.555912 87.400918 
L 76.861805 45.713749 
L 77.167699 70.952934 
L 77.473592 58.754478 
L 77.779485 96.291127 
L 78.085378 71.210043 
L 78.391271 66.807663 
L 78.697164 65.005573 
L 79.003057 92.489268 
L 79.30895 75.566157 
L 79.920736 60.181284 
L 80.22663 74.380103 
L 80.532523 66.767947 
L 80.838416 75.537248 
L 81.144309 73.84113 
L 81.450202 58.589791 
L 81.756095 78.05448 
L 82.367881 64.739219 
L 82.673774 65.310695 
L 82.979668 78.773692 
L 83.285561 56.949416 
L 83.591454 63.172818 
L 83.897347 60.633134 
L 84.20324 48.690578 
L 84.509133 59.931522 
L 84.815026 61.193048 
L 85.120919 72.111244 
L 85.426812 72.800663 
L 85.732705 66.328347 
L 86.038599 66.917615 
L 86.344492 53.882849 
L 86.650385 75.665914 
L 87.262171 56.737484 
L 87.568064 67.584503 
L 87.873957 52.263425 
L 88.17985 62.853397 
L 88.485743 44.612941 
L 88.791636 68.195177 
L 89.09753 50.594927 
L 89.403423 73.990296 
L 89.709316 49.106843 
L 90.015209 41.317052 
L 90.321102 59.399145 
L 90.626995 54.371918 
L 90.932888 54.70872 
L 91.238781 49.004192 
L 91.544674 63.004145 
L 91.850567 42.170727 
L 92.156461 60.649802 
L 92.462354 56.224325 
L 92.768247 48.737011 
L 93.07414 45.683772 
L 93.380033 50.192714 
L 93.991819 68.682357 
L 94.297712 62.001539 
L 94.603605 64.582162 
L 94.909498 48.874534 
L 95.215392 53.865267 
L 95.521285 62.345837 
L 95.827178 65.890914 
L 96.133071 49.052576 
L 96.438964 49.264659 
L 97.05075 49.18419 
L 97.356643 59.01927 
L 97.662536 34.876868 
L 97.96843 25.388204 
L 98.274323 57.934495 
L 98.580216 49.712761 
L 98.886109 53.768582 
L 99.192002 44.480788 
L 99.497895 56.528466 
L 99.803788 48.208088 
L 100.109681 47.811399 
L 100.415574 57.090537 
L 100.721467 41.381802 
L 101.027361 45.704341 
L 101.333254 59.389145 
L 101.94504 28.667847 
L 102.250933 41.509935 
L 102.556826 62.639358 
L 102.862719 53.509629 
L 103.168612 59.616475 
L 103.474505 52.82377 
L 103.780398 35.802182 
L 104.086292 38.448825 
L 104.392185 47.434003 
L 104.698078 48.432954 
L 105.003971 47.605077 
L 105.309864 47.789623 
L 105.615757 61.243095 
L 105.92165 59.589507 
L 106.227543 51.704757 
L 106.533436 21.490266 
L 106.839329 40.473828 
L 107.145223 40.72702 
L 107.451116 28.732006 
L 107.757009 43.2208 
L 108.062902 28.918391 
L 108.368795 34.908475 
L 108.674688 58.095695 
L 109.592367 36.597125 
L 109.89826 34.934186 
L 110.510047 58.900795 
L 110.81594 73.302948 
L 111.121833 48.779119 
L 111.427726 47.074698 
L 111.733619 40.543686 
L 112.039512 48.377916 
L 112.345405 44.55166 
L 112.651298 52.362833 
L 112.957191 50.594581 
L 113.263085 44.211348 
L 113.568978 44.723152 
L 113.874871 44.308012 
L 114.180764 41.484603 
L 114.486657 37.556292 
L 114.79255 30.312885 
L 115.098443 36.349854 
L 115.404336 56.622504 
L 115.710229 42.249274 
L 116.016123 45.284339 
L 116.322016 41.959794 
L 116.627909 29.872882 
L 116.933802 43.770343 
L 117.239695 40.217008 
L 117.851481 50.057929 
L 118.157374 19.239576 
L 118.463267 56.044072 
L 118.76916 50.616299 
L 119.075054 37.673269 
L 119.380947 36.244225 
L 119.68684 58.266784 
L 119.992733 42.323843 
L 120.298626 56.288888 
L 120.910412 44.664288 
L 121.522198 50.718364 
L 121.828091 38.449589 
L 122.133985 36.344818 
L 122.439878 53.156555 
L 122.745771 48.07463 
L 123.051664 55.050765 
L 123.357557 43.238622 
L 123.66345 54.53393 
L 123.969343 47.38059 
L 124.275236 35.310517 
L 124.581129 42.265737 
L 124.887022 58.197678 
L 125.192916 62.870359 
L 125.498809 38.535368 
L 125.804702 45.988791 
L 126.110595 36.618028 
L 126.416488 45.708893 
L 126.722381 65.615886 
L 127.028274 46.605985 
L 127.334167 52.971702 
L 127.64006 37.406232 
L 127.945953 36.072324 
L 128.251847 32.487123 
L 128.55774 54.407726 
L 128.863633 59.13614 
L 129.169526 60.64426 
L 129.475419 58.484051 
L 129.781312 55.025385 
L 130.087205 55.400233 
L 130.393098 51.872654 
L 130.698991 52.665335 
L 131.004885 60.566526 
L 131.310778 57.964024 
L 131.616671 52.927648 
L 131.922564 61.861218 
L 132.228457 40.469887 
L 132.53435 44.1987 
L 132.840243 60.339875 
L 133.146136 52.019196 
L 133.757922 64.065674 
L 134.063816 38.626166 
L 134.369709 41.698395 
L 134.981495 52.836667 
L 135.287388 44.939246 
L 135.899174 63.925133 
L 136.205067 49.358952 
L 136.51096 57.144092 
L 136.816853 72.858863 
L 137.122747 47.993902 
L 137.42864 76.437764 
L 137.734533 53.36244 
L 138.040426 72.950263 
L 138.652212 42.679156 
L 138.958105 63.740178 
L 139.263998 59.92928 
L 139.569891 62.875741 
L 139.875784 59.085446 
L 140.181678 61.63779 
L 140.487571 76.089985 
L 140.793464 65.469551 
L 141.099357 72.978671 
L 141.40525 65.858614 
L 141.711143 68.808176 
L 142.017036 50.123764 
L 142.322929 78.323121 
L 142.628822 72.878397 
L 142.934715 73.891762 
L 143.240609 80.216134 
L 143.546502 68.799539 
L 143.852395 70.806745 
L 144.158288 55.048798 
L 144.464181 67.360473 
L 144.770074 68.687222 
L 145.075967 65.696515 
L 145.38186 93.253879 
L 145.687753 60.881133 
L 145.993646 58.671241 
L 146.29954 57.699291 
L 146.605433 61.447127 
L 146.911326 63.7778 
L 147.217219 80.666711 
L 147.829005 87.459475 
L 148.134898 88.89621 
L 148.440791 61.486018 
L 148.746684 82.85901 
L 149.052578 75.364281 
L 149.358471 63.242225 
L 149.664364 68.292052 
L 149.970257 71.396896 
L 150.27615 77.049937 
L 150.582043 95.470446 
L 150.887936 78.821592 
L 151.193829 88.368995 
L 151.499722 77.133753 
L 151.805615 81.758233 
L 152.111509 60.987136 
L 152.417402 83.305797 
L 152.723295 96.051837 
L 153.029188 72.722092 
L 153.335081 70.520392 
L 153.640974 86.899158 
L 153.946867 91.120793 
L 154.25276 75.274327 
L 154.558653 73.62348 
L 154.864546 88.481309 
L 155.17044 75.505059 
L 155.476333 94.928824 
L 155.782226 67.700551 
L 156.088119 92.942122 
L 156.394012 93.288616 
L 156.699905 94.048097 
L 157.005798 87.563833 
L 157.311691 63.763596 
L 157.617584 85.428778 
L 157.923477 78.907147 
L 158.535264 93.059264 
L 158.841157 86.749081 
L 159.14705 76.094972 
L 159.452943 106.38939 
L 159.758836 102.699381 
L 160.064729 93.818601 
L 160.370622 99.636736 
L 160.676515 95.702693 
L 160.982408 77.328997 
L 161.288302 80.214241 
L 161.594195 76.909804 
L 161.900088 110.644157 
L 162.205981 81.91786 
L 162.511874 97.680868 
L 162.817767 99.220838 
L 163.12366 84.550816 
L 163.429553 94.634314 
L 163.735446 88.51891 
L 164.04134 95.907432 
L 164.347233 98.746176 
L 164.653126 119.919306 
L 164.959019 96.003539 
L 165.264912 87.751847 
L 165.570805 110.28138 
L 165.876698 92.24416 
L 166.182591 106.758953 
L 166.488484 105.086835 
L 166.794377 98.92895 
L 167.100271 87.659764 
L 167.406164 111.928307 
L 167.712057 89.996213 
L 168.01795 101.372792 
L 168.323843 107.98265 
L 168.629736 129.825442 
L 168.935629 91.890739 
L 169.241522 100.517073 
L 169.547415 115.933106 
L 169.853308 100.231374 
L 170.159202 112.214952 
L 170.465095 112.702082 
L 170.770988 106.227311 
L 171.076881 104.999815 
L 171.382774 95.584661 
L 171.688667 100.713044 
L 171.99456 111.406293 
L 172.300453 106.048512 
L 172.606346 111.62503 
L 172.912239 130.152788 
L 173.218133 126.298895 
L 173.524026 129.818017 
L 173.829919 126.49099 
L 174.135812 121.492317 
L 174.441705 133.193415 
L 174.747598 127.619025 
L 175.053491 117.360304 
L 175.359384 131.146546 
L 175.665277 119.482167 
L 175.97117 114.568876 
L 176.277064 112.250742 
L 176.582957 112.458356 
L 176.88885 110.857555 
L 177.194743 128.976355 
L 177.500636 107.693608 
L 177.806529 130.616667 
L 178.112422 107.454525 
L 178.418315 123.397689 
L 178.724208 109.774278 
L 179.030102 135.831219 
L 179.335995 138.318543 
L 179.641888 114.105692 
L 179.947781 106.297972 
L 180.253674 119.441224 
L 180.559567 122.008309 
L 180.86546 129.701617 
L 181.171353 120.099483 
L 181.477246 114.43149 
L 181.783139 124.75754 
L 182.089033 118.526289 
L 182.700819 125.175469 
L 183.006712 126.005886 
L 183.312605 117.612959 
L 183.618498 118.830791 
L 183.924391 140.916778 
L 184.230284 125.811331 
L 184.536177 121.08289 
L 185.147964 138.621489 
L 185.453857 128.932286 
L 185.75975 138.163949 
L 186.065643 136.514522 
L 186.371536 124.856117 
L 186.677429 139.156131 
L 186.983322 129.946833 
L 187.289215 128.524603 
L 187.595108 125.997056 
L 187.901001 121.403114 
L 188.206895 134.5792 
L 188.512788 136.06614 
L 188.818681 133.24969 
L 189.124574 148.432378 
L 189.430467 146.638797 
L 189.73636 122.479047 
L 190.042253 143.469278 
L 190.348146 129.317383 
L 190.654039 130.278087 
L 190.959932 148.511635 
L 191.265826 126.704291 
L 191.571719 140.490578 
L 191.877612 128.197715 
L 192.183505 152.687434 
L 192.489398 132.079262 
L 192.795291 141.590041 
L 193.101184 147.479476 
L 193.407077 136.046269 
L 193.71297 159.546231 
L 194.018863 148.05612 
L 194.324757 128.103671 
L 194.63065 141.424937 
L 194.936543 141.337686 
L 195.242436 129.375728 
L 195.548329 134.525299 
L 195.854222 151.762095 
L 196.160115 137.956382 
L 196.466008 144.577884 
L 196.771901 165.96 
L 197.077795 128.406462 
L 197.383688 132.139959 
L 197.689581 145.794484 
L 197.995474 138.209826 
L 198.301367 113.968964 
L 198.913153 158.046901 
L 199.524939 126.112204 
L 199.830832 126.928087 
L 200.136726 152.590337 
L 200.442619 128.293717 
L 201.054405 133.603147 
L 201.360298 155.784983 
L 201.666191 149.72418 
L 201.972084 135.723105 
L 202.277977 143.048013 
L 202.58387 162.149677 
L 203.195657 131.307117 
L 203.50155 129.609048 
L 203.807443 123.279665 
L 204.113336 132.558574 
L 204.419229 161.972192 
L 205.031015 147.269096 
L 205.336908 155.770506 
L 205.642801 154.374706 
L 205.948694 163.932632 
L 206.254588 143.914892 
L 206.560481 143.64568 
L 207.172267 134.106037 
L 207.47816 149.058501 
L 207.784053 145.782775 
L 208.089946 145.284665 
L 208.395839 139.512855 
L 208.701732 159.862391 
L 209.007625 130.684635 
L 209.313519 142.400439 
L 209.619412 131.511766 
L 209.925305 132.774496 
L 210.537091 148.441681 
L 210.842984 153.626407 
L 211.148877 143.482239 
L 211.45477 151.890174 
L 211.760663 128.669711 
L 212.066557 149.242412 
L 212.37245 120.277107 
L 212.984236 144.44649 
L 213.290129 148.576541 
L 213.596022 135.9632 
L 213.901915 143.427559 
L 214.207808 137.367854 
L 214.513701 136.26254 
L 214.819594 163.593746 
L 215.431381 157.897143 
L 215.737274 150.141077 
L 216.043167 152.94565 
L 216.34906 150.377168 
L 216.654953 146.512939 
L 216.960846 151.808878 
L 217.266739 150.077326 
L 217.572632 141.621472 
L 217.878525 119.224741 
L 218.184419 138.084467 
L 218.490312 149.054584 
L 218.796205 135.946662 
L 219.102098 131.152202 
L 219.407991 156.963651 
L 219.713884 133.21711 
L 220.019777 136.251907 
L 220.32567 145.919278 
L 220.631563 146.788008 
L 220.937456 150.463844 
L 221.24335 127.368541 
L 221.549243 144.692979 
L 221.855136 126.644232 
L 222.466922 144.101641 
L 222.772815 157.233462 
L 223.078708 151.941734 
L 223.384601 150.068806 
L 223.690494 126.866231 
L 224.302281 146.445451 
L 224.608174 143.677965 
L 224.914067 151.077126 
L 225.21996 149.681447 
L 225.525853 138.330643 
L 225.831746 145.937576 
L 226.137639 136.597801 
L 226.443532 142.386952 
L 226.749425 137.395999 
L 227.055318 152.130002 
L 227.361212 153.660054 
L 227.667105 133.50465 
L 227.972998 149.993178 
L 228.278891 147.341342 
L 228.584784 143.075914 
L 228.890677 135.520165 
L 229.19657 115.673493 
L 229.502463 139.934221 
L 229.808356 142.121311 
L 230.11425 121.246526 
L 230.420143 137.631118 
L 230.726036 145.517237 
L 231.337822 116.873932 
L 231.643715 113.243497 
L 231.949608 129.886861 
L 232.255501 127.703077 
L 232.561394 124.02058 
L 232.867287 151.585928 
L 233.173181 122.523306 
L 233.479074 121.06328 
L 233.784967 135.698769 
L 234.09086 112.709267 
L 234.396753 146.492059 
L 234.702646 128.808259 
L 235.008539 134.322299 
L 235.314432 137.111723 
L 235.620325 142.861797 
L 236.232112 115.495973 
L 236.538005 117.436067 
L 236.843898 111.015984 
L 237.455684 126.751203 
L 237.761577 127.589899 
L 238.06747 146.208385 
L 238.373363 111.398479 
L 238.679256 114.964582 
L 238.985149 126.802589 
L 239.291043 133.103635 
L 239.596936 103.747878 
L 239.902829 133.774064 
L 240.208722 118.205769 
L 240.514615 126.506096 
L 240.820508 128.812793 
L 241.126401 119.804892 
L 241.432294 125.650338 
L 241.738187 120.533403 
L 242.04408 127.650335 
L 242.349974 119.37049 
L 242.655867 125.799633 
L 242.96176 113.276733 
L 243.267653 121.34758 
L 243.573546 122.702382 
L 243.879439 125.536772 
L 244.185332 118.461389 
L 244.491225 116.108359 
L 245.103012 130.068826 
L 245.714798 114.245335 
L 246.326584 105.929719 
L 246.632477 114.855652 
L 246.93837 104.193198 
L 247.244263 125.245285 
L 247.550156 91.441179 
L 247.856049 91.91266 
L 248.161943 128.978178 
L 248.467836 95.216291 
L 248.773729 125.12205 
L 249.385515 90.956364 
L 249.691408 111.481326 
L 249.997301 111.843315 
L 250.303194 93.217807 
L 250.609087 106.892873 
L 250.91498 113.656588 
L 251.220874 100.875909 
L 251.526767 113.562504 
L 251.83266 96.53019 
L 252.138553 113.000378 
L 252.444446 92.81642 
L 252.750339 85.288103 
L 253.362125 107.33513 
L 253.668018 118.418338 
L 253.973911 84.872643 
L 254.279805 88.778112 
L 254.585698 100.981153 
L 254.891591 96.145166 
L 255.197484 100.849514 
L 255.503377 86.047016 
L 255.80927 106.772351 
L 256.115163 101.549245 
L 256.421056 88.038816 
L 256.726949 104.142021 
L 257.032842 87.075429 
L 257.338736 90.997714 
L 257.644629 114.902121 
L 257.950522 103.925564 
L 258.256415 74.438735 
L 258.562308 94.836048 
L 258.868201 96.774092 
L 259.174094 86.072904 
L 259.479987 105.405082 
L 259.78588 89.98483 
L 260.091773 93.452123 
L 260.397667 64.77552 
L 260.70356 85.091771 
L 261.009453 74.338916 
L 261.315346 97.392593 
L 261.621239 73.238075 
L 261.927132 96.88698 
L 262.233025 104.488038 
L 262.538918 82.746336 
L 262.844811 81.925302 
L 263.150705 85.521792 
L 263.456598 79.97387 
L 263.762491 93.911273 
L 264.068384 89.484788 
L 264.374277 80.962184 
L 264.68017 96.553398 
L 264.986063 87.340559 
L 265.291956 59.220186 
L 265.597849 89.262807 
L 265.903742 67.493568 
L 266.209636 80.699639 
L 266.515529 65.315253 
L 266.821422 88.289473 
L 267.127315 98.64955 
L 267.433208 87.171952 
L 267.739101 68.492227 
L 268.044994 71.92786 
L 268.350887 105.709489 
L 268.65678 86.84782 
L 268.962673 81.890607 
L 269.268567 68.73642 
L 269.57446 78.840874 
L 269.880353 67.242416 
L 270.186246 75.537734 
L 270.492139 71.608024 
L 270.798032 73.671038 
L 271.103925 74.153253 
L 271.409818 67.566512 
L 271.715711 49.19823 
L 272.021604 67.043275 
L 272.327498 73.002739 
L 272.633391 103.299785 
L 273.245177 50.047267 
L 273.55107 80.640525 
L 273.856963 71.511983 
L 274.468749 61.858041 
L 274.774642 80.939459 
L 275.080535 66.847336 
L 275.386429 59.83336 
L 275.692322 69.658759 
L 275.998215 72.539347 
L 276.304108 67.975561 
L 276.610001 58.375079 
L 276.915894 44.753921 
L 277.221787 66.799112 
L 277.52768 63.125635 
L 277.833573 78.359636 
L 278.139467 59.872007 
L 278.44536 48.915453 
L 278.751253 63.405573 
L 279.057146 65.197373 
L 279.363039 62.577518 
L 279.668932 71.566553 
L 279.974825 69.501276 
L 280.280718 52.06211 
L 280.586611 53.187615 
L 280.892504 65.952324 
L 281.198398 66.116598 
L 281.504291 75.383073 
L 281.810184 49.624773 
L 282.116077 58.768146 
L 282.42197 54.664904 
L 282.727863 56.431312 
L 283.033756 67.779543 
L 283.339649 35.910579 
L 283.951435 72.146543 
L 284.257329 60.772992 
L 284.563222 73.541882 
L 284.869115 59.836401 
L 285.175008 61.777211 
L 285.480901 40.231485 
L 286.092687 65.974156 
L 286.39858 36.583208 
L 286.704473 50.919679 
L 287.31626 31.35194 
L 287.622153 48.175861 
L 288.233939 54.012089 
L 288.539832 37.648413 
L 288.845725 48.483573 
L 289.151618 43.260109 
L 289.457511 48.835471 
L 289.763404 39.498398 
L 290.069297 61.501642 
L 290.375191 40.486988 
L 290.681084 46.17918 
L 290.986977 56.08093 
L 291.29287 51.495165 
L 291.598763 59.157753 
L 291.904656 41.35854 
L 292.210549 52.135464 
L 292.516442 56.555248 
L 293.434122 42.076597 
L 293.740015 28.350561 
L 294.045908 37.535671 
L 294.351801 58.782731 
L 294.657694 28.695964 
L 294.963587 43.390258 
L 295.26948 42.310257 
L 295.575373 40.741906 
L 295.881266 45.211599 
L 296.18716 35.773655 
L 296.493053 31.332126 
L 296.798946 55.863837 
L 297.104839 29.294872 
L 297.410732 35.533166 
L 298.022518 54.554337 
L 298.328411 48.76076 
L 298.634304 37.831199 
L 298.940197 48.999827 
L 299.246091 39.286561 
L 299.857877 46.646386 
L 300.16377 51.943273 
L 300.469663 66.731366 
L 300.775556 39.325654 
L 301.081449 33.319408 
L 301.387342 44.10181 
L 301.693235 44.919925 
L 301.999128 38.944185 
L 302.305022 38.786568 
L 302.610915 25.75528 
L 302.916808 53.538583 
L 303.222701 37.67088 
L 303.528594 28.466721 
L 303.834487 44.017 
L 304.14038 45.561406 
L 304.446273 40.943188 
L 304.752166 27.993491 
L 305.058059 33.153193 
L 305.363953 41.152323 
L 305.669846 57.961196 
L 305.975739 35.096165 
L 306.281632 40.371448 
L 306.587525 73.702742 
L 306.893418 40.243634 
L 307.199311 29.086964 
L 307.505204 58.549573 
L 307.811097 32.802958 
L 308.11699 42.100214 
L 308.422884 40.918783 
L 308.728777 54.381819 
L 309.03467 39.252102 
L 309.340563 54.563291 
L 309.646456 51.860494 
L 309.952349 44.941406 
L 310.258242 46.83024 
L 310.564135 50.353044 
L 310.870028 46.000699 
L 311.175922 30.916251 
L 311.481815 53.215772 
L 311.787708 53.425045 
L 312.093601 59.557014 
L 312.399494 54.784881 
L 312.705387 44.517056 
L 313.01128 48.688613 
L 313.317173 38.562229 
L 313.623066 53.160123 
L 313.928959 39.627867 
L 314.234853 14.76 
L 314.540746 59.396467 
L 314.846639 73.511331 
L 315.152532 47.330501 
L 315.458425 54.789517 
L 315.764318 27.17516 
L 316.070211 61.084028 
L 316.376104 39.279142 
L 316.681997 48.906924 
L 316.98789 34.782244 
L 317.293784 52.599968 
L 317.599677 56.658194 
L 317.90557 51.190859 
L 318.211463 32.866889 
L 318.517356 46.115688 
L 318.823249 41.878521 
L 319.129142 68.952041 
L 319.435035 77.832068 
L 319.740928 56.992137 
L 320.046821 63.810259 
L 320.352715 45.491016 
L 320.658608 55.870167 
L 320.964501 44.299089 
L 321.270394 53.156729 
L 321.576287 30.338806 
L 321.88218 45.745004 
L 322.188073 50.207107 
L 322.493966 49.82966 
L 322.799859 37.107028 
L 323.105752 45.146353 
L 323.411646 49.858665 
L 323.717539 61.331726 
L 324.023432 39.501412 
L 324.329325 41.212139 
L 324.635218 58.310317 
L 324.941111 48.639023 
L 325.552897 56.838305 
L 325.85879 53.709597 
L 326.164684 73.06277 
L 326.77647 51.026334 
L 327.082363 50.495221 
L 327.388256 67.988512 
L 327.694149 46.258647 
L 328.000042 73.417854 
L 328.305935 65.065533 
L 328.611828 40.464947 
L 328.917721 67.658251 
L 329.223615 65.782498 
L 329.529508 62.325563 
L 329.835401 69.950878 
L 330.447187 48.183677 
L 330.75308 67.241733 
L 331.058973 70.321342 
L 331.364866 43.396732 
L 331.670759 46.184776 
L 331.976652 56.412758 
L 332.282546 37.967533 
L 332.588439 61.74804 
L 332.894332 65.624584 
L 333.200225 62.171553 
L 333.506118 62.642701 
L 333.812011 66.681578 
L 334.117904 61.140483 
L 334.423797 81.842308 
L 334.72969 67.992475 
L 335.035583 70.456786 
L 335.341477 76.461149 
L 335.64737 76.172773 
L 335.953263 64.739051 
L 336.259156 78.051047 
L 336.565049 66.636529 
L 336.870942 85.607043 
L 337.176835 63.150155 
L 337.788621 66.557179 
L 338.094514 61.183331 
L 338.400408 80.125277 
L 338.706301 70.073044 
L 339.012194 73.278436 
L 339.62398 52.858241 
L 339.929873 67.111704 
L 340.235766 52.72043 
L 340.541659 81.126327 
L 340.847552 52.03821 
L 341.459339 63.755254 
L 341.765232 76.56298 
L 342.071125 83.578167 
L 342.377018 78.000835 
L 342.682911 80.979339 
L 342.988804 66.707731 
L 343.294697 68.210129 
L 343.60059 63.036062 
L 343.906483 84.834686 
L 344.212377 88.000311 
L 344.824163 76.586117 
L 345.130056 66.870087 
L 345.435949 74.59156 
L 345.741842 60.465589 
L 346.047735 88.833808 
L 346.353628 77.587012 
L 346.659521 72.489169 
L 346.965414 75.510825 
L 347.271308 85.13959 
L 347.577201 85.089962 
L 347.883094 85.363418 
L 348.188987 83.240588 
L 348.49488 100.161833 
L 348.800773 89.756217 
L 349.106666 92.21259 
L 349.412559 75.932459 
L 349.718452 86.510447 
L 350.024345 75.817028 
L 350.330239 88.062622 
L 350.636132 89.227385 
L 350.942025 89.932288 
L 351.247918 82.072857 
L 351.553811 99.315004 
L 351.859704 97.963269 
L 352.165597 99.456335 
L 352.47149 76.465346 
L 352.777383 98.33058 
L 353.083276 94.352026 
L 353.38917 107.884432 
L 353.695063 93.170943 
L 354.000956 108.770358 
L 354.306849 99.376468 
L 354.612742 97.870462 
L 354.918635 97.848435 
L 355.224528 95.794752 
L 355.530421 96.062047 
L 355.836314 81.807734 
L 356.142207 102.615861 
L 356.448101 103.566964 
L 356.753994 92.250144 
L 357.059887 107.047138 
L 357.36578 91.87535 
L 357.671673 101.795376 
L 357.977566 92.566685 
L 358.283459 100.831405 
L 358.589352 100.950823 
L 358.895245 97.845985 
L 359.201139 103.060197 
L 359.507032 104.010217 
L 359.812925 92.492139 
L 360.118818 87.525474 
L 360.424711 93.343945 
L 360.730604 92.989994 
L 361.036497 117.436937 
L 361.648283 101.134392 
L 361.954176 110.922292 
L 362.26007 111.689068 
L 362.565963 107.141719 
L 362.871856 106.388486 
L 363.177749 114.484272 
L 363.483642 134.526593 
L 363.789535 104.771839 
L 364.095428 101.490544 
L 364.401321 127.1544 
L 364.707214 129.309001 
L 365.319001 90.337487 
L 365.624894 112.161017 
L 365.930787 114.686758 
L 366.23668 134.163238 
L 366.542573 105.568221 
L 366.848466 120.540801 
L 367.154359 128.252921 
L 367.460252 109.176736 
L 368.072038 122.445942 
L 368.377932 123.515319 
L 368.683825 125.428083 
L 368.989718 121.101413 
L 369.295611 112.320377 
L 369.601504 116.57995 
L 369.907397 126.443446 
L 370.21329 115.572883 
L 370.519183 127.200593 
L 371.130969 110.727869 
L 371.436863 116.688711 
L 371.742756 127.449497 
L 371.742756 127.449497 
" style="fill:none;stroke:#1f77b4;stroke-linecap:square;stroke-width:1.5;"/>
   </g>
   <g id="line2d_28">
    <path clip-path="url(#pc207e62c47)" d="M 67.379119 99.671985 
L 67.685012 97.265445 
L 67.990906 92.423932 
L 68.908585 84.837444 
L 69.214478 91.872667 
L 69.520371 91.229918 
L 69.826264 92.027644 
L 70.132157 93.289856 
L 70.43805 87.677818 
L 70.743943 91.225341 
L 71.049837 84.946132 
L 71.35573 84.866374 
L 71.661623 79.226746 
L 71.967516 82.381131 
L 72.273409 83.238134 
L 72.579302 86.063492 
L 72.885195 87.296081 
L 73.191088 83.869209 
L 73.496981 86.388022 
L 73.802874 85.567125 
L 74.108768 86.149253 
L 74.720554 73.704535 
L 75.026447 74.370819 
L 75.33234 66.662131 
L 75.638233 66.406918 
L 75.944126 67.167672 
L 76.250019 62.772034 
L 76.861805 75.063415 
L 77.167699 66.129321 
L 77.473592 69.955559 
L 77.779485 62.271454 
L 78.085378 67.285507 
L 78.391271 69.395224 
L 78.697164 72.750742 
L 79.003057 72.223585 
L 79.30895 72.436793 
L 79.614843 71.188068 
L 79.920736 73.788467 
L 80.22663 71.538351 
L 80.838416 64.134448 
L 81.450202 69.46739 
L 81.756095 66.579478 
L 82.061988 69.949635 
L 82.367881 67.110913 
L 82.673774 66.461153 
L 82.979668 67.524727 
L 83.285561 67.849332 
L 83.591454 63.643514 
L 83.897347 64.918883 
L 84.20324 62.31488 
L 84.509133 56.670102 
L 84.815026 57.255416 
L 85.120919 56.114713 
L 85.426812 58.8691 
L 85.732705 63.483755 
L 86.344492 67.360236 
L 86.650385 62.888609 
L 86.956278 64.312646 
L 87.262171 62.052771 
L 87.568064 61.365975 
L 87.873957 63.965523 
L 88.17985 58.47004 
L 88.485743 59.020068 
L 88.791636 55.482561 
L 89.09753 56.85092 
L 89.403423 54.861884 
L 89.709316 58.786696 
L 90.015209 57.786957 
L 90.321102 54.50994 
L 90.626995 55.421894 
L 90.932888 51.359568 
L 91.850567 54.879947 
L 92.156461 52.069234 
L 92.462354 54.164859 
L 92.768247 54.206663 
L 93.07414 52.394516 
L 93.380033 52.916568 
L 93.685926 51.176679 
L 93.991819 51.327365 
L 94.909498 61.527993 
L 95.521285 57.010351 
L 95.827178 56.153745 
L 96.133071 56.39777 
L 96.744857 56.263969 
L 97.356643 50.443556 
L 97.662536 51.965765 
L 98.274323 46.526653 
L 98.580216 47.677607 
L 98.886109 45.773438 
L 99.497895 51.552174 
L 99.803788 51.930932 
L 100.109681 51.067133 
L 100.415574 50.54685 
L 100.721467 52.458625 
L 101.027361 49.796392 
L 101.333254 49.871557 
L 101.639147 51.358731 
L 102.250933 47.793513 
L 102.556826 47.482034 
L 102.862719 47.454843 
L 103.168612 48.358232 
L 103.474505 53.893292 
L 103.780398 55.726435 
L 104.086292 51.457604 
L 104.698078 46.994846 
L 105.003971 46.185341 
L 106.533436 54.417121 
L 106.839329 50.186471 
L 107.145223 47.673924 
L 107.757009 41.480818 
L 108.062902 44.095493 
L 108.368795 42.604792 
L 108.674688 42.051885 
L 108.980581 45.561036 
L 109.286474 46.29987 
L 109.592367 48.463729 
L 109.89826 48.937048 
L 110.204154 45.679367 
L 110.510047 44.946918 
L 110.81594 46.985399 
L 111.121833 52.77609 
L 111.733619 56.746804 
L 112.345405 48.779871 
L 112.651298 47.637954 
L 113.263085 49.919476 
L 113.568978 49.481513 
L 113.874871 49.624569 
L 115.404336 43.235204 
L 115.710229 45.026108 
L 116.016123 45.398774 
L 116.322016 47.839291 
L 116.627909 48.538803 
L 116.933802 44.916766 
L 117.239695 45.225904 
L 117.545588 44.279921 
L 117.851481 44.778338 
L 118.157374 47.399565 
L 118.463267 44.180231 
L 118.76916 47.032645 
L 119.075054 46.768725 
L 119.380947 45.384014 
L 119.68684 47.881242 
L 119.992733 48.277922 
L 120.298626 46.640273 
L 120.604519 49.977746 
L 120.910412 51.628771 
L 121.216305 49.934958 
L 121.522198 50.742814 
L 121.828091 49.742713 
L 122.133985 47.865628 
L 122.439878 46.909042 
L 122.745771 47.60172 
L 123.051664 46.902664 
L 123.357557 49.64333 
L 123.969343 51.325969 
L 124.275236 50.62133 
L 124.581129 47.905123 
L 124.887022 47.874779 
L 125.192916 48.139698 
L 125.498809 50.352578 
L 125.804702 50.870959 
L 126.110595 52.464488 
L 126.416488 48.360638 
L 126.722381 46.072106 
L 127.028274 49.662121 
L 127.334167 49.569134 
L 127.64006 53.087319 
L 127.945953 51.203985 
L 128.251847 47.116354 
L 128.55774 44.887908 
L 128.863633 45.115202 
L 129.169526 47.699268 
L 129.781312 56.536908 
L 130.087205 57.055476 
L 130.393098 56.42188 
L 130.698991 54.609288 
L 131.004885 53.620355 
L 131.310778 54.478769 
L 131.616671 54.74821 
L 131.922564 55.215007 
L 132.228457 57.14025 
L 132.53435 53.025714 
L 132.840243 51.432121 
L 133.146136 51.982378 
L 133.452029 50.129381 
L 134.063816 56.777235 
L 134.369709 52.871575 
L 134.675602 51.932208 
L 135.287388 47.834718 
L 135.593281 48.559123 
L 136.205067 53.185193 
L 136.51096 52.515636 
L 137.122747 58.734604 
L 137.42864 55.489739 
L 137.734533 62.632378 
L 138.040426 59.554544 
L 138.346319 62.192059 
L 138.652212 61.389033 
L 138.958105 56.349657 
L 139.263998 57.975694 
L 139.569891 54.481844 
L 139.875784 56.371713 
L 140.181678 59.184818 
L 140.487571 59.370365 
L 140.793464 62.598545 
L 141.099357 62.719896 
L 141.40525 67.168394 
L 141.711143 67.090299 
L 142.017036 66.539128 
L 142.322929 62.143084 
L 142.628822 64.726532 
L 142.934715 63.805716 
L 143.240609 67.026 
L 143.546502 73.517429 
L 143.852395 71.455812 
L 144.158288 71.85183 
L 144.464181 66.212615 
L 145.075967 62.610895 
L 145.38186 62.205526 
L 145.687753 71.469465 
L 145.993646 68.352586 
L 146.29954 69.270175 
L 146.605433 65.199172 
L 146.911326 58.727446 
L 147.217219 58.5384 
L 147.829005 69.173129 
L 148.440791 83.685876 
L 148.746684 78.549166 
L 149.052578 80.43948 
L 149.358471 73.553567 
L 149.664364 69.345105 
L 149.970257 70.289575 
L 150.27615 67.082612 
L 150.582043 67.65629 
L 150.887936 75.690364 
L 151.193829 77.743293 
L 151.499722 85.1176 
L 151.805615 82.52916 
L 152.111509 81.247444 
L 152.417402 74.295007 
L 152.723295 75.334477 
L 153.029188 77.136157 
L 153.335081 76.013053 
L 153.640974 79.979139 
L 153.946867 79.811426 
L 154.25276 78.180392 
L 154.558653 78.959411 
L 154.864546 80.783165 
L 155.17044 80.631322 
L 155.476333 75.628419 
L 155.782226 82.909717 
L 156.088119 78.19675 
L 156.394012 84.007968 
L 156.699905 83.910464 
L 157.311691 91.045279 
L 157.617584 83.667541 
L 157.923477 82.964903 
L 158.229371 75.499185 
L 158.535264 77.860409 
L 158.841157 83.818774 
L 159.14705 85.231966 
L 159.452943 84.775049 
L 159.758836 91.286987 
L 160.064729 91.2001 
L 160.676515 101.73874 
L 160.982408 98.328257 
L 161.288302 91.611801 
L 161.594195 88.355356 
L 161.900088 80.544586 
L 162.205981 86.419493 
L 162.511874 83.996036 
L 162.817767 94.578243 
L 163.12366 95.788554 
L 163.429553 91.336292 
L 163.735446 94.938248 
L 164.04134 90.476741 
L 164.347233 91.702108 
L 164.653126 93.869055 
L 164.959019 102.908217 
L 165.264912 102.337448 
L 165.876698 104.956834 
L 166.182591 95.851679 
L 166.488484 102.420764 
L 166.794377 103.220906 
L 167.100271 102.805433 
L 167.406164 100.211541 
L 167.712057 103.312207 
L 168.01795 95.727611 
L 168.323843 100.947099 
L 168.629736 102.600852 
L 168.935629 110.694348 
L 169.241522 107.602236 
L 169.547415 112.235661 
L 169.853308 110.088993 
L 170.159202 103.413547 
L 170.465095 110.604568 
L 170.770988 111.136856 
L 171.076881 110.446184 
L 171.382774 111.171046 
L 171.688667 106.095842 
L 171.99456 103.891969 
L 172.300453 104.400256 
L 172.606346 104.642084 
L 173.829919 127.576135 
L 174.135812 129.566715 
L 174.441705 128.318613 
L 174.747598 130.091396 
L 175.359384 127.437436 
L 175.665277 129.719491 
L 175.97117 125.152978 
L 176.277064 123.936387 
L 176.582957 121.264087 
L 176.88885 117.252403 
L 177.194743 114.786796 
L 177.500636 119.390587 
L 177.806529 115.976966 
L 178.112422 124.260137 
L 178.418315 118.492966 
L 178.724208 122.366526 
L 179.030102 117.987757 
L 179.335995 123.962254 
L 179.641888 127.488428 
L 179.947781 126.996058 
L 180.253674 126.036495 
L 180.86546 117.667051 
L 181.171353 122.591365 
L 181.477246 124.51749 
L 181.783139 124.375662 
L 182.089033 124.767408 
L 182.394926 121.370824 
L 183.006712 124.737819 
L 183.312605 125.644372 
L 183.618498 124.94924 
L 183.924391 124.645126 
L 184.230284 128.441706 
L 184.536177 126.97134 
L 184.84207 129.696755 
L 185.147964 131.218348 
L 185.453857 131.065587 
L 185.75975 131.610476 
L 186.065643 135.770594 
L 186.371536 135.620776 
L 186.677429 133.521273 
L 186.983322 135.985259 
L 187.289215 132.920343 
L 187.595108 132.907978 
L 187.901001 131.906521 
L 188.206895 128.556822 
L 188.512788 130.07941 
L 188.818681 130.81587 
L 189.124574 133.088544 
L 189.430467 138.441934 
L 189.73636 139.905194 
L 190.042253 137.696214 
L 190.348146 140.339048 
L 190.654039 134.638504 
L 190.959932 133.994123 
L 191.265826 137.825845 
L 191.571719 133.870385 
L 191.877612 138.113328 
L 192.183505 135.045916 
L 192.489398 138.67264 
L 192.795291 136.813226 
L 193.101184 139.769732 
L 193.407077 141.206436 
L 193.71297 139.06506 
L 194.018863 144.31314 
L 194.324757 143.920973 
L 194.63065 141.959678 
L 194.936543 142.478104 
L 195.548329 136.011156 
L 195.854222 137.24418 
L 196.160115 139.002603 
L 196.466008 137.888657 
L 197.077795 145.990676 
L 197.383688 141.64785 
L 197.689581 142.328039 
L 197.995474 140.803814 
L 198.60726 133.584927 
L 199.219046 136.588799 
L 199.524939 136.96596 
L 199.830832 139.773255 
L 200.136726 137.119239 
L 200.442619 137.214886 
L 200.748512 133.365241 
L 201.054405 136.744325 
L 201.360298 135.846298 
L 202.277977 142.352914 
L 202.889763 144.718623 
L 203.195657 143.355631 
L 203.50155 143.32304 
L 203.807443 140.159207 
L 204.113336 133.009781 
L 204.419229 131.470237 
L 204.725122 137.522444 
L 205.642801 148.674685 
L 205.948694 147.75907 
L 206.254588 149.400829 
L 206.866374 147.251622 
L 207.172267 144.126043 
L 207.47816 139.822415 
L 207.784053 140.925699 
L 208.089946 140.539644 
L 208.395839 142.373669 
L 208.701732 142.588286 
L 209.007625 145.066734 
L 209.313519 141.149434 
L 209.619412 142.746131 
L 210.231198 136.067954 
L 210.842984 138.596813 
L 211.148877 142.521102 
L 211.45477 143.938575 
L 211.760663 145.987433 
L 212.066557 141.729153 
L 212.37245 142.798564 
L 212.678343 135.77233 
L 213.290129 136.355888 
L 213.596022 137.721711 
L 214.207808 142.021407 
L 214.513701 139.895218 
L 214.819594 138.635867 
L 215.125488 143.408079 
L 215.431381 145.230807 
L 215.737274 148.999823 
L 216.043167 150.173311 
L 216.34906 149.218121 
L 216.960846 146.186742 
L 217.266739 146.389836 
L 217.572632 145.781488 
L 217.878525 144.588631 
L 218.184419 139.482433 
L 218.796205 136.669735 
L 219.102098 136.243201 
L 219.407991 138.648939 
L 219.713884 142.046564 
L 220.019777 137.97027 
L 220.32567 140.165327 
L 220.631563 141.032429 
L 220.937456 140.031736 
L 221.24335 143.077361 
L 221.549243 140.741703 
L 221.855136 141.894799 
L 222.161029 136.033922 
L 222.466922 135.660076 
L 222.772815 137.085591 
L 223.690494 146.74507 
L 223.996387 143.301592 
L 224.608174 139.289966 
L 224.914067 138.864094 
L 225.21996 143.107533 
L 225.525853 144.454794 
L 225.831746 143.422475 
L 226.137639 143.967054 
L 226.443532 140.823538 
L 226.749425 140.646718 
L 227.055318 139.413592 
L 227.667105 143.504454 
L 227.972998 142.358163 
L 228.278891 144.839804 
L 228.584784 143.004341 
L 229.19657 141.976369 
L 229.502463 135.535668 
L 229.808356 135.496454 
L 230.420143 131.661113 
L 230.726036 136.56063 
L 231.031929 136.319193 
L 231.643715 134.09162 
L 231.949608 128.700873 
L 232.561394 123.80174 
L 232.867287 126.574789 
L 233.173181 135.005914 
L 233.479074 131.259989 
L 233.784967 132.96249 
L 234.09086 133.156456 
L 234.396753 124.507784 
L 234.702646 132.836457 
L 235.008539 130.052177 
L 235.314432 133.925303 
L 235.620325 136.126253 
L 235.926218 136.801322 
L 236.232112 135.885559 
L 236.538005 132.58782 
L 236.843898 128.083126 
L 237.149791 120.087681 
L 237.455684 118.716446 
L 237.761577 120.598111 
L 238.06747 123.435608 
L 238.373363 132.080685 
L 238.679256 128.230974 
L 238.985149 128.870045 
L 239.291043 125.903006 
L 239.596936 124.461606 
L 239.902829 121.268431 
L 240.208722 128.528337 
L 240.514615 121.990727 
L 241.126401 127.752387 
L 241.432294 125.865956 
L 241.738187 127.832215 
L 242.04408 125.355051 
L 242.349974 126.498547 
L 242.655867 124.89148 
L 242.96176 126.494672 
L 243.267653 122.921728 
L 243.573546 123.501688 
L 243.879439 122.487441 
L 244.185332 123.739792 
L 244.491225 124.034772 
L 244.797118 123.42522 
L 245.103012 123.423968 
L 245.408905 124.494844 
L 245.714798 124.677844 
L 246.020691 124.686632 
L 246.326584 120.941083 
L 246.632477 115.046696 
L 246.93837 114.124571 
L 247.244263 110.070912 
L 247.550156 116.522027 
L 247.856049 108.408217 
L 248.161943 107.223528 
L 248.467836 111.116092 
L 248.773729 101.256343 
L 249.079622 116.290725 
L 249.385515 113.001575 
L 249.691408 108.490768 
L 249.997301 111.159463 
L 250.303194 106.220943 
L 250.609087 103.588226 
L 250.91498 108.51758 
L 251.220874 107.273553 
L 251.526767 105.372231 
L 251.83266 111.820969 
L 252.138553 106.315712 
L 252.444446 109.926389 
L 252.750339 103.233967 
L 253.362125 96.599949 
L 253.668018 95.423964 
L 253.973911 102.851838 
L 254.279805 101.302796 
L 254.585698 102.932538 
L 255.197484 92.753161 
L 255.503377 97.751962 
L 255.80927 95.41766 
L 256.115163 99.887689 
L 256.421056 97.92883 
L 256.726949 96.91344 
L 257.032842 101.769098 
L 257.338736 94.075699 
L 257.644629 94.293795 
L 257.950522 99.749259 
L 258.256415 99.250535 
L 258.562308 96.985143 
L 258.868201 99.013541 
L 259.174094 90.882672 
L 259.479987 87.994908 
L 259.78588 96.721631 
L 260.091773 93.146779 
L 260.397667 95.656747 
L 260.70356 86.273812 
L 261.009453 84.47492 
L 261.315346 75.728804 
L 261.621239 80.37378 
L 261.927132 78.673827 
L 262.233025 86.914048 
L 262.538918 90.783519 
L 262.844811 89.131762 
L 263.150705 92.252954 
L 263.456598 87.61409 
L 263.762491 81.257032 
L 264.068384 84.648215 
L 264.68017 85.577006 
L 264.986063 90.249241 
L 265.291956 86.865901 
L 265.597849 80.02588 
L 265.903742 83.338673 
L 266.209636 71.906974 
L 266.515529 74.014224 
L 266.821422 71.83874 
L 267.127315 74.933551 
L 267.739101 83.604715 
L 268.044994 84.717974 
L 268.350887 80.983443 
L 268.65678 82.200055 
L 268.962673 80.108383 
L 269.268567 87.088607 
L 269.57446 83.949389 
L 269.880353 78.636705 
L 270.186246 71.247198 
L 270.492139 71.170183 
L 270.798032 70.165166 
L 271.103925 70.119855 
L 271.409818 71.104398 
L 271.715711 69.434855 
L 272.021604 64.290799 
L 272.327498 63.399264 
L 272.633391 61.392956 
L 272.939284 71.132648 
L 273.245177 74.366408 
L 273.55107 74.05699 
L 273.856963 75.057088 
L 274.162856 65.035382 
L 274.468749 65.785071 
L 274.774642 67.532068 
L 275.080535 68.600976 
L 275.386429 65.937097 
L 275.692322 65.837545 
L 275.998215 67.05571 
L 276.304108 64.682822 
L 276.610001 65.082513 
L 276.915894 64.862873 
L 277.221787 59.769753 
L 277.52768 58.75233 
L 277.833573 56.340481 
L 278.139467 61.550684 
L 278.44536 63.635523 
L 278.751253 61.594485 
L 279.057146 61.189904 
L 279.363039 57.591667 
L 279.668932 58.392715 
L 279.974825 63.294564 
L 280.280718 64.435106 
L 280.586611 61.991355 
L 281.504291 57.564197 
L 281.810184 62.850722 
L 282.116077 61.589283 
L 282.42197 61.868128 
L 283.033756 54.722249 
L 283.339649 57.690642 
L 283.645542 53.246173 
L 284.257329 56.010663 
L 284.563222 55.078104 
L 284.869115 63.427354 
L 285.175008 63.522469 
L 285.480901 62.757124 
L 285.786794 57.456708 
L 286.092687 54.506962 
L 286.39858 54.261605 
L 286.704473 50.018631 
L 287.010366 52.740596 
L 287.31626 49.641922 
L 287.622153 44.99237 
L 287.928046 46.477355 
L 288.233939 46.204981 
L 288.539832 48.290401 
L 289.151618 49.824413 
L 289.457511 48.077807 
L 289.763404 47.542849 
L 290.069297 47.53904 
L 290.375191 49.97076 
L 290.681084 48.880662 
L 290.986977 49.27372 
L 291.29287 51.390237 
L 291.598763 49.783268 
L 291.904656 53.092046 
L 292.210549 52.005968 
L 292.822335 52.168079 
L 293.128229 51.097892 
L 293.434122 52.126643 
L 293.740015 50.575672 
L 294.045908 46.359902 
L 294.351801 44.563373 
L 294.657694 45.7996 
L 294.963587 43.893301 
L 295.26948 46.412852 
L 295.575373 46.58849 
L 295.881266 44.318262 
L 296.18716 46.399212 
L 296.798946 44.099614 
L 297.104839 46.141946 
L 297.410732 43.794983 
L 297.716625 44.111949 
L 298.022518 45.933648 
L 298.328411 45.731601 
L 298.634304 48.301292 
L 299.246091 49.522814 
L 299.551984 46.851706 
L 299.857877 46.182586 
L 300.16377 47.220419 
L 300.469663 47.676175 
L 300.775556 52.010144 
L 301.081449 51.238763 
L 301.693235 48.555952 
L 301.999128 45.134668 
L 302.305022 44.978236 
L 302.610915 45.807446 
L 302.916808 43.492969 
L 303.222701 44.793784 
L 303.528594 44.190761 
L 303.834487 43.09964 
L 304.14038 45.553599 
L 304.446273 44.289669 
L 304.752166 44.668942 
L 305.058059 44.674935 
L 305.363953 43.560583 
L 305.669846 42.878182 
L 305.975739 44.936586 
L 306.281632 45.591765 
L 306.587525 47.176789 
L 306.893418 52.018029 
L 307.199311 48.767722 
L 307.505204 48.741013 
L 307.811097 51.592476 
L 308.11699 44.943404 
L 308.422884 45.542281 
L 308.728777 46.752671 
L 309.03467 46.39506 
L 309.340563 46.906588 
L 309.646456 49.357917 
L 309.952349 50.48316 
L 310.258242 49.363826 
L 310.564135 50.619169 
L 311.175922 48.856949 
L 311.481815 46.876556 
L 311.787708 48.137249 
L 312.093601 47.931388 
L 312.399494 50.372807 
L 312.705387 54.155334 
L 313.01128 53.114011 
L 313.317173 52.484119 
L 313.623066 48.724881 
L 313.928959 48.706589 
L 314.234853 47.463785 
L 314.540746 43.314587 
L 314.846639 46.506333 
L 315.458425 49.817614 
L 315.764318 57.796503 
L 316.070211 51.509597 
L 316.376104 50.373932 
L 316.681997 47.650542 
L 316.98789 47.606335 
L 317.293784 48.096514 
L 317.599677 47.414842 
L 317.90557 49.317139 
L 318.211463 49.94677 
L 318.517356 49.740391 
L 318.823249 49.261301 
L 319.129142 46.469888 
L 319.435035 49.448052 
L 319.740928 56.410688 
L 320.046821 59.187384 
L 320.352715 65.255829 
L 320.658608 59.208991 
L 321.270394 52.257622 
L 321.576287 51.068728 
L 321.88218 48.122724 
L 322.188073 47.276558 
L 322.493966 47.411605 
L 322.799859 47.079397 
L 323.105752 47.961672 
L 323.411646 48.292977 
L 323.717539 47.888938 
L 324.023432 49.72237 
L 324.635218 49.999082 
L 324.941111 50.945456 
L 325.247004 48.650787 
L 325.85879 53.495363 
L 326.164684 52.807141 
L 326.470577 57.658409 
L 326.77647 58.662492 
L 327.082363 58.652754 
L 327.388256 57.922356 
L 327.694149 56.768327 
L 328.000042 53.245944 
L 328.305935 58.898325 
L 328.611828 59.923636 
L 328.917721 55.895857 
L 329.223615 60.757281 
L 329.529508 57.409955 
L 329.835401 57.90117 
L 330.141294 63.831782 
L 330.447187 62.250479 
L 330.75308 59.138814 
L 331.058973 60.248524 
L 331.364866 59.15722 
L 331.670759 56.163673 
L 331.976652 56.747451 
L 332.282546 53.840778 
L 332.588439 48.280642 
L 333.200225 54.042205 
L 333.506118 55.823785 
L 333.812011 60.802232 
L 334.117904 62.118823 
L 334.423797 61.032146 
L 334.72969 66.040922 
L 335.035583 65.918225 
L 335.64737 71.374143 
L 336.259156 69.527214 
L 336.565049 72.185172 
L 336.870942 68.303637 
L 337.176835 72.506672 
L 337.482728 69.64831 
L 337.788621 69.2148 
L 338.094514 67.217731 
L 338.400408 62.104572 
L 338.706301 65.997551 
L 339.012194 66.070104 
L 339.318087 69.459745 
L 339.62398 68.444455 
L 339.929873 63.24171 
L 340.235766 62.160996 
L 340.541659 56.945337 
L 340.847552 62.23065 
L 341.153445 59.982706 
L 341.765232 61.070706 
L 342.071125 60.724669 
L 342.988804 78.158268 
L 343.60059 72.264844 
L 343.906483 67.224617 
L 344.212377 68.934119 
L 344.51827 72.498504 
L 345.130056 81.322558 
L 346.047735 66.900046 
L 346.353628 71.48803 
L 346.659521 71.260496 
L 347.271308 76.345278 
L 347.577201 75.830038 
L 347.883094 77.244377 
L 348.188987 81.300268 
L 348.49488 83.268109 
L 348.800773 88.320406 
L 349.106666 87.96934 
L 349.412559 92.269788 
L 349.718452 88.013884 
L 350.024345 86.613171 
L 350.330239 80.003587 
L 350.942025 82.435937 
L 351.247918 85.080759 
L 351.553811 86.051481 
L 351.859704 90.612363 
L 352.165597 91.087507 
L 352.47149 95.798562 
L 352.777383 92.396041 
L 353.083276 95.115078 
L 353.38917 90.101182 
L 353.695063 96.148623 
L 354.000956 97.499601 
L 354.306849 104.181257 
L 354.612742 101.932941 
L 354.918635 102.188842 
L 355.224528 101.581877 
L 355.530421 98.598267 
L 355.836314 97.610065 
L 356.142207 92.410348 
L 356.448101 95.60264 
L 356.753994 94.930914 
L 357.059887 95.970582 
L 357.36578 103.26529 
L 357.671673 98.137284 
L 357.977566 100.927696 
L 358.283459 97.53466 
L 358.589352 98.776392 
L 359.201139 99.242464 
L 359.507032 101.99121 
L 359.812925 102.469656 
L 360.424711 97.74949 
L 361.036497 91.116455 
L 361.34239 99.49301 
L 361.648283 102.874817 
L 362.26007 111.544541 
L 362.565963 109.715392 
L 362.871856 110.06852 
L 363.483642 112.319425 
L 363.789535 118.656017 
L 364.095428 116.075757 
L 364.707214 119.132573 
L 365.013107 117.755369 
L 365.319001 120.44803 
L 365.624894 116.724597 
L 365.930787 114.374276 
L 366.23668 108.033666 
L 366.542573 116.903192 
L 366.848466 117.108208 
L 367.154359 123.473414 
L 367.460252 123.050995 
L 367.766145 118.482211 
L 368.072038 122.098352 
L 368.377932 120.795145 
L 368.683825 120.89649 
L 368.989718 124.552124 
L 369.295611 125.273743 
L 369.601504 122.976243 
L 369.907397 121.633522 
L 370.21329 121.601948 
L 370.519183 119.814705 
L 370.825076 124.946334 
L 371.130969 123.500845 
L 371.436863 121.366762 
L 371.742756 121.136851 
L 371.742756 121.136851 
" style="fill:none;stroke:#bf00bf;stroke-dasharray:5.55,2.4;stroke-dashoffset:0;stroke-width:1.5;"/>
   </g>
   <g id="patch_3">
    <path d="M 52.160938 173.52 
L 52.160938 7.2 
" style="fill:none;stroke:#000000;stroke-linecap:square;stroke-linejoin:miter;stroke-width:0.8;"/>
   </g>
   <g id="patch_4">
    <path d="M 386.960938 173.52 
L 386.960938 7.2 
" style="fill:none;stroke:#000000;stroke-linecap:square;stroke-linejoin:miter;stroke-width:0.8;"/>
   </g>
   <g id="patch_5">
    <path d="M 52.160938 173.52 
L 386.960938 173.52 
" style="fill:none;stroke:#000000;stroke-linecap:square;stroke-linejoin:miter;stroke-width:0.8;"/>
   </g>
   <g id="patch_6">
    <path d="M 52.160938 7.2 
L 386.960938 7.2 
" style="fill:none;stroke:#000000;stroke-linecap:square;stroke-linejoin:miter;stroke-width:0.8;"/>
   </g>
   <g id="legend_1">
    <g id="patch_7">
     <path d="M 285.235938 44.55625 
L 379.960938 44.55625 
Q 381.960938 44.55625 381.960938 42.55625 
L 381.960938 14.2 
Q 381.960938 12.2 379.960938 12.2 
L 285.235938 12.2 
Q 283.235938 12.2 283.235938 14.2 
L 283.235938 42.55625 
Q 283.235938 44.55625 285.235938 44.55625 
z
" style="fill:#ffffff;opacity:0.8;stroke:#cccccc;stroke-linejoin:miter;"/>
    </g>
    <g id="line2d_29">
     <path d="M 287.235938 20.298438 
L 307.235938 20.298438 
" style="fill:none;stroke:#1f77b4;stroke-linecap:square;stroke-width:1.5;"/>
    </g>
    <g id="line2d_30"/>
    <g id="text_16">
     <!-- labels -->
     <g transform="translate(315.235938 23.798438)scale(0.1 -0.1)">
      <defs>
       <path d="M 603 4863 
L 1178 4863 
L 1178 0 
L 603 0 
L 603 4863 
z
" id="DejaVuSans-6c" transform="scale(0.015625)"/>
       <path d="M 2194 1759 
Q 1497 1759 1228 1600 
Q 959 1441 959 1056 
Q 959 750 1161 570 
Q 1363 391 1709 391 
Q 2188 391 2477 730 
Q 2766 1069 2766 1631 
L 2766 1759 
L 2194 1759 
z
M 3341 1997 
L 3341 0 
L 2766 0 
L 2766 531 
Q 2569 213 2275 61 
Q 1981 -91 1556 -91 
Q 1019 -91 701 211 
Q 384 513 384 1019 
Q 384 1609 779 1909 
Q 1175 2209 1959 2209 
L 2766 2209 
L 2766 2266 
Q 2766 2663 2505 2880 
Q 2244 3097 1772 3097 
Q 1472 3097 1187 3025 
Q 903 2953 641 2809 
L 641 3341 
Q 956 3463 1253 3523 
Q 1550 3584 1831 3584 
Q 2591 3584 2966 3190 
Q 3341 2797 3341 1997 
z
" id="DejaVuSans-61" transform="scale(0.015625)"/>
       <path d="M 3116 1747 
Q 3116 2381 2855 2742 
Q 2594 3103 2138 3103 
Q 1681 3103 1420 2742 
Q 1159 2381 1159 1747 
Q 1159 1113 1420 752 
Q 1681 391 2138 391 
Q 2594 391 2855 752 
Q 3116 1113 3116 1747 
z
M 1159 2969 
Q 1341 3281 1617 3432 
Q 1894 3584 2278 3584 
Q 2916 3584 3314 3078 
Q 3713 2572 3713 1747 
Q 3713 922 3314 415 
Q 2916 -91 2278 -91 
Q 1894 -91 1617 61 
Q 1341 213 1159 525 
L 1159 0 
L 581 0 
L 581 4863 
L 1159 4863 
L 1159 2969 
z
" id="DejaVuSans-62" transform="scale(0.015625)"/>
       <path d="M 2834 3397 
L 2834 2853 
Q 2591 2978 2328 3040 
Q 2066 3103 1784 3103 
Q 1356 3103 1142 2972 
Q 928 2841 928 2578 
Q 928 2378 1081 2264 
Q 1234 2150 1697 2047 
L 1894 2003 
Q 2506 1872 2764 1633 
Q 3022 1394 3022 966 
Q 3022 478 2636 193 
Q 2250 -91 1575 -91 
Q 1294 -91 989 -36 
Q 684 19 347 128 
L 347 722 
Q 666 556 975 473 
Q 1284 391 1588 391 
Q 1994 391 2212 530 
Q 2431 669 2431 922 
Q 2431 1156 2273 1281 
Q 2116 1406 1581 1522 
L 1381 1569 
Q 847 1681 609 1914 
Q 372 2147 372 2553 
Q 372 3047 722 3315 
Q 1072 3584 1716 3584 
Q 2034 3584 2315 3537 
Q 2597 3491 2834 3397 
z
" id="DejaVuSans-73" transform="scale(0.015625)"/>
      </defs>
      <use xlink:href="#DejaVuSans-6c"/>
      <use x="27.783203" xlink:href="#DejaVuSans-61"/>
      <use x="89.0625" xlink:href="#DejaVuSans-62"/>
      <use x="152.539062" xlink:href="#DejaVuSans-65"/>
      <use x="214.0625" xlink:href="#DejaVuSans-6c"/>
      <use x="241.845703" xlink:href="#DejaVuSans-73"/>
     </g>
    </g>
    <g id="line2d_31">
     <path d="M 287.235938 34.976563 
L 307.235938 34.976563 
" style="fill:none;stroke:#bf00bf;stroke-dasharray:5.55,2.4;stroke-dashoffset:0;stroke-width:1.5;"/>
    </g>
    <g id="line2d_32"/>
    <g id="text_17">
     <!-- 1-step preds -->
     <g transform="translate(315.235938 38.476563)scale(0.1 -0.1)">
      <defs>
       <path d="M 313 2009 
L 1997 2009 
L 1997 1497 
L 313 1497 
L 313 2009 
z
" id="DejaVuSans-2d" transform="scale(0.015625)"/>
       <path d="M 1159 525 
L 1159 -1331 
L 581 -1331 
L 581 3500 
L 1159 3500 
L 1159 2969 
Q 1341 3281 1617 3432 
Q 1894 3584 2278 3584 
Q 2916 3584 3314 3078 
Q 3713 2572 3713 1747 
Q 3713 922 3314 415 
Q 2916 -91 2278 -91 
Q 1894 -91 1617 61 
Q 1341 213 1159 525 
z
M 3116 1747 
Q 3116 2381 2855 2742 
Q 2594 3103 2138 3103 
Q 1681 3103 1420 2742 
Q 1159 2381 1159 1747 
Q 1159 1113 1420 752 
Q 1681 391 2138 391 
Q 2594 391 2855 752 
Q 3116 1113 3116 1747 
z
" id="DejaVuSans-70" transform="scale(0.015625)"/>
       <path id="DejaVuSans-20" transform="scale(0.015625)"/>
       <path d="M 2631 2963 
Q 2534 3019 2420 3045 
Q 2306 3072 2169 3072 
Q 1681 3072 1420 2755 
Q 1159 2438 1159 1844 
L 1159 0 
L 581 0 
L 581 3500 
L 1159 3500 
L 1159 2956 
Q 1341 3275 1631 3429 
Q 1922 3584 2338 3584 
Q 2397 3584 2469 3576 
Q 2541 3569 2628 3553 
L 2631 2963 
z
" id="DejaVuSans-72" transform="scale(0.015625)"/>
       <path d="M 2906 2969 
L 2906 4863 
L 3481 4863 
L 3481 0 
L 2906 0 
L 2906 525 
Q 2725 213 2448 61 
Q 2172 -91 1784 -91 
Q 1150 -91 751 415 
Q 353 922 353 1747 
Q 353 2572 751 3078 
Q 1150 3584 1784 3584 
Q 2172 3584 2448 3432 
Q 2725 3281 2906 2969 
z
M 947 1747 
Q 947 1113 1208 752 
Q 1469 391 1925 391 
Q 2381 391 2643 752 
Q 2906 1113 2906 1747 
Q 2906 2381 2643 2742 
Q 2381 3103 1925 3103 
Q 1469 3103 1208 2742 
Q 947 2381 947 1747 
z
" id="DejaVuSans-64" transform="scale(0.015625)"/>
      </defs>
      <use xlink:href="#DejaVuSans-31"/>
      <use x="63.623047" xlink:href="#DejaVuSans-2d"/>
      <use x="99.707031" xlink:href="#DejaVuSans-73"/>
      <use x="151.806641" xlink:href="#DejaVuSans-74"/>
      <use x="191.015625" xlink:href="#DejaVuSans-65"/>
      <use x="252.539062" xlink:href="#DejaVuSans-70"/>
      <use x="316.015625" xlink:href="#DejaVuSans-20"/>
      <use x="347.802734" xlink:href="#DejaVuSans-70"/>
      <use x="411.279297" xlink:href="#DejaVuSans-72"/>
      <use x="450.142578" xlink:href="#DejaVuSans-65"/>
      <use x="511.666016" xlink:href="#DejaVuSans-64"/>
      <use x="575.142578" xlink:href="#DejaVuSans-73"/>
     </g>
    </g>
   </g>
  </g>
 </g>
 <defs>
  <clipPath id="pc207e62c47">
   <rect height="166.32" width="334.8" x="52.160938" y="7.2"/>
  </clipPath>
 </defs>
</svg>
