<?xml version="1.0" encoding="utf-8" standalone="no"?>
<!DOCTYPE svg PUBLIC "-//W3C//DTD SVG 1.1//EN"
  "http://www.w3.org/Graphics/SVG/1.1/DTD/svg11.dtd">
<svg height="209.048211pt" version="1.1" viewBox="0 0 388.325 209.048211" width="388.325pt" xmlns="http://www.w3.org/2000/svg" xmlns:xlink="http://www.w3.org/1999/xlink">
 <metadata>
  <rdf:RDF xmlns:cc="http://creativecommons.org/ns#" xmlns:dc="http://purl.org/dc/elements/1.1/" xmlns:rdf="http://www.w3.org/1999/02/22-rdf-syntax-ns#">
   <cc:Work>
    <dc:type rdf:resource="http://purl.org/dc/dcmitype/StillImage"/>
    <dc:date>2023-10-15T08:39:46.146023</dc:date>
    <dc:format>image/svg+xml</dc:format>
    <dc:creator>
     <cc:Agent>
      <dc:title>Matplotlib v3.4.0, https://matplotlib.org/</dc:title>
     </cc:Agent>
    </dc:creator>
   </cc:Work>
  </rdf:RDF>
 </metadata>
 <defs>
  <style type="text/css">*{stroke-linecap:butt;stroke-linejoin:round;}</style>
 </defs>
 <g id="figure_1">
  <g id="patch_1">
   <path d="M 0 209.048211 
L 388.325 209.048211 
L 388.325 0 
L 0 0 
z
" style="fill:#ffffff;"/>
  </g>
  <g id="axes_1">
   <g id="patch_2">
    <path d="M 46.325 174.598211 
L 381.125 174.598211 
L 381.125 8.278211 
L 46.325 8.278211 
z
" style="fill:#ffffff;"/>
   </g>
   <g id="matplotlib.axis_1">
    <g id="xtick_1">
     <g id="line2d_1">
      <path clip-path="url(#p63ee89ca3c)" d="M 60.013716 174.598211 
L 60.013716 8.278211 
" style="fill:none;stroke:#b0b0b0;stroke-linecap:square;stroke-width:0.8;"/>
     </g>
     <g id="line2d_2">
      <defs>
       <path d="M 0 0 
L 0 3.5 
" id="me828e26802" style="stroke:#000000;stroke-width:0.8;"/>
      </defs>
      <g>
       <use style="stroke:#000000;stroke-width:0.8;" x="60.013716" xlink:href="#me828e26802" y="174.598211"/>
      </g>
     </g>
     <g id="text_1">
      <!-- 0 -->
      <g transform="translate(57.513716 188.473211)scale(0.1 -0.1)">
       <defs>
        <path d="M 225 2537 
Q 250 3200 412 3587 
Q 575 3975 875 4225 
Q 1175 4475 1612 4475 
Q 2050 4475 2375 4112 
Q 2700 3750 2800 3200 
Q 2900 2650 2862 1937 
Q 2825 1225 2612 775 
Q 2400 325 1975 150 
Q 1550 -25 1125 187 
Q 700 400 525 750 
Q 350 1100 275 1487 
Q 200 1875 225 2537 
z
M 750 2687 
Q 675 2000 800 1462 
Q 925 925 1212 700 
Q 1500 475 1800 612 
Q 2100 750 2237 1162 
Q 2375 1575 2375 2062 
Q 2375 2550 2337 2950 
Q 2300 3350 2112 3675 
Q 1925 4000 1612 4012 
Q 1300 4025 1062 3700 
Q 825 3375 750 2687 
z
" id="SimHei-30" transform="scale(0.015625)"/>
       </defs>
       <use xlink:href="#SimHei-30"/>
      </g>
     </g>
    </g>
    <g id="xtick_2">
     <g id="line2d_3">
      <path clip-path="url(#p63ee89ca3c)" d="M 121.192337 174.598211 
L 121.192337 8.278211 
" style="fill:none;stroke:#b0b0b0;stroke-linecap:square;stroke-width:0.8;"/>
     </g>
     <g id="line2d_4">
      <g>
       <use style="stroke:#000000;stroke-width:0.8;" x="121.192337" xlink:href="#me828e26802" y="174.598211"/>
      </g>
     </g>
     <g id="text_2">
      <!-- 200 -->
      <g transform="translate(113.692337 188.473211)scale(0.1 -0.1)">
       <defs>
        <path d="M 300 250 
Q 325 625 650 925 
Q 975 1225 1475 1862 
Q 1975 2500 2125 2850 
Q 2275 3200 2237 3450 
Q 2200 3700 2000 3862 
Q 1800 4025 1537 4000 
Q 1275 3975 1037 3800 
Q 800 3625 675 3275 
L 200 3350 
Q 400 3925 712 4187 
Q 1025 4450 1450 4475 
Q 1700 4500 1900 4462 
Q 2100 4425 2312 4287 
Q 2525 4150 2662 3875 
Q 2800 3600 2762 3212 
Q 2725 2825 2375 2287 
Q 2025 1750 1025 600 
L 2825 600 
L 2825 150 
L 300 150 
L 300 250 
z
" id="SimHei-32" transform="scale(0.015625)"/>
       </defs>
       <use xlink:href="#SimHei-32"/>
       <use x="50" xlink:href="#SimHei-30"/>
       <use x="100" xlink:href="#SimHei-30"/>
      </g>
     </g>
    </g>
    <g id="xtick_3">
     <g id="line2d_5">
      <path clip-path="url(#p63ee89ca3c)" d="M 182.370957 174.598211 
L 182.370957 8.278211 
" style="fill:none;stroke:#b0b0b0;stroke-linecap:square;stroke-width:0.8;"/>
     </g>
     <g id="line2d_6">
      <g>
       <use style="stroke:#000000;stroke-width:0.8;" x="182.370957" xlink:href="#me828e26802" y="174.598211"/>
      </g>
     </g>
     <g id="text_3">
      <!-- 400 -->
      <g transform="translate(174.870957 188.473211)scale(0.1 -0.1)">
       <defs>
        <path d="M 2000 1100 
L 75 1100 
L 75 1525 
L 2100 4450 
L 2475 4450 
L 2475 1525 
L 3075 1525 
L 3075 1100 
L 2475 1100 
L 2475 150 
L 2000 150 
L 2000 1100 
z
M 2000 1525 
L 2000 3500 
L 600 1525 
L 2000 1525 
z
" id="SimHei-34" transform="scale(0.015625)"/>
       </defs>
       <use xlink:href="#SimHei-34"/>
       <use x="50" xlink:href="#SimHei-30"/>
       <use x="100" xlink:href="#SimHei-30"/>
      </g>
     </g>
    </g>
    <g id="xtick_4">
     <g id="line2d_7">
      <path clip-path="url(#p63ee89ca3c)" d="M 243.549577 174.598211 
L 243.549577 8.278211 
" style="fill:none;stroke:#b0b0b0;stroke-linecap:square;stroke-width:0.8;"/>
     </g>
     <g id="line2d_8">
      <g>
       <use style="stroke:#000000;stroke-width:0.8;" x="243.549577" xlink:href="#me828e26802" y="174.598211"/>
      </g>
     </g>
     <g id="text_4">
      <!-- 600 -->
      <g transform="translate(236.049577 188.473211)scale(0.1 -0.1)">
       <defs>
        <path d="M 250 1612 
Q 275 1975 387 2225 
Q 500 2475 725 2850 
L 1750 4450 
L 2325 4450 
L 1275 2800 
Q 1950 2975 2350 2750 
Q 2750 2525 2887 2237 
Q 3025 1950 3037 1612 
Q 3050 1275 2937 950 
Q 2825 625 2537 362 
Q 2250 100 1737 75 
Q 1225 50 862 262 
Q 500 475 362 862 
Q 225 1250 250 1612 
z
M 1025 787 
Q 1250 550 1625 525 
Q 2000 500 2250 775 
Q 2500 1050 2500 1575 
Q 2500 2100 2187 2300 
Q 1875 2500 1487 2450 
Q 1100 2400 925 2075 
Q 750 1750 775 1387 
Q 800 1025 1025 787 
z
" id="SimHei-36" transform="scale(0.015625)"/>
       </defs>
       <use xlink:href="#SimHei-36"/>
       <use x="50" xlink:href="#SimHei-30"/>
       <use x="100" xlink:href="#SimHei-30"/>
      </g>
     </g>
    </g>
    <g id="xtick_5">
     <g id="line2d_9">
      <path clip-path="url(#p63ee89ca3c)" d="M 304.728198 174.598211 
L 304.728198 8.278211 
" style="fill:none;stroke:#b0b0b0;stroke-linecap:square;stroke-width:0.8;"/>
     </g>
     <g id="line2d_10">
      <g>
       <use style="stroke:#000000;stroke-width:0.8;" x="304.728198" xlink:href="#me828e26802" y="174.598211"/>
      </g>
     </g>
     <g id="text_5">
      <!-- 800 -->
      <g transform="translate(297.228198 188.473211)scale(0.1 -0.1)">
       <defs>
        <path d="M 175 1375 
Q 175 1675 325 1962 
Q 475 2250 825 2425 
Q 525 2600 425 2812 
Q 325 3025 312 3300 
Q 300 3575 387 3775 
Q 475 3975 650 4150 
Q 825 4325 1037 4387 
Q 1250 4450 1500 4450 
Q 1750 4450 1950 4400 
Q 2150 4350 2375 4187 
Q 2600 4025 2700 3725 
Q 2800 3425 2687 3025 
Q 2575 2625 2100 2400 
Q 2525 2275 2700 2012 
Q 2875 1750 2875 1375 
Q 2875 1000 2762 775 
Q 2650 550 2512 400 
Q 2375 250 2137 162 
Q 1900 75 1537 75 
Q 1175 75 912 162 
Q 650 250 475 425 
Q 300 600 237 837 
Q 175 1075 175 1375 
z
M 687 1400 
Q 675 1100 787 875 
Q 900 650 1200 587 
Q 1500 525 1825 600 
Q 2150 675 2275 950 
Q 2400 1225 2362 1500 
Q 2325 1775 2050 1962 
Q 1775 2150 1450 2125 
Q 1125 2100 912 1900 
Q 700 1700 687 1400 
z
M 775 3350 
Q 775 3100 950 2875 
Q 1125 2650 1500 2650 
Q 1875 2650 2062 2875 
Q 2250 3100 2237 3412 
Q 2225 3725 2012 3875 
Q 1800 4025 1437 4000 
Q 1075 3975 925 3787 
Q 775 3600 775 3350 
z
" id="SimHei-38" transform="scale(0.015625)"/>
       </defs>
       <use xlink:href="#SimHei-38"/>
       <use x="50" xlink:href="#SimHei-30"/>
       <use x="100" xlink:href="#SimHei-30"/>
      </g>
     </g>
    </g>
    <g id="xtick_6">
     <g id="line2d_11">
      <path clip-path="url(#p63ee89ca3c)" d="M 365.906818 174.598211 
L 365.906818 8.278211 
" style="fill:none;stroke:#b0b0b0;stroke-linecap:square;stroke-width:0.8;"/>
     </g>
     <g id="line2d_12">
      <g>
       <use style="stroke:#000000;stroke-width:0.8;" x="365.906818" xlink:href="#me828e26802" y="174.598211"/>
      </g>
     </g>
     <g id="text_6">
      <!-- 1000 -->
      <g transform="translate(355.906818 188.473211)scale(0.1 -0.1)">
       <defs>
        <path d="M 1400 3600 
Q 1075 3275 575 2975 
L 575 3450 
Q 1200 3875 1600 4450 
L 1900 4450 
L 1900 150 
L 1400 150 
L 1400 3600 
z
" id="SimHei-31" transform="scale(0.015625)"/>
       </defs>
       <use xlink:href="#SimHei-31"/>
       <use x="50" xlink:href="#SimHei-30"/>
       <use x="100" xlink:href="#SimHei-30"/>
       <use x="150" xlink:href="#SimHei-30"/>
      </g>
     </g>
    </g>
    <g id="text_7">
     <!-- time -->
     <g transform="translate(203.725 200.598211)scale(0.1 -0.1)">
      <defs>
       <path d="M 2750 200 
Q 2625 150 2462 112 
Q 2300 75 2025 75 
Q 1575 75 1300 325 
Q 1025 575 1025 1025 
L 1025 2525 
L 175 2525 
L 175 2925 
L 1025 2925 
L 1025 3900 
L 1525 3900 
L 1525 2925 
L 2550 2925 
L 2550 2525 
L 1525 2525 
L 1525 1000 
Q 1525 800 1625 662 
Q 1725 525 2000 525 
Q 2275 525 2450 575 
Q 2625 625 2750 700 
L 2750 200 
z
" id="SimHei-74" transform="scale(0.015625)"/>
       <path d="M 1800 3725 
L 1300 3725 
L 1300 4375 
L 1800 4375 
L 1800 3725 
z
M 1800 125 
L 1300 125 
L 1300 2925 
L 1800 2925 
L 1800 125 
z
" id="SimHei-69" transform="scale(0.015625)"/>
       <path d="M 3050 125 
L 2550 125 
L 2550 2150 
Q 2550 2300 2500 2400 
Q 2450 2500 2300 2500 
Q 2125 2500 1975 2312 
Q 1825 2125 1825 1825 
L 1825 125 
L 1325 125 
L 1325 2150 
Q 1325 2300 1275 2400 
Q 1225 2500 1075 2500 
Q 900 2500 750 2312 
Q 600 2125 600 1825 
L 600 125 
L 100 125 
L 100 2925 
L 600 2925 
L 600 2550 
Q 725 2750 900 2862 
Q 1075 2975 1275 2975 
Q 1475 2975 1612 2862 
Q 1750 2750 1800 2550 
Q 1925 2750 2087 2862 
Q 2250 2975 2450 2975 
Q 2750 2975 2900 2812 
Q 3050 2650 3050 2350 
L 3050 125 
z
" id="SimHei-6d" transform="scale(0.015625)"/>
       <path d="M 2850 1075 
Q 2800 625 2450 350 
Q 2100 75 1625 75 
Q 1025 75 637 462 
Q 250 850 250 1525 
Q 250 2200 637 2587 
Q 1025 2975 1625 2975 
Q 2150 2975 2487 2637 
Q 2825 2300 2825 1525 
L 800 1525 
Q 800 975 1037 750 
Q 1275 525 1625 525 
Q 1900 525 2075 662 
Q 2250 800 2300 1075 
L 2850 1075 
z
M 2250 1925 
Q 2200 2275 2025 2412 
Q 1850 2550 1575 2550 
Q 1325 2550 1125 2412 
Q 925 2275 825 1925 
L 2250 1925 
z
" id="SimHei-65" transform="scale(0.015625)"/>
      </defs>
      <use xlink:href="#SimHei-74"/>
      <use x="50" xlink:href="#SimHei-69"/>
      <use x="100" xlink:href="#SimHei-6d"/>
      <use x="150" xlink:href="#SimHei-65"/>
     </g>
    </g>
   </g>
   <g id="matplotlib.axis_2">
    <g id="ytick_1">
     <g id="line2d_13">
      <path clip-path="url(#p63ee89ca3c)" d="M 46.325 168.611471 
L 381.125 168.611471 
" style="fill:none;stroke:#b0b0b0;stroke-linecap:square;stroke-width:0.8;"/>
     </g>
     <g id="line2d_14">
      <defs>
       <path d="M 0 0 
L -3.5 0 
" id="m642681d2ec" style="stroke:#000000;stroke-width:0.8;"/>
      </defs>
      <g>
       <use style="stroke:#000000;stroke-width:0.8;" x="46.325" xlink:href="#m642681d2ec" y="168.611471"/>
      </g>
     </g>
     <g id="text_8">
      <!-- -1.5 -->
      <g transform="translate(19.325 172.048971)scale(0.1 -0.1)">
       <defs>
        <path d="M 2975 2125 
L 125 2125 
L 125 2525 
L 2975 2525 
L 2975 2125 
z
" id="SimHei-2d" transform="scale(0.015625)"/>
        <path d="M 1075 125 
L 500 125 
L 500 675 
L 1075 675 
L 1075 125 
z
" id="SimHei-2e" transform="scale(0.015625)"/>
        <path d="M 550 1325 
Q 725 650 1150 575 
Q 1575 500 1837 662 
Q 2100 825 2212 1087 
Q 2325 1350 2312 1675 
Q 2300 2000 2137 2225 
Q 1975 2450 1725 2525 
Q 1475 2600 1162 2525 
Q 850 2450 650 2175 
L 225 2225 
Q 275 2375 700 4375 
L 2675 4375 
L 2675 3925 
L 1075 3925 
Q 950 3250 825 2850 
Q 1200 3025 1525 3012 
Q 1850 3000 2150 2862 
Q 2450 2725 2587 2487 
Q 2725 2250 2787 2012 
Q 2850 1775 2837 1500 
Q 2825 1225 2725 937 
Q 2625 650 2425 462 
Q 2225 275 1937 162 
Q 1650 50 1275 75 
Q 900 100 562 350 
Q 225 600 100 1200 
L 550 1325 
z
" id="SimHei-35" transform="scale(0.015625)"/>
       </defs>
       <use xlink:href="#SimHei-2d"/>
       <use x="50" xlink:href="#SimHei-31"/>
       <use x="100" xlink:href="#SimHei-2e"/>
       <use x="150" xlink:href="#SimHei-35"/>
      </g>
     </g>
    </g>
    <g id="ytick_2">
     <g id="line2d_15">
      <path clip-path="url(#p63ee89ca3c)" d="M 46.325 142.282476 
L 381.125 142.282476 
" style="fill:none;stroke:#b0b0b0;stroke-linecap:square;stroke-width:0.8;"/>
     </g>
     <g id="line2d_16">
      <g>
       <use style="stroke:#000000;stroke-width:0.8;" x="46.325" xlink:href="#m642681d2ec" y="142.282476"/>
      </g>
     </g>
     <g id="text_9">
      <!-- -1.0 -->
      <g transform="translate(19.325 145.719976)scale(0.1 -0.1)">
       <use xlink:href="#SimHei-2d"/>
       <use x="50" xlink:href="#SimHei-31"/>
       <use x="100" xlink:href="#SimHei-2e"/>
       <use x="150" xlink:href="#SimHei-30"/>
      </g>
     </g>
    </g>
    <g id="ytick_3">
     <g id="line2d_17">
      <path clip-path="url(#p63ee89ca3c)" d="M 46.325 115.95348 
L 381.125 115.95348 
" style="fill:none;stroke:#b0b0b0;stroke-linecap:square;stroke-width:0.8;"/>
     </g>
     <g id="line2d_18">
      <g>
       <use style="stroke:#000000;stroke-width:0.8;" x="46.325" xlink:href="#m642681d2ec" y="115.95348"/>
      </g>
     </g>
     <g id="text_10">
      <!-- -0.5 -->
      <g transform="translate(19.325 119.39098)scale(0.1 -0.1)">
       <use xlink:href="#SimHei-2d"/>
       <use x="50" xlink:href="#SimHei-30"/>
       <use x="100" xlink:href="#SimHei-2e"/>
       <use x="150" xlink:href="#SimHei-35"/>
      </g>
     </g>
    </g>
    <g id="ytick_4">
     <g id="line2d_19">
      <path clip-path="url(#p63ee89ca3c)" d="M 46.325 89.624485 
L 381.125 89.624485 
" style="fill:none;stroke:#b0b0b0;stroke-linecap:square;stroke-width:0.8;"/>
     </g>
     <g id="line2d_20">
      <g>
       <use style="stroke:#000000;stroke-width:0.8;" x="46.325" xlink:href="#m642681d2ec" y="89.624485"/>
      </g>
     </g>
     <g id="text_11">
      <!-- 0.0 -->
      <g transform="translate(24.325 93.061985)scale(0.1 -0.1)">
       <use xlink:href="#SimHei-30"/>
       <use x="50" xlink:href="#SimHei-2e"/>
       <use x="100" xlink:href="#SimHei-30"/>
      </g>
     </g>
    </g>
    <g id="ytick_5">
     <g id="line2d_21">
      <path clip-path="url(#p63ee89ca3c)" d="M 46.325 63.29549 
L 381.125 63.29549 
" style="fill:none;stroke:#b0b0b0;stroke-linecap:square;stroke-width:0.8;"/>
     </g>
     <g id="line2d_22">
      <g>
       <use style="stroke:#000000;stroke-width:0.8;" x="46.325" xlink:href="#m642681d2ec" y="63.29549"/>
      </g>
     </g>
     <g id="text_12">
      <!-- 0.5 -->
      <g transform="translate(24.325 66.73299)scale(0.1 -0.1)">
       <use xlink:href="#SimHei-30"/>
       <use x="50" xlink:href="#SimHei-2e"/>
       <use x="100" xlink:href="#SimHei-35"/>
      </g>
     </g>
    </g>
    <g id="ytick_6">
     <g id="line2d_23">
      <path clip-path="url(#p63ee89ca3c)" d="M 46.325 36.966495 
L 381.125 36.966495 
" style="fill:none;stroke:#b0b0b0;stroke-linecap:square;stroke-width:0.8;"/>
     </g>
     <g id="line2d_24">
      <g>
       <use style="stroke:#000000;stroke-width:0.8;" x="46.325" xlink:href="#m642681d2ec" y="36.966495"/>
      </g>
     </g>
     <g id="text_13">
      <!-- 1.0 -->
      <g transform="translate(24.325 40.403995)scale(0.1 -0.1)">
       <use xlink:href="#SimHei-31"/>
       <use x="50" xlink:href="#SimHei-2e"/>
       <use x="100" xlink:href="#SimHei-30"/>
      </g>
     </g>
    </g>
    <g id="ytick_7">
     <g id="line2d_25">
      <path clip-path="url(#p63ee89ca3c)" d="M 46.325 10.6375 
L 381.125 10.6375 
" style="fill:none;stroke:#b0b0b0;stroke-linecap:square;stroke-width:0.8;"/>
     </g>
     <g id="line2d_26">
      <g>
       <use style="stroke:#000000;stroke-width:0.8;" x="46.325" xlink:href="#m642681d2ec" y="10.6375"/>
      </g>
     </g>
     <g id="text_14">
      <!-- 1.5 -->
      <g transform="translate(24.325 14.075)scale(0.1 -0.1)">
       <use xlink:href="#SimHei-31"/>
       <use x="50" xlink:href="#SimHei-2e"/>
       <use x="100" xlink:href="#SimHei-35"/>
      </g>
     </g>
    </g>
    <g id="text_15">
     <!-- x -->
     <g transform="translate(14.075 93.938211)rotate(-90)scale(0.1 -0.1)">
      <defs>
       <path d="M 2875 125 
L 2275 125 
L 1550 1200 
L 825 125 
L 225 125 
L 1250 1550 
L 300 2925 
L 900 2925 
L 1550 1875 
L 2200 2925 
L 2800 2925 
L 1850 1550 
L 2875 125 
z
" id="SimHei-78" transform="scale(0.015625)"/>
      </defs>
      <use xlink:href="#SimHei-78"/>
     </g>
    </g>
   </g>
   <g id="line2d_27">
    <path clip-path="url(#p63ee89ca3c)" d="M 61.543182 88.607014 
L 61.849075 85.469219 
L 62.154968 103.09279 
L 62.460861 87.82104 
L 62.766754 96.129959 
L 63.072647 81.30915 
L 63.37854 72.140274 
L 63.684434 89.86261 
L 63.990327 90.817191 
L 64.29622 84.089066 
L 64.602113 90.750994 
L 65.213899 67.931328 
L 65.519792 69.627087 
L 65.825685 68.20536 
L 66.131578 74.068636 
L 66.437471 88.280648 
L 66.743365 76.197045 
L 67.355151 64.688271 
L 67.661044 76.203336 
L 67.966937 96.334737 
L 68.27283 56.392985 
L 68.578723 54.610163 
L 68.884616 82.061666 
L 69.496402 61.384818 
L 69.802296 67.739737 
L 70.108189 63.668103 
L 70.414082 89.584858 
L 70.719975 94.917702 
L 71.025868 60.756292 
L 71.331761 75.932514 
L 71.637654 76.356765 
L 71.943547 65.687605 
L 72.24944 60.311782 
L 72.555333 59.572558 
L 72.861227 66.234449 
L 73.473013 89.699371 
L 73.778906 62.820288 
L 74.084799 73.04988 
L 74.696585 61.710831 
L 75.002478 58.290359 
L 75.308371 72.984682 
L 75.614265 71.287742 
L 75.920158 75.740271 
L 76.531944 55.98135 
L 76.837837 40.658314 
L 77.14373 51.758417 
L 77.449623 48.315883 
L 77.755516 55.812888 
L 78.061409 47.718703 
L 78.367302 87.482698 
L 78.979089 44.032744 
L 79.284982 38.754101 
L 79.896768 65.200227 
L 80.202661 58.536433 
L 80.508554 45.538131 
L 80.814447 56.670606 
L 81.12034 46.540509 
L 81.426233 53.856354 
L 81.732127 55.009457 
L 82.03802 66.442745 
L 82.343913 55.40706 
L 82.649806 39.717368 
L 82.955699 55.96323 
L 83.261592 45.967365 
L 83.567485 58.862615 
L 83.873378 49.662601 
L 84.179271 53.709342 
L 84.485164 32.445279 
L 84.791058 60.690075 
L 85.096951 56.883071 
L 85.708737 38.749571 
L 86.01463 50.415619 
L 86.626416 44.454605 
L 86.932309 64.899377 
L 87.238202 54.665767 
L 87.544095 80.338877 
L 87.849989 57.345936 
L 88.155882 64.857406 
L 88.461775 49.486955 
L 88.767668 64.963634 
L 89.073561 55.127166 
L 89.379454 48.972783 
L 89.685347 35.947523 
L 89.99124 29.739785 
L 90.297133 48.30201 
L 90.603026 33.201351 
L 90.90892 39.78263 
L 91.214813 36.331946 
L 91.520706 47.21755 
L 91.826599 52.747088 
L 92.132492 31.579229 
L 92.438385 49.098358 
L 92.744278 57.574823 
L 93.050171 37.804141 
L 93.356064 27.704213 
L 93.661958 29.170947 
L 93.967851 31.922962 
L 94.273744 28.835129 
L 94.88553 49.850494 
L 95.191423 36.922353 
L 95.497316 56.000583 
L 95.803209 46.652051 
L 96.109102 51.767415 
L 96.414995 68.625881 
L 97.026782 19.887855 
L 97.638568 40.990895 
L 97.944461 25.218877 
L 98.250354 47.903344 
L 98.556247 46.108551 
L 98.86214 41.443745 
L 99.168033 24.107025 
L 99.473926 17.154753 
L 100.085713 44.082793 
L 100.391606 30.381422 
L 100.697499 36.449125 
L 101.003392 60.746333 
L 101.309285 39.147259 
L 101.615178 30.718495 
L 101.921071 53.538144 
L 102.226964 37.563986 
L 102.838751 27.781807 
L 103.144644 27.194551 
L 103.450537 46.270763 
L 103.75643 50.143211 
L 104.062323 49.315933 
L 104.368216 28.78523 
L 104.674109 33.055115 
L 104.980002 19.275025 
L 105.285895 50.587326 
L 105.591788 22.194087 
L 105.897682 54.356333 
L 106.203575 50.496848 
L 106.509468 41.278852 
L 106.815361 17.152349 
L 107.121254 19.796746 
L 107.427147 17.350041 
L 107.73304 34.85164 
L 108.038933 42.580502 
L 108.344826 39.274575 
L 108.65072 28.582567 
L 108.956613 24.630397 
L 109.262506 33.409388 
L 109.568399 48.575206 
L 109.874292 57.67617 
L 110.180185 53.779993 
L 110.486078 40.83288 
L 110.791971 43.760968 
L 111.097864 18.665479 
L 111.403757 39.609197 
L 111.709651 47.28279 
L 112.015544 42.948921 
L 112.321437 31.589254 
L 112.62733 43.491432 
L 112.933223 38.814203 
L 113.239116 30.662545 
L 113.545009 36.486362 
L 113.850902 15.838211 
L 114.156795 40.770797 
L 114.462688 32.906951 
L 114.768582 22.065628 
L 115.074475 31.669999 
L 115.380368 21.010485 
L 115.686261 45.262371 
L 115.992154 41.626324 
L 116.298047 42.30977 
L 116.60394 39.359012 
L 116.909833 44.102821 
L 117.215726 39.961594 
L 117.521619 25.251996 
L 117.827513 29.491423 
L 118.133406 61.599553 
L 118.439299 58.154734 
L 118.745192 30.734307 
L 119.051085 33.94077 
L 119.356978 52.951079 
L 119.662871 61.002887 
L 119.968764 50.204048 
L 120.274657 34.06341 
L 120.58055 51.899559 
L 120.886444 23.236819 
L 121.192337 25.931152 
L 121.49823 51.273434 
L 121.804123 29.499062 
L 122.110016 45.586573 
L 122.415909 54.563403 
L 122.721802 40.160528 
L 123.027695 42.222952 
L 123.333588 51.283747 
L 123.639481 43.925744 
L 123.945375 24.289306 
L 124.251268 29.282363 
L 124.557161 51.443144 
L 124.863054 29.808133 
L 125.168947 39.051517 
L 125.47484 57.292729 
L 125.780733 30.887706 
L 126.086626 56.056966 
L 126.392519 27.31763 
L 127.004306 49.647554 
L 127.616092 65.472326 
L 127.921985 47.38571 
L 128.227878 38.53747 
L 128.533771 42.802543 
L 128.839664 45.211402 
L 129.145557 75.306153 
L 129.757344 35.667686 
L 130.063237 48.338673 
L 130.36913 55.231345 
L 130.675023 42.268751 
L 130.980916 45.763339 
L 131.286809 70.384415 
L 131.592702 41.308961 
L 131.898595 65.622282 
L 132.204488 45.635498 
L 132.510381 57.658568 
L 132.816275 57.50103 
L 133.122168 58.898321 
L 133.428061 37.344377 
L 133.733954 66.159405 
L 134.039847 51.582171 
L 134.34574 55.646866 
L 134.651633 55.623345 
L 134.957526 34.22163 
L 135.875206 62.034806 
L 136.181099 51.380035 
L 136.486992 64.736396 
L 136.792885 57.237065 
L 137.098778 56.531447 
L 137.404671 49.533015 
L 137.710564 62.62393 
L 138.016457 59.497507 
L 138.32235 70.947564 
L 138.628243 68.740116 
L 139.24003 56.176191 
L 139.545923 65.334198 
L 139.851816 50.138108 
L 140.157709 57.26746 
L 140.463602 54.201695 
L 140.769495 71.513593 
L 141.075388 66.13842 
L 141.381281 55.129178 
L 141.687175 79.278165 
L 142.298961 59.205718 
L 142.604854 79.239092 
L 142.910747 61.383635 
L 143.21664 67.742106 
L 143.522533 67.231605 
L 144.134319 70.81266 
L 144.440212 90.061834 
L 144.746106 64.372198 
L 145.051999 69.582659 
L 145.357892 62.846615 
L 145.663785 70.370454 
L 145.969678 69.26356 
L 146.275571 71.850664 
L 146.581464 79.200795 
L 146.887357 67.58996 
L 147.19325 78.828621 
L 147.499143 71.040015 
L 147.805037 74.498053 
L 148.11093 72.466742 
L 148.416823 73.604031 
L 148.722716 82.555344 
L 149.028609 78.220713 
L 149.334502 88.184636 
L 149.640395 93.116828 
L 149.946288 74.807688 
L 150.252181 69.328334 
L 150.558074 76.139768 
L 150.863968 92.842691 
L 151.169861 87.025617 
L 151.475754 86.660127 
L 151.781647 90.397243 
L 152.08754 80.760987 
L 152.393433 67.376933 
L 152.699326 74.328263 
L 153.005219 72.204568 
L 153.311112 79.093669 
L 153.617005 105.488197 
L 153.922899 101.646404 
L 154.228792 88.408416 
L 154.534685 68.622396 
L 154.840578 73.886972 
L 155.146471 92.232435 
L 155.452364 75.125144 
L 155.758257 99.567883 
L 156.06415 90.750381 
L 156.370043 104.779652 
L 156.675937 84.638439 
L 156.98183 88.274067 
L 157.287723 107.477798 
L 157.593616 94.290793 
L 157.899509 96.842066 
L 158.205402 93.935233 
L 158.511295 106.266305 
L 158.817188 86.372696 
L 159.123081 81.744709 
L 159.428974 93.397094 
L 159.734868 78.034843 
L 160.040761 101.833334 
L 160.652547 112.317376 
L 160.95844 101.853014 
L 161.264333 103.320419 
L 161.570226 89.349489 
L 161.876119 119.716845 
L 162.182012 98.097296 
L 162.487905 85.106046 
L 162.793799 92.614301 
L 163.099692 109.083657 
L 163.405585 110.832263 
L 163.711478 106.821318 
L 164.017371 89.76694 
L 164.323264 96.166647 
L 164.629157 114.130283 
L 164.93505 87.288041 
L 165.240943 125.362884 
L 165.546836 123.196781 
L 165.85273 101.929412 
L 166.158623 93.132636 
L 166.464516 107.670013 
L 166.770409 110.3756 
L 167.076302 111.758073 
L 167.382195 128.757054 
L 167.688088 138.847795 
L 167.993981 95.335561 
L 168.299874 105.739133 
L 168.605767 103.506537 
L 168.911661 114.079402 
L 169.217554 116.44442 
L 169.523447 111.086767 
L 169.82934 97.789117 
L 170.135233 129.252529 
L 170.441126 107.379792 
L 170.747019 118.644192 
L 171.052912 117.379641 
L 171.664698 126.467831 
L 171.970592 127.064233 
L 172.276485 96.309458 
L 172.582378 138.945822 
L 172.888271 122.722458 
L 173.194164 119.862303 
L 173.500057 105.111583 
L 174.111843 132.909487 
L 174.417736 107.934194 
L 174.72363 123.61917 
L 175.029523 157.088669 
L 175.335416 113.523931 
L 175.641309 120.178112 
L 175.947202 124.265348 
L 176.253095 117.328157 
L 176.558988 120.648732 
L 176.864881 101.826593 
L 177.170774 104.066137 
L 177.476667 135.631223 
L 177.782561 104.521798 
L 178.088454 124.711254 
L 178.70024 116.720349 
L 179.006133 117.315204 
L 179.312026 132.428415 
L 179.617919 100.094239 
L 179.923812 117.120328 
L 180.229705 146.744358 
L 180.535598 119.98488 
L 180.841492 128.518679 
L 181.147385 112.751262 
L 181.759171 117.47973 
L 182.065064 134.982453 
L 182.370957 125.555253 
L 182.67685 130.672004 
L 182.982743 130.126091 
L 183.288636 142.005652 
L 183.594529 109.15575 
L 183.900423 130.49246 
L 184.206316 137.416936 
L 184.818102 144.64214 
L 185.123995 154.191503 
L 185.429888 126.838836 
L 185.735781 127.595326 
L 186.041674 139.828394 
L 186.347567 125.549782 
L 186.65346 149.483838 
L 186.959354 135.366785 
L 187.265247 152.04373 
L 187.57114 129.734355 
L 187.877033 135.668369 
L 188.182926 126.146649 
L 188.488819 134.724916 
L 188.794712 124.913673 
L 189.100605 130.538379 
L 189.712392 144.98227 
L 190.018285 136.424319 
L 190.324178 149.544031 
L 190.630071 140.125563 
L 190.935964 147.114595 
L 191.241857 130.669653 
L 191.54775 131.343838 
L 191.853643 128.548283 
L 192.159536 136.309001 
L 192.465429 136.939982 
L 192.771323 142.477104 
L 193.077216 157.547729 
L 193.383109 132.32348 
L 193.689002 148.423843 
L 193.994895 137.427535 
L 194.300788 148.891008 
L 194.606681 167.038211 
L 194.912574 131.846824 
L 195.218467 139.53282 
L 195.52436 150.573292 
L 195.830254 137.213796 
L 196.136147 144.581162 
L 196.747933 153.154815 
L 197.053826 134.942108 
L 197.359719 141.09255 
L 197.665612 119.106184 
L 197.971505 139.139135 
L 198.277398 145.875627 
L 198.583291 135.597489 
L 198.889185 148.716492 
L 199.195078 150.044509 
L 199.500971 150.304334 
L 199.806864 151.222932 
L 200.112757 149.880998 
L 200.41865 136.596362 
L 201.030436 145.765215 
L 201.336329 148.238405 
L 201.642222 155.450313 
L 201.948116 147.435962 
L 202.254009 145.418764 
L 202.559902 133.733649 
L 202.865795 137.493294 
L 203.171688 139.656845 
L 203.477581 130.457788 
L 203.783474 158.360925 
L 204.089367 119.849425 
L 204.39526 134.754134 
L 204.701153 143.4843 
L 205.007047 124.9114 
L 205.31294 160.043912 
L 205.924726 137.089671 
L 206.230619 132.60799 
L 206.536512 151.725683 
L 206.842405 148.813012 
L 207.148298 150.812665 
L 207.454191 134.946801 
L 207.760085 135.937359 
L 208.065978 150.106774 
L 208.371871 139.046306 
L 208.677764 134.285924 
L 208.983657 152.759507 
L 209.28955 138.186216 
L 209.595443 159.106934 
L 209.901336 120.244363 
L 210.207229 121.178346 
L 210.513122 145.223972 
L 210.819016 130.909582 
L 211.124909 155.912951 
L 211.430802 145.155549 
L 211.736695 144.904425 
L 212.042588 147.496375 
L 212.348481 132.178323 
L 212.654374 137.708712 
L 212.960267 123.800126 
L 213.26616 141.069615 
L 213.572053 136.842458 
L 213.877947 157.798797 
L 214.18384 132.504675 
L 214.489733 152.57201 
L 214.795626 141.189468 
L 215.101519 142.501975 
L 215.407412 148.33505 
L 215.713305 140.004834 
L 216.019198 139.600741 
L 216.325091 149.831212 
L 216.630984 140.670064 
L 216.936878 126.223066 
L 217.242771 135.282725 
L 217.548664 124.228996 
L 217.854557 142.608639 
L 218.16045 127.182815 
L 218.772236 114.776236 
L 219.078129 138.034747 
L 219.384022 130.658034 
L 219.689915 127.913169 
L 219.995809 160.95489 
L 220.301702 135.872803 
L 220.607595 129.900016 
L 220.913488 141.132922 
L 221.219381 137.281876 
L 221.525274 137.232088 
L 221.831167 108.452656 
L 222.13706 99.62263 
L 222.442953 103.102532 
L 222.748847 132.837787 
L 223.05474 127.393372 
L 223.360633 142.329367 
L 223.666526 127.622582 
L 223.972419 147.278269 
L 224.278312 127.901866 
L 224.584205 130.975321 
L 224.890098 122.133243 
L 225.195991 119.90298 
L 225.807778 144.762959 
L 226.113671 142.443012 
L 226.419564 115.872947 
L 226.725457 115.042508 
L 227.337243 136.84951 
L 227.643136 123.037526 
L 227.949029 131.074575 
L 228.560815 123.685248 
L 228.866709 123.512242 
L 229.172602 110.888383 
L 229.478495 146.14908 
L 230.090281 123.035913 
L 230.396174 103.553542 
L 230.702067 109.22126 
L 231.00796 98.900742 
L 231.313853 129.141279 
L 231.619746 116.326812 
L 231.92564 113.764977 
L 232.231533 124.19405 
L 232.537426 108.165942 
L 232.843319 124.322839 
L 233.149212 114.605058 
L 233.455105 116.155152 
L 233.760998 130.294518 
L 234.066891 116.91214 
L 234.372784 125.032355 
L 234.678677 104.997028 
L 234.984571 122.034623 
L 235.290464 109.555791 
L 235.596357 115.435438 
L 235.90225 115.367252 
L 236.208143 114.454464 
L 236.514036 129.943446 
L 236.819929 107.894214 
L 237.125822 106.386927 
L 237.431715 112.915371 
L 237.737608 94.731342 
L 238.043502 109.081353 
L 238.349395 93.927178 
L 238.655288 110.899011 
L 238.961181 107.421547 
L 239.267074 98.005576 
L 239.572967 117.822663 
L 239.87886 110.337845 
L 240.184753 114.025932 
L 240.490646 104.031281 
L 240.79654 122.136372 
L 241.102433 111.484748 
L 241.408326 114.333759 
L 241.714219 105.728083 
L 242.020112 114.105291 
L 242.326005 106.375812 
L 242.631898 102.221723 
L 242.937791 90.434407 
L 243.243684 104.491777 
L 243.549577 109.695 
L 243.855471 110.286584 
L 244.161364 90.984157 
L 244.467257 106.446979 
L 244.77315 97.964214 
L 245.079043 100.533395 
L 245.384936 101.855222 
L 245.690829 105.444353 
L 245.996722 90.386426 
L 246.302615 96.434007 
L 246.608508 118.034714 
L 246.914402 98.625774 
L 247.220295 101.565793 
L 247.526188 98.977305 
L 247.832081 100.797349 
L 248.137974 108.926022 
L 248.443867 87.78435 
L 248.74976 97.718203 
L 249.055653 91.055984 
L 249.361546 87.718709 
L 249.667439 92.906168 
L 249.973333 107.470763 
L 250.279226 105.133636 
L 250.585119 95.372704 
L 250.891012 105.976133 
L 251.196905 81.888349 
L 251.502798 85.902891 
L 251.808691 78.970362 
L 252.114584 98.456019 
L 252.420477 102.610594 
L 252.72637 78.711567 
L 253.032264 98.408997 
L 253.338157 70.309879 
L 253.949943 92.901938 
L 254.255836 83.846354 
L 254.561729 97.621454 
L 254.867622 86.088309 
L 255.173515 94.95454 
L 255.479408 68.941925 
L 255.785302 91.321399 
L 256.091195 78.873729 
L 256.397088 74.577567 
L 256.702981 81.681619 
L 257.008874 86.156414 
L 257.314767 70.000731 
L 257.62066 77.805048 
L 257.926553 90.521074 
L 258.232446 77.844171 
L 258.538339 81.581789 
L 258.844233 78.041418 
L 259.150126 82.163088 
L 259.456019 80.65684 
L 259.761912 62.348782 
L 260.067805 70.747225 
L 260.373698 89.438659 
L 260.679591 101.197519 
L 260.985484 73.673533 
L 261.291377 62.954707 
L 261.59727 72.80567 
L 261.903164 66.543772 
L 262.209057 78.02704 
L 262.820843 63.58457 
L 263.126736 64.129162 
L 263.432629 64.384456 
L 263.738522 63.288582 
L 264.044415 76.07746 
L 264.350308 60.396397 
L 264.656201 67.903972 
L 264.962095 80.462392 
L 265.573881 46.267571 
L 265.879774 71.348853 
L 266.185667 61.933945 
L 266.49156 81.097001 
L 266.797453 74.723467 
L 267.103346 59.157031 
L 267.409239 65.659054 
L 267.715132 52.839578 
L 268.021026 65.386595 
L 268.326919 66.703599 
L 268.632812 64.914951 
L 268.938705 58.602844 
L 269.244598 62.998906 
L 269.856384 48.95584 
L 270.162277 47.568063 
L 270.46817 58.252444 
L 270.774063 76.977719 
L 271.079957 57.55949 
L 271.38585 56.928871 
L 271.691743 57.262504 
L 271.997636 60.083024 
L 272.303529 47.565527 
L 272.609422 67.528772 
L 272.915315 54.923552 
L 273.221208 47.105512 
L 273.527101 74.374685 
L 273.832995 64.702282 
L 274.138888 47.649524 
L 274.444781 48.158759 
L 274.750674 67.458998 
L 275.056567 57.143439 
L 275.36246 64.344641 
L 275.668353 45.657114 
L 275.974246 53.971326 
L 276.280139 32.648972 
L 276.586032 67.856325 
L 276.891926 57.192989 
L 277.197819 54.023572 
L 277.503712 36.251276 
L 277.809605 62.866103 
L 278.115498 67.901648 
L 278.421391 35.284317 
L 278.727284 51.450175 
L 279.033177 52.234542 
L 279.33907 60.803077 
L 279.950857 56.855285 
L 280.25675 49.537237 
L 280.562643 46.256843 
L 280.868536 51.527989 
L 281.174429 61.579126 
L 281.480322 53.388383 
L 281.786215 56.691924 
L 282.092108 25.062885 
L 282.398001 57.0174 
L 282.703894 48.862045 
L 283.009788 54.165283 
L 283.315681 47.217446 
L 283.621574 29.206866 
L 283.927467 28.665955 
L 284.23336 49.641051 
L 284.539253 25.650543 
L 285.151039 55.413422 
L 285.456932 45.875069 
L 286.068719 62.494943 
L 286.374612 58.765116 
L 286.680505 29.731995 
L 286.986398 33.690863 
L 287.292291 46.173443 
L 287.598184 35.502316 
L 287.904077 52.588658 
L 288.20997 48.674196 
L 288.515863 54.893534 
L 288.821757 54.57587 
L 289.12765 28.294193 
L 289.433543 47.714073 
L 289.739436 41.75967 
L 290.045329 27.106656 
L 290.351222 30.317098 
L 290.963008 48.036991 
L 291.268901 23.863672 
L 291.574794 44.298717 
L 291.880688 42.788143 
L 292.186581 23.462307 
L 292.492474 33.341762 
L 292.798367 35.323513 
L 293.10426 39.615198 
L 293.410153 36.657751 
L 293.716046 43.311354 
L 294.021939 66.935185 
L 294.327832 34.170777 
L 294.633725 27.008748 
L 294.939619 42.670022 
L 295.245512 26.065399 
L 295.551405 26.440695 
L 295.857298 39.126813 
L 296.469084 23.617137 
L 296.774977 26.118191 
L 297.08087 35.496786 
L 297.386763 52.365333 
L 297.692656 43.149946 
L 297.99855 38.166524 
L 298.304443 49.068656 
L 298.610336 21.496526 
L 298.916229 16.599863 
L 299.222122 26.908518 
L 299.528015 51.687031 
L 299.833908 25.012002 
L 300.139801 30.80902 
L 300.751587 54.17366 
L 301.057481 25.87072 
L 301.363374 32.916191 
L 301.669267 44.001323 
L 301.97516 26.864496 
L 302.281053 17.814268 
L 302.586946 37.085209 
L 302.892839 26.338261 
L 303.198732 30.993253 
L 303.504625 20.25501 
L 303.810519 40.046099 
L 304.116412 35.486736 
L 304.422305 55.346157 
L 304.728198 36.998114 
L 305.034091 26.674368 
L 305.339984 21.181379 
L 305.645877 42.142316 
L 305.95177 38.986616 
L 306.257663 51.494559 
L 306.563556 17.979305 
L 306.86945 58.597643 
L 307.175343 57.175692 
L 307.481236 38.896938 
L 308.093022 63.348862 
L 308.398915 26.851922 
L 308.704808 26.64376 
L 309.010701 58.841285 
L 309.316594 32.943341 
L 309.622487 27.345207 
L 310.234274 48.047211 
L 310.540167 33.032586 
L 310.84606 39.032434 
L 311.151953 33.967674 
L 311.457846 54.822619 
L 311.763739 65.640839 
L 312.069632 23.362591 
L 312.375525 36.571131 
L 312.681418 38.732959 
L 312.987312 46.902949 
L 313.293205 38.165426 
L 313.599098 66.395051 
L 313.904991 44.549245 
L 314.210884 39.951506 
L 314.516777 51.046377 
L 314.82267 49.803875 
L 315.128563 34.441593 
L 315.434456 39.716558 
L 316.046243 34.012237 
L 316.352136 42.107079 
L 316.658029 53.841323 
L 316.963922 52.856678 
L 317.269815 32.501242 
L 317.575708 45.292305 
L 317.881601 47.37103 
L 318.187494 56.417922 
L 318.493387 52.48228 
L 318.79928 33.242179 
L 319.105174 36.109339 
L 319.411067 48.720796 
L 319.71696 42.345959 
L 320.022853 51.037457 
L 320.328746 47.383484 
L 320.634639 61.02702 
L 320.940532 39.675276 
L 321.246425 70.497422 
L 321.552318 53.158912 
L 321.858212 44.840667 
L 322.164105 53.597581 
L 322.469998 49.763355 
L 322.775891 56.777546 
L 323.081784 46.187391 
L 323.69357 63.726149 
L 323.999463 19.362004 
L 324.305356 30.410071 
L 324.611249 57.27789 
L 324.917143 63.001693 
L 325.223036 32.345784 
L 325.528929 59.043779 
L 325.834822 45.561319 
L 326.140715 51.830245 
L 326.446608 47.676472 
L 326.752501 48.381145 
L 327.058394 57.754445 
L 327.364287 76.509916 
L 327.67018 61.006562 
L 327.976074 56.551067 
L 328.58786 62.081902 
L 328.893753 64.068731 
L 329.199646 68.236605 
L 329.505539 39.983439 
L 330.117325 69.324286 
L 330.423218 45.522233 
L 330.729111 51.866336 
L 331.035005 55.675905 
L 331.340898 66.635921 
L 331.646791 59.556846 
L 331.952684 49.835952 
L 332.258577 63.580562 
L 332.56447 59.533564 
L 333.176256 72.981871 
L 333.482149 74.045986 
L 333.788042 50.29291 
L 334.399829 69.448226 
L 334.705722 63.547139 
L 335.011615 74.133084 
L 335.623401 81.336386 
L 335.929294 96.471479 
L 336.54108 50.706485 
L 337.152867 81.629332 
L 337.45876 86.660519 
L 337.764653 53.524946 
L 338.070546 60.880925 
L 338.376439 76.874318 
L 338.682332 83.504716 
L 339.294118 58.979176 
L 339.600011 59.851105 
L 340.211798 92.712695 
L 340.517691 79.954052 
L 340.823584 78.225737 
L 341.129477 94.563509 
L 341.43537 90.10718 
L 341.741263 79.363645 
L 342.047156 81.487623 
L 342.353049 75.331349 
L 342.658942 95.288626 
L 342.964836 91.766274 
L 343.270729 84.653962 
L 343.576622 83.234912 
L 343.882515 88.618773 
L 344.188408 99.536717 
L 344.494301 76.248113 
L 344.800194 89.338444 
L 345.106087 80.025057 
L 345.717873 97.155474 
L 346.023767 81.502536 
L 346.635553 93.593364 
L 346.941446 77.054603 
L 347.247339 92.197767 
L 347.553232 86.00069 
L 347.859125 90.47409 
L 348.165018 88.91532 
L 348.470911 76.65162 
L 348.776804 104.474325 
L 349.082698 108.435926 
L 349.388591 89.578339 
L 349.694484 90.960988 
L 350.000377 103.191483 
L 350.30627 75.707328 
L 350.612163 96.876196 
L 350.918056 102.448324 
L 351.223949 101.486926 
L 351.529842 93.359081 
L 351.835735 91.419749 
L 352.141629 92.606016 
L 352.447522 91.943795 
L 352.753415 102.40606 
L 353.059308 77.520584 
L 353.365201 90.324452 
L 353.671094 91.061852 
L 353.976987 111.187112 
L 354.28288 95.942052 
L 354.588773 101.561209 
L 354.894667 87.450736 
L 355.20056 108.336806 
L 355.506453 103.909665 
L 355.812346 103.08243 
L 357.341811 92.788851 
L 357.647704 92.930984 
L 357.953598 97.165655 
L 358.259491 111.892107 
L 358.565384 110.991413 
L 358.871277 101.672364 
L 359.17717 101.049809 
L 359.483063 125.817042 
L 359.788956 121.766761 
L 360.094849 112.827767 
L 360.400742 107.889559 
L 361.012529 117.580562 
L 361.318422 104.745954 
L 361.624315 112.266271 
L 361.930208 130.774256 
L 362.236101 116.23032 
L 362.541994 113.978357 
L 362.847887 107.724461 
L 363.15378 112.355108 
L 363.459673 121.787077 
L 363.765566 101.582723 
L 364.07146 104.253878 
L 364.377353 116.123869 
L 364.683246 122.93379 
L 364.989139 117.1376 
L 365.295032 109.011362 
L 365.600925 122.418381 
L 365.906818 100.007467 
L 365.906818 100.007467 
" style="fill:none;stroke:#1f77b4;stroke-linecap:square;stroke-width:1.5;"/>
   </g>
   <g id="line2d_28">
    <path clip-path="url(#p63ee89ca3c)" d="M 61.543182 86.304657 
L 61.849075 86.140973 
L 62.154968 85.122468 
L 62.460861 97.739693 
L 62.766754 92.605527 
L 63.072647 94.351844 
L 63.684434 73.131855 
L 64.29622 89.380702 
L 64.602113 85.837437 
L 64.908006 87.878153 
L 65.213899 80.986878 
L 65.519792 69.100079 
L 65.825685 66.493095 
L 66.131578 66.95901 
L 66.437471 71.242273 
L 66.743365 82.756369 
L 67.049258 78.590009 
L 67.661044 63.633292 
L 67.966937 71.298636 
L 68.27283 89.178474 
L 68.578723 66.91436 
L 68.884616 54.227479 
L 69.190509 72.427234 
L 69.496402 74.582607 
L 69.802296 63.896431 
L 70.108189 64.309102 
L 70.414082 64.336666 
L 71.025868 92.624364 
L 71.331761 69.991924 
L 71.637654 69.132718 
L 71.943547 73.688268 
L 72.555333 60.546965 
L 72.861227 59.532405 
L 73.16712 64.791244 
L 73.778906 86.20026 
L 74.084799 69.420703 
L 74.696585 66.873761 
L 75.308371 59.095576 
L 75.614265 68.69593 
L 76.226051 73.713029 
L 76.531944 67.468038 
L 77.14373 47.363871 
L 77.449623 53.298865 
L 77.755516 54.757033 
L 78.061409 58.552195 
L 78.367302 54.553513 
L 78.673196 77.549789 
L 78.979089 69.45971 
L 79.284982 50.691165 
L 79.590875 44.387859 
L 80.202661 66.131273 
L 80.508554 63.051651 
L 80.814447 52.123697 
L 81.12034 56.661758 
L 81.426233 53.845899 
L 82.03802 58.499623 
L 82.343913 65.744857 
L 82.649806 60.372192 
L 82.955699 48.133869 
L 83.261592 55.658372 
L 83.567485 54.068364 
L 83.873378 59.739259 
L 84.179271 56.133725 
L 84.485164 56.642474 
L 84.791058 45.106584 
L 85.096951 58.591058 
L 85.402844 62.022318 
L 86.01463 47.192547 
L 86.320523 53.553071 
L 86.626416 54.370686 
L 86.932309 51.920729 
L 87.238202 63.350329 
L 87.544095 60.799219 
L 87.849989 74.004877 
L 88.155882 63.854241 
L 88.461775 62.915367 
L 88.767668 54.442376 
L 89.073561 62.312179 
L 89.379454 59.666486 
L 89.685347 53.958147 
L 89.99124 45.614089 
L 90.297133 42.124768 
L 90.603026 52.780261 
L 90.90892 47.40623 
L 91.214813 48.189103 
L 91.520706 47.531981 
L 92.132492 57.801773 
L 92.438385 45.791292 
L 92.744278 52.063758 
L 93.050171 60.776298 
L 93.661958 40.798467 
L 93.967851 41.963111 
L 94.273744 44.85105 
L 94.579637 43.64813 
L 94.88553 48.512323 
L 95.191423 55.825478 
L 95.497316 49.249346 
L 95.803209 57.279688 
L 96.109102 54.966806 
L 96.414995 55.742865 
L 96.720889 66.576624 
L 97.332675 36.255432 
L 97.638568 41.905787 
L 97.944461 50.375438 
L 98.250354 42.659495 
L 98.556247 52.238704 
L 98.86214 54.759726 
L 99.168033 50.817958 
L 99.473926 40.325967 
L 99.77982 36.003912 
L 100.391606 52.399595 
L 100.697499 45.875395 
L 101.003392 46.412295 
L 101.309285 61.353613 
L 101.921071 42.766982 
L 102.226964 55.054431 
L 103.144644 41.907155 
L 103.450537 41.953551 
L 103.75643 52.460494 
L 104.062323 57.167239 
L 104.368216 55.966501 
L 104.674109 43.25178 
L 104.980002 43.360503 
L 105.285895 38.471995 
L 105.591788 53.744916 
L 105.897682 42.485749 
L 106.203575 55.157737 
L 106.509468 58.078528 
L 106.815361 50.955713 
L 107.121254 36.277986 
L 107.427147 36.611845 
L 107.73304 37.412671 
L 108.344826 52.156355 
L 108.65072 50.280475 
L 108.956613 43.143483 
L 109.262506 40.183459 
L 109.568399 45.109255 
L 110.180185 61.701135 
L 110.486078 59.399508 
L 110.791971 49.659713 
L 111.097864 49.526954 
L 111.403757 38.015034 
L 112.015544 54.768913 
L 112.321437 52.616523 
L 112.62733 44.567032 
L 112.933223 49.813928 
L 113.239116 49.594407 
L 113.545009 44.218704 
L 113.850902 46.429485 
L 114.156795 37.240802 
L 114.462688 47.803635 
L 114.768582 47.2644 
L 115.074475 39.865701 
L 115.380368 43.654931 
L 115.686261 39.98787 
L 115.992154 51.24367 
L 116.298047 52.396541 
L 116.60394 51.068247 
L 116.909833 48.91184 
L 117.215726 51.292715 
L 117.521619 49.743792 
L 117.827513 41.241025 
L 118.133406 42.221492 
L 118.439299 61.467321 
L 118.745192 64.368366 
L 119.051085 45.221176 
L 119.356978 42.626207 
L 119.662871 55.954819 
L 119.968764 64.178396 
L 120.274657 57.4347 
L 120.58055 44.912106 
L 120.886444 53.452772 
L 121.192337 41.70969 
L 121.49823 39.705105 
L 121.804123 54.933216 
L 122.110016 46.30957 
L 122.415909 50.848067 
L 122.721802 58.718736 
L 123.027695 51.21981 
L 123.333588 49.15352 
L 123.639481 55.344048 
L 123.945375 52.749653 
L 124.251268 40.466058 
L 124.557161 41.474629 
L 124.863054 55.549746 
L 125.168947 46.278378 
L 125.47484 47.208965 
L 125.780733 59.434614 
L 126.086626 46.79454 
L 126.392519 55.903137 
L 126.698413 44.243857 
L 127.004306 46.348533 
L 127.616092 60.971224 
L 127.921985 66.219523 
L 128.533771 46.393027 
L 128.839664 48.906993 
L 129.145557 52.394918 
L 129.45145 70.818499 
L 129.757344 65.13054 
L 130.063237 46.098517 
L 130.36913 49.962431 
L 130.675023 58.692575 
L 130.980916 52.06884 
L 131.286809 51.18961 
L 131.592702 67.080954 
L 131.898595 53.699528 
L 132.204488 61.620255 
L 132.510381 54.317031 
L 132.816275 58.102381 
L 133.122168 60.176145 
L 133.428061 61.219994 
L 133.733954 47.859676 
L 134.039847 61.604019 
L 134.34574 59.01038 
L 134.651633 58.020393 
L 134.957526 58.139487 
L 135.263419 46.192017 
L 135.569312 49.13239 
L 136.181099 63.897269 
L 136.486992 57.796086 
L 136.792885 63.022797 
L 137.404671 58.817626 
L 137.710564 54.192423 
L 138.016457 61.567328 
L 138.32235 62.499441 
L 138.628243 68.719391 
L 138.934137 69.155856 
L 139.545923 57.929579 
L 139.851816 63.196487 
L 140.157709 56.251209 
L 140.463602 57.715384 
L 140.769495 57.712616 
L 141.075388 68.353398 
L 141.381281 68.219076 
L 141.687175 58.988538 
L 141.993068 71.593152 
L 142.298961 72.057335 
L 142.604854 62.066202 
L 142.910747 71.791847 
L 143.21664 65.716032 
L 143.522533 65.471031 
L 143.828426 66.194652 
L 144.134319 68.135597 
L 144.440212 69.35745 
L 144.746106 83.16221 
L 145.051999 70.478953 
L 145.663785 62.812849 
L 145.969678 67.680667 
L 146.275571 68.724912 
L 146.581464 70.292105 
L 146.887357 75.636364 
L 147.19325 69.544241 
L 147.499143 73.887661 
L 147.805037 71.384732 
L 148.11093 72.071999 
L 148.416823 71.100172 
L 148.722716 71.713047 
L 149.028609 78.216751 
L 149.334502 77.980662 
L 149.946288 90.704938 
L 150.558074 68.693384 
L 150.863968 71.392344 
L 151.169861 86.379673 
L 151.475754 88.224221 
L 151.781647 86.419495 
L 152.08754 88.265471 
L 152.393433 82.470985 
L 152.699326 69.170784 
L 153.005219 69.648529 
L 153.311112 70.859835 
L 153.617005 75.728565 
L 153.922899 96.520546 
L 154.228792 103.825896 
L 154.534685 93.989925 
L 154.840578 72.82201 
L 155.146471 69.356276 
L 155.452364 84.602397 
L 155.758257 79.095057 
L 156.06415 91.72062 
L 156.370043 92.772189 
L 156.675937 102.039435 
L 156.98183 90.804927 
L 157.287723 87.073957 
L 157.593616 101.309596 
L 158.205402 97.472861 
L 158.511295 94.822467 
L 158.817188 103.631924 
L 159.428974 82.710813 
L 159.734868 88.235661 
L 160.040761 81.263219 
L 160.652547 106.111616 
L 160.95844 113.406096 
L 161.264333 106.593809 
L 161.570226 104.029256 
L 161.876119 93.758428 
L 162.182012 111.682397 
L 162.487905 105.922026 
L 162.793799 90.290195 
L 163.099692 89.013955 
L 163.405585 104.368263 
L 163.711478 112.352115 
L 164.017371 110.182224 
L 164.323264 95.573367 
L 164.629157 94.243631 
L 164.93505 109.379763 
L 165.240943 96.807442 
L 165.546836 115.449371 
L 165.85273 123.961067 
L 166.464516 95.295265 
L 167.076302 111.025033 
L 167.382195 113.461374 
L 167.993981 132.841902 
L 168.299874 106.782219 
L 168.605767 101.803824 
L 168.911661 103.485511 
L 169.217554 112.863033 
L 169.523447 117.001828 
L 169.82934 113.876039 
L 170.135233 102.352864 
L 170.441126 120.077533 
L 170.747019 114.615463 
L 171.052912 116.364984 
L 171.358805 117.134411 
L 171.970592 123.836955 
L 172.276485 124.629009 
L 172.582378 104.393846 
L 172.888271 124.612776 
L 173.194164 125.390297 
L 173.500057 119.867309 
L 173.80595 107.852384 
L 174.111843 114.469562 
L 174.417736 127.496172 
L 174.72363 115.091146 
L 175.029523 118.048577 
L 175.335416 140.270556 
L 175.641309 121.684289 
L 175.947202 115.445837 
L 176.253095 119.947709 
L 176.558988 118.690214 
L 176.864881 118.63008 
L 177.170774 107.037568 
L 177.476667 103.765427 
L 177.782561 125.732314 
L 178.088454 114.47681 
L 178.394347 118.836441 
L 178.70024 120.537375 
L 179.312026 116.24541 
L 179.617919 126.24218 
L 179.923812 109.120161 
L 180.229705 111.96686 
L 180.535598 134.446024 
L 180.841492 125.16469 
L 181.147385 122.732548 
L 181.453278 114.58247 
L 181.759171 113.993151 
L 182.065064 116.211507 
L 182.370957 128.3757 
L 182.67685 125.657667 
L 182.982743 125.696245 
L 183.288636 125.872041 
L 183.594529 132.482334 
L 183.900423 115.001908 
L 184.206316 121.410893 
L 184.512209 130.704882 
L 184.818102 133.695941 
L 185.123995 134.452757 
L 185.429888 138.987384 
L 185.735781 125.698639 
L 186.041674 121.622577 
L 186.347567 129.867057 
L 186.65346 124.924366 
L 186.959354 135.033764 
L 187.265247 131.107522 
L 187.57114 136.951397 
L 187.877033 127.346223 
L 188.182926 127.194679 
L 188.488819 123.286293 
L 188.794712 127.369666 
L 189.100605 123.413895 
L 189.406498 125.025014 
L 190.018285 135.123416 
L 190.324178 130.591686 
L 190.630071 135.630938 
L 190.935964 132.651718 
L 191.241857 134.659971 
L 191.54775 126.947083 
L 191.853643 124.966518 
L 192.159536 124.138681 
L 192.465429 128.865046 
L 192.771323 130.473481 
L 193.077216 133.06185 
L 193.383109 140.58333 
L 193.689002 129.317757 
L 193.994895 133.835062 
L 194.300788 130.987732 
L 194.606681 135.44769 
L 194.912574 144.830604 
L 195.218467 129.5947 
L 195.52436 128.5099 
L 195.830254 136.385208 
L 196.136147 131.523322 
L 196.44204 132.888709 
L 197.053826 138.718332 
L 197.359719 129.591878 
L 197.665612 130.349294 
L 197.971505 119.593586 
L 198.583291 135.69195 
L 198.889185 130.745804 
L 199.195078 135.063998 
L 199.500971 137.483896 
L 199.806864 137.273857 
L 200.112757 137.329556 
L 200.41865 136.735615 
L 200.724543 129.844095 
L 201.030436 130.661747 
L 201.336329 134.398561 
L 201.642222 136.287715 
L 201.948116 139.510787 
L 202.559902 133.968703 
L 202.865795 127.827003 
L 203.171688 128.687316 
L 203.477581 131.123548 
L 203.783474 126.626399 
L 204.089367 139.541697 
L 204.39526 123.28796 
L 204.701153 125.039197 
L 205.007047 133.171169 
L 205.31294 124.892069 
L 205.618833 139.586014 
L 205.924726 137.663993 
L 206.230619 130.008626 
L 206.536512 125.983253 
L 206.842405 136.440719 
L 207.148298 137.653359 
L 207.454191 137.322645 
L 207.760085 129.161656 
L 208.065978 127.672229 
L 208.371871 136.02548 
L 208.677764 132.543895 
L 208.983657 127.784957 
L 209.28955 136.923928 
L 209.595443 132.344069 
L 209.901336 140.077215 
L 210.207229 122.598063 
L 210.513122 116.577308 
L 210.819016 131.932726 
L 211.124909 129.504934 
L 211.430802 138.754301 
L 212.042588 133.913152 
L 212.348481 135.053471 
L 212.654374 127.680236 
L 212.960267 128.564149 
L 213.26616 122.263629 
L 213.572053 130.277967 
L 213.877947 131.085755 
L 214.18384 140.371709 
L 214.489733 129.673527 
L 214.795626 136.080934 
L 215.101519 133.381497 
L 215.407412 132.398695 
L 215.713305 135.500702 
L 216.019198 132.204763 
L 216.325091 130.649742 
L 216.630984 136.102722 
L 216.936878 132.924088 
L 217.242771 123.341919 
L 217.548664 126.488976 
L 217.854557 122.841469 
L 218.16045 131.626477 
L 219.078129 113.916656 
L 219.384022 128.40247 
L 219.689915 128.917932 
L 219.995809 124.840533 
L 220.301702 140.956316 
L 220.913488 124.595755 
L 221.219381 130.1748 
L 221.525274 130.973583 
L 221.831167 129.957997 
L 222.442953 100.611395 
L 222.748847 101.206303 
L 223.05474 124.444977 
L 223.666526 133.431515 
L 223.972419 126.161294 
L 224.278312 134.03298 
L 224.584205 126.53347 
L 224.890098 124.870187 
L 225.195991 120.415489 
L 225.501884 118.231153 
L 226.113671 135.391643 
L 226.419564 134.469398 
L 226.725457 118.003534 
L 227.03135 112.233681 
L 227.643136 131.042426 
L 227.949029 123.707071 
L 228.254922 124.793359 
L 228.560815 124.209204 
L 228.866709 121.756168 
L 229.172602 120.831254 
L 229.478495 113.253862 
L 229.784388 132.2311 
L 230.090281 133.009739 
L 230.396174 122.423968 
L 230.702067 106.436869 
L 231.00796 106.546889 
L 231.313853 102.212926 
L 231.619746 121.145281 
L 231.92564 120.492731 
L 232.231533 115.186043 
L 232.537426 119.924599 
L 232.843319 112.92053 
L 233.149212 119.346495 
L 233.455105 116.949152 
L 233.760998 115.971493 
L 234.066891 124.630437 
L 234.372784 119.802659 
L 234.678677 121.179928 
L 234.984571 109.872852 
L 235.290464 116.835416 
L 235.596357 113.168478 
L 235.90225 114.610357 
L 236.208143 115.399733 
L 236.514036 115.383333 
L 236.819929 124.603024 
L 237.431715 106.99837 
L 237.737608 110.780974 
L 238.043502 101.269652 
L 238.349395 105.912858 
L 238.655288 99.020342 
L 238.961181 107.519814 
L 239.267074 109.668497 
L 239.572967 102.72485 
L 239.87886 112.86319 
L 240.490646 114.510779 
L 240.79654 107.539026 
L 241.102433 117.513043 
L 241.408326 115.241237 
L 241.714219 114.425248 
L 242.020112 108.475681 
L 242.326005 112.500392 
L 242.631898 109.554605 
L 242.937791 104.738468 
L 243.243684 94.177472 
L 244.161364 112.357401 
L 244.467257 97.878406 
L 244.77315 102.488656 
L 245.079043 101.129928 
L 245.384936 101.425206 
L 245.690829 102.334672 
L 245.996722 105.91351 
L 246.302615 95.889842 
L 246.608508 95.062875 
L 246.914402 112.329489 
L 247.526188 102.355073 
L 247.832081 99.97433 
L 248.137974 101.477147 
L 248.443867 107.86411 
L 248.74976 95.183891 
L 249.055653 95.267573 
L 249.361546 92.568421 
L 249.667439 88.741165 
L 249.973333 90.69833 
L 250.279226 103.634479 
L 250.585119 107.677168 
L 250.891012 100.027902 
L 251.196905 103.696527 
L 251.502798 89.159084 
L 252.114584 78.599203 
L 252.72637 101.645576 
L 253.032264 86.495417 
L 253.338157 92.144971 
L 253.64405 76.586031 
L 253.949943 78.491293 
L 254.255836 88.180894 
L 254.561729 86.163324 
L 254.867622 93.308128 
L 255.173515 88.970039 
L 255.479408 92.475546 
L 255.785302 74.795295 
L 256.091195 83.11674 
L 256.397088 80.397462 
L 256.702981 74.610348 
L 257.008874 77.102039 
L 257.314767 83.212727 
L 257.62066 73.132116 
L 257.926553 73.381724 
L 258.232446 84.739637 
L 258.538339 80.558537 
L 258.844233 79.050216 
L 259.150126 76.763016 
L 259.456019 79.237326 
L 259.761912 79.268862 
L 260.067805 65.679077 
L 260.373698 66.237906 
L 260.985484 97.529687 
L 261.59727 64.071612 
L 261.903164 66.931117 
L 262.209057 67.200631 
L 262.51495 73.734365 
L 262.820843 70.705906 
L 263.126736 64.274567 
L 263.432629 62.777046 
L 263.738522 64.009674 
L 264.044415 63.734846 
L 264.350308 71.904947 
L 264.656201 64.43688 
L 264.962095 65.224238 
L 265.267988 75.461118 
L 265.573881 66.396415 
L 265.879774 51.10119 
L 266.185667 64.451537 
L 266.49156 65.692081 
L 266.797453 75.773627 
L 267.103346 75.255268 
L 267.409239 62.72749 
L 267.715132 62.345703 
L 268.021026 56.909471 
L 268.326919 62.9976 
L 268.632812 66.831389 
L 268.938705 65.935751 
L 269.244598 60.517113 
L 269.550491 62.114767 
L 269.856384 59.407173 
L 270.162277 53.74581 
L 270.46817 52.130665 
L 270.774063 59.309209 
L 271.079957 73.448805 
L 271.691743 57.822328 
L 271.997636 58.089598 
L 272.303529 61.252847 
L 272.609422 54.066861 
L 272.915315 63.973745 
L 273.221208 60.453015 
L 273.527101 52.728071 
L 273.832995 67.971097 
L 274.138888 68.503093 
L 274.444781 54.27368 
L 274.750674 50.755818 
L 275.056567 64.655689 
L 275.36246 62.532312 
L 275.668353 63.734448 
L 275.974246 52.933996 
L 276.280139 55.073734 
L 276.586032 45.300082 
L 276.891926 63.040207 
L 277.197819 63.415058 
L 277.503712 58.129471 
L 277.809605 46.001827 
L 278.421391 69.042548 
L 278.727284 48.814874 
L 279.033177 51.531309 
L 279.644963 62.506098 
L 279.950857 61.603024 
L 280.25675 59.479714 
L 280.562643 54.395714 
L 280.868536 51.697662 
L 281.174429 55.064741 
L 281.480322 62.547748 
L 281.786215 58.943018 
L 282.092108 58.49301 
L 282.398001 41.0264 
L 282.703894 55.09406 
L 283.009788 57.032456 
L 283.315681 57.969459 
L 283.621574 53.685096 
L 283.927467 42.7963 
L 284.23336 41.187997 
L 284.539253 54.004731 
L 284.845146 43.757179 
L 285.151039 46.812327 
L 285.456932 58.691546 
L 285.762825 55.283315 
L 286.068719 56.425994 
L 286.374612 63.097453 
L 286.680505 62.363857 
L 286.986398 43.456907 
L 287.292291 42.300998 
L 287.598184 52.167146 
L 287.904077 48.349771 
L 288.20997 55.634051 
L 288.515863 55.950286 
L 288.821757 58.23757 
L 289.12765 58.445261 
L 289.433543 43.065167 
L 289.739436 50.387453 
L 290.045329 51.553751 
L 290.351222 42.468345 
L 290.657115 42.537047 
L 291.268901 55.010581 
L 291.574794 41.868261 
L 291.880688 49.285403 
L 292.186581 52.291797 
L 292.492474 41.072554 
L 293.410153 49.564703 
L 293.716046 48.023777 
L 294.021939 50.97506 
L 294.327832 65.745444 
L 294.633725 49.392764 
L 294.939619 39.586087 
L 295.245512 48.836408 
L 295.551405 43.233717 
L 295.857298 41.054805 
L 296.163191 48.375383 
L 296.469084 45.728437 
L 296.774977 40.338399 
L 297.08087 41.165352 
L 297.386763 46.832492 
L 297.692656 57.220286 
L 297.99855 53.450883 
L 298.304443 47.897427 
L 298.610336 53.420727 
L 298.916229 40.499322 
L 299.222122 35.250978 
L 299.528015 41.381423 
L 299.833908 56.381294 
L 300.139801 44.050277 
L 300.445694 42.512041 
L 301.057481 58.808618 
L 301.363374 43.464766 
L 301.669267 42.948513 
L 301.97516 51.358347 
L 302.586946 36.705478 
L 302.892839 46.400666 
L 303.198732 43.501862 
L 303.504625 43.952985 
L 303.810519 39.233487 
L 304.116412 48.310491 
L 304.422305 48.448696 
L 304.728198 58.133052 
L 305.339984 40.959609 
L 305.645877 38.115678 
L 305.95177 49.571175 
L 306.257663 50.651935 
L 306.563556 56.185859 
L 306.86945 38.933723 
L 307.175343 56.310614 
L 307.481236 63.000086 
L 307.787129 50.413554 
L 308.093022 54.087363 
L 308.398915 64.064299 
L 308.704808 43.987306 
L 309.010701 38.649024 
L 309.316594 58.618864 
L 309.928381 40.95846 
L 310.540167 54.904751 
L 310.84606 46.909989 
L 311.151953 47.442444 
L 311.457846 46.209578 
L 312.069632 67.037016 
L 312.375525 42.474164 
L 312.681418 42.976579 
L 313.293205 53.829277 
L 313.599098 49.335659 
L 313.904991 63.882144 
L 314.516777 47.786127 
L 314.82267 53.91199 
L 315.128563 56.128113 
L 315.434456 46.555622 
L 315.740349 47.31783 
L 316.046243 47.621053 
L 316.352136 45.959772 
L 316.658029 50.081295 
L 316.963922 58.027841 
L 317.269815 58.656098 
L 317.575708 45.539214 
L 318.187494 54.190144 
L 318.493387 59.640793 
L 318.79928 57.910546 
L 319.105174 45.428196 
L 319.411067 44.784953 
L 319.71696 53.817413 
L 320.022853 52.218594 
L 320.328746 55.332855 
L 320.634639 54.327935 
L 320.940532 61.533951 
L 321.246425 50.712703 
L 321.552318 65.012055 
L 321.858212 60.443625 
L 322.164105 51.348329 
L 322.469998 54.916176 
L 322.775891 55.65717 
L 323.081784 58.993579 
L 323.387677 53.56937 
L 323.69357 56.344493 
L 323.999463 63.915784 
L 324.305356 39.594373 
L 324.611249 39.789959 
L 324.917143 58.777401 
L 325.223036 66.802721 
L 325.528929 47.071125 
L 325.834822 56.332616 
L 326.140715 54.494133 
L 326.446608 55.596779 
L 326.752501 53.806465 
L 327.058394 53.822654 
L 327.364287 59.493856 
L 327.67018 73.059313 
L 328.281967 58.320773 
L 328.58786 59.20493 
L 328.893753 62.74147 
L 329.199646 64.549002 
L 329.505539 67.30764 
L 329.811432 49.987402 
L 330.117325 54.504651 
L 330.423218 67.573162 
L 330.729111 55.503846 
L 331.035005 53.474884 
L 331.340898 57.952102 
L 331.646791 66.196093 
L 331.952684 63.129587 
L 332.258577 54.68395 
L 332.56447 61.341121 
L 332.870363 62.49027 
L 333.176256 65.638893 
L 333.482149 70.857952 
L 333.788042 73.140164 
L 334.093936 56.670226 
L 334.399829 57.014465 
L 334.705722 67.013739 
L 335.011615 66.185764 
L 335.929294 79.379558 
L 336.235187 90.992723 
L 336.54108 80.519236 
L 336.846974 56.101447 
L 337.152867 62.089133 
L 337.45876 77.268349 
L 337.764653 85.026556 
L 338.070546 61.685778 
L 338.376439 57.516149 
L 338.988225 81.353414 
L 339.294118 73.81632 
L 339.600011 60.735963 
L 339.905905 58.576338 
L 340.517691 87.67742 
L 340.823584 83.374305 
L 341.129477 77.393079 
L 341.43537 87.889924 
L 341.741263 90.896255 
L 342.047156 82.041533 
L 342.658942 74.777739 
L 342.964836 87.911722 
L 343.270729 92.218466 
L 343.882515 82.251729 
L 344.188408 85.517007 
L 344.494301 95.915004 
L 344.800194 82.684632 
L 345.106087 84.460899 
L 345.41198 80.625371 
L 345.717873 85.02199 
L 346.023767 93.77215 
L 346.32966 85.916186 
L 346.635553 85.415626 
L 346.941446 90.846025 
L 347.247339 81.094751 
L 347.553232 86.552901 
L 347.859125 86.440235 
L 348.165018 88.865242 
L 348.470911 88.548829 
L 348.776804 79.033103 
L 349.388591 107.918157 
L 349.694484 97.343966 
L 350.000377 90.617062 
L 350.30627 99.311431 
L 350.612163 83.624118 
L 350.918056 90.139057 
L 351.223949 100.37579 
L 351.529842 103.769265 
L 352.141629 92.154093 
L 352.447522 91.916645 
L 352.753415 92.004712 
L 353.059308 99.821703 
L 353.365201 84.702918 
L 353.671094 85.76754 
L 353.976987 89.370856 
L 354.28288 106.127815 
L 354.588773 102.029789 
L 354.894667 101.620443 
L 355.20056 91.545002 
L 355.506453 102.933352 
L 355.812346 106.38672 
L 356.118239 105.564551 
L 356.730025 100.402167 
L 357.035918 98.290851 
L 357.341811 95.007583 
L 357.647704 93.153975 
L 357.953598 92.850892 
L 358.259491 96.198714 
L 358.565384 108.757206 
L 358.871277 113.280562 
L 359.17717 106.300325 
L 359.483063 102.027256 
L 359.788956 119.199622 
L 360.094849 123.546253 
L 360.706635 108.888801 
L 361.012529 111.722274 
L 361.318422 116.929968 
L 361.624315 109.588819 
L 361.930208 110.76039 
L 362.236101 124.936849 
L 362.847887 114.249674 
L 363.15378 108.982622 
L 363.459673 111.547319 
L 363.765566 119.431788 
L 364.07146 108.529019 
L 364.377353 104.147235 
L 364.989139 121.973601 
L 365.295032 119.186427 
L 365.600925 111.34302 
L 365.906818 118.021754 
L 365.906818 118.021754 
" style="fill:none;stroke:#bf00bf;stroke-dasharray:5.55,2.4;stroke-dashoffset:0;stroke-width:1.5;"/>
   </g>
   <g id="patch_3">
    <path d="M 46.325 174.598211 
L 46.325 8.278211 
" style="fill:none;stroke:#000000;stroke-linecap:square;stroke-linejoin:miter;stroke-width:0.8;"/>
   </g>
   <g id="patch_4">
    <path d="M 381.125 174.598211 
L 381.125 8.278211 
" style="fill:none;stroke:#000000;stroke-linecap:square;stroke-linejoin:miter;stroke-width:0.8;"/>
   </g>
   <g id="patch_5">
    <path d="M 46.325 174.598211 
L 381.125 174.598211 
" style="fill:none;stroke:#000000;stroke-linecap:square;stroke-linejoin:miter;stroke-width:0.8;"/>
   </g>
   <g id="patch_6">
    <path d="M 46.325 8.278211 
L 381.125 8.278211 
" style="fill:none;stroke:#000000;stroke-linecap:square;stroke-linejoin:miter;stroke-width:0.8;"/>
   </g>
   <g id="legend_1">
    <g id="patch_7">
     <path d="M 282.125 42.778211 
L 374.125 42.778211 
Q 376.125 42.778211 376.125 40.778211 
L 376.125 15.278211 
Q 376.125 13.278211 374.125 13.278211 
L 282.125 13.278211 
Q 280.125 13.278211 280.125 15.278211 
L 280.125 40.778211 
Q 280.125 42.778211 282.125 42.778211 
z
" style="fill:#ffffff;opacity:0.8;stroke:#cccccc;stroke-linejoin:miter;"/>
    </g>
    <g id="line2d_29">
     <path d="M 284.125 20.778211 
L 304.125 20.778211 
" style="fill:none;stroke:#1f77b4;stroke-linecap:square;stroke-width:1.5;"/>
    </g>
    <g id="line2d_30"/>
    <g id="text_16">
     <!-- labels -->
     <g transform="translate(312.125 24.278211)scale(0.1 -0.1)">
      <defs>
       <path d="M 1825 125 
L 1325 125 
L 1325 4400 
L 1825 4400 
L 1825 125 
z
" id="SimHei-6c" transform="scale(0.015625)"/>
       <path d="M 2875 125 
L 2275 125 
Q 2225 175 2200 262 
Q 2175 350 2175 475 
Q 2000 275 1750 175 
Q 1500 75 1225 75 
Q 825 75 550 275 
Q 275 475 275 850 
Q 275 1225 525 1450 
Q 775 1675 1300 1750 
Q 1650 1800 1912 1875 
Q 2175 1950 2175 2075 
Q 2175 2225 2062 2375 
Q 1950 2525 1575 2525 
Q 1275 2525 1137 2412 
Q 1000 2300 950 2100 
L 400 2100 
Q 450 2500 762 2737 
Q 1075 2975 1575 2975 
Q 2125 2975 2400 2725 
Q 2675 2475 2675 2025 
L 2675 650 
Q 2675 500 2725 375 
Q 2775 250 2875 125 
z
M 2175 1050 
L 2175 1550 
Q 2025 1500 1887 1462 
Q 1750 1425 1425 1375 
Q 1050 1325 937 1200 
Q 825 1075 825 900 
Q 825 750 937 637 
Q 1050 525 1275 525 
Q 1500 525 1762 650 
Q 2025 775 2175 1050 
z
" id="SimHei-61" transform="scale(0.015625)"/>
       <path d="M 2825 1525 
Q 2825 800 2475 437 
Q 2125 75 1625 75 
Q 1350 75 1150 175 
Q 950 275 800 500 
L 800 125 
L 300 125 
L 300 4400 
L 800 4400 
L 800 2550 
Q 950 2775 1150 2887 
Q 1350 3000 1625 3000 
Q 2125 3000 2475 2625 
Q 2825 2250 2825 1525 
z
M 2275 1525 
Q 2275 2000 2087 2275 
Q 1900 2550 1525 2550 
Q 1225 2550 1012 2275 
Q 800 2000 800 1525 
Q 800 1050 1012 787 
Q 1225 525 1525 525 
Q 1900 525 2087 787 
Q 2275 1050 2275 1525 
z
" id="SimHei-62" transform="scale(0.015625)"/>
       <path d="M 2750 900 
Q 2750 500 2437 287 
Q 2125 75 1650 75 
Q 1050 75 725 312 
Q 400 550 400 1000 
L 900 1000 
Q 900 700 1112 600 
Q 1325 500 1625 500 
Q 1925 500 2075 612 
Q 2225 725 2225 900 
Q 2225 1025 2100 1150 
Q 1975 1275 1475 1350 
Q 900 1425 687 1637 
Q 475 1850 475 2200 
Q 475 2500 762 2737 
Q 1050 2975 1600 2975 
Q 2100 2975 2387 2750 
Q 2675 2525 2675 2150 
L 2175 2150 
Q 2175 2375 2012 2462 
Q 1850 2550 1600 2550 
Q 1275 2550 1137 2437 
Q 1000 2325 1000 2175 
Q 1000 2000 1125 1900 
Q 1250 1800 1650 1750 
Q 2300 1650 2525 1437 
Q 2750 1225 2750 900 
z
" id="SimHei-73" transform="scale(0.015625)"/>
      </defs>
      <use xlink:href="#SimHei-6c"/>
      <use x="50" xlink:href="#SimHei-61"/>
      <use x="100" xlink:href="#SimHei-62"/>
      <use x="150" xlink:href="#SimHei-65"/>
      <use x="200" xlink:href="#SimHei-6c"/>
      <use x="250" xlink:href="#SimHei-73"/>
     </g>
    </g>
    <g id="line2d_31">
     <path d="M 284.125 34.028211 
L 304.125 34.028211 
" style="fill:none;stroke:#bf00bf;stroke-dasharray:5.55,2.4;stroke-dashoffset:0;stroke-width:1.5;"/>
    </g>
    <g id="line2d_32"/>
    <g id="text_17">
     <!-- 1-step preds -->
     <g transform="translate(312.125 37.528211)scale(0.1 -0.1)">
      <defs>
       <path d="M 2825 1525 
Q 2825 800 2475 425 
Q 2125 50 1625 50 
Q 1350 50 1150 162 
Q 950 275 800 500 
L 800 -800 
L 300 -800 
L 300 2925 
L 800 2925 
L 800 2550 
Q 950 2775 1150 2875 
Q 1350 2975 1625 2975 
Q 2125 2975 2475 2612 
Q 2825 2250 2825 1525 
z
M 2275 1525 
Q 2275 2000 2087 2262 
Q 1900 2525 1525 2525 
Q 1225 2525 1012 2262 
Q 800 2000 800 1525 
Q 800 1050 1012 775 
Q 1225 500 1525 500 
Q 1900 500 2087 775 
Q 2275 1050 2275 1525 
z
" id="SimHei-70" transform="scale(0.015625)"/>
       <path id="SimHei-20" transform="scale(0.015625)"/>
       <path d="M 2500 2425 
Q 2025 2500 1700 2287 
Q 1375 2075 1150 1550 
L 1150 125 
L 650 125 
L 650 2925 
L 1150 2925 
L 1150 2200 
Q 1375 2600 1712 2787 
Q 2050 2975 2500 2975 
L 2500 2425 
z
" id="SimHei-72" transform="scale(0.015625)"/>
       <path d="M 2750 125 
L 2250 125 
L 2250 500 
Q 2100 275 1900 175 
Q 1700 75 1425 75 
Q 925 75 575 437 
Q 225 800 225 1525 
Q 225 2250 575 2625 
Q 925 3000 1425 3000 
Q 1700 3000 1900 2887 
Q 2100 2775 2250 2550 
L 2250 4400 
L 2750 4400 
L 2750 125 
z
M 2250 1525 
Q 2250 2000 2037 2275 
Q 1825 2550 1525 2550 
Q 1150 2550 962 2275 
Q 775 2000 775 1525 
Q 775 1050 962 787 
Q 1150 525 1525 525 
Q 1825 525 2037 787 
Q 2250 1050 2250 1525 
z
" id="SimHei-64" transform="scale(0.015625)"/>
      </defs>
      <use xlink:href="#SimHei-31"/>
      <use x="50" xlink:href="#SimHei-2d"/>
      <use x="100" xlink:href="#SimHei-73"/>
      <use x="150" xlink:href="#SimHei-74"/>
      <use x="200" xlink:href="#SimHei-65"/>
      <use x="250" xlink:href="#SimHei-70"/>
      <use x="300" xlink:href="#SimHei-20"/>
      <use x="350" xlink:href="#SimHei-70"/>
      <use x="400" xlink:href="#SimHei-72"/>
      <use x="450" xlink:href="#SimHei-65"/>
      <use x="500" xlink:href="#SimHei-64"/>
      <use x="550" xlink:href="#SimHei-73"/>
     </g>
    </g>
   </g>
  </g>
 </g>
 <defs>
  <clipPath id="p63ee89ca3c">
   <rect height="166.32" width="334.8" x="46.325" y="8.278211"/>
  </clipPath>
 </defs>
</svg>
