<?xml version="1.0" encoding="utf-8" standalone="no"?>
<!DOCTYPE svg PUBLIC "-//W3C//DTD SVG 1.1//EN"
  "http://www.w3.org/Graphics/SVG/1.1/DTD/svg11.dtd">
<svg height="211.07625pt" version="1.1" viewBox="0 0 394.160937 211.07625" width="394.160937pt" xmlns="http://www.w3.org/2000/svg" xmlns:xlink="http://www.w3.org/1999/xlink">
 <metadata>
  <rdf:RDF xmlns:cc="http://creativecommons.org/ns#" xmlns:dc="http://purl.org/dc/elements/1.1/" xmlns:rdf="http://www.w3.org/1999/02/22-rdf-syntax-ns#">
   <cc:Work>
    <dc:type rdf:resource="http://purl.org/dc/dcmitype/StillImage"/>
    <dc:date>2023-09-04T08:14:17.787483</dc:date>
    <dc:format>image/svg+xml</dc:format>
    <dc:creator>
     <cc:Agent>
      <dc:title>Matplotlib v3.4.0, https://matplotlib.org/</dc:title>
     </cc:Agent>
    </dc:creator>
   </cc:Work>
  </rdf:RDF>
 </metadata>
 <defs>
  <style type="text/css">*{stroke-linecap:butt;stroke-linejoin:round;}</style>
 </defs>
 <g id="figure_1">
  <g id="patch_1">
   <path d="M 0 211.07625 
L 394.160937 211.07625 
L 394.160937 0 
L 0 0 
z
" style="fill:#ffffff;"/>
  </g>
  <g id="axes_1">
   <g id="patch_2">
    <path d="M 52.160938 173.52 
L 386.960938 173.52 
L 386.960938 7.2 
L 52.160938 7.2 
z
" style="fill:#ffffff;"/>
   </g>
   <g id="matplotlib.axis_1">
    <g id="xtick_1">
     <g id="line2d_1">
      <path clip-path="url(#p8a874ba0aa)" d="M 65.849654 173.52 
L 65.849654 7.2 
" style="fill:none;stroke:#b0b0b0;stroke-linecap:square;stroke-width:0.8;"/>
     </g>
     <g id="line2d_2">
      <defs>
       <path d="M 0 0 
L 0 3.5 
" id="m113ed2f239" style="stroke:#000000;stroke-width:0.8;"/>
      </defs>
      <g>
       <use style="stroke:#000000;stroke-width:0.8;" x="65.849654" xlink:href="#m113ed2f239" y="173.52"/>
      </g>
     </g>
     <g id="text_1">
      <!-- 0 -->
      <g transform="translate(62.668404 188.118438)scale(0.1 -0.1)">
       <defs>
        <path d="M 2034 4250 
Q 1547 4250 1301 3770 
Q 1056 3291 1056 2328 
Q 1056 1369 1301 889 
Q 1547 409 2034 409 
Q 2525 409 2770 889 
Q 3016 1369 3016 2328 
Q 3016 3291 2770 3770 
Q 2525 4250 2034 4250 
z
M 2034 4750 
Q 2819 4750 3233 4129 
Q 3647 3509 3647 2328 
Q 3647 1150 3233 529 
Q 2819 -91 2034 -91 
Q 1250 -91 836 529 
Q 422 1150 422 2328 
Q 422 3509 836 4129 
Q 1250 4750 2034 4750 
z
" id="DejaVuSans-30" transform="scale(0.015625)"/>
       </defs>
       <use xlink:href="#DejaVuSans-30"/>
      </g>
     </g>
    </g>
    <g id="xtick_2">
     <g id="line2d_3">
      <path clip-path="url(#p8a874ba0aa)" d="M 127.028274 173.52 
L 127.028274 7.2 
" style="fill:none;stroke:#b0b0b0;stroke-linecap:square;stroke-width:0.8;"/>
     </g>
     <g id="line2d_4">
      <g>
       <use style="stroke:#000000;stroke-width:0.8;" x="127.028274" xlink:href="#m113ed2f239" y="173.52"/>
      </g>
     </g>
     <g id="text_2">
      <!-- 200 -->
      <g transform="translate(117.484524 188.118438)scale(0.1 -0.1)">
       <defs>
        <path d="M 1228 531 
L 3431 531 
L 3431 0 
L 469 0 
L 469 531 
Q 828 903 1448 1529 
Q 2069 2156 2228 2338 
Q 2531 2678 2651 2914 
Q 2772 3150 2772 3378 
Q 2772 3750 2511 3984 
Q 2250 4219 1831 4219 
Q 1534 4219 1204 4116 
Q 875 4013 500 3803 
L 500 4441 
Q 881 4594 1212 4672 
Q 1544 4750 1819 4750 
Q 2544 4750 2975 4387 
Q 3406 4025 3406 3419 
Q 3406 3131 3298 2873 
Q 3191 2616 2906 2266 
Q 2828 2175 2409 1742 
Q 1991 1309 1228 531 
z
" id="DejaVuSans-32" transform="scale(0.015625)"/>
       </defs>
       <use xlink:href="#DejaVuSans-32"/>
       <use x="63.623047" xlink:href="#DejaVuSans-30"/>
       <use x="127.246094" xlink:href="#DejaVuSans-30"/>
      </g>
     </g>
    </g>
    <g id="xtick_3">
     <g id="line2d_5">
      <path clip-path="url(#p8a874ba0aa)" d="M 188.206895 173.52 
L 188.206895 7.2 
" style="fill:none;stroke:#b0b0b0;stroke-linecap:square;stroke-width:0.8;"/>
     </g>
     <g id="line2d_6">
      <g>
       <use style="stroke:#000000;stroke-width:0.8;" x="188.206895" xlink:href="#m113ed2f239" y="173.52"/>
      </g>
     </g>
     <g id="text_3">
      <!-- 400 -->
      <g transform="translate(178.663145 188.118438)scale(0.1 -0.1)">
       <defs>
        <path d="M 2419 4116 
L 825 1625 
L 2419 1625 
L 2419 4116 
z
M 2253 4666 
L 3047 4666 
L 3047 1625 
L 3713 1625 
L 3713 1100 
L 3047 1100 
L 3047 0 
L 2419 0 
L 2419 1100 
L 313 1100 
L 313 1709 
L 2253 4666 
z
" id="DejaVuSans-34" transform="scale(0.015625)"/>
       </defs>
       <use xlink:href="#DejaVuSans-34"/>
       <use x="63.623047" xlink:href="#DejaVuSans-30"/>
       <use x="127.246094" xlink:href="#DejaVuSans-30"/>
      </g>
     </g>
    </g>
    <g id="xtick_4">
     <g id="line2d_7">
      <path clip-path="url(#p8a874ba0aa)" d="M 249.385515 173.52 
L 249.385515 7.2 
" style="fill:none;stroke:#b0b0b0;stroke-linecap:square;stroke-width:0.8;"/>
     </g>
     <g id="line2d_8">
      <g>
       <use style="stroke:#000000;stroke-width:0.8;" x="249.385515" xlink:href="#m113ed2f239" y="173.52"/>
      </g>
     </g>
     <g id="text_4">
      <!-- 600 -->
      <g transform="translate(239.841765 188.118438)scale(0.1 -0.1)">
       <defs>
        <path d="M 2113 2584 
Q 1688 2584 1439 2293 
Q 1191 2003 1191 1497 
Q 1191 994 1439 701 
Q 1688 409 2113 409 
Q 2538 409 2786 701 
Q 3034 994 3034 1497 
Q 3034 2003 2786 2293 
Q 2538 2584 2113 2584 
z
M 3366 4563 
L 3366 3988 
Q 3128 4100 2886 4159 
Q 2644 4219 2406 4219 
Q 1781 4219 1451 3797 
Q 1122 3375 1075 2522 
Q 1259 2794 1537 2939 
Q 1816 3084 2150 3084 
Q 2853 3084 3261 2657 
Q 3669 2231 3669 1497 
Q 3669 778 3244 343 
Q 2819 -91 2113 -91 
Q 1303 -91 875 529 
Q 447 1150 447 2328 
Q 447 3434 972 4092 
Q 1497 4750 2381 4750 
Q 2619 4750 2861 4703 
Q 3103 4656 3366 4563 
z
" id="DejaVuSans-36" transform="scale(0.015625)"/>
       </defs>
       <use xlink:href="#DejaVuSans-36"/>
       <use x="63.623047" xlink:href="#DejaVuSans-30"/>
       <use x="127.246094" xlink:href="#DejaVuSans-30"/>
      </g>
     </g>
    </g>
    <g id="xtick_5">
     <g id="line2d_9">
      <path clip-path="url(#p8a874ba0aa)" d="M 310.564135 173.52 
L 310.564135 7.2 
" style="fill:none;stroke:#b0b0b0;stroke-linecap:square;stroke-width:0.8;"/>
     </g>
     <g id="line2d_10">
      <g>
       <use style="stroke:#000000;stroke-width:0.8;" x="310.564135" xlink:href="#m113ed2f239" y="173.52"/>
      </g>
     </g>
     <g id="text_5">
      <!-- 800 -->
      <g transform="translate(301.020385 188.118438)scale(0.1 -0.1)">
       <defs>
        <path d="M 2034 2216 
Q 1584 2216 1326 1975 
Q 1069 1734 1069 1313 
Q 1069 891 1326 650 
Q 1584 409 2034 409 
Q 2484 409 2743 651 
Q 3003 894 3003 1313 
Q 3003 1734 2745 1975 
Q 2488 2216 2034 2216 
z
M 1403 2484 
Q 997 2584 770 2862 
Q 544 3141 544 3541 
Q 544 4100 942 4425 
Q 1341 4750 2034 4750 
Q 2731 4750 3128 4425 
Q 3525 4100 3525 3541 
Q 3525 3141 3298 2862 
Q 3072 2584 2669 2484 
Q 3125 2378 3379 2068 
Q 3634 1759 3634 1313 
Q 3634 634 3220 271 
Q 2806 -91 2034 -91 
Q 1263 -91 848 271 
Q 434 634 434 1313 
Q 434 1759 690 2068 
Q 947 2378 1403 2484 
z
M 1172 3481 
Q 1172 3119 1398 2916 
Q 1625 2713 2034 2713 
Q 2441 2713 2670 2916 
Q 2900 3119 2900 3481 
Q 2900 3844 2670 4047 
Q 2441 4250 2034 4250 
Q 1625 4250 1398 4047 
Q 1172 3844 1172 3481 
z
" id="DejaVuSans-38" transform="scale(0.015625)"/>
       </defs>
       <use xlink:href="#DejaVuSans-38"/>
       <use x="63.623047" xlink:href="#DejaVuSans-30"/>
       <use x="127.246094" xlink:href="#DejaVuSans-30"/>
      </g>
     </g>
    </g>
    <g id="xtick_6">
     <g id="line2d_11">
      <path clip-path="url(#p8a874ba0aa)" d="M 371.742756 173.52 
L 371.742756 7.2 
" style="fill:none;stroke:#b0b0b0;stroke-linecap:square;stroke-width:0.8;"/>
     </g>
     <g id="line2d_12">
      <g>
       <use style="stroke:#000000;stroke-width:0.8;" x="371.742756" xlink:href="#m113ed2f239" y="173.52"/>
      </g>
     </g>
     <g id="text_6">
      <!-- 1000 -->
      <g transform="translate(359.017756 188.118438)scale(0.1 -0.1)">
       <defs>
        <path d="M 794 531 
L 1825 531 
L 1825 4091 
L 703 3866 
L 703 4441 
L 1819 4666 
L 2450 4666 
L 2450 531 
L 3481 531 
L 3481 0 
L 794 0 
L 794 531 
z
" id="DejaVuSans-31" transform="scale(0.015625)"/>
       </defs>
       <use xlink:href="#DejaVuSans-31"/>
       <use x="63.623047" xlink:href="#DejaVuSans-30"/>
       <use x="127.246094" xlink:href="#DejaVuSans-30"/>
       <use x="190.869141" xlink:href="#DejaVuSans-30"/>
      </g>
     </g>
    </g>
    <g id="text_7">
     <!-- time -->
     <g transform="translate(208.264844 201.796563)scale(0.1 -0.1)">
      <defs>
       <path d="M 1172 4494 
L 1172 3500 
L 2356 3500 
L 2356 3053 
L 1172 3053 
L 1172 1153 
Q 1172 725 1289 603 
Q 1406 481 1766 481 
L 2356 481 
L 2356 0 
L 1766 0 
Q 1100 0 847 248 
Q 594 497 594 1153 
L 594 3053 
L 172 3053 
L 172 3500 
L 594 3500 
L 594 4494 
L 1172 4494 
z
" id="DejaVuSans-74" transform="scale(0.015625)"/>
       <path d="M 603 3500 
L 1178 3500 
L 1178 0 
L 603 0 
L 603 3500 
z
M 603 4863 
L 1178 4863 
L 1178 4134 
L 603 4134 
L 603 4863 
z
" id="DejaVuSans-69" transform="scale(0.015625)"/>
       <path d="M 3328 2828 
Q 3544 3216 3844 3400 
Q 4144 3584 4550 3584 
Q 5097 3584 5394 3201 
Q 5691 2819 5691 2113 
L 5691 0 
L 5113 0 
L 5113 2094 
Q 5113 2597 4934 2840 
Q 4756 3084 4391 3084 
Q 3944 3084 3684 2787 
Q 3425 2491 3425 1978 
L 3425 0 
L 2847 0 
L 2847 2094 
Q 2847 2600 2669 2842 
Q 2491 3084 2119 3084 
Q 1678 3084 1418 2786 
Q 1159 2488 1159 1978 
L 1159 0 
L 581 0 
L 581 3500 
L 1159 3500 
L 1159 2956 
Q 1356 3278 1631 3431 
Q 1906 3584 2284 3584 
Q 2666 3584 2933 3390 
Q 3200 3197 3328 2828 
z
" id="DejaVuSans-6d" transform="scale(0.015625)"/>
       <path d="M 3597 1894 
L 3597 1613 
L 953 1613 
Q 991 1019 1311 708 
Q 1631 397 2203 397 
Q 2534 397 2845 478 
Q 3156 559 3463 722 
L 3463 178 
Q 3153 47 2828 -22 
Q 2503 -91 2169 -91 
Q 1331 -91 842 396 
Q 353 884 353 1716 
Q 353 2575 817 3079 
Q 1281 3584 2069 3584 
Q 2775 3584 3186 3129 
Q 3597 2675 3597 1894 
z
M 3022 2063 
Q 3016 2534 2758 2815 
Q 2500 3097 2075 3097 
Q 1594 3097 1305 2825 
Q 1016 2553 972 2059 
L 3022 2063 
z
" id="DejaVuSans-65" transform="scale(0.015625)"/>
      </defs>
      <use xlink:href="#DejaVuSans-74"/>
      <use x="39.208984" xlink:href="#DejaVuSans-69"/>
      <use x="66.992188" xlink:href="#DejaVuSans-6d"/>
      <use x="164.404297" xlink:href="#DejaVuSans-65"/>
     </g>
    </g>
   </g>
   <g id="matplotlib.axis_2">
    <g id="ytick_1">
     <g id="line2d_13">
      <path clip-path="url(#p8a874ba0aa)" d="M 52.160938 158.575211 
L 386.960938 158.575211 
" style="fill:none;stroke:#b0b0b0;stroke-linecap:square;stroke-width:0.8;"/>
     </g>
     <g id="line2d_14">
      <defs>
       <path d="M 0 0 
L -3.5 0 
" id="m3e2c93aab2" style="stroke:#000000;stroke-width:0.8;"/>
      </defs>
      <g>
       <use style="stroke:#000000;stroke-width:0.8;" x="52.160938" xlink:href="#m3e2c93aab2" y="158.575211"/>
      </g>
     </g>
     <g id="text_8">
      <!-- −1.0 -->
      <g transform="translate(20.878125 162.37443)scale(0.1 -0.1)">
       <defs>
        <path d="M 678 2272 
L 4684 2272 
L 4684 1741 
L 678 1741 
L 678 2272 
z
" id="DejaVuSans-2212" transform="scale(0.015625)"/>
        <path d="M 684 794 
L 1344 794 
L 1344 0 
L 684 0 
L 684 794 
z
" id="DejaVuSans-2e" transform="scale(0.015625)"/>
       </defs>
       <use xlink:href="#DejaVuSans-2212"/>
       <use x="83.789062" xlink:href="#DejaVuSans-31"/>
       <use x="147.412109" xlink:href="#DejaVuSans-2e"/>
       <use x="179.199219" xlink:href="#DejaVuSans-30"/>
      </g>
     </g>
    </g>
    <g id="ytick_2">
     <g id="line2d_15">
      <path clip-path="url(#p8a874ba0aa)" d="M 52.160938 123.468027 
L 386.960938 123.468027 
" style="fill:none;stroke:#b0b0b0;stroke-linecap:square;stroke-width:0.8;"/>
     </g>
     <g id="line2d_16">
      <g>
       <use style="stroke:#000000;stroke-width:0.8;" x="52.160938" xlink:href="#m3e2c93aab2" y="123.468027"/>
      </g>
     </g>
     <g id="text_9">
      <!-- −0.5 -->
      <g transform="translate(20.878125 127.267246)scale(0.1 -0.1)">
       <defs>
        <path d="M 691 4666 
L 3169 4666 
L 3169 4134 
L 1269 4134 
L 1269 2991 
Q 1406 3038 1543 3061 
Q 1681 3084 1819 3084 
Q 2600 3084 3056 2656 
Q 3513 2228 3513 1497 
Q 3513 744 3044 326 
Q 2575 -91 1722 -91 
Q 1428 -91 1123 -41 
Q 819 9 494 109 
L 494 744 
Q 775 591 1075 516 
Q 1375 441 1709 441 
Q 2250 441 2565 725 
Q 2881 1009 2881 1497 
Q 2881 1984 2565 2268 
Q 2250 2553 1709 2553 
Q 1456 2553 1204 2497 
Q 953 2441 691 2322 
L 691 4666 
z
" id="DejaVuSans-35" transform="scale(0.015625)"/>
       </defs>
       <use xlink:href="#DejaVuSans-2212"/>
       <use x="83.789062" xlink:href="#DejaVuSans-30"/>
       <use x="147.412109" xlink:href="#DejaVuSans-2e"/>
       <use x="179.199219" xlink:href="#DejaVuSans-35"/>
      </g>
     </g>
    </g>
    <g id="ytick_3">
     <g id="line2d_17">
      <path clip-path="url(#p8a874ba0aa)" d="M 52.160938 88.360844 
L 386.960938 88.360844 
" style="fill:none;stroke:#b0b0b0;stroke-linecap:square;stroke-width:0.8;"/>
     </g>
     <g id="line2d_18">
      <g>
       <use style="stroke:#000000;stroke-width:0.8;" x="52.160938" xlink:href="#m3e2c93aab2" y="88.360844"/>
      </g>
     </g>
     <g id="text_10">
      <!-- 0.0 -->
      <g transform="translate(29.257812 92.160062)scale(0.1 -0.1)">
       <use xlink:href="#DejaVuSans-30"/>
       <use x="63.623047" xlink:href="#DejaVuSans-2e"/>
       <use x="95.410156" xlink:href="#DejaVuSans-30"/>
      </g>
     </g>
    </g>
    <g id="ytick_4">
     <g id="line2d_19">
      <path clip-path="url(#p8a874ba0aa)" d="M 52.160938 53.25366 
L 386.960938 53.25366 
" style="fill:none;stroke:#b0b0b0;stroke-linecap:square;stroke-width:0.8;"/>
     </g>
     <g id="line2d_20">
      <g>
       <use style="stroke:#000000;stroke-width:0.8;" x="52.160938" xlink:href="#m3e2c93aab2" y="53.25366"/>
      </g>
     </g>
     <g id="text_11">
      <!-- 0.5 -->
      <g transform="translate(29.257812 57.052879)scale(0.1 -0.1)">
       <use xlink:href="#DejaVuSans-30"/>
       <use x="63.623047" xlink:href="#DejaVuSans-2e"/>
       <use x="95.410156" xlink:href="#DejaVuSans-35"/>
      </g>
     </g>
    </g>
    <g id="ytick_5">
     <g id="line2d_21">
      <path clip-path="url(#p8a874ba0aa)" d="M 52.160938 18.146476 
L 386.960938 18.146476 
" style="fill:none;stroke:#b0b0b0;stroke-linecap:square;stroke-width:0.8;"/>
     </g>
     <g id="line2d_22">
      <g>
       <use style="stroke:#000000;stroke-width:0.8;" x="52.160938" xlink:href="#m3e2c93aab2" y="18.146476"/>
      </g>
     </g>
     <g id="text_12">
      <!-- 1.0 -->
      <g transform="translate(29.257812 21.945695)scale(0.1 -0.1)">
       <use xlink:href="#DejaVuSans-31"/>
       <use x="63.623047" xlink:href="#DejaVuSans-2e"/>
       <use x="95.410156" xlink:href="#DejaVuSans-30"/>
      </g>
     </g>
    </g>
    <g id="text_13">
     <!-- x -->
     <g transform="translate(14.798438 93.319375)rotate(-90)scale(0.1 -0.1)">
      <defs>
       <path d="M 3513 3500 
L 2247 1797 
L 3578 0 
L 2900 0 
L 1881 1375 
L 863 0 
L 184 0 
L 1544 1831 
L 300 3500 
L 978 3500 
L 1906 2253 
L 2834 3500 
L 3513 3500 
z
" id="DejaVuSans-78" transform="scale(0.015625)"/>
      </defs>
      <use xlink:href="#DejaVuSans-78"/>
     </g>
    </g>
   </g>
   <g id="line2d_23">
    <path clip-path="url(#p8a874ba0aa)" d="M 67.379119 95.708594 
L 67.685012 92.360904 
L 67.990906 85.625969 
L 68.908585 75.072554 
L 69.214478 84.859115 
L 69.520371 83.964999 
L 69.826264 85.074701 
L 70.132157 86.830539 
L 70.43805 79.023743 
L 70.743943 83.958633 
L 71.049837 75.223747 
L 71.35573 75.112798 
L 71.661623 67.267622 
L 71.967516 71.655625 
L 72.273409 72.847785 
L 72.579302 76.778086 
L 72.885195 78.492716 
L 73.191088 73.725661 
L 73.496981 77.229533 
L 73.802874 76.087599 
L 74.108768 76.897387 
L 74.720554 59.585783 
L 75.026447 60.512636 
L 75.33234 49.789232 
L 75.638233 49.43421 
L 75.944126 50.49248 
L 76.250019 44.377794 
L 76.861805 61.476093 
L 77.167699 49.04805 
L 77.473592 54.370655 
L 77.779485 43.681447 
L 78.085378 50.656398 
L 78.391271 53.591184 
L 78.697164 58.25898 
L 79.003057 57.525662 
L 79.30895 57.822252 
L 79.614843 56.085175 
L 79.920736 59.702539 
L 80.22663 56.572446 
L 80.838416 46.273022 
L 81.450202 53.691572 
L 81.756095 49.674255 
L 82.061988 54.362415 
L 82.367881 50.413524 
L 82.673774 49.509655 
L 82.979668 50.989172 
L 83.285561 51.440724 
L 83.591454 45.590093 
L 83.897347 47.364233 
L 84.20324 43.741855 
L 84.509133 35.889515 
L 84.815026 36.703735 
L 85.120919 35.116924 
L 85.426812 38.948498 
L 85.732705 45.367855 
L 86.344492 50.760352 
L 86.650385 44.539958 
L 86.956278 46.52091 
L 87.262171 43.377241 
L 87.568064 42.421853 
L 87.873957 46.038033 
L 88.17985 38.393374 
L 88.485743 39.158507 
L 88.791636 34.23755 
L 89.09753 36.141048 
L 89.403423 33.374139 
L 89.709316 38.833868 
L 90.015209 37.443151 
L 90.321102 32.884557 
L 90.626995 34.153158 
L 90.932888 28.502135 
L 91.850567 33.399266 
L 92.156461 29.489338 
L 92.462354 32.404522 
L 92.768247 32.462674 
L 93.07414 29.941832 
L 93.380033 30.668047 
L 93.685926 28.247723 
L 93.991819 28.457338 
L 94.909498 42.647233 
L 95.521285 36.362829 
L 95.827178 35.171222 
L 96.133071 35.510679 
L 96.744857 35.324551 
L 97.356643 27.227889 
L 97.662536 29.345404 
L 98.274323 21.779162 
L 98.580216 23.380231 
L 98.886109 20.731379 
L 99.497895 28.770066 
L 99.803788 29.296949 
L 100.109681 28.095335 
L 100.415574 27.37158 
L 100.721467 30.031012 
L 101.027361 26.327631 
L 101.333254 26.432192 
L 101.639147 28.500972 
L 102.250933 23.541467 
L 102.556826 23.108174 
L 102.862719 23.07035 
L 103.168612 24.327035 
L 103.474505 32.026749 
L 103.780398 34.576799 
L 104.086292 28.638511 
L 104.698078 22.430456 
L 105.003971 21.30437 
L 106.533436 32.755438 
L 106.839329 26.870263 
L 107.145223 23.375109 
L 107.757009 14.76 
L 108.062902 18.397222 
L 108.368795 16.323538 
L 108.674688 15.554399 
L 108.980581 20.435911 
L 109.286474 21.463689 
L 109.592367 24.47379 
L 109.89826 25.132216 
L 110.204154 20.60052 
L 110.510047 19.581623 
L 110.81594 22.417315 
L 111.121833 30.472632 
L 111.733619 35.996214 
L 112.345405 24.913569 
L 112.651298 23.325072 
L 113.263085 26.498852 
L 113.568978 25.88961 
L 113.874871 26.088612 
L 115.404336 17.200492 
L 115.710229 19.691783 
L 116.016123 20.210192 
L 116.322016 23.605147 
L 116.627909 24.578225 
L 116.933802 19.53968 
L 117.239695 19.969716 
L 117.545588 18.653777 
L 117.851481 19.347115 
L 118.157374 22.993452 
L 118.463267 18.5151 
L 118.76916 22.483037 
L 119.075054 22.115903 
L 119.380947 20.18966 
L 119.68684 23.663504 
L 119.992733 24.215318 
L 120.298626 21.937216 
L 120.604519 26.579909 
L 120.910412 28.876618 
L 121.216305 26.520389 
L 121.522198 27.644181 
L 121.828091 26.252961 
L 122.133985 23.641783 
L 122.439878 22.311097 
L 122.745771 23.274666 
L 123.051664 22.302224 
L 123.357557 26.11471 
L 123.969343 28.455396 
L 124.275236 27.475187 
L 124.581129 23.696725 
L 124.887022 23.654514 
L 125.192916 24.023038 
L 125.498809 27.101331 
L 125.804702 27.822441 
L 126.110595 30.039169 
L 126.416488 24.330383 
L 126.722381 21.146851 
L 127.028274 26.14085 
L 127.334167 26.011497 
L 127.64006 30.905577 
L 127.945953 28.285707 
L 128.251847 22.599484 
L 128.55774 19.499536 
L 128.863633 19.815721 
L 129.169526 23.410364 
L 129.781312 35.704232 
L 130.087205 36.425601 
L 130.393098 35.544219 
L 130.698991 33.022757 
L 131.004885 31.647072 
L 131.310778 32.841195 
L 131.616671 33.216009 
L 131.922564 33.865361 
L 132.228457 36.543529 
L 132.53435 30.819879 
L 132.840243 28.603063 
L 133.146136 29.368514 
L 133.452029 26.790847 
L 134.063816 36.038546 
L 134.369709 30.605459 
L 134.675602 29.298724 
L 135.287388 23.598786 
L 135.593281 24.606491 
L 136.205067 31.041727 
L 136.51096 30.11032 
L 137.122747 38.761403 
L 137.42864 34.247536 
L 137.734533 44.183522 
L 138.040426 39.902007 
L 138.346319 43.571003 
L 138.652212 42.453928 
L 138.958105 35.443751 
L 139.263998 37.705699 
L 139.569891 32.845472 
L 139.875784 35.474432 
L 140.181678 39.387687 
L 140.487571 39.645799 
L 140.793464 44.136456 
L 141.099357 44.305266 
L 141.40525 50.493484 
L 141.711143 50.384847 
L 142.017036 49.618124 
L 142.322929 43.502873 
L 142.628822 47.096658 
L 142.934715 45.815728 
L 143.240609 50.295403 
L 143.546502 59.325503 
L 143.852395 56.457628 
L 144.158288 57.008521 
L 144.464181 49.163919 
L 145.075967 44.153636 
L 145.38186 43.589735 
L 145.687753 56.47662 
L 145.993646 52.140791 
L 146.29954 53.41723 
L 146.605433 47.754138 
L 146.911326 38.751447 
L 147.217219 38.488468 
L 147.829005 53.282231 
L 148.440791 73.470631 
L 148.746684 66.325053 
L 149.052578 68.954632 
L 149.358471 59.375774 
L 149.664364 53.521465 
L 149.970257 54.835298 
L 150.27615 50.374154 
L 150.582043 51.172187 
L 150.887936 62.348231 
L 151.193829 65.204019 
L 151.499722 75.462273 
L 151.805615 71.861545 
L 152.111509 70.078575 
L 152.417402 60.407176 
L 152.723295 61.853162 
L 153.029188 64.359444 
L 153.335081 62.797116 
L 153.640974 68.314261 
L 153.946867 68.080959 
L 154.25276 65.81206 
L 154.558653 66.895738 
L 154.864546 69.432726 
L 155.17044 69.2215 
L 155.476333 62.262059 
L 155.782226 72.390931 
L 156.088119 65.834814 
L 156.394012 73.918686 
L 156.699905 73.783051 
L 157.311691 83.708152 
L 157.617584 73.445125 
L 157.923477 72.467698 
L 158.229371 62.082284 
L 158.535264 65.366937 
L 158.841157 73.655502 
L 159.14705 75.621366 
L 159.452943 74.985757 
L 159.758836 84.044387 
L 160.064729 83.923521 
L 160.676515 98.583616 
L 160.982408 93.83936 
L 161.288302 84.49623 
L 161.594195 79.966253 
L 161.900088 69.100843 
L 162.205981 77.273311 
L 162.511874 73.902088 
L 162.817767 88.622789 
L 163.12366 90.306429 
L 163.429553 84.112974 
L 163.735446 89.123585 
L 164.04134 82.917269 
L 164.347233 84.621854 
L 164.653126 87.636252 
L 164.959019 100.210454 
L 165.264912 99.416467 
L 165.876698 103.060244 
L 166.182591 90.394241 
L 166.488484 99.532367 
L 166.794377 100.645429 
L 167.100271 100.067472 
L 167.406164 96.459159 
L 167.712057 100.772435 
L 168.01795 90.221652 
L 168.323843 97.48238 
L 168.629736 99.782884 
L 168.935629 111.041588 
L 169.241522 106.740211 
L 169.547415 113.185678 
L 169.853308 110.199491 
L 170.159202 100.913407 
L 170.465095 110.916696 
L 170.770988 111.657151 
L 171.076881 110.696371 
L 171.382774 111.704713 
L 171.688667 104.644695 
L 171.99456 101.578931 
L 172.300453 102.286 
L 172.606346 102.622401 
L 173.829919 134.525512 
L 174.135812 137.294568 
L 174.441705 135.558357 
L 174.747598 138.024441 
L 175.359384 134.33257 
L 175.665277 137.507091 
L 175.97117 131.154704 
L 176.277064 129.462329 
L 176.582957 125.744945 
L 176.88885 120.16437 
L 177.194743 116.734511 
L 177.500636 123.138756 
L 177.806529 118.390134 
L 178.112422 129.912692 
L 178.418315 121.890093 
L 178.724208 127.278525 
L 179.030102 121.187305 
L 179.335995 129.498312 
L 179.641888 134.403503 
L 179.947781 133.718578 
L 180.253674 132.383748 
L 180.86546 120.741178 
L 181.171353 127.591295 
L 181.477246 130.270689 
L 181.783139 130.073395 
L 182.089033 130.618346 
L 182.394926 125.893424 
L 183.006712 130.577185 
L 183.312605 131.838274 
L 183.618498 130.871289 
L 183.924391 130.448242 
L 184.230284 135.729591 
L 184.536177 133.684193 
L 184.84207 137.475465 
L 185.147964 139.592122 
L 185.453857 139.379619 
L 185.75975 140.137604 
L 186.065643 145.924663 
L 186.371536 145.716254 
L 186.677429 142.795676 
L 186.983322 146.223279 
L 187.289215 141.959735 
L 187.595108 141.942534 
L 187.901001 140.549427 
L 188.206895 135.889725 
L 188.512788 138.007768 
L 188.818681 139.032243 
L 189.124574 142.193716 
L 189.430467 149.640712 
L 189.73636 151.676224 
L 190.042253 148.603355 
L 190.348146 152.27975 
L 190.654039 144.349834 
L 190.959932 143.453448 
L 191.265826 148.783683 
L 191.571719 143.281319 
L 191.877612 149.183594 
L 192.183505 144.916577 
L 192.489398 149.961642 
L 192.795291 147.375048 
L 193.101184 151.487786 
L 193.407077 153.486357 
L 193.71297 150.50753 
L 194.018863 157.808031 
L 194.324757 157.262495 
L 194.63065 154.534177 
L 194.936543 155.255349 
L 195.548329 146.259304 
L 195.854222 147.974539 
L 196.160115 150.420648 
L 196.466008 148.871059 
L 197.077795 160.141619 
L 197.383688 154.100399 
L 197.689581 155.046596 
L 197.995474 152.926277 
L 198.60726 142.884224 
L 199.219046 147.062852 
L 199.524939 147.587513 
L 199.830832 151.492687 
L 200.136726 147.800736 
L 200.442619 147.933789 
L 200.748512 142.578624 
L 201.054405 147.279201 
L 201.360298 146.029973 
L 202.277977 155.081199 
L 202.889763 158.372091 
L 203.195657 156.47606 
L 203.50155 156.430723 
L 203.807443 152.029577 
L 204.113336 142.08415 
L 204.419229 139.94252 
L 204.725122 148.361628 
L 205.642801 163.875292 
L 205.948694 162.601598 
L 206.254588 164.885416 
L 206.866374 161.895696 
L 207.172267 157.547764 
L 207.47816 151.561071 
L 207.784053 153.095828 
L 208.089946 152.558796 
L 208.395839 155.110072 
L 208.701732 155.40862 
L 209.007625 158.856341 
L 209.313519 153.407061 
L 209.619412 155.628196 
L 210.231198 146.338315 
L 210.842984 149.856161 
L 211.148877 155.315163 
L 211.45477 157.286982 
L 211.760663 160.137108 
L 212.066557 154.213497 
L 212.37245 155.701134 
L 212.678343 145.927078 
L 213.290129 146.738854 
L 213.596022 148.638824 
L 214.207808 154.620046 
L 214.513701 151.662347 
L 214.819594 149.910488 
L 215.125488 156.549019 
L 215.431381 159.08458 
L 215.737274 164.327584 
L 216.043167 165.96 
L 216.34906 164.631255 
L 216.960846 160.414363 
L 217.266739 160.696882 
L 217.572632 159.850621 
L 217.878525 158.191261 
L 218.184419 151.08813 
L 218.796205 147.17544 
L 219.102098 146.582097 
L 219.407991 149.928672 
L 219.713884 154.655042 
L 220.019777 148.984588 
L 220.32567 152.038089 
L 220.631563 153.244299 
L 220.937456 151.852254 
L 221.24335 156.088963 
L 221.549243 152.839875 
L 221.855136 154.443925 
L 222.161029 146.290973 
L 222.466922 145.770924 
L 222.772815 147.75393 
L 223.690494 161.191042 
L 223.996387 156.400887 
L 224.608174 150.820392 
L 224.914067 150.22797 
L 225.21996 156.130935 
L 225.525853 158.005083 
L 225.831746 156.569044 
L 226.137639 157.326598 
L 226.443532 152.953714 
L 226.749425 152.707743 
L 227.055318 150.992366 
L 227.667105 156.683084 
L 227.972998 155.088502 
L 228.278891 158.540663 
L 228.584784 155.987386 
L 229.19657 154.557395 
L 229.502463 145.597861 
L 229.808356 145.543313 
L 230.420143 140.208044 
L 230.726036 147.023667 
L 231.031929 146.687808 
L 231.643715 143.589075 
L 231.949608 136.090112 
L 232.561394 129.275024 
L 232.867287 133.132559 
L 233.173181 144.860932 
L 233.479074 139.650048 
L 233.784967 142.018364 
L 234.09086 142.288186 
L 234.396753 130.257188 
L 234.702646 141.843042 
L 235.008539 137.969884 
L 235.314432 143.357714 
L 235.620325 146.419414 
L 235.926218 147.358488 
L 236.232112 146.084589 
L 236.538005 141.497168 
L 236.843898 135.230777 
L 237.149791 124.108469 
L 237.455684 122.200971 
L 237.761577 124.818518 
L 238.06747 128.765706 
L 238.373363 140.791702 
L 238.679256 135.436445 
L 238.985149 136.325445 
L 239.291043 132.198055 
L 239.596936 130.192951 
L 239.902829 125.750988 
L 240.208722 135.850101 
L 240.514615 126.75576 
L 241.126401 134.770692 
L 241.432294 132.146515 
L 241.738187 134.881739 
L 242.04408 131.435805 
L 242.349974 133.0265 
L 242.655867 130.79094 
L 242.96176 133.021109 
L 243.267653 128.050857 
L 243.573546 128.857627 
L 243.879439 127.446729 
L 244.185332 129.188849 
L 244.491225 129.59919 
L 244.797118 128.751255 
L 245.103012 128.749514 
L 245.408905 130.239188 
L 245.714798 130.493755 
L 246.020691 130.50598 
L 246.326584 125.29562 
L 246.632477 117.096054 
L 246.93837 115.813303 
L 247.244263 110.174338 
L 247.550156 119.148357 
L 247.856049 107.861395 
L 248.161943 106.213398 
L 248.467836 111.628268 
L 248.773729 97.912563 
L 249.079622 118.826598 
L 249.385515 114.251126 
L 249.691408 107.97623 
L 249.997301 111.6886 
L 250.303194 104.818721 
L 250.609087 101.1564 
L 250.91498 108.013528 
L 251.220874 106.282986 
L 251.526767 103.638094 
L 251.83266 112.608808 
L 252.138553 104.950553 
L 252.444446 109.973294 
L 252.750339 100.663598 
L 253.362125 91.435145 
L 253.668018 89.799255 
L 253.973911 100.132025 
L 254.279805 97.977184 
L 254.585698 100.244285 
L 255.197484 86.083953 
L 255.503377 93.037688 
L 255.80927 89.790486 
L 256.115163 96.008656 
L 256.421056 93.283725 
L 256.726949 91.871235 
L 257.032842 98.625847 
L 257.338736 87.92371 
L 257.644629 88.227099 
L 257.950522 95.816088 
L 258.256415 95.122323 
L 258.562308 91.970981 
L 258.868201 94.792646 
L 259.174094 83.481953 
L 259.479987 79.46484 
L 259.78588 91.604414 
L 260.091773 86.631508 
L 260.397667 90.123075 
L 260.70356 77.070658 
L 261.009453 74.568254 
L 261.315346 62.401704 
L 261.621239 68.863238 
L 261.927132 66.498467 
L 262.233025 77.961277 
L 262.538918 83.344023 
L 262.844811 81.046296 
L 263.150705 85.388124 
L 263.456598 78.935092 
L 263.762491 70.091913 
L 264.068384 74.809322 
L 264.68017 76.101345 
L 264.986063 82.600799 
L 265.291956 77.894301 
L 265.597849 68.379281 
L 265.903742 72.987643 
L 266.209636 57.08523 
L 266.515529 60.016584 
L 266.821422 56.990312 
L 267.127315 61.295443 
L 267.739101 73.357729 
L 268.044994 74.906362 
L 268.350887 69.711328 
L 268.65678 71.403734 
L 268.962673 68.494049 
L 269.268567 78.204103 
L 269.57446 73.837198 
L 269.880353 66.446827 
L 270.186246 56.167429 
L 270.492139 56.060294 
L 270.798032 54.662236 
L 271.103925 54.599204 
L 271.409818 55.968783 
L 271.715711 53.646314 
L 272.021604 46.490518 
L 272.327498 45.250321 
L 272.633391 42.459385 
L 272.939284 56.008081 
L 273.245177 60.506501 
L 273.55107 60.076076 
L 273.856963 61.467292 
L 274.162856 47.526293 
L 274.468749 48.56917 
L 274.774642 50.999384 
L 275.080535 52.486321 
L 275.386429 48.780652 
L 275.692322 48.642167 
L 275.998215 50.336731 
L 276.304108 47.035853 
L 276.610001 47.591857 
L 276.915894 47.286319 
L 277.221787 40.20138 
L 277.52768 38.786062 
L 277.833573 35.430987 
L 278.139467 42.678797 
L 278.44536 45.578977 
L 278.751253 42.739728 
L 279.057146 42.176924 
L 279.363039 37.171487 
L 279.668932 38.285808 
L 279.974825 45.104675 
L 280.280718 46.69126 
L 280.586611 43.291806 
L 281.504291 37.133273 
L 281.810184 44.487255 
L 282.116077 42.732492 
L 282.42197 43.120388 
L 283.033756 33.179896 
L 283.339649 37.309169 
L 283.645542 31.126555 
L 284.257329 34.972182 
L 284.563222 33.674918 
L 284.869115 45.289397 
L 285.175008 45.421709 
L 285.480901 44.357053 
L 285.786794 36.983748 
L 286.092687 32.880414 
L 286.39858 32.539102 
L 286.704473 26.636785 
L 287.010366 30.423256 
L 287.31626 26.112752 
L 287.622153 19.644852 
L 287.928046 21.710585 
L 288.233939 21.331691 
L 288.539832 24.232678 
L 289.151618 26.366612 
L 289.457511 23.936942 
L 289.763404 23.192772 
L 290.069297 23.187474 
L 290.375191 26.570192 
L 290.681084 25.053778 
L 290.986977 25.600554 
L 291.29287 28.544798 
L 291.598763 26.309376 
L 291.904656 30.912152 
L 292.210549 29.40133 
L 292.822335 29.62684 
L 293.128229 28.138124 
L 293.434122 29.569198 
L 293.740015 27.411673 
L 294.045908 21.547198 
L 294.351801 19.048081 
L 294.657694 20.767773 
L 294.963587 18.115958 
L 295.26948 21.620856 
L 295.575373 21.865182 
L 295.881266 18.707112 
L 296.18716 21.601881 
L 296.798946 18.402956 
L 297.104839 21.244004 
L 297.410732 17.979189 
L 297.716625 18.420115 
L 298.022518 20.954245 
L 298.328411 20.673181 
L 298.634304 24.247828 
L 299.246091 25.947063 
L 299.551984 22.231337 
L 299.857877 21.300537 
L 300.16377 22.744246 
L 300.469663 23.378239 
L 300.775556 29.407139 
L 301.081449 28.334087 
L 301.693235 24.60208 
L 301.999128 19.842799 
L 302.305022 19.62519 
L 302.610915 20.778688 
L 302.916808 17.559063 
L 303.222701 19.368601 
L 303.528594 18.529748 
L 303.834487 17.011912 
L 304.14038 20.425566 
L 304.446273 18.667337 
L 304.752166 19.194936 
L 305.058059 19.203273 
L 305.363953 17.653119 
L 305.669846 16.703846 
L 305.975739 19.567251 
L 306.281632 20.478658 
L 306.587525 22.683554 
L 306.893418 29.418108 
L 307.199311 24.89667 
L 307.505204 24.859514 
L 307.811097 28.826129 
L 308.11699 19.576735 
L 308.422884 20.409821 
L 308.728777 22.093572 
L 309.03467 21.596105 
L 309.340563 22.307682 
L 309.646456 25.717678 
L 309.952349 27.282982 
L 310.258242 25.725897 
L 310.564135 27.472182 
L 311.175922 25.020791 
L 311.481815 22.265906 
L 311.787708 24.019631 
L 312.093601 23.733261 
L 312.399494 27.129472 
L 312.705387 32.391272 
L 313.01128 30.942707 
L 313.317173 30.066476 
L 313.623066 24.837074 
L 313.928959 24.811628 
L 314.234853 23.082788 
L 314.540746 17.31092 
L 314.846639 21.750896 
L 315.458425 26.357153 
L 315.764318 37.45643 
L 316.070211 28.710838 
L 316.376104 27.131037 
L 316.681997 23.342582 
L 316.98789 23.281086 
L 317.293784 23.962965 
L 317.599677 23.014704 
L 317.90557 25.660953 
L 318.211463 26.53682 
L 318.517356 26.24973 
L 318.823249 25.583278 
L 319.129142 21.700197 
L 319.435035 25.843064 
L 319.740928 35.52865 
L 320.046821 39.391257 
L 320.352715 47.832952 
L 320.658608 39.421315 
L 321.270394 29.751401 
L 321.576287 28.097553 
L 321.88218 23.999426 
L 322.188073 22.82234 
L 322.493966 23.010201 
L 322.799859 22.548074 
L 323.105752 23.775389 
L 323.411646 24.23626 
L 323.717539 23.67421 
L 324.023432 26.224661 
L 324.329325 26.339952 
L 324.635218 26.60959 
L 324.941111 27.926073 
L 325.247004 24.734003 
L 325.85879 31.473198 
L 326.164684 30.515827 
L 326.470577 37.264329 
L 326.77647 38.661091 
L 327.082363 38.647544 
L 327.388256 37.631501 
L 327.694149 36.026154 
L 328.000042 31.126236 
L 328.305935 38.989152 
L 328.611828 40.415444 
L 328.917721 34.812479 
L 329.223615 41.575111 
L 329.529508 36.918711 
L 329.835401 37.60203 
L 330.141294 45.851988 
L 330.447187 43.652269 
L 330.75308 39.323693 
L 331.058973 40.867389 
L 331.364866 39.349297 
L 331.670759 35.185032 
L 331.976652 35.997114 
L 332.282546 31.953698 
L 332.588439 24.219102 
L 333.200225 32.233899 
L 333.506118 34.712221 
L 333.812011 41.63764 
L 334.117904 43.469125 
L 334.423797 41.95747 
L 334.72969 48.92508 
L 335.035583 48.754398 
L 335.64737 56.344019 
L 336.259156 53.774793 
L 336.565049 57.472226 
L 336.870942 52.072699 
L 337.176835 57.919459 
L 337.482728 53.943247 
L 337.788621 53.340199 
L 338.094514 50.562116 
L 338.400408 43.4493 
L 338.706301 48.864747 
L 339.012194 48.965675 
L 339.318087 53.680938 
L 339.62398 52.268587 
L 339.929873 45.031151 
L 340.235766 43.527791 
L 340.541659 36.272389 
L 340.847552 43.624685 
L 341.153445 40.497614 
L 341.765232 42.01111 
L 342.071125 41.529744 
L 342.988804 65.781283 
L 343.60059 57.583056 
L 343.906483 50.571696 
L 344.212377 52.94975 
L 344.51827 57.908096 
L 345.130056 70.183065 
L 346.047735 50.12019 
L 346.353628 56.502446 
L 346.659521 56.185927 
L 347.271308 63.259269 
L 347.577201 62.542528 
L 347.883094 64.509987 
L 348.188987 70.152057 
L 348.49488 72.889483 
L 348.800773 79.917635 
L 349.106666 79.429273 
L 349.412559 85.411542 
L 349.718452 79.491238 
L 350.024345 77.542734 
L 350.330239 68.34827 
L 350.942025 71.731865 
L 351.247918 75.411024 
L 351.553811 76.761377 
L 351.859704 83.105931 
L 352.165597 83.766894 
L 352.47149 90.32035 
L 352.777383 85.58717 
L 353.083276 89.36957 
L 353.38917 82.394838 
L 353.695063 90.807314 
L 354.000956 92.686632 
L 354.306849 101.981355 
L 354.612742 98.853766 
L 354.918635 99.209744 
L 355.224528 98.365407 
L 355.530421 94.214966 
L 355.836314 92.840298 
L 356.142207 85.607073 
L 356.448101 90.047807 
L 356.753994 89.113382 
L 357.059887 90.559644 
L 357.36578 100.707171 
L 357.671673 93.573702 
L 357.977566 97.455389 
L 358.283459 92.735402 
L 358.589352 94.462752 
L 359.201139 95.111096 
L 359.507032 98.934823 
L 359.812925 99.60038 
L 360.424711 93.034249 
L 361.036497 83.807163 
L 361.34239 95.459625 
L 361.648283 100.163991 
L 362.26007 112.224275 
L 362.565963 109.67978 
L 362.871856 110.171011 
L 363.483642 113.3022 
L 363.789535 122.116909 
L 364.095428 118.52756 
L 364.707214 122.779837 
L 365.013107 120.864036 
L 365.319001 124.609744 
L 365.624894 119.430148 
L 365.930787 116.160663 
L 366.23668 107.340365 
L 366.542573 119.678589 
L 366.848466 119.963782 
L 367.154359 128.818296 
L 367.460252 128.230678 
L 367.766145 121.875131 
L 368.072038 126.905474 
L 368.377932 125.092609 
L 368.683825 125.233588 
L 368.989718 130.318868 
L 369.295611 131.322699 
L 369.601504 128.126691 
L 369.907397 126.258859 
L 370.21329 126.214936 
L 370.519183 123.728738 
L 370.825076 130.867247 
L 371.130969 128.856455 
L 371.436863 125.887774 
L 371.742756 125.567948 
L 371.742756 125.567948 
" style="fill:none;stroke:#1f77b4;stroke-linecap:square;stroke-width:1.5;"/>
   </g>
   <g id="line2d_24">
    <path clip-path="url(#p8a874ba0aa)" d="M 250.91498 106.345769 
L 251.526767 100.761696 
L 251.83266 105.151809 
L 252.138553 105.090938 
L 252.444446 104.46708 
L 252.750339 104.837481 
L 253.056232 106.091775 
L 253.668018 106.679414 
L 255.503377 110.838989 
L 256.421056 113.360266 
L 257.644629 117.299379 
L 259.174094 122.981526 
L 262.538918 135.818198 
L 263.762491 139.506244 
L 264.68017 141.728265 
L 265.597849 143.493734 
L 266.515529 144.852821 
L 267.433208 145.87312 
L 268.350887 146.624442 
L 269.57446 147.315118 
L 270.798032 147.757793 
L 272.327498 148.090232 
L 274.468749 148.324732 
L 278.139467 148.462999 
L 287.622153 148.505587 
L 371.742756 148.506646 
L 371.742756 148.506646 
" style="fill:none;stroke:#bf00bf;stroke-dasharray:5.55,2.4;stroke-dashoffset:0;stroke-width:1.5;"/>
   </g>
   <g id="patch_3">
    <path d="M 52.160938 173.52 
L 52.160938 7.2 
" style="fill:none;stroke:#000000;stroke-linecap:square;stroke-linejoin:miter;stroke-width:0.8;"/>
   </g>
   <g id="patch_4">
    <path d="M 386.960938 173.52 
L 386.960938 7.2 
" style="fill:none;stroke:#000000;stroke-linecap:square;stroke-linejoin:miter;stroke-width:0.8;"/>
   </g>
   <g id="patch_5">
    <path d="M 52.160938 173.52 
L 386.960938 173.52 
" style="fill:none;stroke:#000000;stroke-linecap:square;stroke-linejoin:miter;stroke-width:0.8;"/>
   </g>
   <g id="patch_6">
    <path d="M 52.160938 7.2 
L 386.960938 7.2 
" style="fill:none;stroke:#000000;stroke-linecap:square;stroke-linejoin:miter;stroke-width:0.8;"/>
   </g>
   <g id="legend_1">
    <g id="patch_7">
     <path d="M 269.651563 44.55625 
L 379.960938 44.55625 
Q 381.960938 44.55625 381.960938 42.55625 
L 381.960938 14.2 
Q 381.960938 12.2 379.960938 12.2 
L 269.651563 12.2 
Q 267.651563 12.2 267.651563 14.2 
L 267.651563 42.55625 
Q 267.651563 44.55625 269.651563 44.55625 
z
" style="fill:#ffffff;opacity:0.8;stroke:#cccccc;stroke-linejoin:miter;"/>
    </g>
    <g id="line2d_25">
     <path d="M 271.651563 20.298438 
L 291.651563 20.298438 
" style="fill:none;stroke:#1f77b4;stroke-linecap:square;stroke-width:1.5;"/>
    </g>
    <g id="line2d_26"/>
    <g id="text_14">
     <!-- 1-step preds -->
     <g transform="translate(299.651563 23.798438)scale(0.1 -0.1)">
      <defs>
       <path d="M 313 2009 
L 1997 2009 
L 1997 1497 
L 313 1497 
L 313 2009 
z
" id="DejaVuSans-2d" transform="scale(0.015625)"/>
       <path d="M 2834 3397 
L 2834 2853 
Q 2591 2978 2328 3040 
Q 2066 3103 1784 3103 
Q 1356 3103 1142 2972 
Q 928 2841 928 2578 
Q 928 2378 1081 2264 
Q 1234 2150 1697 2047 
L 1894 2003 
Q 2506 1872 2764 1633 
Q 3022 1394 3022 966 
Q 3022 478 2636 193 
Q 2250 -91 1575 -91 
Q 1294 -91 989 -36 
Q 684 19 347 128 
L 347 722 
Q 666 556 975 473 
Q 1284 391 1588 391 
Q 1994 391 2212 530 
Q 2431 669 2431 922 
Q 2431 1156 2273 1281 
Q 2116 1406 1581 1522 
L 1381 1569 
Q 847 1681 609 1914 
Q 372 2147 372 2553 
Q 372 3047 722 3315 
Q 1072 3584 1716 3584 
Q 2034 3584 2315 3537 
Q 2597 3491 2834 3397 
z
" id="DejaVuSans-73" transform="scale(0.015625)"/>
       <path d="M 1159 525 
L 1159 -1331 
L 581 -1331 
L 581 3500 
L 1159 3500 
L 1159 2969 
Q 1341 3281 1617 3432 
Q 1894 3584 2278 3584 
Q 2916 3584 3314 3078 
Q 3713 2572 3713 1747 
Q 3713 922 3314 415 
Q 2916 -91 2278 -91 
Q 1894 -91 1617 61 
Q 1341 213 1159 525 
z
M 3116 1747 
Q 3116 2381 2855 2742 
Q 2594 3103 2138 3103 
Q 1681 3103 1420 2742 
Q 1159 2381 1159 1747 
Q 1159 1113 1420 752 
Q 1681 391 2138 391 
Q 2594 391 2855 752 
Q 3116 1113 3116 1747 
z
" id="DejaVuSans-70" transform="scale(0.015625)"/>
       <path id="DejaVuSans-20" transform="scale(0.015625)"/>
       <path d="M 2631 2963 
Q 2534 3019 2420 3045 
Q 2306 3072 2169 3072 
Q 1681 3072 1420 2755 
Q 1159 2438 1159 1844 
L 1159 0 
L 581 0 
L 581 3500 
L 1159 3500 
L 1159 2956 
Q 1341 3275 1631 3429 
Q 1922 3584 2338 3584 
Q 2397 3584 2469 3576 
Q 2541 3569 2628 3553 
L 2631 2963 
z
" id="DejaVuSans-72" transform="scale(0.015625)"/>
       <path d="M 2906 2969 
L 2906 4863 
L 3481 4863 
L 3481 0 
L 2906 0 
L 2906 525 
Q 2725 213 2448 61 
Q 2172 -91 1784 -91 
Q 1150 -91 751 415 
Q 353 922 353 1747 
Q 353 2572 751 3078 
Q 1150 3584 1784 3584 
Q 2172 3584 2448 3432 
Q 2725 3281 2906 2969 
z
M 947 1747 
Q 947 1113 1208 752 
Q 1469 391 1925 391 
Q 2381 391 2643 752 
Q 2906 1113 2906 1747 
Q 2906 2381 2643 2742 
Q 2381 3103 1925 3103 
Q 1469 3103 1208 2742 
Q 947 2381 947 1747 
z
" id="DejaVuSans-64" transform="scale(0.015625)"/>
      </defs>
      <use xlink:href="#DejaVuSans-31"/>
      <use x="63.623047" xlink:href="#DejaVuSans-2d"/>
      <use x="99.707031" xlink:href="#DejaVuSans-73"/>
      <use x="151.806641" xlink:href="#DejaVuSans-74"/>
      <use x="191.015625" xlink:href="#DejaVuSans-65"/>
      <use x="252.539062" xlink:href="#DejaVuSans-70"/>
      <use x="316.015625" xlink:href="#DejaVuSans-20"/>
      <use x="347.802734" xlink:href="#DejaVuSans-70"/>
      <use x="411.279297" xlink:href="#DejaVuSans-72"/>
      <use x="450.142578" xlink:href="#DejaVuSans-65"/>
      <use x="511.666016" xlink:href="#DejaVuSans-64"/>
      <use x="575.142578" xlink:href="#DejaVuSans-73"/>
     </g>
    </g>
    <g id="line2d_27">
     <path d="M 271.651563 34.976562 
L 291.651563 34.976562 
" style="fill:none;stroke:#bf00bf;stroke-dasharray:5.55,2.4;stroke-dashoffset:0;stroke-width:1.5;"/>
    </g>
    <g id="line2d_28"/>
    <g id="text_15">
     <!-- multistep preds -->
     <g transform="translate(299.651563 38.476562)scale(0.1 -0.1)">
      <defs>
       <path d="M 544 1381 
L 544 3500 
L 1119 3500 
L 1119 1403 
Q 1119 906 1312 657 
Q 1506 409 1894 409 
Q 2359 409 2629 706 
Q 2900 1003 2900 1516 
L 2900 3500 
L 3475 3500 
L 3475 0 
L 2900 0 
L 2900 538 
Q 2691 219 2414 64 
Q 2138 -91 1772 -91 
Q 1169 -91 856 284 
Q 544 659 544 1381 
z
M 1991 3584 
L 1991 3584 
z
" id="DejaVuSans-75" transform="scale(0.015625)"/>
       <path d="M 603 4863 
L 1178 4863 
L 1178 0 
L 603 0 
L 603 4863 
z
" id="DejaVuSans-6c" transform="scale(0.015625)"/>
      </defs>
      <use xlink:href="#DejaVuSans-6d"/>
      <use x="97.412109" xlink:href="#DejaVuSans-75"/>
      <use x="160.791016" xlink:href="#DejaVuSans-6c"/>
      <use x="188.574219" xlink:href="#DejaVuSans-74"/>
      <use x="227.783203" xlink:href="#DejaVuSans-69"/>
      <use x="255.566406" xlink:href="#DejaVuSans-73"/>
      <use x="307.666016" xlink:href="#DejaVuSans-74"/>
      <use x="346.875" xlink:href="#DejaVuSans-65"/>
      <use x="408.398438" xlink:href="#DejaVuSans-70"/>
      <use x="471.875" xlink:href="#DejaVuSans-20"/>
      <use x="503.662109" xlink:href="#DejaVuSans-70"/>
      <use x="567.138672" xlink:href="#DejaVuSans-72"/>
      <use x="606.001953" xlink:href="#DejaVuSans-65"/>
      <use x="667.525391" xlink:href="#DejaVuSans-64"/>
      <use x="731.001953" xlink:href="#DejaVuSans-73"/>
     </g>
    </g>
   </g>
  </g>
 </g>
 <defs>
  <clipPath id="p8a874ba0aa">
   <rect height="166.32" width="334.8" x="52.160938" y="7.2"/>
  </clipPath>
 </defs>
</svg>
