<?xml version="1.0" encoding="utf-8" standalone="no"?>
<!DOCTYPE svg PUBLIC "-//W3C//DTD SVG 1.1//EN"
  "http://www.w3.org/Graphics/SVG/1.1/DTD/svg11.dtd">
<svg height="208.254113pt" version="1.1" viewBox="0 0 388.325 208.254113" width="388.325pt" xmlns="http://www.w3.org/2000/svg" xmlns:xlink="http://www.w3.org/1999/xlink">
 <metadata>
  <rdf:RDF xmlns:cc="http://creativecommons.org/ns#" xmlns:dc="http://purl.org/dc/elements/1.1/" xmlns:rdf="http://www.w3.org/1999/02/22-rdf-syntax-ns#">
   <cc:Work>
    <dc:type rdf:resource="http://purl.org/dc/dcmitype/StillImage"/>
    <dc:date>2023-10-12T06:58:02.647317</dc:date>
    <dc:format>image/svg+xml</dc:format>
    <dc:creator>
     <cc:Agent>
      <dc:title>Matplotlib v3.4.0, https://matplotlib.org/</dc:title>
     </cc:Agent>
    </dc:creator>
   </cc:Work>
  </rdf:RDF>
 </metadata>
 <defs>
  <style type="text/css">*{stroke-linecap:butt;stroke-linejoin:round;}</style>
 </defs>
 <g id="figure_1">
  <g id="patch_1">
   <path d="M 0 208.254113 
L 388.325 208.254113 
L 388.325 0 
L 0 0 
z
" style="fill:#ffffff;"/>
  </g>
  <g id="axes_1">
   <g id="patch_2">
    <path d="M 46.325 173.804113 
L 381.125 173.804113 
L 381.125 7.484113 
L 46.325 7.484113 
z
" style="fill:#ffffff;"/>
   </g>
   <g id="matplotlib.axis_1">
    <g id="xtick_1">
     <g id="line2d_1">
      <path clip-path="url(#p18ba579e3d)" d="M 60.013716 173.804113 
L 60.013716 7.484113 
" style="fill:none;stroke:#b0b0b0;stroke-linecap:square;stroke-width:0.8;"/>
     </g>
     <g id="line2d_2">
      <defs>
       <path d="M 0 0 
L 0 3.5 
" id="m0e3a160609" style="stroke:#000000;stroke-width:0.8;"/>
      </defs>
      <g>
       <use style="stroke:#000000;stroke-width:0.8;" x="60.013716" xlink:href="#m0e3a160609" y="173.804113"/>
      </g>
     </g>
     <g id="text_1">
      <!-- 0 -->
      <g transform="translate(57.513716 187.679113)scale(0.1 -0.1)">
       <defs>
        <path d="M 225 2537 
Q 250 3200 412 3587 
Q 575 3975 875 4225 
Q 1175 4475 1612 4475 
Q 2050 4475 2375 4112 
Q 2700 3750 2800 3200 
Q 2900 2650 2862 1937 
Q 2825 1225 2612 775 
Q 2400 325 1975 150 
Q 1550 -25 1125 187 
Q 700 400 525 750 
Q 350 1100 275 1487 
Q 200 1875 225 2537 
z
M 750 2687 
Q 675 2000 800 1462 
Q 925 925 1212 700 
Q 1500 475 1800 612 
Q 2100 750 2237 1162 
Q 2375 1575 2375 2062 
Q 2375 2550 2337 2950 
Q 2300 3350 2112 3675 
Q 1925 4000 1612 4012 
Q 1300 4025 1062 3700 
Q 825 3375 750 2687 
z
" id="SimHei-30" transform="scale(0.015625)"/>
       </defs>
       <use xlink:href="#SimHei-30"/>
      </g>
     </g>
    </g>
    <g id="xtick_2">
     <g id="line2d_3">
      <path clip-path="url(#p18ba579e3d)" d="M 121.192337 173.804113 
L 121.192337 7.484113 
" style="fill:none;stroke:#b0b0b0;stroke-linecap:square;stroke-width:0.8;"/>
     </g>
     <g id="line2d_4">
      <g>
       <use style="stroke:#000000;stroke-width:0.8;" x="121.192337" xlink:href="#m0e3a160609" y="173.804113"/>
      </g>
     </g>
     <g id="text_2">
      <!-- 200 -->
      <g transform="translate(113.692337 187.679113)scale(0.1 -0.1)">
       <defs>
        <path d="M 300 250 
Q 325 625 650 925 
Q 975 1225 1475 1862 
Q 1975 2500 2125 2850 
Q 2275 3200 2237 3450 
Q 2200 3700 2000 3862 
Q 1800 4025 1537 4000 
Q 1275 3975 1037 3800 
Q 800 3625 675 3275 
L 200 3350 
Q 400 3925 712 4187 
Q 1025 4450 1450 4475 
Q 1700 4500 1900 4462 
Q 2100 4425 2312 4287 
Q 2525 4150 2662 3875 
Q 2800 3600 2762 3212 
Q 2725 2825 2375 2287 
Q 2025 1750 1025 600 
L 2825 600 
L 2825 150 
L 300 150 
L 300 250 
z
" id="SimHei-32" transform="scale(0.015625)"/>
       </defs>
       <use xlink:href="#SimHei-32"/>
       <use x="50" xlink:href="#SimHei-30"/>
       <use x="100" xlink:href="#SimHei-30"/>
      </g>
     </g>
    </g>
    <g id="xtick_3">
     <g id="line2d_5">
      <path clip-path="url(#p18ba579e3d)" d="M 182.370957 173.804113 
L 182.370957 7.484113 
" style="fill:none;stroke:#b0b0b0;stroke-linecap:square;stroke-width:0.8;"/>
     </g>
     <g id="line2d_6">
      <g>
       <use style="stroke:#000000;stroke-width:0.8;" x="182.370957" xlink:href="#m0e3a160609" y="173.804113"/>
      </g>
     </g>
     <g id="text_3">
      <!-- 400 -->
      <g transform="translate(174.870957 187.679113)scale(0.1 -0.1)">
       <defs>
        <path d="M 2000 1100 
L 75 1100 
L 75 1525 
L 2100 4450 
L 2475 4450 
L 2475 1525 
L 3075 1525 
L 3075 1100 
L 2475 1100 
L 2475 150 
L 2000 150 
L 2000 1100 
z
M 2000 1525 
L 2000 3500 
L 600 1525 
L 2000 1525 
z
" id="SimHei-34" transform="scale(0.015625)"/>
       </defs>
       <use xlink:href="#SimHei-34"/>
       <use x="50" xlink:href="#SimHei-30"/>
       <use x="100" xlink:href="#SimHei-30"/>
      </g>
     </g>
    </g>
    <g id="xtick_4">
     <g id="line2d_7">
      <path clip-path="url(#p18ba579e3d)" d="M 243.549577 173.804113 
L 243.549577 7.484113 
" style="fill:none;stroke:#b0b0b0;stroke-linecap:square;stroke-width:0.8;"/>
     </g>
     <g id="line2d_8">
      <g>
       <use style="stroke:#000000;stroke-width:0.8;" x="243.549577" xlink:href="#m0e3a160609" y="173.804113"/>
      </g>
     </g>
     <g id="text_4">
      <!-- 600 -->
      <g transform="translate(236.049577 187.679113)scale(0.1 -0.1)">
       <defs>
        <path d="M 250 1612 
Q 275 1975 387 2225 
Q 500 2475 725 2850 
L 1750 4450 
L 2325 4450 
L 1275 2800 
Q 1950 2975 2350 2750 
Q 2750 2525 2887 2237 
Q 3025 1950 3037 1612 
Q 3050 1275 2937 950 
Q 2825 625 2537 362 
Q 2250 100 1737 75 
Q 1225 50 862 262 
Q 500 475 362 862 
Q 225 1250 250 1612 
z
M 1025 787 
Q 1250 550 1625 525 
Q 2000 500 2250 775 
Q 2500 1050 2500 1575 
Q 2500 2100 2187 2300 
Q 1875 2500 1487 2450 
Q 1100 2400 925 2075 
Q 750 1750 775 1387 
Q 800 1025 1025 787 
z
" id="SimHei-36" transform="scale(0.015625)"/>
       </defs>
       <use xlink:href="#SimHei-36"/>
       <use x="50" xlink:href="#SimHei-30"/>
       <use x="100" xlink:href="#SimHei-30"/>
      </g>
     </g>
    </g>
    <g id="xtick_5">
     <g id="line2d_9">
      <path clip-path="url(#p18ba579e3d)" d="M 304.728198 173.804113 
L 304.728198 7.484113 
" style="fill:none;stroke:#b0b0b0;stroke-linecap:square;stroke-width:0.8;"/>
     </g>
     <g id="line2d_10">
      <g>
       <use style="stroke:#000000;stroke-width:0.8;" x="304.728198" xlink:href="#m0e3a160609" y="173.804113"/>
      </g>
     </g>
     <g id="text_5">
      <!-- 800 -->
      <g transform="translate(297.228198 187.679113)scale(0.1 -0.1)">
       <defs>
        <path d="M 175 1375 
Q 175 1675 325 1962 
Q 475 2250 825 2425 
Q 525 2600 425 2812 
Q 325 3025 312 3300 
Q 300 3575 387 3775 
Q 475 3975 650 4150 
Q 825 4325 1037 4387 
Q 1250 4450 1500 4450 
Q 1750 4450 1950 4400 
Q 2150 4350 2375 4187 
Q 2600 4025 2700 3725 
Q 2800 3425 2687 3025 
Q 2575 2625 2100 2400 
Q 2525 2275 2700 2012 
Q 2875 1750 2875 1375 
Q 2875 1000 2762 775 
Q 2650 550 2512 400 
Q 2375 250 2137 162 
Q 1900 75 1537 75 
Q 1175 75 912 162 
Q 650 250 475 425 
Q 300 600 237 837 
Q 175 1075 175 1375 
z
M 687 1400 
Q 675 1100 787 875 
Q 900 650 1200 587 
Q 1500 525 1825 600 
Q 2150 675 2275 950 
Q 2400 1225 2362 1500 
Q 2325 1775 2050 1962 
Q 1775 2150 1450 2125 
Q 1125 2100 912 1900 
Q 700 1700 687 1400 
z
M 775 3350 
Q 775 3100 950 2875 
Q 1125 2650 1500 2650 
Q 1875 2650 2062 2875 
Q 2250 3100 2237 3412 
Q 2225 3725 2012 3875 
Q 1800 4025 1437 4000 
Q 1075 3975 925 3787 
Q 775 3600 775 3350 
z
" id="SimHei-38" transform="scale(0.015625)"/>
       </defs>
       <use xlink:href="#SimHei-38"/>
       <use x="50" xlink:href="#SimHei-30"/>
       <use x="100" xlink:href="#SimHei-30"/>
      </g>
     </g>
    </g>
    <g id="xtick_6">
     <g id="line2d_11">
      <path clip-path="url(#p18ba579e3d)" d="M 365.906818 173.804113 
L 365.906818 7.484113 
" style="fill:none;stroke:#b0b0b0;stroke-linecap:square;stroke-width:0.8;"/>
     </g>
     <g id="line2d_12">
      <g>
       <use style="stroke:#000000;stroke-width:0.8;" x="365.906818" xlink:href="#m0e3a160609" y="173.804113"/>
      </g>
     </g>
     <g id="text_6">
      <!-- 1000 -->
      <g transform="translate(355.906818 187.679113)scale(0.1 -0.1)">
       <defs>
        <path d="M 1400 3600 
Q 1075 3275 575 2975 
L 575 3450 
Q 1200 3875 1600 4450 
L 1900 4450 
L 1900 150 
L 1400 150 
L 1400 3600 
z
" id="SimHei-31" transform="scale(0.015625)"/>
       </defs>
       <use xlink:href="#SimHei-31"/>
       <use x="50" xlink:href="#SimHei-30"/>
       <use x="100" xlink:href="#SimHei-30"/>
       <use x="150" xlink:href="#SimHei-30"/>
      </g>
     </g>
    </g>
    <g id="text_7">
     <!-- time -->
     <g transform="translate(203.725 199.804113)scale(0.1 -0.1)">
      <defs>
       <path d="M 2750 200 
Q 2625 150 2462 112 
Q 2300 75 2025 75 
Q 1575 75 1300 325 
Q 1025 575 1025 1025 
L 1025 2525 
L 175 2525 
L 175 2925 
L 1025 2925 
L 1025 3900 
L 1525 3900 
L 1525 2925 
L 2550 2925 
L 2550 2525 
L 1525 2525 
L 1525 1000 
Q 1525 800 1625 662 
Q 1725 525 2000 525 
Q 2275 525 2450 575 
Q 2625 625 2750 700 
L 2750 200 
z
" id="SimHei-74" transform="scale(0.015625)"/>
       <path d="M 1800 3725 
L 1300 3725 
L 1300 4375 
L 1800 4375 
L 1800 3725 
z
M 1800 125 
L 1300 125 
L 1300 2925 
L 1800 2925 
L 1800 125 
z
" id="SimHei-69" transform="scale(0.015625)"/>
       <path d="M 3050 125 
L 2550 125 
L 2550 2150 
Q 2550 2300 2500 2400 
Q 2450 2500 2300 2500 
Q 2125 2500 1975 2312 
Q 1825 2125 1825 1825 
L 1825 125 
L 1325 125 
L 1325 2150 
Q 1325 2300 1275 2400 
Q 1225 2500 1075 2500 
Q 900 2500 750 2312 
Q 600 2125 600 1825 
L 600 125 
L 100 125 
L 100 2925 
L 600 2925 
L 600 2550 
Q 725 2750 900 2862 
Q 1075 2975 1275 2975 
Q 1475 2975 1612 2862 
Q 1750 2750 1800 2550 
Q 1925 2750 2087 2862 
Q 2250 2975 2450 2975 
Q 2750 2975 2900 2812 
Q 3050 2650 3050 2350 
L 3050 125 
z
" id="SimHei-6d" transform="scale(0.015625)"/>
       <path d="M 2850 1075 
Q 2800 625 2450 350 
Q 2100 75 1625 75 
Q 1025 75 637 462 
Q 250 850 250 1525 
Q 250 2200 637 2587 
Q 1025 2975 1625 2975 
Q 2150 2975 2487 2637 
Q 2825 2300 2825 1525 
L 800 1525 
Q 800 975 1037 750 
Q 1275 525 1625 525 
Q 1900 525 2075 662 
Q 2250 800 2300 1075 
L 2850 1075 
z
M 2250 1925 
Q 2200 2275 2025 2412 
Q 1850 2550 1575 2550 
Q 1325 2550 1125 2412 
Q 925 2275 825 1925 
L 2250 1925 
z
" id="SimHei-65" transform="scale(0.015625)"/>
      </defs>
      <use xlink:href="#SimHei-74"/>
      <use x="50" xlink:href="#SimHei-69"/>
      <use x="100" xlink:href="#SimHei-6d"/>
      <use x="150" xlink:href="#SimHei-65"/>
     </g>
    </g>
   </g>
   <g id="matplotlib.axis_2">
    <g id="ytick_1">
     <g id="line2d_13">
      <path clip-path="url(#p18ba579e3d)" d="M 46.325 167.946696 
L 381.125 167.946696 
" style="fill:none;stroke:#b0b0b0;stroke-linecap:square;stroke-width:0.8;"/>
     </g>
     <g id="line2d_14">
      <defs>
       <path d="M 0 0 
L -3.5 0 
" id="ma7b04e95f1" style="stroke:#000000;stroke-width:0.8;"/>
      </defs>
      <g>
       <use style="stroke:#000000;stroke-width:0.8;" x="46.325" xlink:href="#ma7b04e95f1" y="167.946696"/>
      </g>
     </g>
     <g id="text_8">
      <!-- -0.6 -->
      <g transform="translate(19.325 171.384196)scale(0.1 -0.1)">
       <defs>
        <path d="M 2975 2125 
L 125 2125 
L 125 2525 
L 2975 2525 
L 2975 2125 
z
" id="SimHei-2d" transform="scale(0.015625)"/>
        <path d="M 1075 125 
L 500 125 
L 500 675 
L 1075 675 
L 1075 125 
z
" id="SimHei-2e" transform="scale(0.015625)"/>
       </defs>
       <use xlink:href="#SimHei-2d"/>
       <use x="50" xlink:href="#SimHei-30"/>
       <use x="100" xlink:href="#SimHei-2e"/>
       <use x="150" xlink:href="#SimHei-36"/>
      </g>
     </g>
    </g>
    <g id="ytick_2">
     <g id="line2d_15">
      <path clip-path="url(#p18ba579e3d)" d="M 46.325 145.473954 
L 381.125 145.473954 
" style="fill:none;stroke:#b0b0b0;stroke-linecap:square;stroke-width:0.8;"/>
     </g>
     <g id="line2d_16">
      <g>
       <use style="stroke:#000000;stroke-width:0.8;" x="46.325" xlink:href="#ma7b04e95f1" y="145.473954"/>
      </g>
     </g>
     <g id="text_9">
      <!-- -0.4 -->
      <g transform="translate(19.325 148.911454)scale(0.1 -0.1)">
       <use xlink:href="#SimHei-2d"/>
       <use x="50" xlink:href="#SimHei-30"/>
       <use x="100" xlink:href="#SimHei-2e"/>
       <use x="150" xlink:href="#SimHei-34"/>
      </g>
     </g>
    </g>
    <g id="ytick_3">
     <g id="line2d_17">
      <path clip-path="url(#p18ba579e3d)" d="M 46.325 123.001211 
L 381.125 123.001211 
" style="fill:none;stroke:#b0b0b0;stroke-linecap:square;stroke-width:0.8;"/>
     </g>
     <g id="line2d_18">
      <g>
       <use style="stroke:#000000;stroke-width:0.8;" x="46.325" xlink:href="#ma7b04e95f1" y="123.001211"/>
      </g>
     </g>
     <g id="text_10">
      <!-- -0.2 -->
      <g transform="translate(19.325 126.438711)scale(0.1 -0.1)">
       <use xlink:href="#SimHei-2d"/>
       <use x="50" xlink:href="#SimHei-30"/>
       <use x="100" xlink:href="#SimHei-2e"/>
       <use x="150" xlink:href="#SimHei-32"/>
      </g>
     </g>
    </g>
    <g id="ytick_4">
     <g id="line2d_19">
      <path clip-path="url(#p18ba579e3d)" d="M 46.325 100.528469 
L 381.125 100.528469 
" style="fill:none;stroke:#b0b0b0;stroke-linecap:square;stroke-width:0.8;"/>
     </g>
     <g id="line2d_20">
      <g>
       <use style="stroke:#000000;stroke-width:0.8;" x="46.325" xlink:href="#ma7b04e95f1" y="100.528469"/>
      </g>
     </g>
     <g id="text_11">
      <!-- 0.0 -->
      <g transform="translate(24.325 103.965969)scale(0.1 -0.1)">
       <use xlink:href="#SimHei-30"/>
       <use x="50" xlink:href="#SimHei-2e"/>
       <use x="100" xlink:href="#SimHei-30"/>
      </g>
     </g>
    </g>
    <g id="ytick_5">
     <g id="line2d_21">
      <path clip-path="url(#p18ba579e3d)" d="M 46.325 78.055727 
L 381.125 78.055727 
" style="fill:none;stroke:#b0b0b0;stroke-linecap:square;stroke-width:0.8;"/>
     </g>
     <g id="line2d_22">
      <g>
       <use style="stroke:#000000;stroke-width:0.8;" x="46.325" xlink:href="#ma7b04e95f1" y="78.055727"/>
      </g>
     </g>
     <g id="text_12">
      <!-- 0.2 -->
      <g transform="translate(24.325 81.493227)scale(0.1 -0.1)">
       <use xlink:href="#SimHei-30"/>
       <use x="50" xlink:href="#SimHei-2e"/>
       <use x="100" xlink:href="#SimHei-32"/>
      </g>
     </g>
    </g>
    <g id="ytick_6">
     <g id="line2d_23">
      <path clip-path="url(#p18ba579e3d)" d="M 46.325 55.582985 
L 381.125 55.582985 
" style="fill:none;stroke:#b0b0b0;stroke-linecap:square;stroke-width:0.8;"/>
     </g>
     <g id="line2d_24">
      <g>
       <use style="stroke:#000000;stroke-width:0.8;" x="46.325" xlink:href="#ma7b04e95f1" y="55.582985"/>
      </g>
     </g>
     <g id="text_13">
      <!-- 0.4 -->
      <g transform="translate(24.325 59.020485)scale(0.1 -0.1)">
       <use xlink:href="#SimHei-30"/>
       <use x="50" xlink:href="#SimHei-2e"/>
       <use x="100" xlink:href="#SimHei-34"/>
      </g>
     </g>
    </g>
    <g id="ytick_7">
     <g id="line2d_25">
      <path clip-path="url(#p18ba579e3d)" d="M 46.325 33.110242 
L 381.125 33.110242 
" style="fill:none;stroke:#b0b0b0;stroke-linecap:square;stroke-width:0.8;"/>
     </g>
     <g id="line2d_26">
      <g>
       <use style="stroke:#000000;stroke-width:0.8;" x="46.325" xlink:href="#ma7b04e95f1" y="33.110242"/>
      </g>
     </g>
     <g id="text_14">
      <!-- 0.6 -->
      <g transform="translate(24.325 36.547742)scale(0.1 -0.1)">
       <use xlink:href="#SimHei-30"/>
       <use x="50" xlink:href="#SimHei-2e"/>
       <use x="100" xlink:href="#SimHei-36"/>
      </g>
     </g>
    </g>
    <g id="ytick_8">
     <g id="line2d_27">
      <path clip-path="url(#p18ba579e3d)" d="M 46.325 10.6375 
L 381.125 10.6375 
" style="fill:none;stroke:#b0b0b0;stroke-linecap:square;stroke-width:0.8;"/>
     </g>
     <g id="line2d_28">
      <g>
       <use style="stroke:#000000;stroke-width:0.8;" x="46.325" xlink:href="#ma7b04e95f1" y="10.6375"/>
      </g>
     </g>
     <g id="text_15">
      <!-- 0.8 -->
      <g transform="translate(24.325 14.075)scale(0.1 -0.1)">
       <use xlink:href="#SimHei-30"/>
       <use x="50" xlink:href="#SimHei-2e"/>
       <use x="100" xlink:href="#SimHei-38"/>
      </g>
     </g>
    </g>
    <g id="text_16">
     <!-- x -->
     <g transform="translate(14.075 93.144113)rotate(-90)scale(0.1 -0.1)">
      <defs>
       <path d="M 2875 125 
L 2275 125 
L 1550 1200 
L 825 125 
L 225 125 
L 1250 1550 
L 300 2925 
L 900 2925 
L 1550 1875 
L 2200 2925 
L 2800 2925 
L 1850 1550 
L 2875 125 
z
" id="SimHei-78" transform="scale(0.015625)"/>
      </defs>
      <use xlink:href="#SimHei-78"/>
     </g>
    </g>
   </g>
   <g id="line2d_29">
    <path clip-path="url(#p18ba579e3d)" d="M 61.543182 92.117125 
L 61.849075 86.683059 
L 62.154968 79.157738 
L 62.460861 85.36542 
L 62.766754 85.236073 
L 63.072647 95.090024 
L 63.37854 94.708011 
L 63.684434 96.386143 
L 63.990327 90.550686 
L 64.29622 88.910139 
L 64.602113 92.284703 
L 64.908006 84.627122 
L 65.213899 83.667015 
L 65.519792 87.244196 
L 66.131578 66.416529 
L 66.743365 69.978872 
L 67.355151 83.295609 
L 67.661044 83.604952 
L 67.966937 77.372553 
L 68.27283 76.644613 
L 68.578723 78.545636 
L 68.884616 75.857109 
L 69.190509 67.896819 
L 69.496402 66.265295 
L 69.802296 60.283235 
L 70.108189 59.863181 
L 70.414082 62.584569 
L 70.719975 62.746324 
L 71.025868 67.041969 
L 71.331761 61.417537 
L 71.637654 66.563112 
L 71.943547 69.754068 
L 72.24944 64.412718 
L 72.555333 70.721165 
L 73.16712 62.761109 
L 73.778906 65.196015 
L 74.084799 59.224611 
L 74.390692 64.540002 
L 74.696585 51.043363 
L 75.002478 49.285279 
L 75.308371 50.628931 
L 75.614265 42.011806 
L 75.920158 55.648669 
L 76.226051 61.909588 
L 76.531944 65.163878 
L 76.837837 66.521129 
L 77.449623 47.758804 
L 77.755516 51.530927 
L 78.061409 51.955133 
L 78.367302 57.066475 
L 78.673196 54.840118 
L 78.979089 56.473527 
L 79.284982 52.206594 
L 79.590875 51.340285 
L 79.896768 49.377238 
L 80.202661 44.459699 
L 80.508554 43.002713 
L 80.814447 43.772613 
L 81.12034 40.362759 
L 81.426233 38.925986 
L 82.03802 44.807766 
L 82.343913 40.1667 
L 82.955699 47.485738 
L 83.261592 48.024062 
L 83.567485 50.356176 
L 83.873378 43.422037 
L 84.179271 33.394008 
L 84.485164 31.797322 
L 84.791058 38.717476 
L 85.096951 41.106934 
L 85.402844 38.870351 
L 85.708737 42.863488 
L 86.01463 33.102491 
L 86.320523 28.785957 
L 86.626416 33.147919 
L 86.932309 33.539905 
L 87.238202 36.038584 
L 87.544095 34.4528 
L 87.849989 35.397977 
L 88.155882 28.988211 
L 88.767668 31.425636 
L 89.073561 34.405677 
L 89.685347 29.085813 
L 89.99124 31.072194 
L 90.297133 29.438471 
L 90.603026 39.743049 
L 90.90892 36.607354 
L 91.214813 39.361445 
L 91.520706 35.244332 
L 91.826599 33.516243 
L 92.132492 25.554743 
L 92.438385 27.154778 
L 92.744278 26.71628 
L 93.050171 25.246877 
L 93.356064 30.619711 
L 93.661958 27.761047 
L 93.967851 27.079634 
L 94.273744 31.357021 
L 94.88553 24.13255 
L 95.191423 26.177521 
L 95.497316 30.34844 
L 95.803209 28.225699 
L 96.109102 34.781643 
L 96.414995 34.748611 
L 96.720889 32.386706 
L 97.026782 40.787107 
L 97.638568 25.37187 
L 97.944461 27.64693 
L 98.556247 24.175306 
L 98.86214 27.100235 
L 99.168033 21.367663 
L 99.473926 20.583063 
L 99.77982 23.867574 
L 100.085713 23.943349 
L 100.391606 23.352397 
L 100.697499 25.006608 
L 101.003392 19.937808 
L 101.309285 24.901438 
L 101.615178 25.868744 
L 101.921071 24.200073 
L 102.226964 25.436795 
L 102.532857 25.058975 
L 103.144644 28.051567 
L 103.450537 27.655784 
L 103.75643 24.223755 
L 104.062323 26.689175 
L 104.368216 27.590551 
L 104.674109 30.085654 
L 104.980002 27.979054 
L 105.285895 29.768438 
L 105.591788 32.382808 
L 105.897682 31.599326 
L 106.203575 32.391086 
L 106.509468 29.782637 
L 106.815361 30.377018 
L 107.121254 23.583504 
L 107.427147 22.371603 
L 107.73304 17.892784 
L 108.038933 17.440797 
L 108.344826 19.659866 
L 108.65072 17.095218 
L 108.956613 18.090177 
L 109.262506 22.352904 
L 109.874292 27.196992 
L 110.486078 21.862828 
L 110.791971 26.616033 
L 111.097864 22.703158 
L 111.709651 27.179318 
L 112.015544 27.332353 
L 112.321437 28.506595 
L 112.62733 32.042996 
L 112.933223 26.657416 
L 113.239116 25.894114 
L 113.545009 29.57128 
L 113.850902 30.893508 
L 114.156795 29.977853 
L 114.462688 30.663318 
L 114.768582 24.781515 
L 115.074475 24.761838 
L 115.380368 28.016191 
L 115.686261 25.853501 
L 115.992154 24.883262 
L 116.298047 28.162295 
L 116.60394 28.307039 
L 116.909833 30.026034 
L 117.215726 33.407517 
L 117.521619 29.550438 
L 117.827513 20.285115 
L 118.133406 21.26173 
L 118.439299 27.488316 
L 118.745192 29.855304 
L 119.356978 27.153921 
L 119.662871 27.171488 
L 119.968764 33.822113 
L 120.274657 27.699424 
L 120.58055 30.784903 
L 121.192337 24.814734 
L 121.49823 26.827771 
L 121.804123 26.053485 
L 122.110016 30.727626 
L 122.415909 26.071554 
L 122.721802 26.150678 
L 123.027695 26.689028 
L 123.639481 21.798426 
L 123.945375 25.38049 
L 124.251268 22.217349 
L 124.557161 27.459095 
L 124.863054 24.699887 
L 125.168947 26.663317 
L 125.47484 27.784542 
L 126.086626 34.870463 
L 126.392519 34.57474 
L 126.698413 40.975571 
L 127.004306 36.824604 
L 127.310199 28.51281 
L 127.616092 33.165507 
L 127.921985 31.194958 
L 128.227878 31.638727 
L 128.533771 36.120078 
L 128.839664 38.925899 
L 129.145557 47.829931 
L 129.45145 44.164632 
L 129.757344 45.900407 
L 130.063237 45.231253 
L 130.36913 42.593194 
L 130.675023 37.982343 
L 130.980916 39.280245 
L 131.286809 37.426673 
L 131.592702 38.898293 
L 131.898595 46.624335 
L 132.204488 46.28023 
L 132.510381 50.038817 
L 132.816275 48.467007 
L 133.122168 56.18651 
L 133.428061 56.031683 
L 133.733954 58.055413 
L 134.039847 52.222085 
L 134.34574 41.568385 
L 134.651633 48.279972 
L 134.957526 42.988622 
L 135.569312 55.47613 
L 135.875206 45.242665 
L 136.181099 39.158688 
L 136.486992 36.155848 
L 136.792885 40.91869 
L 137.098778 43.625679 
L 137.404671 42.059318 
L 137.710564 42.273567 
L 138.016457 40.139635 
L 138.32235 42.391937 
L 138.628243 50.102727 
L 138.934137 52.665644 
L 139.545923 47.056515 
L 140.157709 33.991082 
L 140.463602 37.352687 
L 140.769495 42.09318 
L 141.075388 44.206825 
L 141.687175 52.818401 
L 141.993068 55.208716 
L 142.298961 59.017527 
L 142.604854 65.029528 
L 142.910747 67.655896 
L 143.21664 65.113855 
L 143.522533 60.533892 
L 143.828426 59.833405 
L 144.134319 51.481718 
L 144.440212 60.414839 
L 144.746106 54.141811 
L 145.051999 52.270889 
L 145.357892 54.673544 
L 145.663785 53.1653 
L 145.969678 57.699928 
L 146.275571 53.849211 
L 146.581464 60.043003 
L 146.887357 69.749694 
L 147.19325 68.544213 
L 147.499143 78.041429 
L 149.028609 55.668255 
L 149.946288 69.458411 
L 150.252181 83.067096 
L 150.558074 69.064242 
L 150.863968 79.118483 
L 151.169861 70.190343 
L 151.475754 67.497456 
L 151.781647 72.273897 
L 152.08754 72.334093 
L 152.393433 73.202716 
L 152.699326 70.642056 
L 153.617005 88.625732 
L 153.922899 98.855519 
L 154.228792 101.828788 
L 154.534685 91.695855 
L 154.840578 95.208732 
L 155.452364 85.980221 
L 156.06415 106.978677 
L 156.370043 110.967112 
L 156.675937 113.230294 
L 156.98183 99.723825 
L 157.287723 94.277375 
L 157.593616 80.953239 
L 157.899509 88.351523 
L 158.205402 102.519509 
L 158.511295 97.513551 
L 158.817188 108.623297 
L 159.123081 106.207622 
L 159.428974 101.787336 
L 159.734868 109.950424 
L 160.346654 114.415309 
L 160.95844 118.32879 
L 161.570226 110.952904 
L 161.876119 115.27284 
L 162.182012 105.589905 
L 162.793799 116.169093 
L 163.099692 114.668959 
L 163.405585 111.240396 
L 163.711478 111.556976 
L 164.017371 111.328548 
L 164.323264 118.678802 
L 164.629157 129.524256 
L 164.93505 133.162089 
L 165.240943 130.734352 
L 165.546836 120.962934 
L 165.85273 118.102552 
L 166.158623 109.820146 
L 166.464516 108.812405 
L 166.770409 112.857798 
L 167.382195 127.412914 
L 167.688088 128.319149 
L 168.299874 128.946099 
L 168.605767 124.622118 
L 168.911661 123.332199 
L 169.217554 129.530233 
L 169.523447 128.227013 
L 169.82934 131.136373 
L 170.135233 135.371387 
L 170.747019 127.892301 
L 171.052912 136.739083 
L 171.358805 129.110239 
L 171.664698 136.072852 
L 171.970592 138.300487 
L 172.276485 136.878697 
L 172.582378 145.095515 
L 172.888271 139.830341 
L 173.194164 144.311256 
L 173.500057 138.163827 
L 173.80595 144.338641 
L 174.111843 142.32172 
L 174.417736 143.567155 
L 174.72363 146.048112 
L 175.029523 149.97467 
L 175.335416 141.624474 
L 175.641309 138.793892 
L 175.947202 142.162489 
L 176.253095 137.470613 
L 176.558988 144.583438 
L 176.864881 137.020193 
L 177.170774 137.753283 
L 177.476667 136.637791 
L 177.782561 131.090111 
L 178.088454 141.52126 
L 178.394347 141.354749 
L 178.70024 145.249977 
L 179.006133 140.390377 
L 179.312026 142.104496 
L 179.617919 147.495769 
L 179.923812 146.323108 
L 180.229705 147.580069 
L 180.535598 149.427138 
L 180.841492 145.829141 
L 181.147385 146.919799 
L 181.453278 142.059496 
L 182.370957 149.571587 
L 182.982743 147.518814 
L 183.288636 141.450288 
L 183.594529 147.495554 
L 183.900423 149.449427 
L 184.206316 150.00667 
L 184.512209 156.777714 
L 184.818102 147.823399 
L 185.429888 155.886304 
L 185.735781 150.001527 
L 186.041674 155.369191 
L 186.347567 149.517352 
L 186.65346 150.932003 
L 186.959354 150.190547 
L 187.265247 150.652735 
L 187.57114 147.792082 
L 187.877033 152.50032 
L 188.182926 148.522058 
L 188.488819 151.301472 
L 188.794712 148.871414 
L 189.100605 148.650943 
L 189.406498 147.753217 
L 189.712392 150.745983 
L 190.324178 159.638655 
L 190.630071 163.087394 
L 190.935964 155.024931 
L 191.241857 156.302748 
L 191.54775 151.517429 
L 191.853643 150.819239 
L 192.159536 158.788662 
L 192.465429 156.769918 
L 192.771323 151.118157 
L 193.077216 154.743272 
L 193.383109 152.335878 
L 193.994895 157.890232 
L 194.300788 152.433955 
L 194.606681 160.084521 
L 195.218467 155.982505 
L 195.830254 159.984308 
L 196.136147 157.227223 
L 196.44204 157.337489 
L 196.747933 155.155557 
L 197.053826 155.563315 
L 197.359719 155.555077 
L 197.665612 155.722392 
L 197.971505 156.561971 
L 198.277398 156.883794 
L 198.583291 161.265414 
L 198.889185 160.549582 
L 199.195078 153.090729 
L 199.500971 154.879685 
L 199.806864 153.559018 
L 200.112757 157.345205 
L 200.41865 156.53429 
L 200.724543 154.799322 
L 201.030436 152.418283 
L 201.336329 147.888136 
L 201.642222 148.820474 
L 202.559902 157.342975 
L 202.865795 151.586212 
L 203.171688 156.632334 
L 203.477581 156.537706 
L 203.783474 156.215621 
L 204.089367 161.211232 
L 204.39526 154.482857 
L 205.007047 163.223961 
L 205.31294 158.783002 
L 205.618833 166.244113 
L 206.230619 158.591142 
L 206.536512 159.214087 
L 206.842405 162.330595 
L 207.148298 161.60307 
L 207.454191 161.314572 
L 207.760085 159.581111 
L 208.065978 155.544221 
L 208.371871 161.009493 
L 208.677764 155.434839 
L 208.983657 158.278876 
L 209.28955 156.666584 
L 209.595443 150.62624 
L 209.901336 151.326259 
L 210.207229 152.359011 
L 210.513122 152.056563 
L 210.819016 162.29329 
L 211.124909 157.117801 
L 211.430802 156.174714 
L 211.736695 162.505933 
L 212.042588 157.41597 
L 212.654374 164.284199 
L 212.960267 159.02082 
L 213.26616 163.943549 
L 213.572053 162.994079 
L 214.18384 152.303001 
L 214.489733 158.613177 
L 214.795626 156.8532 
L 215.101519 161.951321 
L 215.713305 149.996725 
L 216.019198 154.07301 
L 216.325091 153.625208 
L 216.630984 158.130837 
L 216.936878 159.84807 
L 217.242771 159.981522 
L 217.548664 151.044151 
L 217.854557 150.475937 
L 218.16045 151.102184 
L 218.466343 157.085332 
L 218.772236 155.873605 
L 219.384022 157.321489 
L 219.689915 155.837372 
L 219.995809 156.385447 
L 220.301702 156.237529 
L 220.607595 158.484727 
L 220.913488 156.503295 
L 221.219381 156.450727 
L 221.525274 154.011065 
L 221.831167 154.385812 
L 222.13706 154.172118 
L 222.442953 148.209269 
L 222.748847 146.802394 
L 223.360633 137.63139 
L 223.972419 150.457218 
L 224.278312 149.993296 
L 224.584205 154.730688 
L 225.195991 149.40647 
L 225.501884 147.337589 
L 225.807778 140.772022 
L 226.113671 145.335402 
L 226.419564 145.162924 
L 226.725457 156.938847 
L 227.03135 154.113281 
L 227.643136 145.470562 
L 228.254922 133.499852 
L 228.560815 141.335394 
L 228.866709 138.858166 
L 229.172602 142.725305 
L 229.478495 142.958127 
L 229.784388 145.378647 
L 230.090281 144.513343 
L 230.396174 145.710249 
L 230.702067 146.416389 
L 231.00796 143.277646 
L 231.313853 138.530871 
L 231.619746 138.714688 
L 231.92564 136.831359 
L 232.231533 142.174564 
L 232.843319 139.45761 
L 233.149212 143.521351 
L 233.455105 137.466835 
L 233.760998 136.229625 
L 234.066891 142.099085 
L 234.678677 128.898943 
L 234.984571 139.250842 
L 235.290464 130.804584 
L 235.596357 138.444569 
L 235.90225 140.934528 
L 236.208143 138.911538 
L 236.514036 139.222123 
L 236.819929 134.968659 
L 237.125822 141.987553 
L 237.431715 134.930055 
L 237.737608 134.364466 
L 238.043502 145.809832 
L 238.349395 136.180205 
L 238.655288 141.716348 
L 238.961181 139.543518 
L 239.267074 130.610276 
L 239.572967 125.927709 
L 239.87886 116.658257 
L 240.184753 117.301924 
L 240.490646 116.473429 
L 240.79654 121.822766 
L 241.102433 131.141179 
L 241.408326 131.652837 
L 241.714219 133.525604 
L 242.020112 132.53108 
L 242.326005 127.567711 
L 242.631898 126.665441 
L 242.937791 129.748311 
L 243.243684 129.85055 
L 243.549577 129.60227 
L 244.161364 120.954026 
L 244.467257 124.702537 
L 244.77315 127.035479 
L 245.079043 125.251389 
L 245.384936 130.059977 
L 245.690829 122.460713 
L 245.996722 117.872117 
L 246.302615 126.322156 
L 246.608508 120.503666 
L 246.914402 130.840851 
L 247.220295 130.691887 
L 247.526188 121.065039 
L 247.832081 122.131449 
L 248.137974 111.64078 
L 248.74976 117.327532 
L 249.055653 116.958288 
L 249.667439 104.039504 
L 249.973333 112.118928 
L 250.279226 106.249126 
L 250.585119 116.16258 
L 250.891012 105.077654 
L 251.196905 110.391963 
L 251.502798 105.662293 
L 251.808691 116.328283 
L 252.114584 118.939603 
L 253.032264 94.727063 
L 253.338157 101.655218 
L 253.64405 94.842508 
L 253.949943 98.118084 
L 254.255836 95.371057 
L 254.561729 91.125729 
L 254.867622 97.61506 
L 255.173515 99.079572 
L 255.479408 86.148443 
L 255.785302 81.075592 
L 256.091195 78.144174 
L 256.397088 80.272748 
L 256.702981 79.118431 
L 257.008874 76.211234 
L 257.314767 79.607298 
L 257.62066 74.510316 
L 257.926553 72.941601 
L 258.232446 72.320374 
L 258.538339 70.49545 
L 258.844233 66.465186 
L 259.150126 72.692669 
L 259.456019 73.705225 
L 259.761912 64.253467 
L 260.067805 74.163294 
L 260.373698 78.225236 
L 260.679591 89.065307 
L 260.985484 82.173182 
L 261.291377 82.776212 
L 261.59727 74.957982 
L 261.903164 72.740982 
L 262.209057 84.191554 
L 262.51495 77.879506 
L 262.820843 78.917044 
L 263.126736 70.382471 
L 263.432629 71.122175 
L 263.738522 74.488362 
L 264.350308 60.870443 
L 264.656201 53.029778 
L 264.962095 60.852571 
L 265.267988 62.650073 
L 265.573881 67.198166 
L 265.879774 60.848844 
L 266.185667 47.734412 
L 266.49156 46.849264 
L 266.797453 47.308558 
L 267.103346 51.104118 
L 267.409239 56.863443 
L 267.715132 56.479508 
L 268.021026 53.682356 
L 268.326919 53.94413 
L 268.632812 58.940347 
L 268.938705 55.87131 
L 269.244598 58.707364 
L 269.550491 56.186215 
L 269.856384 47.713456 
L 270.162277 49.390713 
L 270.46817 49.30727 
L 270.774063 43.569916 
L 271.079957 43.286114 
L 271.691743 32.328693 
L 271.997636 34.605675 
L 272.303529 39.836645 
L 272.609422 49.198216 
L 272.915315 48.288083 
L 273.221208 50.688227 
L 273.527101 54.035011 
L 273.832995 49.932214 
L 274.138888 55.724621 
L 274.444781 51.082556 
L 274.750674 48.337098 
L 275.36246 39.357366 
L 275.668353 47.813716 
L 275.974246 48.573489 
L 276.280139 42.851044 
L 276.586032 43.59909 
L 276.891926 46.861075 
L 277.197819 39.55082 
L 277.809605 45.288027 
L 278.115498 35.127349 
L 278.421391 38.614356 
L 278.727284 43.845849 
L 279.033177 38.370203 
L 279.33907 40.833975 
L 279.644963 37.061196 
L 279.950857 30.583726 
L 280.25675 34.848529 
L 280.562643 31.465305 
L 280.868536 29.895696 
L 281.174429 25.470563 
L 281.786215 28.813369 
L 282.092108 25.623043 
L 282.398001 28.803477 
L 282.703894 21.776124 
L 283.315681 27.775105 
L 283.621574 29.742526 
L 283.927467 35.250889 
L 284.23336 36.345941 
L 284.539253 38.08776 
L 284.845146 30.136219 
L 285.151039 33.493103 
L 285.456932 41.641052 
L 285.762825 35.718984 
L 286.068719 40.462028 
L 286.374612 35.721221 
L 286.680505 28.463698 
L 287.292291 22.469372 
L 287.904077 34.440906 
L 288.20997 35.692877 
L 288.515863 33.68418 
L 288.821757 29.047055 
L 289.12765 26.572306 
L 289.433543 26.505238 
L 289.739436 33.682104 
L 290.045329 29.365804 
L 290.351222 29.275229 
L 290.657115 27.904197 
L 290.963008 24.118432 
L 291.268901 29.224556 
L 291.574794 29.654569 
L 291.880688 32.448088 
L 292.186581 32.661762 
L 292.492474 32.433173 
L 292.798367 26.464317 
L 293.10426 25.877236 
L 293.410153 22.717109 
L 293.716046 23.1003 
L 294.021939 23.672881 
L 294.327832 22.533881 
L 294.633725 25.391943 
L 294.939619 24.718579 
L 295.245512 31.120965 
L 295.551405 30.006712 
L 295.857298 36.948486 
L 296.163191 34.85161 
L 296.469084 24.748912 
L 296.774977 27.381867 
L 297.386763 24.673151 
L 297.692656 26.326518 
L 297.99855 30.094736 
L 298.916229 16.560076 
L 299.222122 15.044113 
L 299.528015 19.045092 
L 299.833908 18.342716 
L 300.445694 22.481213 
L 300.751587 21.667211 
L 301.057481 18.677391 
L 301.363374 21.192285 
L 301.669267 19.630338 
L 301.97516 28.930312 
L 302.281053 23.374411 
L 302.586946 24.591108 
L 302.892839 23.702189 
L 303.198732 21.144787 
L 303.504625 24.35777 
L 303.810519 20.166525 
L 304.116412 19.018832 
L 304.422305 18.709619 
L 305.034091 24.952915 
L 305.339984 23.612122 
L 305.645877 26.122883 
L 305.95177 23.396084 
L 306.257663 25.237688 
L 306.563556 25.676944 
L 306.86945 27.25911 
L 307.175343 24.362405 
L 307.481236 27.338475 
L 307.787129 25.209894 
L 308.093022 29.761661 
L 308.398915 27.612492 
L 308.704808 27.737854 
L 309.010701 30.006578 
L 309.316594 27.833104 
L 309.622487 29.116768 
L 309.928381 25.674513 
L 310.234274 31.154907 
L 310.540167 30.82932 
L 310.84606 31.903884 
L 311.151953 35.453559 
L 311.457846 27.988377 
L 311.763739 28.817448 
L 312.069632 21.932053 
L 312.375525 21.928543 
L 312.987312 22.503904 
L 313.293205 30.268513 
L 313.904991 38.931217 
L 314.210884 40.113563 
L 314.516777 40.412655 
L 314.82267 31.636986 
L 315.434456 26.061334 
L 315.740349 29.224677 
L 316.046243 27.37385 
L 316.352136 33.532424 
L 316.658029 29.494421 
L 316.963922 34.46663 
L 317.269815 32.349991 
L 317.575708 33.41114 
L 317.881601 28.211896 
L 318.187494 28.308914 
L 318.493387 26.593978 
L 318.79928 26.548617 
L 319.105174 27.508562 
L 319.411067 35.959742 
L 319.71696 37.462504 
L 320.022853 31.771255 
L 320.328746 33.344863 
L 320.634639 29.749994 
L 320.940532 31.988077 
L 321.246425 32.771699 
L 321.552318 35.27788 
L 322.164105 31.723717 
L 322.469998 28.056664 
L 322.775891 32.699997 
L 323.081784 33.553581 
L 323.69357 40.522854 
L 323.999463 36.422485 
L 324.305356 36.666692 
L 324.611249 36.613174 
L 324.917143 38.705374 
L 325.528929 46.874198 
L 325.834822 44.093465 
L 326.140715 38.890832 
L 326.446608 37.842917 
L 326.752501 44.640934 
L 327.058394 38.852657 
L 327.364287 39.562581 
L 327.67018 35.454148 
L 327.976074 29.628262 
L 328.281967 43.710468 
L 328.58786 38.992197 
L 329.199646 51.419248 
L 329.505539 53.138497 
L 329.811432 62.826697 
L 330.117325 61.36301 
L 330.729111 41.665993 
L 331.035005 44.543346 
L 331.340898 44.95033 
L 331.646791 45.096568 
L 331.952684 48.659049 
L 332.258577 54.108421 
L 332.56447 49.937991 
L 332.870363 57.94441 
L 333.176256 53.749561 
L 333.482149 53.524662 
L 333.788042 51.475204 
L 334.093936 45.652988 
L 334.399829 44.477323 
L 334.705722 55.48635 
L 335.011615 62.155969 
L 335.317508 79.548485 
L 335.623401 88.041723 
L 336.54108 68.353514 
L 336.846974 54.519936 
L 337.152867 52.428191 
L 337.45876 55.639497 
L 337.764653 51.653104 
L 338.070546 53.011598 
L 338.376439 59.730466 
L 338.682332 55.709253 
L 338.988225 55.588513 
L 339.294118 70.964368 
L 339.600011 64.941611 
L 339.905905 82.625044 
L 340.211798 86.53262 
L 340.517691 80.041708 
L 340.823584 90.036722 
L 341.129477 80.808875 
L 341.43537 81.246463 
L 341.741263 85.020312 
L 342.047156 73.617362 
L 342.658942 79.244285 
L 342.964836 70.588101 
L 343.270729 73.590472 
L 343.576622 78.940656 
L 343.882515 87.752893 
L 344.188408 86.531798 
L 344.494301 93.738797 
L 344.800194 86.41135 
L 345.106087 75.963849 
L 345.41198 82.944652 
L 345.717873 81.81321 
L 346.023767 83.581022 
L 346.32966 93.050001 
L 346.635553 94.996019 
L 346.941446 95.371954 
L 347.247339 99.668116 
L 347.553232 91.022628 
L 347.859125 95.172018 
L 348.165018 107.024387 
L 348.776804 116.850754 
L 349.694484 93.200803 
L 350.000377 92.561026 
L 350.30627 92.857883 
L 350.918056 89.247222 
L 351.223949 98.256335 
L 351.529842 101.337949 
L 351.835735 107.837642 
L 352.141629 116.878424 
L 352.447522 112.230252 
L 352.753415 116.620002 
L 353.059308 115.736317 
L 353.365201 110.68247 
L 353.671094 114.995591 
L 353.976987 113.516903 
L 354.28288 120.570436 
L 354.588773 117.971571 
L 354.894667 116.716414 
L 355.20056 118.160236 
L 355.506453 106.731684 
L 355.812346 105.344298 
L 356.424132 119.07987 
L 356.730025 118.707983 
L 357.035918 121.646323 
L 357.341811 119.736978 
L 357.647704 115.04178 
L 357.953598 116.863071 
L 358.259491 116.894495 
L 358.565384 112.990691 
L 358.871277 114.186331 
L 359.17717 116.554438 
L 359.483063 117.020232 
L 359.788956 116.83817 
L 360.094849 123.240301 
L 360.400742 122.890479 
L 360.706635 124.463483 
L 361.012529 124.923983 
L 361.318422 120.62589 
L 361.624315 127.321341 
L 361.930208 128.197578 
L 362.236101 131.963857 
L 362.541994 133.977598 
L 362.847887 129.086822 
L 363.15378 137.576559 
L 363.459673 122.714839 
L 363.765566 130.206985 
L 364.377353 126.586723 
L 364.683246 135.694416 
L 364.989139 136.067642 
L 365.295032 135.734265 
L 365.600925 138.259285 
L 365.906818 133.980665 
L 365.906818 133.980665 
" style="fill:none;stroke:#1f77b4;stroke-linecap:square;stroke-width:1.5;"/>
   </g>
   <g id="line2d_30">
    <path clip-path="url(#p18ba579e3d)" d="M 245.079043 125.251389 
L 245.384936 124.877898 
L 245.996722 115.535864 
L 246.302615 114.571468 
L 247.526188 107.233262 
L 248.443867 103.285065 
L 249.667439 99.379708 
L 250.891012 96.462614 
L 252.114584 94.24403 
L 253.338157 92.536387 
L 254.561729 91.212106 
L 255.785302 90.180304 
L 257.314767 89.201428 
L 258.844233 88.480197 
L 260.679591 87.859464 
L 262.820843 87.36983 
L 265.573881 86.979576 
L 269.244598 86.700659 
L 274.750674 86.526568 
L 285.762825 86.44776 
L 347.553232 86.43757 
L 365.906818 86.43757 
L 365.906818 86.43757 
" style="fill:none;stroke:#bf00bf;stroke-dasharray:5.55,2.4;stroke-dashoffset:0;stroke-width:1.5;"/>
   </g>
   <g id="patch_3">
    <path d="M 46.325 173.804113 
L 46.325 7.484113 
" style="fill:none;stroke:#000000;stroke-linecap:square;stroke-linejoin:miter;stroke-width:0.8;"/>
   </g>
   <g id="patch_4">
    <path d="M 381.125 173.804113 
L 381.125 7.484113 
" style="fill:none;stroke:#000000;stroke-linecap:square;stroke-linejoin:miter;stroke-width:0.8;"/>
   </g>
   <g id="patch_5">
    <path d="M 46.325 173.804113 
L 381.125 173.804113 
" style="fill:none;stroke:#000000;stroke-linecap:square;stroke-linejoin:miter;stroke-width:0.8;"/>
   </g>
   <g id="patch_6">
    <path d="M 46.325 7.484113 
L 381.125 7.484113 
" style="fill:none;stroke:#000000;stroke-linecap:square;stroke-linejoin:miter;stroke-width:0.8;"/>
   </g>
   <g id="legend_1">
    <g id="patch_7">
     <path d="M 267.125 41.984113 
L 374.125 41.984113 
Q 376.125 41.984113 376.125 39.984113 
L 376.125 14.484113 
Q 376.125 12.484113 374.125 12.484113 
L 267.125 12.484113 
Q 265.125 12.484113 265.125 14.484113 
L 265.125 39.984113 
Q 265.125 41.984113 267.125 41.984113 
z
" style="fill:#ffffff;opacity:0.8;stroke:#cccccc;stroke-linejoin:miter;"/>
    </g>
    <g id="line2d_31">
     <path d="M 269.125 19.984113 
L 289.125 19.984113 
" style="fill:none;stroke:#1f77b4;stroke-linecap:square;stroke-width:1.5;"/>
    </g>
    <g id="line2d_32"/>
    <g id="text_17">
     <!-- 1-step preds -->
     <g transform="translate(297.125 23.484113)scale(0.1 -0.1)">
      <defs>
       <path d="M 2750 900 
Q 2750 500 2437 287 
Q 2125 75 1650 75 
Q 1050 75 725 312 
Q 400 550 400 1000 
L 900 1000 
Q 900 700 1112 600 
Q 1325 500 1625 500 
Q 1925 500 2075 612 
Q 2225 725 2225 900 
Q 2225 1025 2100 1150 
Q 1975 1275 1475 1350 
Q 900 1425 687 1637 
Q 475 1850 475 2200 
Q 475 2500 762 2737 
Q 1050 2975 1600 2975 
Q 2100 2975 2387 2750 
Q 2675 2525 2675 2150 
L 2175 2150 
Q 2175 2375 2012 2462 
Q 1850 2550 1600 2550 
Q 1275 2550 1137 2437 
Q 1000 2325 1000 2175 
Q 1000 2000 1125 1900 
Q 1250 1800 1650 1750 
Q 2300 1650 2525 1437 
Q 2750 1225 2750 900 
z
" id="SimHei-73" transform="scale(0.015625)"/>
       <path d="M 2825 1525 
Q 2825 800 2475 425 
Q 2125 50 1625 50 
Q 1350 50 1150 162 
Q 950 275 800 500 
L 800 -800 
L 300 -800 
L 300 2925 
L 800 2925 
L 800 2550 
Q 950 2775 1150 2875 
Q 1350 2975 1625 2975 
Q 2125 2975 2475 2612 
Q 2825 2250 2825 1525 
z
M 2275 1525 
Q 2275 2000 2087 2262 
Q 1900 2525 1525 2525 
Q 1225 2525 1012 2262 
Q 800 2000 800 1525 
Q 800 1050 1012 775 
Q 1225 500 1525 500 
Q 1900 500 2087 775 
Q 2275 1050 2275 1525 
z
" id="SimHei-70" transform="scale(0.015625)"/>
       <path id="SimHei-20" transform="scale(0.015625)"/>
       <path d="M 2500 2425 
Q 2025 2500 1700 2287 
Q 1375 2075 1150 1550 
L 1150 125 
L 650 125 
L 650 2925 
L 1150 2925 
L 1150 2200 
Q 1375 2600 1712 2787 
Q 2050 2975 2500 2975 
L 2500 2425 
z
" id="SimHei-72" transform="scale(0.015625)"/>
       <path d="M 2750 125 
L 2250 125 
L 2250 500 
Q 2100 275 1900 175 
Q 1700 75 1425 75 
Q 925 75 575 437 
Q 225 800 225 1525 
Q 225 2250 575 2625 
Q 925 3000 1425 3000 
Q 1700 3000 1900 2887 
Q 2100 2775 2250 2550 
L 2250 4400 
L 2750 4400 
L 2750 125 
z
M 2250 1525 
Q 2250 2000 2037 2275 
Q 1825 2550 1525 2550 
Q 1150 2550 962 2275 
Q 775 2000 775 1525 
Q 775 1050 962 787 
Q 1150 525 1525 525 
Q 1825 525 2037 787 
Q 2250 1050 2250 1525 
z
" id="SimHei-64" transform="scale(0.015625)"/>
      </defs>
      <use xlink:href="#SimHei-31"/>
      <use x="50" xlink:href="#SimHei-2d"/>
      <use x="100" xlink:href="#SimHei-73"/>
      <use x="150" xlink:href="#SimHei-74"/>
      <use x="200" xlink:href="#SimHei-65"/>
      <use x="250" xlink:href="#SimHei-70"/>
      <use x="300" xlink:href="#SimHei-20"/>
      <use x="350" xlink:href="#SimHei-70"/>
      <use x="400" xlink:href="#SimHei-72"/>
      <use x="450" xlink:href="#SimHei-65"/>
      <use x="500" xlink:href="#SimHei-64"/>
      <use x="550" xlink:href="#SimHei-73"/>
     </g>
    </g>
    <g id="line2d_33">
     <path d="M 269.125 33.234113 
L 289.125 33.234113 
" style="fill:none;stroke:#bf00bf;stroke-dasharray:5.55,2.4;stroke-dashoffset:0;stroke-width:1.5;"/>
    </g>
    <g id="line2d_34"/>
    <g id="text_18">
     <!-- multistep preds -->
     <g transform="translate(297.125 36.734113)scale(0.1 -0.1)">
      <defs>
       <path d="M 2800 125 
L 2300 125 
L 2300 650 
Q 2100 375 1862 225 
Q 1625 75 1250 75 
Q 800 75 575 325 
Q 350 575 350 950 
L 350 2925 
L 850 2925 
L 850 1125 
Q 850 825 1000 650 
Q 1150 475 1400 475 
Q 1725 475 2012 812 
Q 2300 1150 2300 1650 
L 2300 2925 
L 2800 2925 
L 2800 125 
z
" id="SimHei-75" transform="scale(0.015625)"/>
       <path d="M 1825 125 
L 1325 125 
L 1325 4400 
L 1825 4400 
L 1825 125 
z
" id="SimHei-6c" transform="scale(0.015625)"/>
      </defs>
      <use xlink:href="#SimHei-6d"/>
      <use x="50" xlink:href="#SimHei-75"/>
      <use x="100" xlink:href="#SimHei-6c"/>
      <use x="150" xlink:href="#SimHei-74"/>
      <use x="200" xlink:href="#SimHei-69"/>
      <use x="250" xlink:href="#SimHei-73"/>
      <use x="300" xlink:href="#SimHei-74"/>
      <use x="350" xlink:href="#SimHei-65"/>
      <use x="400" xlink:href="#SimHei-70"/>
      <use x="450" xlink:href="#SimHei-20"/>
      <use x="500" xlink:href="#SimHei-70"/>
      <use x="550" xlink:href="#SimHei-72"/>
      <use x="600" xlink:href="#SimHei-65"/>
      <use x="650" xlink:href="#SimHei-64"/>
      <use x="700" xlink:href="#SimHei-73"/>
     </g>
    </g>
   </g>
  </g>
 </g>
 <defs>
  <clipPath id="p18ba579e3d">
   <rect height="166.32" width="334.8" x="46.325" y="7.484113"/>
  </clipPath>
 </defs>
</svg>
