<?xml version="1.0" encoding="UTF-8" standalone="no"?>
<!DOCTYPE svg PUBLIC "-//W3C//DTD SVG 1.1//EN"
 "http://www.w3.org/Graphics/SVG/1.1/DTD/svg11.dtd">
<!-- Generated by graphviz version 8.1.0 (20230707.2238)
 -->
<!-- Pages: 1 -->
<svg width="514pt" height="664pt"
 viewBox="0.00 0.00 513.50 663.75" xmlns="http://www.w3.org/2000/svg" xmlns:xlink="http://www.w3.org/1999/xlink">
<g id="graph0" class="graph" transform="scale(1 1) rotate(0) translate(4 659.75)">
<polygon fill="white" stroke="none" points="-4,4 -4,-659.75 509.5,-659.75 509.5,4 -4,4"/>
<!-- 281472076789264 -->
<g id="node1" class="node">
<title>281472076789264</title>
<polygon fill="#caff70" stroke="black" points="439.75,-31.25 381.75,-31.25 381.75,0 439.75,0 439.75,-31.25"/>
<text text-anchor="middle" x="410.75" y="-5.75" font-family="monospace" font-size="10.00"> (1, 10)</text>
</g>
<!-- 281472081001296 -->
<g id="node2" class="node">
<title>281472081001296</title>
<polygon fill="lightgrey" stroke="black" points="450.25,-86.5 371.25,-86.5 371.25,-67.25 450.25,-67.25 450.25,-86.5"/>
<text text-anchor="middle" x="410.75" y="-73" font-family="monospace" font-size="10.00">AddBackward0</text>
</g>
<!-- 281472081001296&#45;&gt;281472076789264 -->
<g id="edge20" class="edge">
<title>281472081001296&#45;&gt;281472076789264</title>
<path fill="none" stroke="black" d="M410.75,-66.88C410.75,-60.39 410.75,-51.29 410.75,-42.62"/>
<polygon fill="black" stroke="black" points="414.25,-42.71 410.75,-32.71 407.25,-42.71 414.25,-42.71"/>
</g>
<!-- 281472080999664 -->
<g id="node3" class="node">
<title>281472080999664</title>
<polygon fill="lightgrey" stroke="black" points="397.62,-141.75 323.88,-141.75 323.88,-122.5 397.62,-122.5 397.62,-141.75"/>
<text text-anchor="middle" x="360.75" y="-128.25" font-family="monospace" font-size="10.00">MmBackward0</text>
</g>
<!-- 281472080999664&#45;&gt;281472081001296 -->
<g id="edge1" class="edge">
<title>281472080999664&#45;&gt;281472081001296</title>
<path fill="none" stroke="black" d="M369.01,-122.33C376.06,-114.82 386.4,-103.81 395.02,-94.63"/>
<polygon fill="black" stroke="black" points="397.02,-97.55 401.31,-87.86 391.92,-92.75 397.02,-97.55"/>
</g>
<!-- 281472081000528 -->
<g id="node4" class="node">
<title>281472081000528</title>
<polygon fill="lightgrey" stroke="black" points="302.75,-203 202.75,-203 202.75,-183.75 302.75,-183.75 302.75,-203"/>
<text text-anchor="middle" x="252.75" y="-189.5" font-family="monospace" font-size="10.00">MaximumBackward0</text>
</g>
<!-- 281472081000528&#45;&gt;281472080999664 -->
<g id="edge2" class="edge">
<title>281472081000528&#45;&gt;281472080999664</title>
<path fill="none" stroke="black" d="M269.15,-183.38C286.52,-173.85 314.18,-158.67 334.57,-147.49"/>
<polygon fill="black" stroke="black" points="336.11,-150.09 343.19,-142.21 332.74,-143.95 336.11,-150.09"/>
</g>
<!-- 281472081001584 -->
<g id="node5" class="node">
<title>281472081001584</title>
<polygon fill="lightgrey" stroke="black" points="292.25,-270.25 213.25,-270.25 213.25,-251 292.25,-251 292.25,-270.25"/>
<text text-anchor="middle" x="252.75" y="-256.75" font-family="monospace" font-size="10.00">AddBackward0</text>
</g>
<!-- 281472081001584&#45;&gt;281472081000528 -->
<g id="edge3" class="edge">
<title>281472081001584&#45;&gt;281472081000528</title>
<path fill="none" stroke="black" d="M252.75,-250.55C252.75,-241.2 252.75,-226.33 252.75,-214.23"/>
<polygon fill="black" stroke="black" points="256.25,-214.37 252.75,-204.37 249.25,-214.37 256.25,-214.37"/>
</g>
<!-- 281472081001488 -->
<g id="node6" class="node">
<title>281472081001488</title>
<polygon fill="lightgrey" stroke="black" points="239.62,-331.5 165.88,-331.5 165.88,-312.25 239.62,-312.25 239.62,-331.5"/>
<text text-anchor="middle" x="202.75" y="-318" font-family="monospace" font-size="10.00">MmBackward0</text>
</g>
<!-- 281472081001488&#45;&gt;281472081001584 -->
<g id="edge4" class="edge">
<title>281472081001488&#45;&gt;281472081001584</title>
<path fill="none" stroke="black" d="M210.34,-311.88C217.69,-303.18 229,-289.76 238.1,-278.98"/>
<polygon fill="black" stroke="black" points="241.31,-281.61 245.08,-271.71 235.96,-277.09 241.31,-281.61"/>
</g>
<!-- 281472080999328 -->
<g id="node7" class="node">
<title>281472080999328</title>
<polygon fill="lightgrey" stroke="black" points="144.75,-392.75 44.75,-392.75 44.75,-373.5 144.75,-373.5 144.75,-392.75"/>
<text text-anchor="middle" x="94.75" y="-379.25" font-family="monospace" font-size="10.00">MaximumBackward0</text>
</g>
<!-- 281472080999328&#45;&gt;281472081001488 -->
<g id="edge5" class="edge">
<title>281472080999328&#45;&gt;281472081001488</title>
<path fill="none" stroke="black" d="M111.15,-373.13C128.52,-363.6 156.18,-348.42 176.57,-337.24"/>
<polygon fill="black" stroke="black" points="178.11,-339.84 185.19,-331.96 174.74,-333.7 178.11,-339.84"/>
</g>
<!-- 281472081001968 -->
<g id="node8" class="node">
<title>281472081001968</title>
<polygon fill="lightgrey" stroke="black" points="134.25,-460 55.25,-460 55.25,-440.75 134.25,-440.75 134.25,-460"/>
<text text-anchor="middle" x="94.75" y="-446.5" font-family="monospace" font-size="10.00">AddBackward0</text>
</g>
<!-- 281472081001968&#45;&gt;281472080999328 -->
<g id="edge6" class="edge">
<title>281472081001968&#45;&gt;281472080999328</title>
<path fill="none" stroke="black" d="M94.75,-440.3C94.75,-430.95 94.75,-416.08 94.75,-403.98"/>
<polygon fill="black" stroke="black" points="98.25,-404.12 94.75,-394.12 91.25,-404.12 98.25,-404.12"/>
</g>
<!-- 281473625814832 -->
<g id="node9" class="node">
<title>281473625814832</title>
<polygon fill="lightgrey" stroke="black" points="81.62,-521.25 7.88,-521.25 7.88,-502 81.62,-502 81.62,-521.25"/>
<text text-anchor="middle" x="44.75" y="-507.75" font-family="monospace" font-size="10.00">MmBackward0</text>
</g>
<!-- 281473625814832&#45;&gt;281472081001968 -->
<g id="edge7" class="edge">
<title>281473625814832&#45;&gt;281472081001968</title>
<path fill="none" stroke="black" d="M52.34,-501.63C59.69,-492.93 71,-479.51 80.1,-468.73"/>
<polygon fill="black" stroke="black" points="83.31,-471.36 87.08,-461.46 77.96,-466.84 83.31,-471.36"/>
</g>
<!-- 281472243526160 -->
<g id="node10" class="node">
<title>281472243526160</title>
<polygon fill="lightgrey" stroke="black" points="89.5,-582.5 0,-582.5 0,-563.25 89.5,-563.25 89.5,-582.5"/>
<text text-anchor="middle" x="44.75" y="-569" font-family="monospace" font-size="10.00">AccumulateGrad</text>
</g>
<!-- 281472243526160&#45;&gt;281473625814832 -->
<g id="edge8" class="edge">
<title>281472243526160&#45;&gt;281473625814832</title>
<path fill="none" stroke="black" d="M44.75,-562.88C44.75,-554.87 44.75,-542.88 44.75,-532.62"/>
<polygon fill="black" stroke="black" points="48.25,-532.71 44.75,-522.71 41.25,-532.71 48.25,-532.71"/>
</g>
<!-- 281472566150720 -->
<g id="node11" class="node">
<title>281472566150720</title>
<polygon fill="lightblue" stroke="black" points="81.62,-655.75 7.88,-655.75 7.88,-624.5 81.62,-624.5 81.62,-655.75"/>
<text text-anchor="middle" x="44.75" y="-630.25" font-family="monospace" font-size="10.00"> (784, 256)</text>
</g>
<!-- 281472566150720&#45;&gt;281472243526160 -->
<g id="edge9" class="edge">
<title>281472566150720&#45;&gt;281472243526160</title>
<path fill="none" stroke="black" d="M44.75,-624.32C44.75,-615.23 44.75,-603.48 44.75,-593.61"/>
<polygon fill="black" stroke="black" points="48.25,-593.8 44.75,-583.8 41.25,-593.8 48.25,-593.8"/>
</g>
<!-- 281473625807440 -->
<g id="node12" class="node">
<title>281473625807440</title>
<polygon fill="lightgrey" stroke="black" points="189.5,-521.25 100,-521.25 100,-502 189.5,-502 189.5,-521.25"/>
<text text-anchor="middle" x="144.75" y="-507.75" font-family="monospace" font-size="10.00">AccumulateGrad</text>
</g>
<!-- 281473625807440&#45;&gt;281472081001968 -->
<g id="edge10" class="edge">
<title>281473625807440&#45;&gt;281472081001968</title>
<path fill="none" stroke="black" d="M137.16,-501.63C129.81,-492.93 118.5,-479.51 109.4,-468.73"/>
<polygon fill="black" stroke="black" points="111.54,-466.84 102.42,-461.46 106.19,-471.36 111.54,-466.84"/>
</g>
<!-- 281472295855488 -->
<g id="node13" class="node">
<title>281472295855488</title>
<polygon fill="lightblue" stroke="black" points="171.75,-588.5 117.75,-588.5 117.75,-557.25 171.75,-557.25 171.75,-588.5"/>
<text text-anchor="middle" x="144.75" y="-563" font-family="monospace" font-size="10.00"> (256)</text>
</g>
<!-- 281472295855488&#45;&gt;281473625807440 -->
<g id="edge11" class="edge">
<title>281472295855488&#45;&gt;281473625807440</title>
<path fill="none" stroke="black" d="M144.75,-556.92C144.75,-549.55 144.75,-540.55 144.75,-532.59"/>
<polygon fill="black" stroke="black" points="148.25,-532.66 144.75,-522.66 141.25,-532.66 148.25,-532.66"/>
</g>
<!-- 281472080999376 -->
<g id="node14" class="node">
<title>281472080999376</title>
<polygon fill="lightgrey" stroke="black" points="252.5,-392.75 163,-392.75 163,-373.5 252.5,-373.5 252.5,-392.75"/>
<text text-anchor="middle" x="207.75" y="-379.25" font-family="monospace" font-size="10.00">AccumulateGrad</text>
</g>
<!-- 281472080999376&#45;&gt;281472081001488 -->
<g id="edge12" class="edge">
<title>281472080999376&#45;&gt;281472081001488</title>
<path fill="none" stroke="black" d="M206.99,-373.13C206.32,-365.12 205.3,-353.13 204.44,-342.87"/>
<polygon fill="black" stroke="black" points="207.85,-342.63 203.52,-332.96 200.87,-343.22 207.85,-342.63"/>
</g>
<!-- 281472082143792 -->
<g id="node15" class="node">
<title>281472082143792</title>
<polygon fill="lightblue" stroke="black" points="244.62,-466 170.88,-466 170.88,-434.75 244.62,-434.75 244.62,-466"/>
<text text-anchor="middle" x="207.75" y="-440.5" font-family="monospace" font-size="10.00"> (256, 128)</text>
</g>
<!-- 281472082143792&#45;&gt;281472080999376 -->
<g id="edge13" class="edge">
<title>281472082143792&#45;&gt;281472080999376</title>
<path fill="none" stroke="black" d="M207.75,-434.57C207.75,-425.48 207.75,-413.73 207.75,-403.86"/>
<polygon fill="black" stroke="black" points="211.25,-404.05 207.75,-394.05 204.25,-404.05 211.25,-404.05"/>
</g>
<!-- 281472081001536 -->
<g id="node16" class="node">
<title>281472081001536</title>
<polygon fill="lightgrey" stroke="black" points="347.5,-331.5 258,-331.5 258,-312.25 347.5,-312.25 347.5,-331.5"/>
<text text-anchor="middle" x="302.75" y="-318" font-family="monospace" font-size="10.00">AccumulateGrad</text>
</g>
<!-- 281472081001536&#45;&gt;281472081001584 -->
<g id="edge14" class="edge">
<title>281472081001536&#45;&gt;281472081001584</title>
<path fill="none" stroke="black" d="M295.16,-311.88C287.81,-303.18 276.5,-289.76 267.4,-278.98"/>
<polygon fill="black" stroke="black" points="269.54,-277.09 260.42,-271.71 264.19,-281.61 269.54,-277.09"/>
</g>
<!-- 281472076788944 -->
<g id="node17" class="node">
<title>281472076788944</title>
<polygon fill="lightblue" stroke="black" points="329.75,-398.75 275.75,-398.75 275.75,-367.5 329.75,-367.5 329.75,-398.75"/>
<text text-anchor="middle" x="302.75" y="-373.25" font-family="monospace" font-size="10.00"> (128)</text>
</g>
<!-- 281472076788944&#45;&gt;281472081001536 -->
<g id="edge15" class="edge">
<title>281472076788944&#45;&gt;281472081001536</title>
<path fill="none" stroke="black" d="M302.75,-367.17C302.75,-359.8 302.75,-350.8 302.75,-342.84"/>
<polygon fill="black" stroke="black" points="306.25,-342.91 302.75,-332.91 299.25,-342.91 306.25,-342.91"/>
</g>
<!-- 281472081002256 -->
<g id="node18" class="node">
<title>281472081002256</title>
<polygon fill="lightgrey" stroke="black" points="410.5,-203 321,-203 321,-183.75 410.5,-183.75 410.5,-203"/>
<text text-anchor="middle" x="365.75" y="-189.5" font-family="monospace" font-size="10.00">AccumulateGrad</text>
</g>
<!-- 281472081002256&#45;&gt;281472080999664 -->
<g id="edge16" class="edge">
<title>281472081002256&#45;&gt;281472080999664</title>
<path fill="none" stroke="black" d="M364.99,-183.38C364.32,-175.37 363.3,-163.38 362.44,-153.12"/>
<polygon fill="black" stroke="black" points="365.85,-152.88 361.52,-143.21 358.87,-153.47 365.85,-152.88"/>
</g>
<!-- 281472076788224 -->
<g id="node19" class="node">
<title>281472076788224</title>
<polygon fill="lightblue" stroke="black" points="400,-276.25 331.5,-276.25 331.5,-245 400,-245 400,-276.25"/>
<text text-anchor="middle" x="365.75" y="-250.75" font-family="monospace" font-size="10.00"> (128, 10)</text>
</g>
<!-- 281472076788224&#45;&gt;281472081002256 -->
<g id="edge17" class="edge">
<title>281472076788224&#45;&gt;281472081002256</title>
<path fill="none" stroke="black" d="M365.75,-244.82C365.75,-235.73 365.75,-223.98 365.75,-214.11"/>
<polygon fill="black" stroke="black" points="369.25,-214.3 365.75,-204.3 362.25,-214.3 369.25,-214.3"/>
</g>
<!-- 281472080999616 -->
<g id="node20" class="node">
<title>281472080999616</title>
<polygon fill="lightgrey" stroke="black" points="505.5,-141.75 416,-141.75 416,-122.5 505.5,-122.5 505.5,-141.75"/>
<text text-anchor="middle" x="460.75" y="-128.25" font-family="monospace" font-size="10.00">AccumulateGrad</text>
</g>
<!-- 281472080999616&#45;&gt;281472081001296 -->
<g id="edge18" class="edge">
<title>281472080999616&#45;&gt;281472081001296</title>
<path fill="none" stroke="black" d="M452.49,-122.33C445.44,-114.82 435.1,-103.81 426.48,-94.63"/>
<polygon fill="black" stroke="black" points="429.58,-92.75 420.19,-87.86 424.48,-97.55 429.58,-92.75"/>
</g>
<!-- 281472076789024 -->
<g id="node21" class="node">
<title>281472076789024</title>
<polygon fill="lightblue" stroke="black" points="487.75,-209 433.75,-209 433.75,-177.75 487.75,-177.75 487.75,-209"/>
<text text-anchor="middle" x="460.75" y="-183.5" font-family="monospace" font-size="10.00"> (10)</text>
</g>
<!-- 281472076789024&#45;&gt;281472080999616 -->
<g id="edge19" class="edge">
<title>281472076789024&#45;&gt;281472080999616</title>
<path fill="none" stroke="black" d="M460.75,-177.42C460.75,-170.05 460.75,-161.05 460.75,-153.09"/>
<polygon fill="black" stroke="black" points="464.25,-153.16 460.75,-143.16 457.25,-153.16 464.25,-153.16"/>
</g>
</g>
</svg>
