<?xml version="1.0" encoding="utf-8" standalone="no"?>
<!DOCTYPE svg PUBLIC "-//W3C//DTD SVG 1.1//EN"
  "http://www.w3.org/Graphics/SVG/1.1/DTD/svg11.dtd">
<svg height="183.35625pt" version="1.1" viewBox="0 0 245.328125 183.35625" width="245.328125pt" xmlns="http://www.w3.org/2000/svg" xmlns:xlink="http://www.w3.org/1999/xlink">
 <metadata>
  <rdf:RDF xmlns:cc="http://creativecommons.org/ns#" xmlns:dc="http://purl.org/dc/elements/1.1/" xmlns:rdf="http://www.w3.org/1999/02/22-rdf-syntax-ns#">
   <cc:Work>
    <dc:type rdf:resource="http://purl.org/dc/dcmitype/StillImage"/>
    <dc:date>2023-08-23T14:25:22.060862</dc:date>
    <dc:format>image/svg+xml</dc:format>
    <dc:creator>
     <cc:Agent>
      <dc:title>Matplotlib v3.4.0, https://matplotlib.org/</dc:title>
     </cc:Agent>
    </dc:creator>
   </cc:Work>
  </rdf:RDF>
 </metadata>
 <defs>
  <style type="text/css">*{stroke-linecap:butt;stroke-linejoin:round;}</style>
 </defs>
 <g id="figure_1">
  <g id="patch_1">
   <path d="M 0 183.35625 
L 245.328125 183.35625 
L 245.328125 0 
L 0 0 
z
" style="fill:#ffffff;"/>
  </g>
  <g id="axes_1">
   <g id="patch_2">
    <path d="M 36.465625 145.8 
L 231.765625 145.8 
L 231.765625 7.2 
L 36.465625 7.2 
z
" style="fill:#ffffff;"/>
   </g>
   <g id="matplotlib.axis_1">
    <g id="xtick_1">
     <g id="line2d_1">
      <defs>
       <path d="M 0 0 
L 0 3.5 
" id="md1037b2bd1" style="stroke:#000000;stroke-width:0.8;"/>
      </defs>
      <g>
       <use style="stroke:#000000;stroke-width:0.8;" x="36.465625" xlink:href="#md1037b2bd1" y="145.8"/>
      </g>
     </g>
     <g id="text_1">
      <!-- 0 -->
      <g transform="translate(33.284375 160.398438)scale(0.1 -0.1)">
       <defs>
        <path d="M 2034 4250 
Q 1547 4250 1301 3770 
Q 1056 3291 1056 2328 
Q 1056 1369 1301 889 
Q 1547 409 2034 409 
Q 2525 409 2770 889 
Q 3016 1369 3016 2328 
Q 3016 3291 2770 3770 
Q 2525 4250 2034 4250 
z
M 2034 4750 
Q 2819 4750 3233 4129 
Q 3647 3509 3647 2328 
Q 3647 1150 3233 529 
Q 2819 -91 2034 -91 
Q 1250 -91 836 529 
Q 422 1150 422 2328 
Q 422 3509 836 4129 
Q 1250 4750 2034 4750 
z
" id="DejaVuSans-30" transform="scale(0.015625)"/>
       </defs>
       <use xlink:href="#DejaVuSans-30"/>
      </g>
     </g>
    </g>
    <g id="xtick_2">
     <g id="line2d_2">
      <g>
       <use style="stroke:#000000;stroke-width:0.8;" x="75.525625" xlink:href="#md1037b2bd1" y="145.8"/>
      </g>
     </g>
     <g id="text_2">
      <!-- 2 -->
      <g transform="translate(72.344375 160.398438)scale(0.1 -0.1)">
       <defs>
        <path d="M 1228 531 
L 3431 531 
L 3431 0 
L 469 0 
L 469 531 
Q 828 903 1448 1529 
Q 2069 2156 2228 2338 
Q 2531 2678 2651 2914 
Q 2772 3150 2772 3378 
Q 2772 3750 2511 3984 
Q 2250 4219 1831 4219 
Q 1534 4219 1204 4116 
Q 875 4013 500 3803 
L 500 4441 
Q 881 4594 1212 4672 
Q 1544 4750 1819 4750 
Q 2544 4750 2975 4387 
Q 3406 4025 3406 3419 
Q 3406 3131 3298 2873 
Q 3191 2616 2906 2266 
Q 2828 2175 2409 1742 
Q 1991 1309 1228 531 
z
" id="DejaVuSans-32" transform="scale(0.015625)"/>
       </defs>
       <use xlink:href="#DejaVuSans-32"/>
      </g>
     </g>
    </g>
    <g id="xtick_3">
     <g id="line2d_3">
      <g>
       <use style="stroke:#000000;stroke-width:0.8;" x="114.585625" xlink:href="#md1037b2bd1" y="145.8"/>
      </g>
     </g>
     <g id="text_3">
      <!-- 4 -->
      <g transform="translate(111.404375 160.398438)scale(0.1 -0.1)">
       <defs>
        <path d="M 2419 4116 
L 825 1625 
L 2419 1625 
L 2419 4116 
z
M 2253 4666 
L 3047 4666 
L 3047 1625 
L 3713 1625 
L 3713 1100 
L 3047 1100 
L 3047 0 
L 2419 0 
L 2419 1100 
L 313 1100 
L 313 1709 
L 2253 4666 
z
" id="DejaVuSans-34" transform="scale(0.015625)"/>
       </defs>
       <use xlink:href="#DejaVuSans-34"/>
      </g>
     </g>
    </g>
    <g id="xtick_4">
     <g id="line2d_4">
      <g>
       <use style="stroke:#000000;stroke-width:0.8;" x="153.645625" xlink:href="#md1037b2bd1" y="145.8"/>
      </g>
     </g>
     <g id="text_4">
      <!-- 6 -->
      <g transform="translate(150.464375 160.398438)scale(0.1 -0.1)">
       <defs>
        <path d="M 2113 2584 
Q 1688 2584 1439 2293 
Q 1191 2003 1191 1497 
Q 1191 994 1439 701 
Q 1688 409 2113 409 
Q 2538 409 2786 701 
Q 3034 994 3034 1497 
Q 3034 2003 2786 2293 
Q 2538 2584 2113 2584 
z
M 3366 4563 
L 3366 3988 
Q 3128 4100 2886 4159 
Q 2644 4219 2406 4219 
Q 1781 4219 1451 3797 
Q 1122 3375 1075 2522 
Q 1259 2794 1537 2939 
Q 1816 3084 2150 3084 
Q 2853 3084 3261 2657 
Q 3669 2231 3669 1497 
Q 3669 778 3244 343 
Q 2819 -91 2113 -91 
Q 1303 -91 875 529 
Q 447 1150 447 2328 
Q 447 3434 972 4092 
Q 1497 4750 2381 4750 
Q 2619 4750 2861 4703 
Q 3103 4656 3366 4563 
z
" id="DejaVuSans-36" transform="scale(0.015625)"/>
       </defs>
       <use xlink:href="#DejaVuSans-36"/>
      </g>
     </g>
    </g>
    <g id="xtick_5">
     <g id="line2d_5">
      <g>
       <use style="stroke:#000000;stroke-width:0.8;" x="192.705625" xlink:href="#md1037b2bd1" y="145.8"/>
      </g>
     </g>
     <g id="text_5">
      <!-- 8 -->
      <g transform="translate(189.524375 160.398438)scale(0.1 -0.1)">
       <defs>
        <path d="M 2034 2216 
Q 1584 2216 1326 1975 
Q 1069 1734 1069 1313 
Q 1069 891 1326 650 
Q 1584 409 2034 409 
Q 2484 409 2743 651 
Q 3003 894 3003 1313 
Q 3003 1734 2745 1975 
Q 2488 2216 2034 2216 
z
M 1403 2484 
Q 997 2584 770 2862 
Q 544 3141 544 3541 
Q 544 4100 942 4425 
Q 1341 4750 2034 4750 
Q 2731 4750 3128 4425 
Q 3525 4100 3525 3541 
Q 3525 3141 3298 2862 
Q 3072 2584 2669 2484 
Q 3125 2378 3379 2068 
Q 3634 1759 3634 1313 
Q 3634 634 3220 271 
Q 2806 -91 2034 -91 
Q 1263 -91 848 271 
Q 434 634 434 1313 
Q 434 1759 690 2068 
Q 947 2378 1403 2484 
z
M 1172 3481 
Q 1172 3119 1398 2916 
Q 1625 2713 2034 2713 
Q 2441 2713 2670 2916 
Q 2900 3119 2900 3481 
Q 2900 3844 2670 4047 
Q 2441 4250 2034 4250 
Q 1625 4250 1398 4047 
Q 1172 3844 1172 3481 
z
" id="DejaVuSans-38" transform="scale(0.015625)"/>
       </defs>
       <use xlink:href="#DejaVuSans-38"/>
      </g>
     </g>
    </g>
    <g id="xtick_6">
     <g id="line2d_6">
      <g>
       <use style="stroke:#000000;stroke-width:0.8;" x="231.765625" xlink:href="#md1037b2bd1" y="145.8"/>
      </g>
     </g>
     <g id="text_6">
      <!-- 10 -->
      <g transform="translate(225.403125 160.398438)scale(0.1 -0.1)">
       <defs>
        <path d="M 794 531 
L 1825 531 
L 1825 4091 
L 703 3866 
L 703 4441 
L 1819 4666 
L 2450 4666 
L 2450 531 
L 3481 531 
L 3481 0 
L 794 0 
L 794 531 
z
" id="DejaVuSans-31" transform="scale(0.015625)"/>
       </defs>
       <use xlink:href="#DejaVuSans-31"/>
       <use x="63.623047" xlink:href="#DejaVuSans-30"/>
      </g>
     </g>
    </g>
    <g id="text_7">
     <!-- epoch -->
     <g transform="translate(118.8875 174.076563)scale(0.1 -0.1)">
      <defs>
       <path d="M 3597 1894 
L 3597 1613 
L 953 1613 
Q 991 1019 1311 708 
Q 1631 397 2203 397 
Q 2534 397 2845 478 
Q 3156 559 3463 722 
L 3463 178 
Q 3153 47 2828 -22 
Q 2503 -91 2169 -91 
Q 1331 -91 842 396 
Q 353 884 353 1716 
Q 353 2575 817 3079 
Q 1281 3584 2069 3584 
Q 2775 3584 3186 3129 
Q 3597 2675 3597 1894 
z
M 3022 2063 
Q 3016 2534 2758 2815 
Q 2500 3097 2075 3097 
Q 1594 3097 1305 2825 
Q 1016 2553 972 2059 
L 3022 2063 
z
" id="DejaVuSans-65" transform="scale(0.015625)"/>
       <path d="M 1159 525 
L 1159 -1331 
L 581 -1331 
L 581 3500 
L 1159 3500 
L 1159 2969 
Q 1341 3281 1617 3432 
Q 1894 3584 2278 3584 
Q 2916 3584 3314 3078 
Q 3713 2572 3713 1747 
Q 3713 922 3314 415 
Q 2916 -91 2278 -91 
Q 1894 -91 1617 61 
Q 1341 213 1159 525 
z
M 3116 1747 
Q 3116 2381 2855 2742 
Q 2594 3103 2138 3103 
Q 1681 3103 1420 2742 
Q 1159 2381 1159 1747 
Q 1159 1113 1420 752 
Q 1681 391 2138 391 
Q 2594 391 2855 752 
Q 3116 1113 3116 1747 
z
" id="DejaVuSans-70" transform="scale(0.015625)"/>
       <path d="M 1959 3097 
Q 1497 3097 1228 2736 
Q 959 2375 959 1747 
Q 959 1119 1226 758 
Q 1494 397 1959 397 
Q 2419 397 2687 759 
Q 2956 1122 2956 1747 
Q 2956 2369 2687 2733 
Q 2419 3097 1959 3097 
z
M 1959 3584 
Q 2709 3584 3137 3096 
Q 3566 2609 3566 1747 
Q 3566 888 3137 398 
Q 2709 -91 1959 -91 
Q 1206 -91 779 398 
Q 353 888 353 1747 
Q 353 2609 779 3096 
Q 1206 3584 1959 3584 
z
" id="DejaVuSans-6f" transform="scale(0.015625)"/>
       <path d="M 3122 3366 
L 3122 2828 
Q 2878 2963 2633 3030 
Q 2388 3097 2138 3097 
Q 1578 3097 1268 2742 
Q 959 2388 959 1747 
Q 959 1106 1268 751 
Q 1578 397 2138 397 
Q 2388 397 2633 464 
Q 2878 531 3122 666 
L 3122 134 
Q 2881 22 2623 -34 
Q 2366 -91 2075 -91 
Q 1284 -91 818 406 
Q 353 903 353 1747 
Q 353 2603 823 3093 
Q 1294 3584 2113 3584 
Q 2378 3584 2631 3529 
Q 2884 3475 3122 3366 
z
" id="DejaVuSans-63" transform="scale(0.015625)"/>
       <path d="M 3513 2113 
L 3513 0 
L 2938 0 
L 2938 2094 
Q 2938 2591 2744 2837 
Q 2550 3084 2163 3084 
Q 1697 3084 1428 2787 
Q 1159 2491 1159 1978 
L 1159 0 
L 581 0 
L 581 4863 
L 1159 4863 
L 1159 2956 
Q 1366 3272 1645 3428 
Q 1925 3584 2291 3584 
Q 2894 3584 3203 3211 
Q 3513 2838 3513 2113 
z
" id="DejaVuSans-68" transform="scale(0.015625)"/>
      </defs>
      <use xlink:href="#DejaVuSans-65"/>
      <use x="61.523438" xlink:href="#DejaVuSans-70"/>
      <use x="125" xlink:href="#DejaVuSans-6f"/>
      <use x="186.181641" xlink:href="#DejaVuSans-63"/>
      <use x="241.162109" xlink:href="#DejaVuSans-68"/>
     </g>
    </g>
   </g>
   <g id="matplotlib.axis_2">
    <g id="ytick_1">
     <g id="line2d_7">
      <defs>
       <path d="M 0 0 
L -3.5 0 
" id="md274ff61b8" style="stroke:#000000;stroke-width:0.8;"/>
      </defs>
      <g>
       <use style="stroke:#000000;stroke-width:0.8;" x="36.465625" xlink:href="#md274ff61b8" y="133.786846"/>
      </g>
     </g>
     <g id="text_8">
      <!-- 0.02 -->
      <g transform="translate(7.2 137.586065)scale(0.1 -0.1)">
       <defs>
        <path d="M 684 794 
L 1344 794 
L 1344 0 
L 684 0 
L 684 794 
z
" id="DejaVuSans-2e" transform="scale(0.015625)"/>
       </defs>
       <use xlink:href="#DejaVuSans-30"/>
       <use x="63.623047" xlink:href="#DejaVuSans-2e"/>
       <use x="95.410156" xlink:href="#DejaVuSans-30"/>
       <use x="159.033203" xlink:href="#DejaVuSans-32"/>
      </g>
     </g>
    </g>
    <g id="ytick_2">
     <g id="line2d_8">
      <g>
       <use style="stroke:#000000;stroke-width:0.8;" x="36.465625" xlink:href="#md274ff61b8" y="90.459674"/>
      </g>
     </g>
     <g id="text_9">
      <!-- 0.04 -->
      <g transform="translate(7.2 94.258893)scale(0.1 -0.1)">
       <use xlink:href="#DejaVuSans-30"/>
       <use x="63.623047" xlink:href="#DejaVuSans-2e"/>
       <use x="95.410156" xlink:href="#DejaVuSans-30"/>
       <use x="159.033203" xlink:href="#DejaVuSans-34"/>
      </g>
     </g>
    </g>
    <g id="ytick_3">
     <g id="line2d_9">
      <g>
       <use style="stroke:#000000;stroke-width:0.8;" x="36.465625" xlink:href="#md274ff61b8" y="47.132502"/>
      </g>
     </g>
     <g id="text_10">
      <!-- 0.06 -->
      <g transform="translate(7.2 50.931721)scale(0.1 -0.1)">
       <use xlink:href="#DejaVuSans-30"/>
       <use x="63.623047" xlink:href="#DejaVuSans-2e"/>
       <use x="95.410156" xlink:href="#DejaVuSans-30"/>
       <use x="159.033203" xlink:href="#DejaVuSans-36"/>
      </g>
     </g>
    </g>
   </g>
   <g id="line2d_10">
    <path clip-path="url(#p80d3ff74a1)" d="M 41.285795 139.5 
" style="fill:none;stroke:#1f77b4;stroke-linecap:square;stroke-width:1.5;"/>
   </g>
   <g id="line2d_11"/>
   <g id="line2d_12">
    <path clip-path="url(#p80d3ff74a1)" d="M 41.285795 139.5 
" style="fill:none;stroke:#1f77b4;stroke-linecap:square;stroke-width:1.5;"/>
   </g>
   <g id="line2d_13">
    <path clip-path="url(#p80d3ff74a1)" d="M 41.285795 139.5 
" style="fill:none;stroke:#ff7f0e;stroke-dasharray:5.55,2.4;stroke-dashoffset:0;stroke-width:1.5;"/>
   </g>
   <g id="line2d_14">
    <path clip-path="url(#p80d3ff74a1)" d="M 41.285795 139.5 
L 51.009242 71.930494 
" style="fill:none;stroke:#1f77b4;stroke-linecap:square;stroke-width:1.5;"/>
   </g>
   <g id="line2d_15">
    <path clip-path="url(#p80d3ff74a1)" d="M 41.285795 139.5 
" style="fill:none;stroke:#ff7f0e;stroke-dasharray:5.55,2.4;stroke-dashoffset:0;stroke-width:1.5;"/>
   </g>
   <g id="line2d_16">
    <path clip-path="url(#p80d3ff74a1)" d="M 41.285795 139.5 
L 51.009242 71.930494 
" style="fill:none;stroke:#1f77b4;stroke-linecap:square;stroke-width:1.5;"/>
   </g>
   <g id="line2d_17">
    <path clip-path="url(#p80d3ff74a1)" d="M 41.285795 139.5 
L 51.009242 71.930494 
" style="fill:none;stroke:#ff7f0e;stroke-dasharray:5.55,2.4;stroke-dashoffset:0;stroke-width:1.5;"/>
   </g>
   <g id="line2d_18">
    <path clip-path="url(#p80d3ff74a1)" d="M 41.285795 139.5 
L 51.009242 71.930494 
L 60.732689 75.118509 
" style="fill:none;stroke:#1f77b4;stroke-linecap:square;stroke-width:1.5;"/>
   </g>
   <g id="line2d_19">
    <path clip-path="url(#p80d3ff74a1)" d="M 41.285795 139.5 
L 51.009242 71.930494 
" style="fill:none;stroke:#ff7f0e;stroke-dasharray:5.55,2.4;stroke-dashoffset:0;stroke-width:1.5;"/>
   </g>
   <g id="line2d_20">
    <path clip-path="url(#p80d3ff74a1)" d="M 41.285795 139.5 
L 51.009242 71.930494 
L 60.732689 75.118509 
" style="fill:none;stroke:#1f77b4;stroke-linecap:square;stroke-width:1.5;"/>
   </g>
   <g id="line2d_21">
    <path clip-path="url(#p80d3ff74a1)" d="M 41.285795 139.5 
L 51.009242 71.930494 
L 60.732689 75.118509 
" style="fill:none;stroke:#ff7f0e;stroke-dasharray:5.55,2.4;stroke-dashoffset:0;stroke-width:1.5;"/>
   </g>
   <g id="line2d_22">
    <path clip-path="url(#p80d3ff74a1)" d="M 41.285795 139.5 
L 51.009242 71.930494 
L 60.732689 75.118509 
L 70.456136 70.907026 
" style="fill:none;stroke:#1f77b4;stroke-linecap:square;stroke-width:1.5;"/>
   </g>
   <g id="line2d_23">
    <path clip-path="url(#p80d3ff74a1)" d="M 41.285795 139.5 
L 51.009242 71.930494 
L 60.732689 75.118509 
" style="fill:none;stroke:#ff7f0e;stroke-dasharray:5.55,2.4;stroke-dashoffset:0;stroke-width:1.5;"/>
   </g>
   <g id="line2d_24">
    <path clip-path="url(#p80d3ff74a1)" d="M 41.285795 139.5 
L 51.009242 71.930494 
L 60.732689 75.118509 
L 70.456136 70.907026 
" style="fill:none;stroke:#1f77b4;stroke-linecap:square;stroke-width:1.5;"/>
   </g>
   <g id="line2d_25">
    <path clip-path="url(#p80d3ff74a1)" d="M 41.285795 139.5 
L 51.009242 71.930494 
L 60.732689 75.118509 
L 70.456136 70.907026 
" style="fill:none;stroke:#ff7f0e;stroke-dasharray:5.55,2.4;stroke-dashoffset:0;stroke-width:1.5;"/>
   </g>
   <g id="line2d_26">
    <path clip-path="url(#p80d3ff74a1)" d="M 41.285795 139.5 
L 51.009242 71.930494 
L 60.732689 75.118509 
L 70.456136 70.907026 
L 80.179582 68.139107 
" style="fill:none;stroke:#1f77b4;stroke-linecap:square;stroke-width:1.5;"/>
   </g>
   <g id="line2d_27">
    <path clip-path="url(#p80d3ff74a1)" d="M 41.285795 139.5 
L 51.009242 71.930494 
L 60.732689 75.118509 
L 70.456136 70.907026 
" style="fill:none;stroke:#ff7f0e;stroke-dasharray:5.55,2.4;stroke-dashoffset:0;stroke-width:1.5;"/>
   </g>
   <g id="line2d_28">
    <path clip-path="url(#p80d3ff74a1)" d="M 41.285795 139.5 
L 51.009242 71.930494 
L 60.732689 75.118509 
L 70.456136 70.907026 
L 80.179582 68.139107 
" style="fill:none;stroke:#1f77b4;stroke-linecap:square;stroke-width:1.5;"/>
   </g>
   <g id="line2d_29">
    <path clip-path="url(#p80d3ff74a1)" d="M 41.285795 139.5 
L 51.009242 71.930494 
L 60.732689 75.118509 
L 70.456136 70.907026 
L 80.179582 68.139107 
" style="fill:none;stroke:#ff7f0e;stroke-dasharray:5.55,2.4;stroke-dashoffset:0;stroke-width:1.5;"/>
   </g>
   <g id="line2d_30">
    <path clip-path="url(#p80d3ff74a1)" d="M 41.285795 139.5 
L 51.009242 71.930494 
L 60.732689 75.118509 
L 70.456136 70.907026 
L 80.179582 68.139107 
L 89.903029 65.062008 
" style="fill:none;stroke:#1f77b4;stroke-linecap:square;stroke-width:1.5;"/>
   </g>
   <g id="line2d_31">
    <path clip-path="url(#p80d3ff74a1)" d="M 41.285795 139.5 
L 51.009242 71.930494 
L 60.732689 75.118509 
L 70.456136 70.907026 
L 80.179582 68.139107 
" style="fill:none;stroke:#ff7f0e;stroke-dasharray:5.55,2.4;stroke-dashoffset:0;stroke-width:1.5;"/>
   </g>
   <g id="line2d_32">
    <path clip-path="url(#p80d3ff74a1)" d="M 41.285795 139.5 
L 51.009242 71.930494 
L 60.732689 75.118509 
L 70.456136 70.907026 
L 80.179582 68.139107 
L 89.903029 65.062008 
" style="fill:none;stroke:#1f77b4;stroke-linecap:square;stroke-width:1.5;"/>
   </g>
   <g id="line2d_33">
    <path clip-path="url(#p80d3ff74a1)" d="M 41.285795 139.5 
L 51.009242 71.930494 
L 60.732689 75.118509 
L 70.456136 70.907026 
L 80.179582 68.139107 
L 89.903029 65.062008 
" style="fill:none;stroke:#ff7f0e;stroke-dasharray:5.55,2.4;stroke-dashoffset:0;stroke-width:1.5;"/>
   </g>
   <g id="line2d_34">
    <path clip-path="url(#p80d3ff74a1)" d="M 41.285795 139.5 
L 51.009242 71.930494 
L 60.732689 75.118509 
L 70.456136 70.907026 
L 80.179582 68.139107 
L 89.903029 65.062008 
L 99.626476 66.924009 
" style="fill:none;stroke:#1f77b4;stroke-linecap:square;stroke-width:1.5;"/>
   </g>
   <g id="line2d_35">
    <path clip-path="url(#p80d3ff74a1)" d="M 41.285795 139.5 
L 51.009242 71.930494 
L 60.732689 75.118509 
L 70.456136 70.907026 
L 80.179582 68.139107 
L 89.903029 65.062008 
" style="fill:none;stroke:#ff7f0e;stroke-dasharray:5.55,2.4;stroke-dashoffset:0;stroke-width:1.5;"/>
   </g>
   <g id="line2d_36">
    <path clip-path="url(#p80d3ff74a1)" d="M 41.285795 139.5 
L 51.009242 71.930494 
L 60.732689 75.118509 
L 70.456136 70.907026 
L 80.179582 68.139107 
L 89.903029 65.062008 
L 99.626476 66.924009 
" style="fill:none;stroke:#1f77b4;stroke-linecap:square;stroke-width:1.5;"/>
   </g>
   <g id="line2d_37">
    <path clip-path="url(#p80d3ff74a1)" d="M 41.285795 139.5 
L 51.009242 71.930494 
L 60.732689 75.118509 
L 70.456136 70.907026 
L 80.179582 68.139107 
L 89.903029 65.062008 
L 99.626476 66.924009 
" style="fill:none;stroke:#ff7f0e;stroke-dasharray:5.55,2.4;stroke-dashoffset:0;stroke-width:1.5;"/>
   </g>
   <g id="line2d_38">
    <path clip-path="url(#p80d3ff74a1)" d="M 41.285795 139.5 
L 51.009242 71.930494 
L 60.732689 75.118509 
L 70.456136 70.907026 
L 80.179582 68.139107 
L 89.903029 65.062008 
L 99.626476 66.924009 
L 109.349923 66.928086 
" style="fill:none;stroke:#1f77b4;stroke-linecap:square;stroke-width:1.5;"/>
   </g>
   <g id="line2d_39">
    <path clip-path="url(#p80d3ff74a1)" d="M 41.285795 139.5 
L 51.009242 71.930494 
L 60.732689 75.118509 
L 70.456136 70.907026 
L 80.179582 68.139107 
L 89.903029 65.062008 
L 99.626476 66.924009 
" style="fill:none;stroke:#ff7f0e;stroke-dasharray:5.55,2.4;stroke-dashoffset:0;stroke-width:1.5;"/>
   </g>
   <g id="line2d_40">
    <path clip-path="url(#p80d3ff74a1)" d="M 41.285795 139.5 
L 51.009242 71.930494 
L 60.732689 75.118509 
L 70.456136 70.907026 
L 80.179582 68.139107 
L 89.903029 65.062008 
L 99.626476 66.924009 
L 109.349923 66.928086 
" style="fill:none;stroke:#1f77b4;stroke-linecap:square;stroke-width:1.5;"/>
   </g>
   <g id="line2d_41">
    <path clip-path="url(#p80d3ff74a1)" d="M 41.285795 139.5 
L 51.009242 71.930494 
L 60.732689 75.118509 
L 70.456136 70.907026 
L 80.179582 68.139107 
L 89.903029 65.062008 
L 99.626476 66.924009 
L 109.349923 66.928086 
" style="fill:none;stroke:#ff7f0e;stroke-dasharray:5.55,2.4;stroke-dashoffset:0;stroke-width:1.5;"/>
   </g>
   <g id="line2d_42">
    <path clip-path="url(#p80d3ff74a1)" d="M 41.285795 139.5 
L 51.009242 71.930494 
L 60.732689 75.118509 
L 70.456136 70.907026 
L 80.179582 68.139107 
L 89.903029 65.062008 
L 99.626476 66.924009 
L 109.349923 66.928086 
L 119.07337 55.141323 
" style="fill:none;stroke:#1f77b4;stroke-linecap:square;stroke-width:1.5;"/>
   </g>
   <g id="line2d_43">
    <path clip-path="url(#p80d3ff74a1)" d="M 41.285795 139.5 
L 51.009242 71.930494 
L 60.732689 75.118509 
L 70.456136 70.907026 
L 80.179582 68.139107 
L 89.903029 65.062008 
L 99.626476 66.924009 
L 109.349923 66.928086 
" style="fill:none;stroke:#ff7f0e;stroke-dasharray:5.55,2.4;stroke-dashoffset:0;stroke-width:1.5;"/>
   </g>
   <g id="line2d_44">
    <path clip-path="url(#p80d3ff74a1)" d="M 41.285795 139.5 
L 51.009242 71.930494 
L 60.732689 75.118509 
L 70.456136 70.907026 
L 80.179582 68.139107 
L 89.903029 65.062008 
L 99.626476 66.924009 
L 109.349923 66.928086 
L 119.07337 55.141323 
" style="fill:none;stroke:#1f77b4;stroke-linecap:square;stroke-width:1.5;"/>
   </g>
   <g id="line2d_45">
    <path clip-path="url(#p80d3ff74a1)" d="M 41.285795 139.5 
L 51.009242 71.930494 
L 60.732689 75.118509 
L 70.456136 70.907026 
L 80.179582 68.139107 
L 89.903029 65.062008 
L 99.626476 66.924009 
L 109.349923 66.928086 
L 119.07337 55.141323 
" style="fill:none;stroke:#ff7f0e;stroke-dasharray:5.55,2.4;stroke-dashoffset:0;stroke-width:1.5;"/>
   </g>
   <g id="line2d_46">
    <path clip-path="url(#p80d3ff74a1)" d="M 41.285795 139.5 
L 51.009242 71.930494 
L 60.732689 75.118509 
L 70.456136 70.907026 
L 80.179582 68.139107 
L 89.903029 65.062008 
L 99.626476 66.924009 
L 109.349923 66.928086 
L 119.07337 55.141323 
L 128.796816 44.964646 
" style="fill:none;stroke:#1f77b4;stroke-linecap:square;stroke-width:1.5;"/>
   </g>
   <g id="line2d_47">
    <path clip-path="url(#p80d3ff74a1)" d="M 41.285795 139.5 
L 51.009242 71.930494 
L 60.732689 75.118509 
L 70.456136 70.907026 
L 80.179582 68.139107 
L 89.903029 65.062008 
L 99.626476 66.924009 
L 109.349923 66.928086 
L 119.07337 55.141323 
" style="fill:none;stroke:#ff7f0e;stroke-dasharray:5.55,2.4;stroke-dashoffset:0;stroke-width:1.5;"/>
   </g>
   <g id="line2d_48">
    <path clip-path="url(#p80d3ff74a1)" d="M 41.285795 139.5 
L 51.009242 71.930494 
L 60.732689 75.118509 
L 70.456136 70.907026 
L 80.179582 68.139107 
L 89.903029 65.062008 
L 99.626476 66.924009 
L 109.349923 66.928086 
L 119.07337 55.141323 
L 128.796816 44.964646 
" style="fill:none;stroke:#1f77b4;stroke-linecap:square;stroke-width:1.5;"/>
   </g>
   <g id="line2d_49">
    <path clip-path="url(#p80d3ff74a1)" d="M 41.285795 139.5 
L 51.009242 71.930494 
L 60.732689 75.118509 
L 70.456136 70.907026 
L 80.179582 68.139107 
L 89.903029 65.062008 
L 99.626476 66.924009 
L 109.349923 66.928086 
L 119.07337 55.141323 
L 128.796816 44.964646 
" style="fill:none;stroke:#ff7f0e;stroke-dasharray:5.55,2.4;stroke-dashoffset:0;stroke-width:1.5;"/>
   </g>
   <g id="line2d_50">
    <path clip-path="url(#p80d3ff74a1)" d="M 41.285795 139.5 
L 51.009242 71.930494 
L 60.732689 75.118509 
L 70.456136 70.907026 
L 80.179582 68.139107 
L 89.903029 65.062008 
L 99.626476 66.924009 
L 109.349923 66.928086 
L 119.07337 55.141323 
L 128.796816 44.964646 
L 138.520263 33.815777 
" style="fill:none;stroke:#1f77b4;stroke-linecap:square;stroke-width:1.5;"/>
   </g>
   <g id="line2d_51">
    <path clip-path="url(#p80d3ff74a1)" d="M 41.285795 139.5 
L 51.009242 71.930494 
L 60.732689 75.118509 
L 70.456136 70.907026 
L 80.179582 68.139107 
L 89.903029 65.062008 
L 99.626476 66.924009 
L 109.349923 66.928086 
L 119.07337 55.141323 
L 128.796816 44.964646 
" style="fill:none;stroke:#ff7f0e;stroke-dasharray:5.55,2.4;stroke-dashoffset:0;stroke-width:1.5;"/>
   </g>
   <g id="line2d_52">
    <path clip-path="url(#p80d3ff74a1)" d="M 41.285795 139.5 
L 51.009242 71.930494 
L 60.732689 75.118509 
L 70.456136 70.907026 
L 80.179582 68.139107 
L 89.903029 65.062008 
L 99.626476 66.924009 
L 109.349923 66.928086 
L 119.07337 55.141323 
L 128.796816 44.964646 
L 138.520263 33.815777 
" style="fill:none;stroke:#1f77b4;stroke-linecap:square;stroke-width:1.5;"/>
   </g>
   <g id="line2d_53">
    <path clip-path="url(#p80d3ff74a1)" d="M 41.285795 139.5 
L 51.009242 71.930494 
L 60.732689 75.118509 
L 70.456136 70.907026 
L 80.179582 68.139107 
L 89.903029 65.062008 
L 99.626476 66.924009 
L 109.349923 66.928086 
L 119.07337 55.141323 
L 128.796816 44.964646 
L 138.520263 33.815777 
" style="fill:none;stroke:#ff7f0e;stroke-dasharray:5.55,2.4;stroke-dashoffset:0;stroke-width:1.5;"/>
   </g>
   <g id="line2d_54">
    <path clip-path="url(#p80d3ff74a1)" d="M 41.285795 139.5 
L 51.009242 71.930494 
L 60.732689 75.118509 
L 70.456136 70.907026 
L 80.179582 68.139107 
L 89.903029 65.062008 
L 99.626476 66.924009 
L 109.349923 66.928086 
L 119.07337 55.141323 
L 128.796816 44.964646 
L 138.520263 33.815777 
L 148.24371 26.481194 
" style="fill:none;stroke:#1f77b4;stroke-linecap:square;stroke-width:1.5;"/>
   </g>
   <g id="line2d_55">
    <path clip-path="url(#p80d3ff74a1)" d="M 41.285795 139.5 
L 51.009242 71.930494 
L 60.732689 75.118509 
L 70.456136 70.907026 
L 80.179582 68.139107 
L 89.903029 65.062008 
L 99.626476 66.924009 
L 109.349923 66.928086 
L 119.07337 55.141323 
L 128.796816 44.964646 
L 138.520263 33.815777 
" style="fill:none;stroke:#ff7f0e;stroke-dasharray:5.55,2.4;stroke-dashoffset:0;stroke-width:1.5;"/>
   </g>
   <g id="line2d_56">
    <path clip-path="url(#p80d3ff74a1)" d="M 41.285795 139.5 
L 51.009242 71.930494 
L 60.732689 75.118509 
L 70.456136 70.907026 
L 80.179582 68.139107 
L 89.903029 65.062008 
L 99.626476 66.924009 
L 109.349923 66.928086 
L 119.07337 55.141323 
L 128.796816 44.964646 
L 138.520263 33.815777 
L 148.24371 26.481194 
" style="fill:none;stroke:#1f77b4;stroke-linecap:square;stroke-width:1.5;"/>
   </g>
   <g id="line2d_57">
    <path clip-path="url(#p80d3ff74a1)" d="M 41.285795 139.5 
L 51.009242 71.930494 
L 60.732689 75.118509 
L 70.456136 70.907026 
L 80.179582 68.139107 
L 89.903029 65.062008 
L 99.626476 66.924009 
L 109.349923 66.928086 
L 119.07337 55.141323 
L 128.796816 44.964646 
L 138.520263 33.815777 
L 148.24371 26.481194 
" style="fill:none;stroke:#ff7f0e;stroke-dasharray:5.55,2.4;stroke-dashoffset:0;stroke-width:1.5;"/>
   </g>
   <g id="line2d_58">
    <path clip-path="url(#p80d3ff74a1)" d="M 41.285795 139.5 
L 51.009242 71.930494 
L 60.732689 75.118509 
L 70.456136 70.907026 
L 80.179582 68.139107 
L 89.903029 65.062008 
L 99.626476 66.924009 
L 109.349923 66.928086 
L 119.07337 55.141323 
L 128.796816 44.964646 
L 138.520263 33.815777 
L 148.24371 26.481194 
L 157.967157 25.96243 
" style="fill:none;stroke:#1f77b4;stroke-linecap:square;stroke-width:1.5;"/>
   </g>
   <g id="line2d_59">
    <path clip-path="url(#p80d3ff74a1)" d="M 41.285795 139.5 
L 51.009242 71.930494 
L 60.732689 75.118509 
L 70.456136 70.907026 
L 80.179582 68.139107 
L 89.903029 65.062008 
L 99.626476 66.924009 
L 109.349923 66.928086 
L 119.07337 55.141323 
L 128.796816 44.964646 
L 138.520263 33.815777 
L 148.24371 26.481194 
" style="fill:none;stroke:#ff7f0e;stroke-dasharray:5.55,2.4;stroke-dashoffset:0;stroke-width:1.5;"/>
   </g>
   <g id="line2d_60">
    <path clip-path="url(#p80d3ff74a1)" d="M 41.285795 139.5 
L 51.009242 71.930494 
L 60.732689 75.118509 
L 70.456136 70.907026 
L 80.179582 68.139107 
L 89.903029 65.062008 
L 99.626476 66.924009 
L 109.349923 66.928086 
L 119.07337 55.141323 
L 128.796816 44.964646 
L 138.520263 33.815777 
L 148.24371 26.481194 
L 157.967157 25.96243 
" style="fill:none;stroke:#1f77b4;stroke-linecap:square;stroke-width:1.5;"/>
   </g>
   <g id="line2d_61">
    <path clip-path="url(#p80d3ff74a1)" d="M 41.285795 139.5 
L 51.009242 71.930494 
L 60.732689 75.118509 
L 70.456136 70.907026 
L 80.179582 68.139107 
L 89.903029 65.062008 
L 99.626476 66.924009 
L 109.349923 66.928086 
L 119.07337 55.141323 
L 128.796816 44.964646 
L 138.520263 33.815777 
L 148.24371 26.481194 
L 157.967157 25.96243 
" style="fill:none;stroke:#ff7f0e;stroke-dasharray:5.55,2.4;stroke-dashoffset:0;stroke-width:1.5;"/>
   </g>
   <g id="line2d_62">
    <path clip-path="url(#p80d3ff74a1)" d="M 41.285795 139.5 
L 51.009242 71.930494 
L 60.732689 75.118509 
L 70.456136 70.907026 
L 80.179582 68.139107 
L 89.903029 65.062008 
L 99.626476 66.924009 
L 109.349923 66.928086 
L 119.07337 55.141323 
L 128.796816 44.964646 
L 138.520263 33.815777 
L 148.24371 26.481194 
L 157.967157 25.96243 
L 167.690604 22.264996 
" style="fill:none;stroke:#1f77b4;stroke-linecap:square;stroke-width:1.5;"/>
   </g>
   <g id="line2d_63">
    <path clip-path="url(#p80d3ff74a1)" d="M 41.285795 139.5 
L 51.009242 71.930494 
L 60.732689 75.118509 
L 70.456136 70.907026 
L 80.179582 68.139107 
L 89.903029 65.062008 
L 99.626476 66.924009 
L 109.349923 66.928086 
L 119.07337 55.141323 
L 128.796816 44.964646 
L 138.520263 33.815777 
L 148.24371 26.481194 
L 157.967157 25.96243 
" style="fill:none;stroke:#ff7f0e;stroke-dasharray:5.55,2.4;stroke-dashoffset:0;stroke-width:1.5;"/>
   </g>
   <g id="line2d_64">
    <path clip-path="url(#p80d3ff74a1)" d="M 41.285795 139.5 
L 51.009242 71.930494 
L 60.732689 75.118509 
L 70.456136 70.907026 
L 80.179582 68.139107 
L 89.903029 65.062008 
L 99.626476 66.924009 
L 109.349923 66.928086 
L 119.07337 55.141323 
L 128.796816 44.964646 
L 138.520263 33.815777 
L 148.24371 26.481194 
L 157.967157 25.96243 
L 167.690604 22.264996 
" style="fill:none;stroke:#1f77b4;stroke-linecap:square;stroke-width:1.5;"/>
   </g>
   <g id="line2d_65">
    <path clip-path="url(#p80d3ff74a1)" d="M 41.285795 139.5 
L 51.009242 71.930494 
L 60.732689 75.118509 
L 70.456136 70.907026 
L 80.179582 68.139107 
L 89.903029 65.062008 
L 99.626476 66.924009 
L 109.349923 66.928086 
L 119.07337 55.141323 
L 128.796816 44.964646 
L 138.520263 33.815777 
L 148.24371 26.481194 
L 157.967157 25.96243 
L 167.690604 22.264996 
" style="fill:none;stroke:#ff7f0e;stroke-dasharray:5.55,2.4;stroke-dashoffset:0;stroke-width:1.5;"/>
   </g>
   <g id="line2d_66">
    <path clip-path="url(#p80d3ff74a1)" d="M 41.285795 139.5 
L 51.009242 71.930494 
L 60.732689 75.118509 
L 70.456136 70.907026 
L 80.179582 68.139107 
L 89.903029 65.062008 
L 99.626476 66.924009 
L 109.349923 66.928086 
L 119.07337 55.141323 
L 128.796816 44.964646 
L 138.520263 33.815777 
L 148.24371 26.481194 
L 157.967157 25.96243 
L 167.690604 22.264996 
L 177.414051 24.452284 
" style="fill:none;stroke:#1f77b4;stroke-linecap:square;stroke-width:1.5;"/>
   </g>
   <g id="line2d_67">
    <path clip-path="url(#p80d3ff74a1)" d="M 41.285795 139.5 
L 51.009242 71.930494 
L 60.732689 75.118509 
L 70.456136 70.907026 
L 80.179582 68.139107 
L 89.903029 65.062008 
L 99.626476 66.924009 
L 109.349923 66.928086 
L 119.07337 55.141323 
L 128.796816 44.964646 
L 138.520263 33.815777 
L 148.24371 26.481194 
L 157.967157 25.96243 
L 167.690604 22.264996 
" style="fill:none;stroke:#ff7f0e;stroke-dasharray:5.55,2.4;stroke-dashoffset:0;stroke-width:1.5;"/>
   </g>
   <g id="line2d_68">
    <path clip-path="url(#p80d3ff74a1)" d="M 41.285795 139.5 
L 51.009242 71.930494 
L 60.732689 75.118509 
L 70.456136 70.907026 
L 80.179582 68.139107 
L 89.903029 65.062008 
L 99.626476 66.924009 
L 109.349923 66.928086 
L 119.07337 55.141323 
L 128.796816 44.964646 
L 138.520263 33.815777 
L 148.24371 26.481194 
L 157.967157 25.96243 
L 167.690604 22.264996 
L 177.414051 24.452284 
" style="fill:none;stroke:#1f77b4;stroke-linecap:square;stroke-width:1.5;"/>
   </g>
   <g id="line2d_69">
    <path clip-path="url(#p80d3ff74a1)" d="M 41.285795 139.5 
L 51.009242 71.930494 
L 60.732689 75.118509 
L 70.456136 70.907026 
L 80.179582 68.139107 
L 89.903029 65.062008 
L 99.626476 66.924009 
L 109.349923 66.928086 
L 119.07337 55.141323 
L 128.796816 44.964646 
L 138.520263 33.815777 
L 148.24371 26.481194 
L 157.967157 25.96243 
L 167.690604 22.264996 
L 177.414051 24.452284 
" style="fill:none;stroke:#ff7f0e;stroke-dasharray:5.55,2.4;stroke-dashoffset:0;stroke-width:1.5;"/>
   </g>
   <g id="line2d_70">
    <path clip-path="url(#p80d3ff74a1)" d="M 41.285795 139.5 
L 51.009242 71.930494 
L 60.732689 75.118509 
L 70.456136 70.907026 
L 80.179582 68.139107 
L 89.903029 65.062008 
L 99.626476 66.924009 
L 109.349923 66.928086 
L 119.07337 55.141323 
L 128.796816 44.964646 
L 138.520263 33.815777 
L 148.24371 26.481194 
L 157.967157 25.96243 
L 167.690604 22.264996 
L 177.414051 24.452284 
L 187.137497 24.32135 
" style="fill:none;stroke:#1f77b4;stroke-linecap:square;stroke-width:1.5;"/>
   </g>
   <g id="line2d_71">
    <path clip-path="url(#p80d3ff74a1)" d="M 41.285795 139.5 
L 51.009242 71.930494 
L 60.732689 75.118509 
L 70.456136 70.907026 
L 80.179582 68.139107 
L 89.903029 65.062008 
L 99.626476 66.924009 
L 109.349923 66.928086 
L 119.07337 55.141323 
L 128.796816 44.964646 
L 138.520263 33.815777 
L 148.24371 26.481194 
L 157.967157 25.96243 
L 167.690604 22.264996 
L 177.414051 24.452284 
" style="fill:none;stroke:#ff7f0e;stroke-dasharray:5.55,2.4;stroke-dashoffset:0;stroke-width:1.5;"/>
   </g>
   <g id="line2d_72">
    <path clip-path="url(#p80d3ff74a1)" d="M 41.285795 139.5 
L 51.009242 71.930494 
L 60.732689 75.118509 
L 70.456136 70.907026 
L 80.179582 68.139107 
L 89.903029 65.062008 
L 99.626476 66.924009 
L 109.349923 66.928086 
L 119.07337 55.141323 
L 128.796816 44.964646 
L 138.520263 33.815777 
L 148.24371 26.481194 
L 157.967157 25.96243 
L 167.690604 22.264996 
L 177.414051 24.452284 
L 187.137497 24.32135 
" style="fill:none;stroke:#1f77b4;stroke-linecap:square;stroke-width:1.5;"/>
   </g>
   <g id="line2d_73">
    <path clip-path="url(#p80d3ff74a1)" d="M 41.285795 139.5 
L 51.009242 71.930494 
L 60.732689 75.118509 
L 70.456136 70.907026 
L 80.179582 68.139107 
L 89.903029 65.062008 
L 99.626476 66.924009 
L 109.349923 66.928086 
L 119.07337 55.141323 
L 128.796816 44.964646 
L 138.520263 33.815777 
L 148.24371 26.481194 
L 157.967157 25.96243 
L 167.690604 22.264996 
L 177.414051 24.452284 
L 187.137497 24.32135 
" style="fill:none;stroke:#ff7f0e;stroke-dasharray:5.55,2.4;stroke-dashoffset:0;stroke-width:1.5;"/>
   </g>
   <g id="line2d_74">
    <path clip-path="url(#p80d3ff74a1)" d="M 41.285795 139.5 
L 51.009242 71.930494 
L 60.732689 75.118509 
L 70.456136 70.907026 
L 80.179582 68.139107 
L 89.903029 65.062008 
L 99.626476 66.924009 
L 109.349923 66.928086 
L 119.07337 55.141323 
L 128.796816 44.964646 
L 138.520263 33.815777 
L 148.24371 26.481194 
L 157.967157 25.96243 
L 167.690604 22.264996 
L 177.414051 24.452284 
L 187.137497 24.32135 
L 196.860944 21.205665 
" style="fill:none;stroke:#1f77b4;stroke-linecap:square;stroke-width:1.5;"/>
   </g>
   <g id="line2d_75">
    <path clip-path="url(#p80d3ff74a1)" d="M 41.285795 139.5 
L 51.009242 71.930494 
L 60.732689 75.118509 
L 70.456136 70.907026 
L 80.179582 68.139107 
L 89.903029 65.062008 
L 99.626476 66.924009 
L 109.349923 66.928086 
L 119.07337 55.141323 
L 128.796816 44.964646 
L 138.520263 33.815777 
L 148.24371 26.481194 
L 157.967157 25.96243 
L 167.690604 22.264996 
L 177.414051 24.452284 
L 187.137497 24.32135 
" style="fill:none;stroke:#ff7f0e;stroke-dasharray:5.55,2.4;stroke-dashoffset:0;stroke-width:1.5;"/>
   </g>
   <g id="line2d_76">
    <path clip-path="url(#p80d3ff74a1)" d="M 41.285795 139.5 
L 51.009242 71.930494 
L 60.732689 75.118509 
L 70.456136 70.907026 
L 80.179582 68.139107 
L 89.903029 65.062008 
L 99.626476 66.924009 
L 109.349923 66.928086 
L 119.07337 55.141323 
L 128.796816 44.964646 
L 138.520263 33.815777 
L 148.24371 26.481194 
L 157.967157 25.96243 
L 167.690604 22.264996 
L 177.414051 24.452284 
L 187.137497 24.32135 
L 196.860944 21.205665 
" style="fill:none;stroke:#1f77b4;stroke-linecap:square;stroke-width:1.5;"/>
   </g>
   <g id="line2d_77">
    <path clip-path="url(#p80d3ff74a1)" d="M 41.285795 139.5 
L 51.009242 71.930494 
L 60.732689 75.118509 
L 70.456136 70.907026 
L 80.179582 68.139107 
L 89.903029 65.062008 
L 99.626476 66.924009 
L 109.349923 66.928086 
L 119.07337 55.141323 
L 128.796816 44.964646 
L 138.520263 33.815777 
L 148.24371 26.481194 
L 157.967157 25.96243 
L 167.690604 22.264996 
L 177.414051 24.452284 
L 187.137497 24.32135 
L 196.860944 21.205665 
" style="fill:none;stroke:#ff7f0e;stroke-dasharray:5.55,2.4;stroke-dashoffset:0;stroke-width:1.5;"/>
   </g>
   <g id="line2d_78">
    <path clip-path="url(#p80d3ff74a1)" d="M 41.285795 139.5 
L 51.009242 71.930494 
L 60.732689 75.118509 
L 70.456136 70.907026 
L 80.179582 68.139107 
L 89.903029 65.062008 
L 99.626476 66.924009 
L 109.349923 66.928086 
L 119.07337 55.141323 
L 128.796816 44.964646 
L 138.520263 33.815777 
L 148.24371 26.481194 
L 157.967157 25.96243 
L 167.690604 22.264996 
L 177.414051 24.452284 
L 187.137497 24.32135 
L 196.860944 21.205665 
L 206.584391 17.965563 
" style="fill:none;stroke:#1f77b4;stroke-linecap:square;stroke-width:1.5;"/>
   </g>
   <g id="line2d_79">
    <path clip-path="url(#p80d3ff74a1)" d="M 41.285795 139.5 
L 51.009242 71.930494 
L 60.732689 75.118509 
L 70.456136 70.907026 
L 80.179582 68.139107 
L 89.903029 65.062008 
L 99.626476 66.924009 
L 109.349923 66.928086 
L 119.07337 55.141323 
L 128.796816 44.964646 
L 138.520263 33.815777 
L 148.24371 26.481194 
L 157.967157 25.96243 
L 167.690604 22.264996 
L 177.414051 24.452284 
L 187.137497 24.32135 
L 196.860944 21.205665 
" style="fill:none;stroke:#ff7f0e;stroke-dasharray:5.55,2.4;stroke-dashoffset:0;stroke-width:1.5;"/>
   </g>
   <g id="line2d_80">
    <path clip-path="url(#p80d3ff74a1)" d="M 41.285795 139.5 
L 51.009242 71.930494 
L 60.732689 75.118509 
L 70.456136 70.907026 
L 80.179582 68.139107 
L 89.903029 65.062008 
L 99.626476 66.924009 
L 109.349923 66.928086 
L 119.07337 55.141323 
L 128.796816 44.964646 
L 138.520263 33.815777 
L 148.24371 26.481194 
L 157.967157 25.96243 
L 167.690604 22.264996 
L 177.414051 24.452284 
L 187.137497 24.32135 
L 196.860944 21.205665 
L 206.584391 17.965563 
" style="fill:none;stroke:#1f77b4;stroke-linecap:square;stroke-width:1.5;"/>
   </g>
   <g id="line2d_81">
    <path clip-path="url(#p80d3ff74a1)" d="M 41.285795 139.5 
L 51.009242 71.930494 
L 60.732689 75.118509 
L 70.456136 70.907026 
L 80.179582 68.139107 
L 89.903029 65.062008 
L 99.626476 66.924009 
L 109.349923 66.928086 
L 119.07337 55.141323 
L 128.796816 44.964646 
L 138.520263 33.815777 
L 148.24371 26.481194 
L 157.967157 25.96243 
L 167.690604 22.264996 
L 177.414051 24.452284 
L 187.137497 24.32135 
L 196.860944 21.205665 
L 206.584391 17.965563 
" style="fill:none;stroke:#ff7f0e;stroke-dasharray:5.55,2.4;stroke-dashoffset:0;stroke-width:1.5;"/>
   </g>
   <g id="line2d_82">
    <path clip-path="url(#p80d3ff74a1)" d="M 41.285795 139.5 
L 51.009242 71.930494 
L 60.732689 75.118509 
L 70.456136 70.907026 
L 80.179582 68.139107 
L 89.903029 65.062008 
L 99.626476 66.924009 
L 109.349923 66.928086 
L 119.07337 55.141323 
L 128.796816 44.964646 
L 138.520263 33.815777 
L 148.24371 26.481194 
L 157.967157 25.96243 
L 167.690604 22.264996 
L 177.414051 24.452284 
L 187.137497 24.32135 
L 196.860944 21.205665 
L 206.584391 17.965563 
L 216.307838 16.9864 
" style="fill:none;stroke:#1f77b4;stroke-linecap:square;stroke-width:1.5;"/>
   </g>
   <g id="line2d_83">
    <path clip-path="url(#p80d3ff74a1)" d="M 41.285795 139.5 
L 51.009242 71.930494 
L 60.732689 75.118509 
L 70.456136 70.907026 
L 80.179582 68.139107 
L 89.903029 65.062008 
L 99.626476 66.924009 
L 109.349923 66.928086 
L 119.07337 55.141323 
L 128.796816 44.964646 
L 138.520263 33.815777 
L 148.24371 26.481194 
L 157.967157 25.96243 
L 167.690604 22.264996 
L 177.414051 24.452284 
L 187.137497 24.32135 
L 196.860944 21.205665 
L 206.584391 17.965563 
" style="fill:none;stroke:#ff7f0e;stroke-dasharray:5.55,2.4;stroke-dashoffset:0;stroke-width:1.5;"/>
   </g>
   <g id="line2d_84">
    <path clip-path="url(#p80d3ff74a1)" d="M 41.285795 139.5 
L 51.009242 71.930494 
L 60.732689 75.118509 
L 70.456136 70.907026 
L 80.179582 68.139107 
L 89.903029 65.062008 
L 99.626476 66.924009 
L 109.349923 66.928086 
L 119.07337 55.141323 
L 128.796816 44.964646 
L 138.520263 33.815777 
L 148.24371 26.481194 
L 157.967157 25.96243 
L 167.690604 22.264996 
L 177.414051 24.452284 
L 187.137497 24.32135 
L 196.860944 21.205665 
L 206.584391 17.965563 
L 216.307838 16.9864 
" style="fill:none;stroke:#1f77b4;stroke-linecap:square;stroke-width:1.5;"/>
   </g>
   <g id="line2d_85">
    <path clip-path="url(#p80d3ff74a1)" d="M 41.285795 139.5 
L 51.009242 71.930494 
L 60.732689 75.118509 
L 70.456136 70.907026 
L 80.179582 68.139107 
L 89.903029 65.062008 
L 99.626476 66.924009 
L 109.349923 66.928086 
L 119.07337 55.141323 
L 128.796816 44.964646 
L 138.520263 33.815777 
L 148.24371 26.481194 
L 157.967157 25.96243 
L 167.690604 22.264996 
L 177.414051 24.452284 
L 187.137497 24.32135 
L 196.860944 21.205665 
L 206.584391 17.965563 
L 216.307838 16.9864 
" style="fill:none;stroke:#ff7f0e;stroke-dasharray:5.55,2.4;stroke-dashoffset:0;stroke-width:1.5;"/>
   </g>
   <g id="line2d_86">
    <path clip-path="url(#p80d3ff74a1)" d="M 41.285795 139.5 
L 51.009242 71.930494 
L 60.732689 75.118509 
L 70.456136 70.907026 
L 80.179582 68.139107 
L 89.903029 65.062008 
L 99.626476 66.924009 
L 109.349923 66.928086 
L 119.07337 55.141323 
L 128.796816 44.964646 
L 138.520263 33.815777 
L 148.24371 26.481194 
L 157.967157 25.96243 
L 167.690604 22.264996 
L 177.414051 24.452284 
L 187.137497 24.32135 
L 196.860944 21.205665 
L 206.584391 17.965563 
L 216.307838 16.9864 
L 226.031285 13.5 
" style="fill:none;stroke:#1f77b4;stroke-linecap:square;stroke-width:1.5;"/>
   </g>
   <g id="line2d_87">
    <path clip-path="url(#p80d3ff74a1)" d="M 41.285795 139.5 
L 51.009242 71.930494 
L 60.732689 75.118509 
L 70.456136 70.907026 
L 80.179582 68.139107 
L 89.903029 65.062008 
L 99.626476 66.924009 
L 109.349923 66.928086 
L 119.07337 55.141323 
L 128.796816 44.964646 
L 138.520263 33.815777 
L 148.24371 26.481194 
L 157.967157 25.96243 
L 167.690604 22.264996 
L 177.414051 24.452284 
L 187.137497 24.32135 
L 196.860944 21.205665 
L 206.584391 17.965563 
L 216.307838 16.9864 
" style="fill:none;stroke:#ff7f0e;stroke-dasharray:5.55,2.4;stroke-dashoffset:0;stroke-width:1.5;"/>
   </g>
   <g id="line2d_88">
    <path clip-path="url(#p80d3ff74a1)" d="M 41.285795 139.5 
L 51.009242 71.930494 
L 60.732689 75.118509 
L 70.456136 70.907026 
L 80.179582 68.139107 
L 89.903029 65.062008 
L 99.626476 66.924009 
L 109.349923 66.928086 
L 119.07337 55.141323 
L 128.796816 44.964646 
L 138.520263 33.815777 
L 148.24371 26.481194 
L 157.967157 25.96243 
L 167.690604 22.264996 
L 177.414051 24.452284 
L 187.137497 24.32135 
L 196.860944 21.205665 
L 206.584391 17.965563 
L 216.307838 16.9864 
L 226.031285 13.5 
" style="fill:none;stroke:#1f77b4;stroke-linecap:square;stroke-width:1.5;"/>
   </g>
   <g id="line2d_89">
    <path clip-path="url(#p80d3ff74a1)" d="M 41.285795 139.5 
L 51.009242 71.930494 
L 60.732689 75.118509 
L 70.456136 70.907026 
L 80.179582 68.139107 
L 89.903029 65.062008 
L 99.626476 66.924009 
L 109.349923 66.928086 
L 119.07337 55.141323 
L 128.796816 44.964646 
L 138.520263 33.815777 
L 148.24371 26.481194 
L 157.967157 25.96243 
L 167.690604 22.264996 
L 177.414051 24.452284 
L 187.137497 24.32135 
L 196.860944 21.205665 
L 206.584391 17.965563 
L 216.307838 16.9864 
L 226.031285 13.5 
" style="fill:none;stroke:#ff7f0e;stroke-dasharray:5.55,2.4;stroke-dashoffset:0;stroke-width:1.5;"/>
   </g>
   <g id="patch_3">
    <path d="M 36.465625 145.8 
L 36.465625 7.2 
" style="fill:none;stroke:#000000;stroke-linecap:square;stroke-linejoin:miter;stroke-width:0.8;"/>
   </g>
   <g id="patch_4">
    <path d="M 231.765625 145.8 
L 231.765625 7.2 
" style="fill:none;stroke:#000000;stroke-linecap:square;stroke-linejoin:miter;stroke-width:0.8;"/>
   </g>
   <g id="patch_5">
    <path d="M 36.465625 145.8 
L 231.765625 145.8 
" style="fill:none;stroke:#000000;stroke-linecap:square;stroke-linejoin:miter;stroke-width:0.8;"/>
   </g>
   <g id="patch_6">
    <path d="M 36.465625 7.2 
L 231.765625 7.2 
" style="fill:none;stroke:#000000;stroke-linecap:square;stroke-linejoin:miter;stroke-width:0.8;"/>
   </g>
   <g id="legend_1">
    <g id="patch_7">
     <path d="M 89.323438 140.8 
L 224.765625 140.8 
Q 226.765625 140.8 226.765625 138.8 
L 226.765625 109.8875 
Q 226.765625 107.8875 224.765625 107.8875 
L 89.323438 107.8875 
Q 87.323438 107.8875 87.323438 109.8875 
L 87.323438 138.8 
Q 87.323438 140.8 89.323438 140.8 
z
" style="fill:#ffffff;opacity:0.8;stroke:#cccccc;stroke-linejoin:miter;"/>
    </g>
    <g id="line2d_90">
     <path d="M 91.323438 115.985938 
L 111.323438 115.985938 
" style="fill:none;stroke:#1f77b4;stroke-linecap:square;stroke-width:1.5;"/>
    </g>
    <g id="line2d_91"/>
    <g id="text_11">
     <!-- train_layer_3_weight -->
     <g transform="translate(119.323438 119.485938)scale(0.1 -0.1)">
      <defs>
       <path d="M 1172 4494 
L 1172 3500 
L 2356 3500 
L 2356 3053 
L 1172 3053 
L 1172 1153 
Q 1172 725 1289 603 
Q 1406 481 1766 481 
L 2356 481 
L 2356 0 
L 1766 0 
Q 1100 0 847 248 
Q 594 497 594 1153 
L 594 3053 
L 172 3053 
L 172 3500 
L 594 3500 
L 594 4494 
L 1172 4494 
z
" id="DejaVuSans-74" transform="scale(0.015625)"/>
       <path d="M 2631 2963 
Q 2534 3019 2420 3045 
Q 2306 3072 2169 3072 
Q 1681 3072 1420 2755 
Q 1159 2438 1159 1844 
L 1159 0 
L 581 0 
L 581 3500 
L 1159 3500 
L 1159 2956 
Q 1341 3275 1631 3429 
Q 1922 3584 2338 3584 
Q 2397 3584 2469 3576 
Q 2541 3569 2628 3553 
L 2631 2963 
z
" id="DejaVuSans-72" transform="scale(0.015625)"/>
       <path d="M 2194 1759 
Q 1497 1759 1228 1600 
Q 959 1441 959 1056 
Q 959 750 1161 570 
Q 1363 391 1709 391 
Q 2188 391 2477 730 
Q 2766 1069 2766 1631 
L 2766 1759 
L 2194 1759 
z
M 3341 1997 
L 3341 0 
L 2766 0 
L 2766 531 
Q 2569 213 2275 61 
Q 1981 -91 1556 -91 
Q 1019 -91 701 211 
Q 384 513 384 1019 
Q 384 1609 779 1909 
Q 1175 2209 1959 2209 
L 2766 2209 
L 2766 2266 
Q 2766 2663 2505 2880 
Q 2244 3097 1772 3097 
Q 1472 3097 1187 3025 
Q 903 2953 641 2809 
L 641 3341 
Q 956 3463 1253 3523 
Q 1550 3584 1831 3584 
Q 2591 3584 2966 3190 
Q 3341 2797 3341 1997 
z
" id="DejaVuSans-61" transform="scale(0.015625)"/>
       <path d="M 603 3500 
L 1178 3500 
L 1178 0 
L 603 0 
L 603 3500 
z
M 603 4863 
L 1178 4863 
L 1178 4134 
L 603 4134 
L 603 4863 
z
" id="DejaVuSans-69" transform="scale(0.015625)"/>
       <path d="M 3513 2113 
L 3513 0 
L 2938 0 
L 2938 2094 
Q 2938 2591 2744 2837 
Q 2550 3084 2163 3084 
Q 1697 3084 1428 2787 
Q 1159 2491 1159 1978 
L 1159 0 
L 581 0 
L 581 3500 
L 1159 3500 
L 1159 2956 
Q 1366 3272 1645 3428 
Q 1925 3584 2291 3584 
Q 2894 3584 3203 3211 
Q 3513 2838 3513 2113 
z
" id="DejaVuSans-6e" transform="scale(0.015625)"/>
       <path d="M 3263 -1063 
L 3263 -1509 
L -63 -1509 
L -63 -1063 
L 3263 -1063 
z
" id="DejaVuSans-5f" transform="scale(0.015625)"/>
       <path d="M 603 4863 
L 1178 4863 
L 1178 0 
L 603 0 
L 603 4863 
z
" id="DejaVuSans-6c" transform="scale(0.015625)"/>
       <path d="M 2059 -325 
Q 1816 -950 1584 -1140 
Q 1353 -1331 966 -1331 
L 506 -1331 
L 506 -850 
L 844 -850 
Q 1081 -850 1212 -737 
Q 1344 -625 1503 -206 
L 1606 56 
L 191 3500 
L 800 3500 
L 1894 763 
L 2988 3500 
L 3597 3500 
L 2059 -325 
z
" id="DejaVuSans-79" transform="scale(0.015625)"/>
       <path d="M 2597 2516 
Q 3050 2419 3304 2112 
Q 3559 1806 3559 1356 
Q 3559 666 3084 287 
Q 2609 -91 1734 -91 
Q 1441 -91 1130 -33 
Q 819 25 488 141 
L 488 750 
Q 750 597 1062 519 
Q 1375 441 1716 441 
Q 2309 441 2620 675 
Q 2931 909 2931 1356 
Q 2931 1769 2642 2001 
Q 2353 2234 1838 2234 
L 1294 2234 
L 1294 2753 
L 1863 2753 
Q 2328 2753 2575 2939 
Q 2822 3125 2822 3475 
Q 2822 3834 2567 4026 
Q 2313 4219 1838 4219 
Q 1578 4219 1281 4162 
Q 984 4106 628 3988 
L 628 4550 
Q 988 4650 1302 4700 
Q 1616 4750 1894 4750 
Q 2613 4750 3031 4423 
Q 3450 4097 3450 3541 
Q 3450 3153 3228 2886 
Q 3006 2619 2597 2516 
z
" id="DejaVuSans-33" transform="scale(0.015625)"/>
       <path d="M 269 3500 
L 844 3500 
L 1563 769 
L 2278 3500 
L 2956 3500 
L 3675 769 
L 4391 3500 
L 4966 3500 
L 4050 0 
L 3372 0 
L 2619 2869 
L 1863 0 
L 1184 0 
L 269 3500 
z
" id="DejaVuSans-77" transform="scale(0.015625)"/>
       <path d="M 2906 1791 
Q 2906 2416 2648 2759 
Q 2391 3103 1925 3103 
Q 1463 3103 1205 2759 
Q 947 2416 947 1791 
Q 947 1169 1205 825 
Q 1463 481 1925 481 
Q 2391 481 2648 825 
Q 2906 1169 2906 1791 
z
M 3481 434 
Q 3481 -459 3084 -895 
Q 2688 -1331 1869 -1331 
Q 1566 -1331 1297 -1286 
Q 1028 -1241 775 -1147 
L 775 -588 
Q 1028 -725 1275 -790 
Q 1522 -856 1778 -856 
Q 2344 -856 2625 -561 
Q 2906 -266 2906 331 
L 2906 616 
Q 2728 306 2450 153 
Q 2172 0 1784 0 
Q 1141 0 747 490 
Q 353 981 353 1791 
Q 353 2603 747 3093 
Q 1141 3584 1784 3584 
Q 2172 3584 2450 3431 
Q 2728 3278 2906 2969 
L 2906 3500 
L 3481 3500 
L 3481 434 
z
" id="DejaVuSans-67" transform="scale(0.015625)"/>
      </defs>
      <use xlink:href="#DejaVuSans-74"/>
      <use x="39.208984" xlink:href="#DejaVuSans-72"/>
      <use x="80.322266" xlink:href="#DejaVuSans-61"/>
      <use x="141.601562" xlink:href="#DejaVuSans-69"/>
      <use x="169.384766" xlink:href="#DejaVuSans-6e"/>
      <use x="232.763672" xlink:href="#DejaVuSans-5f"/>
      <use x="282.763672" xlink:href="#DejaVuSans-6c"/>
      <use x="310.546875" xlink:href="#DejaVuSans-61"/>
      <use x="371.826172" xlink:href="#DejaVuSans-79"/>
      <use x="431.005859" xlink:href="#DejaVuSans-65"/>
      <use x="492.529297" xlink:href="#DejaVuSans-72"/>
      <use x="533.642578" xlink:href="#DejaVuSans-5f"/>
      <use x="583.642578" xlink:href="#DejaVuSans-33"/>
      <use x="647.265625" xlink:href="#DejaVuSans-5f"/>
      <use x="697.265625" xlink:href="#DejaVuSans-77"/>
      <use x="779.052734" xlink:href="#DejaVuSans-65"/>
      <use x="840.576172" xlink:href="#DejaVuSans-69"/>
      <use x="868.359375" xlink:href="#DejaVuSans-67"/>
      <use x="931.835938" xlink:href="#DejaVuSans-68"/>
      <use x="995.214844" xlink:href="#DejaVuSans-74"/>
     </g>
    </g>
    <g id="line2d_92">
     <path d="M 91.323438 130.942188 
L 111.323438 130.942188 
" style="fill:none;stroke:#ff7f0e;stroke-dasharray:5.55,2.4;stroke-dashoffset:0;stroke-width:1.5;"/>
    </g>
    <g id="line2d_93"/>
    <g id="text_12">
     <!-- train_layer_6_weight -->
     <g transform="translate(119.323438 134.442188)scale(0.1 -0.1)">
      <use xlink:href="#DejaVuSans-74"/>
      <use x="39.208984" xlink:href="#DejaVuSans-72"/>
      <use x="80.322266" xlink:href="#DejaVuSans-61"/>
      <use x="141.601562" xlink:href="#DejaVuSans-69"/>
      <use x="169.384766" xlink:href="#DejaVuSans-6e"/>
      <use x="232.763672" xlink:href="#DejaVuSans-5f"/>
      <use x="282.763672" xlink:href="#DejaVuSans-6c"/>
      <use x="310.546875" xlink:href="#DejaVuSans-61"/>
      <use x="371.826172" xlink:href="#DejaVuSans-79"/>
      <use x="431.005859" xlink:href="#DejaVuSans-65"/>
      <use x="492.529297" xlink:href="#DejaVuSans-72"/>
      <use x="533.642578" xlink:href="#DejaVuSans-5f"/>
      <use x="583.642578" xlink:href="#DejaVuSans-36"/>
      <use x="647.265625" xlink:href="#DejaVuSans-5f"/>
      <use x="697.265625" xlink:href="#DejaVuSans-77"/>
      <use x="779.052734" xlink:href="#DejaVuSans-65"/>
      <use x="840.576172" xlink:href="#DejaVuSans-69"/>
      <use x="868.359375" xlink:href="#DejaVuSans-67"/>
      <use x="931.835938" xlink:href="#DejaVuSans-68"/>
      <use x="995.214844" xlink:href="#DejaVuSans-74"/>
     </g>
    </g>
   </g>
  </g>
 </g>
 <defs>
  <clipPath id="p80d3ff74a1">
   <rect height="138.6" width="195.3" x="36.465625" y="7.2"/>
  </clipPath>
 </defs>
</svg>
