<?xml version="1.0" encoding="utf-8" standalone="no"?>
<!DOCTYPE svg PUBLIC "-//W3C//DTD SVG 1.1//EN"
  "http://www.w3.org/Graphics/SVG/1.1/DTD/svg11.dtd">
<svg height="180.25pt" version="1.1" viewBox="0 0 236.7 180.25" width="236.7pt" xmlns="http://www.w3.org/2000/svg" xmlns:xlink="http://www.w3.org/1999/xlink">
 <metadata>
  <rdf:RDF xmlns:cc="http://creativecommons.org/ns#" xmlns:dc="http://purl.org/dc/elements/1.1/" xmlns:rdf="http://www.w3.org/1999/02/22-rdf-syntax-ns#">
   <cc:Work>
    <dc:type rdf:resource="http://purl.org/dc/dcmitype/StillImage"/>
    <dc:date>2023-10-15T08:39:37.943256</dc:date>
    <dc:format>image/svg+xml</dc:format>
    <dc:creator>
     <cc:Agent>
      <dc:title>Matplotlib v3.4.0, https://matplotlib.org/</dc:title>
     </cc:Agent>
    </dc:creator>
   </cc:Work>
  </rdf:RDF>
 </metadata>
 <defs>
  <style type="text/css">*{stroke-linecap:butt;stroke-linejoin:round;}</style>
 </defs>
 <g id="figure_1">
  <g id="patch_1">
   <path d="M 0 180.25 
L 236.7 180.25 
L 236.7 0 
L 0 0 
z
" style="fill:#ffffff;"/>
  </g>
  <g id="axes_1">
   <g id="patch_2">
    <path d="M 29.2 145.8 
L 224.5 145.8 
L 224.5 7.2 
L 29.2 7.2 
z
" style="fill:#ffffff;"/>
   </g>
   <g id="matplotlib.axis_1">
    <g id="xtick_1">
     <g id="line2d_1">
      <defs>
       <path d="M 0 0 
L 0 3.5 
" id="m03029baa7c" style="stroke:#000000;stroke-width:0.8;"/>
      </defs>
      <g>
       <use style="stroke:#000000;stroke-width:0.8;" x="29.2" xlink:href="#m03029baa7c" y="145.8"/>
      </g>
     </g>
     <g id="text_1">
      <!-- 0 -->
      <g transform="translate(26.7 159.675)scale(0.1 -0.1)">
       <defs>
        <path d="M 225 2537 
Q 250 3200 412 3587 
Q 575 3975 875 4225 
Q 1175 4475 1612 4475 
Q 2050 4475 2375 4112 
Q 2700 3750 2800 3200 
Q 2900 2650 2862 1937 
Q 2825 1225 2612 775 
Q 2400 325 1975 150 
Q 1550 -25 1125 187 
Q 700 400 525 750 
Q 350 1100 275 1487 
Q 200 1875 225 2537 
z
M 750 2687 
Q 675 2000 800 1462 
Q 925 925 1212 700 
Q 1500 475 1800 612 
Q 2100 750 2237 1162 
Q 2375 1575 2375 2062 
Q 2375 2550 2337 2950 
Q 2300 3350 2112 3675 
Q 1925 4000 1612 4012 
Q 1300 4025 1062 3700 
Q 825 3375 750 2687 
z
" id="SimHei-30" transform="scale(0.015625)"/>
       </defs>
       <use xlink:href="#SimHei-30"/>
      </g>
     </g>
    </g>
    <g id="xtick_2">
     <g id="line2d_2">
      <g>
       <use style="stroke:#000000;stroke-width:0.8;" x="78.025" xlink:href="#m03029baa7c" y="145.8"/>
      </g>
     </g>
     <g id="text_2">
      <!-- 5 -->
      <g transform="translate(75.525 159.675)scale(0.1 -0.1)">
       <defs>
        <path d="M 550 1325 
Q 725 650 1150 575 
Q 1575 500 1837 662 
Q 2100 825 2212 1087 
Q 2325 1350 2312 1675 
Q 2300 2000 2137 2225 
Q 1975 2450 1725 2525 
Q 1475 2600 1162 2525 
Q 850 2450 650 2175 
L 225 2225 
Q 275 2375 700 4375 
L 2675 4375 
L 2675 3925 
L 1075 3925 
Q 950 3250 825 2850 
Q 1200 3025 1525 3012 
Q 1850 3000 2150 2862 
Q 2450 2725 2587 2487 
Q 2725 2250 2787 2012 
Q 2850 1775 2837 1500 
Q 2825 1225 2725 937 
Q 2625 650 2425 462 
Q 2225 275 1937 162 
Q 1650 50 1275 75 
Q 900 100 562 350 
Q 225 600 100 1200 
L 550 1325 
z
" id="SimHei-35" transform="scale(0.015625)"/>
       </defs>
       <use xlink:href="#SimHei-35"/>
      </g>
     </g>
    </g>
    <g id="xtick_3">
     <g id="line2d_3">
      <g>
       <use style="stroke:#000000;stroke-width:0.8;" x="126.85" xlink:href="#m03029baa7c" y="145.8"/>
      </g>
     </g>
     <g id="text_3">
      <!-- 10 -->
      <g transform="translate(121.85 159.675)scale(0.1 -0.1)">
       <defs>
        <path d="M 1400 3600 
Q 1075 3275 575 2975 
L 575 3450 
Q 1200 3875 1600 4450 
L 1900 4450 
L 1900 150 
L 1400 150 
L 1400 3600 
z
" id="SimHei-31" transform="scale(0.015625)"/>
       </defs>
       <use xlink:href="#SimHei-31"/>
       <use x="50" xlink:href="#SimHei-30"/>
      </g>
     </g>
    </g>
    <g id="xtick_4">
     <g id="line2d_4">
      <g>
       <use style="stroke:#000000;stroke-width:0.8;" x="175.675" xlink:href="#m03029baa7c" y="145.8"/>
      </g>
     </g>
     <g id="text_4">
      <!-- 15 -->
      <g transform="translate(170.675 159.675)scale(0.1 -0.1)">
       <use xlink:href="#SimHei-31"/>
       <use x="50" xlink:href="#SimHei-35"/>
      </g>
     </g>
    </g>
    <g id="xtick_5">
     <g id="line2d_5">
      <g>
       <use style="stroke:#000000;stroke-width:0.8;" x="224.5" xlink:href="#m03029baa7c" y="145.8"/>
      </g>
     </g>
     <g id="text_5">
      <!-- 20 -->
      <g transform="translate(219.5 159.675)scale(0.1 -0.1)">
       <defs>
        <path d="M 300 250 
Q 325 625 650 925 
Q 975 1225 1475 1862 
Q 1975 2500 2125 2850 
Q 2275 3200 2237 3450 
Q 2200 3700 2000 3862 
Q 1800 4025 1537 4000 
Q 1275 3975 1037 3800 
Q 800 3625 675 3275 
L 200 3350 
Q 400 3925 712 4187 
Q 1025 4450 1450 4475 
Q 1700 4500 1900 4462 
Q 2100 4425 2312 4287 
Q 2525 4150 2662 3875 
Q 2800 3600 2762 3212 
Q 2725 2825 2375 2287 
Q 2025 1750 1025 600 
L 2825 600 
L 2825 150 
L 300 150 
L 300 250 
z
" id="SimHei-32" transform="scale(0.015625)"/>
       </defs>
       <use xlink:href="#SimHei-32"/>
       <use x="50" xlink:href="#SimHei-30"/>
      </g>
     </g>
    </g>
    <g id="text_6">
     <!-- epoch -->
     <g transform="translate(114.35 171.8)scale(0.1 -0.1)">
      <defs>
       <path d="M 2850 1075 
Q 2800 625 2450 350 
Q 2100 75 1625 75 
Q 1025 75 637 462 
Q 250 850 250 1525 
Q 250 2200 637 2587 
Q 1025 2975 1625 2975 
Q 2150 2975 2487 2637 
Q 2825 2300 2825 1525 
L 800 1525 
Q 800 975 1037 750 
Q 1275 525 1625 525 
Q 1900 525 2075 662 
Q 2250 800 2300 1075 
L 2850 1075 
z
M 2250 1925 
Q 2200 2275 2025 2412 
Q 1850 2550 1575 2550 
Q 1325 2550 1125 2412 
Q 925 2275 825 1925 
L 2250 1925 
z
" id="SimHei-65" transform="scale(0.015625)"/>
       <path d="M 2825 1525 
Q 2825 800 2475 425 
Q 2125 50 1625 50 
Q 1350 50 1150 162 
Q 950 275 800 500 
L 800 -800 
L 300 -800 
L 300 2925 
L 800 2925 
L 800 2550 
Q 950 2775 1150 2875 
Q 1350 2975 1625 2975 
Q 2125 2975 2475 2612 
Q 2825 2250 2825 1525 
z
M 2275 1525 
Q 2275 2000 2087 2262 
Q 1900 2525 1525 2525 
Q 1225 2525 1012 2262 
Q 800 2000 800 1525 
Q 800 1050 1012 775 
Q 1225 500 1525 500 
Q 1900 500 2087 775 
Q 2275 1050 2275 1525 
z
" id="SimHei-70" transform="scale(0.015625)"/>
       <path d="M 2925 1525 
Q 2925 875 2525 475 
Q 2125 75 1575 75 
Q 1025 75 625 475 
Q 225 875 225 1525 
Q 225 2175 625 2575 
Q 1025 2975 1575 2975 
Q 2125 2975 2525 2575 
Q 2925 2175 2925 1525 
z
M 2375 1525 
Q 2375 2025 2125 2275 
Q 1875 2525 1575 2525 
Q 1275 2525 1025 2275 
Q 775 2025 775 1525 
Q 775 1025 1025 775 
Q 1275 525 1575 525 
Q 1875 525 2125 775 
Q 2375 1025 2375 1525 
z
" id="SimHei-6f" transform="scale(0.015625)"/>
       <path d="M 2850 1250 
Q 2850 725 2487 400 
Q 2125 75 1575 75 
Q 1025 75 625 462 
Q 225 850 225 1525 
Q 225 2200 625 2587 
Q 1025 2975 1575 2975 
Q 2125 2975 2450 2687 
Q 2775 2400 2775 2000 
L 2225 2000 
Q 2200 2300 2012 2412 
Q 1825 2525 1575 2525 
Q 1275 2525 1025 2287 
Q 775 2050 775 1525 
Q 775 1000 1025 762 
Q 1275 525 1575 525 
Q 1900 525 2100 700 
Q 2300 875 2300 1250 
L 2850 1250 
z
" id="SimHei-63" transform="scale(0.015625)"/>
       <path d="M 2800 125 
L 2300 125 
L 2300 1925 
Q 2300 2225 2150 2400 
Q 2000 2575 1750 2575 
Q 1425 2575 1137 2237 
Q 850 1900 850 1400 
L 850 125 
L 350 125 
L 350 4400 
L 850 4400 
L 850 2400 
Q 1050 2675 1287 2825 
Q 1525 2975 1900 2975 
Q 2350 2975 2575 2725 
Q 2800 2475 2800 2100 
L 2800 125 
z
" id="SimHei-68" transform="scale(0.015625)"/>
      </defs>
      <use xlink:href="#SimHei-65"/>
      <use x="50" xlink:href="#SimHei-70"/>
      <use x="100" xlink:href="#SimHei-6f"/>
      <use x="150" xlink:href="#SimHei-63"/>
      <use x="200" xlink:href="#SimHei-68"/>
     </g>
    </g>
   </g>
   <g id="matplotlib.axis_2">
    <g id="ytick_1">
     <g id="line2d_6">
      <defs>
       <path d="M 0 0 
L -3.5 0 
" id="md49c964313" style="stroke:#000000;stroke-width:0.8;"/>
      </defs>
      <g>
       <use style="stroke:#000000;stroke-width:0.8;" x="29.2" xlink:href="#md49c964313" y="107.134031"/>
      </g>
     </g>
     <g id="text_7">
      <!-- 0.2 -->
      <g transform="translate(7.2 110.571531)scale(0.1 -0.1)">
       <defs>
        <path d="M 1075 125 
L 500 125 
L 500 675 
L 1075 675 
L 1075 125 
z
" id="SimHei-2e" transform="scale(0.015625)"/>
       </defs>
       <use xlink:href="#SimHei-30"/>
       <use x="50" xlink:href="#SimHei-2e"/>
       <use x="100" xlink:href="#SimHei-32"/>
      </g>
     </g>
    </g>
    <g id="ytick_2">
     <g id="line2d_7">
      <g>
       <use style="stroke:#000000;stroke-width:0.8;" x="29.2" xlink:href="#md49c964313" y="61.460376"/>
      </g>
     </g>
     <g id="text_8">
      <!-- 0.4 -->
      <g transform="translate(7.2 64.897876)scale(0.1 -0.1)">
       <defs>
        <path d="M 2000 1100 
L 75 1100 
L 75 1525 
L 2100 4450 
L 2475 4450 
L 2475 1525 
L 3075 1525 
L 3075 1100 
L 2475 1100 
L 2475 150 
L 2000 150 
L 2000 1100 
z
M 2000 1525 
L 2000 3500 
L 600 1525 
L 2000 1525 
z
" id="SimHei-34" transform="scale(0.015625)"/>
       </defs>
       <use xlink:href="#SimHei-30"/>
       <use x="50" xlink:href="#SimHei-2e"/>
       <use x="100" xlink:href="#SimHei-34"/>
      </g>
     </g>
    </g>
    <g id="ytick_3">
     <g id="line2d_8">
      <g>
       <use style="stroke:#000000;stroke-width:0.8;" x="29.2" xlink:href="#md49c964313" y="15.786721"/>
      </g>
     </g>
     <g id="text_9">
      <!-- 0.6 -->
      <g transform="translate(7.2 19.224221)scale(0.1 -0.1)">
       <defs>
        <path d="M 250 1612 
Q 275 1975 387 2225 
Q 500 2475 725 2850 
L 1750 4450 
L 2325 4450 
L 1275 2800 
Q 1950 2975 2350 2750 
Q 2750 2525 2887 2237 
Q 3025 1950 3037 1612 
Q 3050 1275 2937 950 
Q 2825 625 2537 362 
Q 2250 100 1737 75 
Q 1225 50 862 262 
Q 500 475 362 862 
Q 225 1250 250 1612 
z
M 1025 787 
Q 1250 550 1625 525 
Q 2000 500 2250 775 
Q 2500 1050 2500 1575 
Q 2500 2100 2187 2300 
Q 1875 2500 1487 2450 
Q 1100 2400 925 2075 
Q 750 1750 775 1387 
Q 800 1025 1025 787 
z
" id="SimHei-36" transform="scale(0.015625)"/>
       </defs>
       <use xlink:href="#SimHei-30"/>
       <use x="50" xlink:href="#SimHei-2e"/>
       <use x="100" xlink:href="#SimHei-36"/>
      </g>
     </g>
    </g>
   </g>
   <g id="line2d_9">
    <path clip-path="url(#p8a363e7569)" d="M 29.2 13.5 
" style="fill:none;stroke:#1f77b4;stroke-linecap:square;stroke-width:1.5;"/>
   </g>
   <g id="line2d_10">
    <path clip-path="url(#p8a363e7569)" d="M 29.2 13.5 
L 34.0825 28.593455 
" style="fill:none;stroke:#1f77b4;stroke-linecap:square;stroke-width:1.5;"/>
   </g>
   <g id="line2d_11">
    <path clip-path="url(#p8a363e7569)" d="M 29.2 13.5 
L 34.0825 28.593455 
" style="fill:none;stroke:#1f77b4;stroke-linecap:square;stroke-width:1.5;"/>
   </g>
   <g id="line2d_12">
    <path clip-path="url(#p8a363e7569)" d="M 38.965 100.21097 
" style="fill:none;stroke:#ff7f0e;stroke-dasharray:5.55,2.4;stroke-dashoffset:0;stroke-width:1.5;"/>
   </g>
   <g id="line2d_13">
    <path clip-path="url(#p8a363e7569)" d="M 29.2 13.5 
L 34.0825 28.593455 
L 38.965 41.537653 
" style="fill:none;stroke:#1f77b4;stroke-linecap:square;stroke-width:1.5;"/>
   </g>
   <g id="line2d_14">
    <path clip-path="url(#p8a363e7569)" d="M 38.965 100.21097 
" style="fill:none;stroke:#ff7f0e;stroke-dasharray:5.55,2.4;stroke-dashoffset:0;stroke-width:1.5;"/>
   </g>
   <g id="line2d_15">
    <path clip-path="url(#p8a363e7569)" d="M 29.2 13.5 
L 34.0825 28.593455 
L 38.965 41.537653 
L 43.8475 51.166811 
" style="fill:none;stroke:#1f77b4;stroke-linecap:square;stroke-width:1.5;"/>
   </g>
   <g id="line2d_16">
    <path clip-path="url(#p8a363e7569)" d="M 38.965 100.21097 
" style="fill:none;stroke:#ff7f0e;stroke-dasharray:5.55,2.4;stroke-dashoffset:0;stroke-width:1.5;"/>
   </g>
   <g id="line2d_17">
    <path clip-path="url(#p8a363e7569)" d="M 29.2 13.5 
L 34.0825 28.593455 
L 38.965 41.537653 
L 43.8475 51.166811 
" style="fill:none;stroke:#1f77b4;stroke-linecap:square;stroke-width:1.5;"/>
   </g>
   <g id="line2d_18">
    <path clip-path="url(#p8a363e7569)" d="M 38.965 100.21097 
L 48.73 106.349458 
" style="fill:none;stroke:#ff7f0e;stroke-dasharray:5.55,2.4;stroke-dashoffset:0;stroke-width:1.5;"/>
   </g>
   <g id="line2d_19">
    <path clip-path="url(#p8a363e7569)" d="M 29.2 13.5 
L 34.0825 28.593455 
L 38.965 41.537653 
L 43.8475 51.166811 
L 48.73 63.033124 
" style="fill:none;stroke:#1f77b4;stroke-linecap:square;stroke-width:1.5;"/>
   </g>
   <g id="line2d_20">
    <path clip-path="url(#p8a363e7569)" d="M 38.965 100.21097 
L 48.73 106.349458 
" style="fill:none;stroke:#ff7f0e;stroke-dasharray:5.55,2.4;stroke-dashoffset:0;stroke-width:1.5;"/>
   </g>
   <g id="line2d_21">
    <path clip-path="url(#p8a363e7569)" d="M 29.2 13.5 
L 34.0825 28.593455 
L 38.965 41.537653 
L 43.8475 51.166811 
L 48.73 63.033124 
L 53.6125 70.506076 
" style="fill:none;stroke:#1f77b4;stroke-linecap:square;stroke-width:1.5;"/>
   </g>
   <g id="line2d_22">
    <path clip-path="url(#p8a363e7569)" d="M 38.965 100.21097 
L 48.73 106.349458 
" style="fill:none;stroke:#ff7f0e;stroke-dasharray:5.55,2.4;stroke-dashoffset:0;stroke-width:1.5;"/>
   </g>
   <g id="line2d_23">
    <path clip-path="url(#p8a363e7569)" d="M 29.2 13.5 
L 34.0825 28.593455 
L 38.965 41.537653 
L 43.8475 51.166811 
L 48.73 63.033124 
L 53.6125 70.506076 
" style="fill:none;stroke:#1f77b4;stroke-linecap:square;stroke-width:1.5;"/>
   </g>
   <g id="line2d_24">
    <path clip-path="url(#p8a363e7569)" d="M 38.965 100.21097 
L 48.73 106.349458 
L 58.495 111.938021 
" style="fill:none;stroke:#ff7f0e;stroke-dasharray:5.55,2.4;stroke-dashoffset:0;stroke-width:1.5;"/>
   </g>
   <g id="line2d_25">
    <path clip-path="url(#p8a363e7569)" d="M 29.2 13.5 
L 34.0825 28.593455 
L 38.965 41.537653 
L 43.8475 51.166811 
L 48.73 63.033124 
L 53.6125 70.506076 
L 58.495 78.467297 
" style="fill:none;stroke:#1f77b4;stroke-linecap:square;stroke-width:1.5;"/>
   </g>
   <g id="line2d_26">
    <path clip-path="url(#p8a363e7569)" d="M 38.965 100.21097 
L 48.73 106.349458 
L 58.495 111.938021 
" style="fill:none;stroke:#ff7f0e;stroke-dasharray:5.55,2.4;stroke-dashoffset:0;stroke-width:1.5;"/>
   </g>
   <g id="line2d_27">
    <path clip-path="url(#p8a363e7569)" d="M 29.2 13.5 
L 34.0825 28.593455 
L 38.965 41.537653 
L 43.8475 51.166811 
L 48.73 63.033124 
L 53.6125 70.506076 
L 58.495 78.467297 
L 63.3775 89.566387 
" style="fill:none;stroke:#1f77b4;stroke-linecap:square;stroke-width:1.5;"/>
   </g>
   <g id="line2d_28">
    <path clip-path="url(#p8a363e7569)" d="M 38.965 100.21097 
L 48.73 106.349458 
L 58.495 111.938021 
" style="fill:none;stroke:#ff7f0e;stroke-dasharray:5.55,2.4;stroke-dashoffset:0;stroke-width:1.5;"/>
   </g>
   <g id="line2d_29">
    <path clip-path="url(#p8a363e7569)" d="M 29.2 13.5 
L 34.0825 28.593455 
L 38.965 41.537653 
L 43.8475 51.166811 
L 48.73 63.033124 
L 53.6125 70.506076 
L 58.495 78.467297 
L 63.3775 89.566387 
" style="fill:none;stroke:#1f77b4;stroke-linecap:square;stroke-width:1.5;"/>
   </g>
   <g id="line2d_30">
    <path clip-path="url(#p8a363e7569)" d="M 38.965 100.21097 
L 48.73 106.349458 
L 58.495 111.938021 
L 68.26 119.155787 
" style="fill:none;stroke:#ff7f0e;stroke-dasharray:5.55,2.4;stroke-dashoffset:0;stroke-width:1.5;"/>
   </g>
   <g id="line2d_31">
    <path clip-path="url(#p8a363e7569)" d="M 29.2 13.5 
L 34.0825 28.593455 
L 38.965 41.537653 
L 43.8475 51.166811 
L 48.73 63.033124 
L 53.6125 70.506076 
L 58.495 78.467297 
L 63.3775 89.566387 
L 68.26 93.607243 
" style="fill:none;stroke:#1f77b4;stroke-linecap:square;stroke-width:1.5;"/>
   </g>
   <g id="line2d_32">
    <path clip-path="url(#p8a363e7569)" d="M 38.965 100.21097 
L 48.73 106.349458 
L 58.495 111.938021 
L 68.26 119.155787 
" style="fill:none;stroke:#ff7f0e;stroke-dasharray:5.55,2.4;stroke-dashoffset:0;stroke-width:1.5;"/>
   </g>
   <g id="line2d_33">
    <path clip-path="url(#p8a363e7569)" d="M 29.2 13.5 
L 34.0825 28.593455 
L 38.965 41.537653 
L 43.8475 51.166811 
L 48.73 63.033124 
L 53.6125 70.506076 
L 58.495 78.467297 
L 63.3775 89.566387 
L 68.26 93.607243 
L 73.1425 104.995349 
" style="fill:none;stroke:#1f77b4;stroke-linecap:square;stroke-width:1.5;"/>
   </g>
   <g id="line2d_34">
    <path clip-path="url(#p8a363e7569)" d="M 38.965 100.21097 
L 48.73 106.349458 
L 58.495 111.938021 
L 68.26 119.155787 
" style="fill:none;stroke:#ff7f0e;stroke-dasharray:5.55,2.4;stroke-dashoffset:0;stroke-width:1.5;"/>
   </g>
   <g id="line2d_35">
    <path clip-path="url(#p8a363e7569)" d="M 29.2 13.5 
L 34.0825 28.593455 
L 38.965 41.537653 
L 43.8475 51.166811 
L 48.73 63.033124 
L 53.6125 70.506076 
L 58.495 78.467297 
L 63.3775 89.566387 
L 68.26 93.607243 
L 73.1425 104.995349 
" style="fill:none;stroke:#1f77b4;stroke-linecap:square;stroke-width:1.5;"/>
   </g>
   <g id="line2d_36">
    <path clip-path="url(#p8a363e7569)" d="M 38.965 100.21097 
L 48.73 106.349458 
L 58.495 111.938021 
L 68.26 119.155787 
L 78.025 127.335849 
" style="fill:none;stroke:#ff7f0e;stroke-dasharray:5.55,2.4;stroke-dashoffset:0;stroke-width:1.5;"/>
   </g>
   <g id="line2d_37">
    <path clip-path="url(#p8a363e7569)" d="M 29.2 13.5 
L 34.0825 28.593455 
L 38.965 41.537653 
L 43.8475 51.166811 
L 48.73 63.033124 
L 53.6125 70.506076 
L 58.495 78.467297 
L 63.3775 89.566387 
L 68.26 93.607243 
L 73.1425 104.995349 
L 78.025 109.496138 
" style="fill:none;stroke:#1f77b4;stroke-linecap:square;stroke-width:1.5;"/>
   </g>
   <g id="line2d_38">
    <path clip-path="url(#p8a363e7569)" d="M 38.965 100.21097 
L 48.73 106.349458 
L 58.495 111.938021 
L 68.26 119.155787 
L 78.025 127.335849 
" style="fill:none;stroke:#ff7f0e;stroke-dasharray:5.55,2.4;stroke-dashoffset:0;stroke-width:1.5;"/>
   </g>
   <g id="line2d_39">
    <path clip-path="url(#p8a363e7569)" d="M 29.2 13.5 
L 34.0825 28.593455 
L 38.965 41.537653 
L 43.8475 51.166811 
L 48.73 63.033124 
L 53.6125 70.506076 
L 58.495 78.467297 
L 63.3775 89.566387 
L 68.26 93.607243 
L 73.1425 104.995349 
L 78.025 109.496138 
L 82.9075 116.187027 
" style="fill:none;stroke:#1f77b4;stroke-linecap:square;stroke-width:1.5;"/>
   </g>
   <g id="line2d_40">
    <path clip-path="url(#p8a363e7569)" d="M 38.965 100.21097 
L 48.73 106.349458 
L 58.495 111.938021 
L 68.26 119.155787 
L 78.025 127.335849 
" style="fill:none;stroke:#ff7f0e;stroke-dasharray:5.55,2.4;stroke-dashoffset:0;stroke-width:1.5;"/>
   </g>
   <g id="line2d_41">
    <path clip-path="url(#p8a363e7569)" d="M 29.2 13.5 
L 34.0825 28.593455 
L 38.965 41.537653 
L 43.8475 51.166811 
L 48.73 63.033124 
L 53.6125 70.506076 
L 58.495 78.467297 
L 63.3775 89.566387 
L 68.26 93.607243 
L 73.1425 104.995349 
L 78.025 109.496138 
L 82.9075 116.187027 
" style="fill:none;stroke:#1f77b4;stroke-linecap:square;stroke-width:1.5;"/>
   </g>
   <g id="line2d_42">
    <path clip-path="url(#p8a363e7569)" d="M 38.965 100.21097 
L 48.73 106.349458 
L 58.495 111.938021 
L 68.26 119.155787 
L 78.025 127.335849 
L 87.79 133.74673 
" style="fill:none;stroke:#ff7f0e;stroke-dasharray:5.55,2.4;stroke-dashoffset:0;stroke-width:1.5;"/>
   </g>
   <g id="line2d_43">
    <path clip-path="url(#p8a363e7569)" d="M 29.2 13.5 
L 34.0825 28.593455 
L 38.965 41.537653 
L 43.8475 51.166811 
L 48.73 63.033124 
L 53.6125 70.506076 
L 58.495 78.467297 
L 63.3775 89.566387 
L 68.26 93.607243 
L 73.1425 104.995349 
L 78.025 109.496138 
L 82.9075 116.187027 
L 87.79 120.17035 
" style="fill:none;stroke:#1f77b4;stroke-linecap:square;stroke-width:1.5;"/>
   </g>
   <g id="line2d_44">
    <path clip-path="url(#p8a363e7569)" d="M 38.965 100.21097 
L 48.73 106.349458 
L 58.495 111.938021 
L 68.26 119.155787 
L 78.025 127.335849 
L 87.79 133.74673 
" style="fill:none;stroke:#ff7f0e;stroke-dasharray:5.55,2.4;stroke-dashoffset:0;stroke-width:1.5;"/>
   </g>
   <g id="line2d_45">
    <path clip-path="url(#p8a363e7569)" d="M 29.2 13.5 
L 34.0825 28.593455 
L 38.965 41.537653 
L 43.8475 51.166811 
L 48.73 63.033124 
L 53.6125 70.506076 
L 58.495 78.467297 
L 63.3775 89.566387 
L 68.26 93.607243 
L 73.1425 104.995349 
L 78.025 109.496138 
L 82.9075 116.187027 
L 87.79 120.17035 
L 92.6725 125.868236 
" style="fill:none;stroke:#1f77b4;stroke-linecap:square;stroke-width:1.5;"/>
   </g>
   <g id="line2d_46">
    <path clip-path="url(#p8a363e7569)" d="M 38.965 100.21097 
L 48.73 106.349458 
L 58.495 111.938021 
L 68.26 119.155787 
L 78.025 127.335849 
L 87.79 133.74673 
" style="fill:none;stroke:#ff7f0e;stroke-dasharray:5.55,2.4;stroke-dashoffset:0;stroke-width:1.5;"/>
   </g>
   <g id="line2d_47">
    <path clip-path="url(#p8a363e7569)" d="M 29.2 13.5 
L 34.0825 28.593455 
L 38.965 41.537653 
L 43.8475 51.166811 
L 48.73 63.033124 
L 53.6125 70.506076 
L 58.495 78.467297 
L 63.3775 89.566387 
L 68.26 93.607243 
L 73.1425 104.995349 
L 78.025 109.496138 
L 82.9075 116.187027 
L 87.79 120.17035 
L 92.6725 125.868236 
" style="fill:none;stroke:#1f77b4;stroke-linecap:square;stroke-width:1.5;"/>
   </g>
   <g id="line2d_48">
    <path clip-path="url(#p8a363e7569)" d="M 38.965 100.21097 
L 48.73 106.349458 
L 58.495 111.938021 
L 68.26 119.155787 
L 78.025 127.335849 
L 87.79 133.74673 
L 97.555 137.145956 
" style="fill:none;stroke:#ff7f0e;stroke-dasharray:5.55,2.4;stroke-dashoffset:0;stroke-width:1.5;"/>
   </g>
   <g id="line2d_49">
    <path clip-path="url(#p8a363e7569)" d="M 29.2 13.5 
L 34.0825 28.593455 
L 38.965 41.537653 
L 43.8475 51.166811 
L 48.73 63.033124 
L 53.6125 70.506076 
L 58.495 78.467297 
L 63.3775 89.566387 
L 68.26 93.607243 
L 73.1425 104.995349 
L 78.025 109.496138 
L 82.9075 116.187027 
L 87.79 120.17035 
L 92.6725 125.868236 
L 97.555 130.280736 
" style="fill:none;stroke:#1f77b4;stroke-linecap:square;stroke-width:1.5;"/>
   </g>
   <g id="line2d_50">
    <path clip-path="url(#p8a363e7569)" d="M 38.965 100.21097 
L 48.73 106.349458 
L 58.495 111.938021 
L 68.26 119.155787 
L 78.025 127.335849 
L 87.79 133.74673 
L 97.555 137.145956 
" style="fill:none;stroke:#ff7f0e;stroke-dasharray:5.55,2.4;stroke-dashoffset:0;stroke-width:1.5;"/>
   </g>
   <g id="line2d_51">
    <path clip-path="url(#p8a363e7569)" d="M 29.2 13.5 
L 34.0825 28.593455 
L 38.965 41.537653 
L 43.8475 51.166811 
L 48.73 63.033124 
L 53.6125 70.506076 
L 58.495 78.467297 
L 63.3775 89.566387 
L 68.26 93.607243 
L 73.1425 104.995349 
L 78.025 109.496138 
L 82.9075 116.187027 
L 87.79 120.17035 
L 92.6725 125.868236 
L 97.555 130.280736 
L 102.4375 129.236296 
" style="fill:none;stroke:#1f77b4;stroke-linecap:square;stroke-width:1.5;"/>
   </g>
   <g id="line2d_52">
    <path clip-path="url(#p8a363e7569)" d="M 38.965 100.21097 
L 48.73 106.349458 
L 58.495 111.938021 
L 68.26 119.155787 
L 78.025 127.335849 
L 87.79 133.74673 
L 97.555 137.145956 
" style="fill:none;stroke:#ff7f0e;stroke-dasharray:5.55,2.4;stroke-dashoffset:0;stroke-width:1.5;"/>
   </g>
   <g id="line2d_53">
    <path clip-path="url(#p8a363e7569)" d="M 29.2 13.5 
L 34.0825 28.593455 
L 38.965 41.537653 
L 43.8475 51.166811 
L 48.73 63.033124 
L 53.6125 70.506076 
L 58.495 78.467297 
L 63.3775 89.566387 
L 68.26 93.607243 
L 73.1425 104.995349 
L 78.025 109.496138 
L 82.9075 116.187027 
L 87.79 120.17035 
L 92.6725 125.868236 
L 97.555 130.280736 
L 102.4375 129.236296 
" style="fill:none;stroke:#1f77b4;stroke-linecap:square;stroke-width:1.5;"/>
   </g>
   <g id="line2d_54">
    <path clip-path="url(#p8a363e7569)" d="M 38.965 100.21097 
L 48.73 106.349458 
L 58.495 111.938021 
L 68.26 119.155787 
L 78.025 127.335849 
L 87.79 133.74673 
L 97.555 137.145956 
L 107.32 138.184653 
" style="fill:none;stroke:#ff7f0e;stroke-dasharray:5.55,2.4;stroke-dashoffset:0;stroke-width:1.5;"/>
   </g>
   <g id="line2d_55">
    <path clip-path="url(#p8a363e7569)" d="M 29.2 13.5 
L 34.0825 28.593455 
L 38.965 41.537653 
L 43.8475 51.166811 
L 48.73 63.033124 
L 53.6125 70.506076 
L 58.495 78.467297 
L 63.3775 89.566387 
L 68.26 93.607243 
L 73.1425 104.995349 
L 78.025 109.496138 
L 82.9075 116.187027 
L 87.79 120.17035 
L 92.6725 125.868236 
L 97.555 130.280736 
L 102.4375 129.236296 
L 107.32 133.398941 
" style="fill:none;stroke:#1f77b4;stroke-linecap:square;stroke-width:1.5;"/>
   </g>
   <g id="line2d_56">
    <path clip-path="url(#p8a363e7569)" d="M 38.965 100.21097 
L 48.73 106.349458 
L 58.495 111.938021 
L 68.26 119.155787 
L 78.025 127.335849 
L 87.79 133.74673 
L 97.555 137.145956 
L 107.32 138.184653 
" style="fill:none;stroke:#ff7f0e;stroke-dasharray:5.55,2.4;stroke-dashoffset:0;stroke-width:1.5;"/>
   </g>
   <g id="line2d_57">
    <path clip-path="url(#p8a363e7569)" d="M 29.2 13.5 
L 34.0825 28.593455 
L 38.965 41.537653 
L 43.8475 51.166811 
L 48.73 63.033124 
L 53.6125 70.506076 
L 58.495 78.467297 
L 63.3775 89.566387 
L 68.26 93.607243 
L 73.1425 104.995349 
L 78.025 109.496138 
L 82.9075 116.187027 
L 87.79 120.17035 
L 92.6725 125.868236 
L 97.555 130.280736 
L 102.4375 129.236296 
L 107.32 133.398941 
L 112.2025 132.094208 
" style="fill:none;stroke:#1f77b4;stroke-linecap:square;stroke-width:1.5;"/>
   </g>
   <g id="line2d_58">
    <path clip-path="url(#p8a363e7569)" d="M 38.965 100.21097 
L 48.73 106.349458 
L 58.495 111.938021 
L 68.26 119.155787 
L 78.025 127.335849 
L 87.79 133.74673 
L 97.555 137.145956 
L 107.32 138.184653 
" style="fill:none;stroke:#ff7f0e;stroke-dasharray:5.55,2.4;stroke-dashoffset:0;stroke-width:1.5;"/>
   </g>
   <g id="line2d_59">
    <path clip-path="url(#p8a363e7569)" d="M 29.2 13.5 
L 34.0825 28.593455 
L 38.965 41.537653 
L 43.8475 51.166811 
L 48.73 63.033124 
L 53.6125 70.506076 
L 58.495 78.467297 
L 63.3775 89.566387 
L 68.26 93.607243 
L 73.1425 104.995349 
L 78.025 109.496138 
L 82.9075 116.187027 
L 87.79 120.17035 
L 92.6725 125.868236 
L 97.555 130.280736 
L 102.4375 129.236296 
L 107.32 133.398941 
L 112.2025 132.094208 
" style="fill:none;stroke:#1f77b4;stroke-linecap:square;stroke-width:1.5;"/>
   </g>
   <g id="line2d_60">
    <path clip-path="url(#p8a363e7569)" d="M 38.965 100.21097 
L 48.73 106.349458 
L 58.495 111.938021 
L 68.26 119.155787 
L 78.025 127.335849 
L 87.79 133.74673 
L 97.555 137.145956 
L 107.32 138.184653 
L 117.085 137.109132 
" style="fill:none;stroke:#ff7f0e;stroke-dasharray:5.55,2.4;stroke-dashoffset:0;stroke-width:1.5;"/>
   </g>
   <g id="line2d_61">
    <path clip-path="url(#p8a363e7569)" d="M 29.2 13.5 
L 34.0825 28.593455 
L 38.965 41.537653 
L 43.8475 51.166811 
L 48.73 63.033124 
L 53.6125 70.506076 
L 58.495 78.467297 
L 63.3775 89.566387 
L 68.26 93.607243 
L 73.1425 104.995349 
L 78.025 109.496138 
L 82.9075 116.187027 
L 87.79 120.17035 
L 92.6725 125.868236 
L 97.555 130.280736 
L 102.4375 129.236296 
L 107.32 133.398941 
L 112.2025 132.094208 
L 117.085 133.095445 
" style="fill:none;stroke:#1f77b4;stroke-linecap:square;stroke-width:1.5;"/>
   </g>
   <g id="line2d_62">
    <path clip-path="url(#p8a363e7569)" d="M 38.965 100.21097 
L 48.73 106.349458 
L 58.495 111.938021 
L 68.26 119.155787 
L 78.025 127.335849 
L 87.79 133.74673 
L 97.555 137.145956 
L 107.32 138.184653 
L 117.085 137.109132 
" style="fill:none;stroke:#ff7f0e;stroke-dasharray:5.55,2.4;stroke-dashoffset:0;stroke-width:1.5;"/>
   </g>
   <g id="line2d_63">
    <path clip-path="url(#p8a363e7569)" d="M 29.2 13.5 
L 34.0825 28.593455 
L 38.965 41.537653 
L 43.8475 51.166811 
L 48.73 63.033124 
L 53.6125 70.506076 
L 58.495 78.467297 
L 63.3775 89.566387 
L 68.26 93.607243 
L 73.1425 104.995349 
L 78.025 109.496138 
L 82.9075 116.187027 
L 87.79 120.17035 
L 92.6725 125.868236 
L 97.555 130.280736 
L 102.4375 129.236296 
L 107.32 133.398941 
L 112.2025 132.094208 
L 117.085 133.095445 
L 121.9675 131.112654 
" style="fill:none;stroke:#1f77b4;stroke-linecap:square;stroke-width:1.5;"/>
   </g>
   <g id="line2d_64">
    <path clip-path="url(#p8a363e7569)" d="M 38.965 100.21097 
L 48.73 106.349458 
L 58.495 111.938021 
L 68.26 119.155787 
L 78.025 127.335849 
L 87.79 133.74673 
L 97.555 137.145956 
L 107.32 138.184653 
L 117.085 137.109132 
" style="fill:none;stroke:#ff7f0e;stroke-dasharray:5.55,2.4;stroke-dashoffset:0;stroke-width:1.5;"/>
   </g>
   <g id="line2d_65">
    <path clip-path="url(#p8a363e7569)" d="M 29.2 13.5 
L 34.0825 28.593455 
L 38.965 41.537653 
L 43.8475 51.166811 
L 48.73 63.033124 
L 53.6125 70.506076 
L 58.495 78.467297 
L 63.3775 89.566387 
L 68.26 93.607243 
L 73.1425 104.995349 
L 78.025 109.496138 
L 82.9075 116.187027 
L 87.79 120.17035 
L 92.6725 125.868236 
L 97.555 130.280736 
L 102.4375 129.236296 
L 107.32 133.398941 
L 112.2025 132.094208 
L 117.085 133.095445 
L 121.9675 131.112654 
" style="fill:none;stroke:#1f77b4;stroke-linecap:square;stroke-width:1.5;"/>
   </g>
   <g id="line2d_66">
    <path clip-path="url(#p8a363e7569)" d="M 38.965 100.21097 
L 48.73 106.349458 
L 58.495 111.938021 
L 68.26 119.155787 
L 78.025 127.335849 
L 87.79 133.74673 
L 97.555 137.145956 
L 107.32 138.184653 
L 117.085 137.109132 
L 126.85 135.001858 
" style="fill:none;stroke:#ff7f0e;stroke-dasharray:5.55,2.4;stroke-dashoffset:0;stroke-width:1.5;"/>
   </g>
   <g id="line2d_67">
    <path clip-path="url(#p8a363e7569)" d="M 29.2 13.5 
L 34.0825 28.593455 
L 38.965 41.537653 
L 43.8475 51.166811 
L 48.73 63.033124 
L 53.6125 70.506076 
L 58.495 78.467297 
L 63.3775 89.566387 
L 68.26 93.607243 
L 73.1425 104.995349 
L 78.025 109.496138 
L 82.9075 116.187027 
L 87.79 120.17035 
L 92.6725 125.868236 
L 97.555 130.280736 
L 102.4375 129.236296 
L 107.32 133.398941 
L 112.2025 132.094208 
L 117.085 133.095445 
L 121.9675 131.112654 
L 126.85 131.081735 
" style="fill:none;stroke:#1f77b4;stroke-linecap:square;stroke-width:1.5;"/>
   </g>
   <g id="line2d_68">
    <path clip-path="url(#p8a363e7569)" d="M 38.965 100.21097 
L 48.73 106.349458 
L 58.495 111.938021 
L 68.26 119.155787 
L 78.025 127.335849 
L 87.79 133.74673 
L 97.555 137.145956 
L 107.32 138.184653 
L 117.085 137.109132 
L 126.85 135.001858 
" style="fill:none;stroke:#ff7f0e;stroke-dasharray:5.55,2.4;stroke-dashoffset:0;stroke-width:1.5;"/>
   </g>
   <g id="line2d_69">
    <path clip-path="url(#p8a363e7569)" d="M 29.2 13.5 
L 34.0825 28.593455 
L 38.965 41.537653 
L 43.8475 51.166811 
L 48.73 63.033124 
L 53.6125 70.506076 
L 58.495 78.467297 
L 63.3775 89.566387 
L 68.26 93.607243 
L 73.1425 104.995349 
L 78.025 109.496138 
L 82.9075 116.187027 
L 87.79 120.17035 
L 92.6725 125.868236 
L 97.555 130.280736 
L 102.4375 129.236296 
L 107.32 133.398941 
L 112.2025 132.094208 
L 117.085 133.095445 
L 121.9675 131.112654 
L 126.85 131.081735 
L 131.7325 129.741485 
" style="fill:none;stroke:#1f77b4;stroke-linecap:square;stroke-width:1.5;"/>
   </g>
   <g id="line2d_70">
    <path clip-path="url(#p8a363e7569)" d="M 38.965 100.21097 
L 48.73 106.349458 
L 58.495 111.938021 
L 68.26 119.155787 
L 78.025 127.335849 
L 87.79 133.74673 
L 97.555 137.145956 
L 107.32 138.184653 
L 117.085 137.109132 
L 126.85 135.001858 
" style="fill:none;stroke:#ff7f0e;stroke-dasharray:5.55,2.4;stroke-dashoffset:0;stroke-width:1.5;"/>
   </g>
   <g id="line2d_71">
    <path clip-path="url(#p8a363e7569)" d="M 29.2 13.5 
L 34.0825 28.593455 
L 38.965 41.537653 
L 43.8475 51.166811 
L 48.73 63.033124 
L 53.6125 70.506076 
L 58.495 78.467297 
L 63.3775 89.566387 
L 68.26 93.607243 
L 73.1425 104.995349 
L 78.025 109.496138 
L 82.9075 116.187027 
L 87.79 120.17035 
L 92.6725 125.868236 
L 97.555 130.280736 
L 102.4375 129.236296 
L 107.32 133.398941 
L 112.2025 132.094208 
L 117.085 133.095445 
L 121.9675 131.112654 
L 126.85 131.081735 
L 131.7325 129.741485 
" style="fill:none;stroke:#1f77b4;stroke-linecap:square;stroke-width:1.5;"/>
   </g>
   <g id="line2d_72">
    <path clip-path="url(#p8a363e7569)" d="M 38.965 100.21097 
L 48.73 106.349458 
L 58.495 111.938021 
L 68.26 119.155787 
L 78.025 127.335849 
L 87.79 133.74673 
L 97.555 137.145956 
L 107.32 138.184653 
L 117.085 137.109132 
L 126.85 135.001858 
L 136.615 134.027484 
" style="fill:none;stroke:#ff7f0e;stroke-dasharray:5.55,2.4;stroke-dashoffset:0;stroke-width:1.5;"/>
   </g>
   <g id="line2d_73">
    <path clip-path="url(#p8a363e7569)" d="M 29.2 13.5 
L 34.0825 28.593455 
L 38.965 41.537653 
L 43.8475 51.166811 
L 48.73 63.033124 
L 53.6125 70.506076 
L 58.495 78.467297 
L 63.3775 89.566387 
L 68.26 93.607243 
L 73.1425 104.995349 
L 78.025 109.496138 
L 82.9075 116.187027 
L 87.79 120.17035 
L 92.6725 125.868236 
L 97.555 130.280736 
L 102.4375 129.236296 
L 107.32 133.398941 
L 112.2025 132.094208 
L 117.085 133.095445 
L 121.9675 131.112654 
L 126.85 131.081735 
L 131.7325 129.741485 
L 136.615 130.14409 
" style="fill:none;stroke:#1f77b4;stroke-linecap:square;stroke-width:1.5;"/>
   </g>
   <g id="line2d_74">
    <path clip-path="url(#p8a363e7569)" d="M 38.965 100.21097 
L 48.73 106.349458 
L 58.495 111.938021 
L 68.26 119.155787 
L 78.025 127.335849 
L 87.79 133.74673 
L 97.555 137.145956 
L 107.32 138.184653 
L 117.085 137.109132 
L 126.85 135.001858 
L 136.615 134.027484 
" style="fill:none;stroke:#ff7f0e;stroke-dasharray:5.55,2.4;stroke-dashoffset:0;stroke-width:1.5;"/>
   </g>
   <g id="line2d_75">
    <path clip-path="url(#p8a363e7569)" d="M 29.2 13.5 
L 34.0825 28.593455 
L 38.965 41.537653 
L 43.8475 51.166811 
L 48.73 63.033124 
L 53.6125 70.506076 
L 58.495 78.467297 
L 63.3775 89.566387 
L 68.26 93.607243 
L 73.1425 104.995349 
L 78.025 109.496138 
L 82.9075 116.187027 
L 87.79 120.17035 
L 92.6725 125.868236 
L 97.555 130.280736 
L 102.4375 129.236296 
L 107.32 133.398941 
L 112.2025 132.094208 
L 117.085 133.095445 
L 121.9675 131.112654 
L 126.85 131.081735 
L 131.7325 129.741485 
L 136.615 130.14409 
L 141.4975 129.454565 
" style="fill:none;stroke:#1f77b4;stroke-linecap:square;stroke-width:1.5;"/>
   </g>
   <g id="line2d_76">
    <path clip-path="url(#p8a363e7569)" d="M 38.965 100.21097 
L 48.73 106.349458 
L 58.495 111.938021 
L 68.26 119.155787 
L 78.025 127.335849 
L 87.79 133.74673 
L 97.555 137.145956 
L 107.32 138.184653 
L 117.085 137.109132 
L 126.85 135.001858 
L 136.615 134.027484 
" style="fill:none;stroke:#ff7f0e;stroke-dasharray:5.55,2.4;stroke-dashoffset:0;stroke-width:1.5;"/>
   </g>
   <g id="line2d_77">
    <path clip-path="url(#p8a363e7569)" d="M 29.2 13.5 
L 34.0825 28.593455 
L 38.965 41.537653 
L 43.8475 51.166811 
L 48.73 63.033124 
L 53.6125 70.506076 
L 58.495 78.467297 
L 63.3775 89.566387 
L 68.26 93.607243 
L 73.1425 104.995349 
L 78.025 109.496138 
L 82.9075 116.187027 
L 87.79 120.17035 
L 92.6725 125.868236 
L 97.555 130.280736 
L 102.4375 129.236296 
L 107.32 133.398941 
L 112.2025 132.094208 
L 117.085 133.095445 
L 121.9675 131.112654 
L 126.85 131.081735 
L 131.7325 129.741485 
L 136.615 130.14409 
L 141.4975 129.454565 
" style="fill:none;stroke:#1f77b4;stroke-linecap:square;stroke-width:1.5;"/>
   </g>
   <g id="line2d_78">
    <path clip-path="url(#p8a363e7569)" d="M 38.965 100.21097 
L 48.73 106.349458 
L 58.495 111.938021 
L 68.26 119.155787 
L 78.025 127.335849 
L 87.79 133.74673 
L 97.555 137.145956 
L 107.32 138.184653 
L 117.085 137.109132 
L 126.85 135.001858 
L 136.615 134.027484 
L 146.38 134.337159 
" style="fill:none;stroke:#ff7f0e;stroke-dasharray:5.55,2.4;stroke-dashoffset:0;stroke-width:1.5;"/>
   </g>
   <g id="line2d_79">
    <path clip-path="url(#p8a363e7569)" d="M 29.2 13.5 
L 34.0825 28.593455 
L 38.965 41.537653 
L 43.8475 51.166811 
L 48.73 63.033124 
L 53.6125 70.506076 
L 58.495 78.467297 
L 63.3775 89.566387 
L 68.26 93.607243 
L 73.1425 104.995349 
L 78.025 109.496138 
L 82.9075 116.187027 
L 87.79 120.17035 
L 92.6725 125.868236 
L 97.555 130.280736 
L 102.4375 129.236296 
L 107.32 133.398941 
L 112.2025 132.094208 
L 117.085 133.095445 
L 121.9675 131.112654 
L 126.85 131.081735 
L 131.7325 129.741485 
L 136.615 130.14409 
L 141.4975 129.454565 
L 146.38 130.042369 
" style="fill:none;stroke:#1f77b4;stroke-linecap:square;stroke-width:1.5;"/>
   </g>
   <g id="line2d_80">
    <path clip-path="url(#p8a363e7569)" d="M 38.965 100.21097 
L 48.73 106.349458 
L 58.495 111.938021 
L 68.26 119.155787 
L 78.025 127.335849 
L 87.79 133.74673 
L 97.555 137.145956 
L 107.32 138.184653 
L 117.085 137.109132 
L 126.85 135.001858 
L 136.615 134.027484 
L 146.38 134.337159 
" style="fill:none;stroke:#ff7f0e;stroke-dasharray:5.55,2.4;stroke-dashoffset:0;stroke-width:1.5;"/>
   </g>
   <g id="line2d_81">
    <path clip-path="url(#p8a363e7569)" d="M 29.2 13.5 
L 34.0825 28.593455 
L 38.965 41.537653 
L 43.8475 51.166811 
L 48.73 63.033124 
L 53.6125 70.506076 
L 58.495 78.467297 
L 63.3775 89.566387 
L 68.26 93.607243 
L 73.1425 104.995349 
L 78.025 109.496138 
L 82.9075 116.187027 
L 87.79 120.17035 
L 92.6725 125.868236 
L 97.555 130.280736 
L 102.4375 129.236296 
L 107.32 133.398941 
L 112.2025 132.094208 
L 117.085 133.095445 
L 121.9675 131.112654 
L 126.85 131.081735 
L 131.7325 129.741485 
L 136.615 130.14409 
L 141.4975 129.454565 
L 146.38 130.042369 
L 151.2625 131.710587 
" style="fill:none;stroke:#1f77b4;stroke-linecap:square;stroke-width:1.5;"/>
   </g>
   <g id="line2d_82">
    <path clip-path="url(#p8a363e7569)" d="M 38.965 100.21097 
L 48.73 106.349458 
L 58.495 111.938021 
L 68.26 119.155787 
L 78.025 127.335849 
L 87.79 133.74673 
L 97.555 137.145956 
L 107.32 138.184653 
L 117.085 137.109132 
L 126.85 135.001858 
L 136.615 134.027484 
L 146.38 134.337159 
" style="fill:none;stroke:#ff7f0e;stroke-dasharray:5.55,2.4;stroke-dashoffset:0;stroke-width:1.5;"/>
   </g>
   <g id="line2d_83">
    <path clip-path="url(#p8a363e7569)" d="M 29.2 13.5 
L 34.0825 28.593455 
L 38.965 41.537653 
L 43.8475 51.166811 
L 48.73 63.033124 
L 53.6125 70.506076 
L 58.495 78.467297 
L 63.3775 89.566387 
L 68.26 93.607243 
L 73.1425 104.995349 
L 78.025 109.496138 
L 82.9075 116.187027 
L 87.79 120.17035 
L 92.6725 125.868236 
L 97.555 130.280736 
L 102.4375 129.236296 
L 107.32 133.398941 
L 112.2025 132.094208 
L 117.085 133.095445 
L 121.9675 131.112654 
L 126.85 131.081735 
L 131.7325 129.741485 
L 136.615 130.14409 
L 141.4975 129.454565 
L 146.38 130.042369 
L 151.2625 131.710587 
" style="fill:none;stroke:#1f77b4;stroke-linecap:square;stroke-width:1.5;"/>
   </g>
   <g id="line2d_84">
    <path clip-path="url(#p8a363e7569)" d="M 38.965 100.21097 
L 48.73 106.349458 
L 58.495 111.938021 
L 68.26 119.155787 
L 78.025 127.335849 
L 87.79 133.74673 
L 97.555 137.145956 
L 107.32 138.184653 
L 117.085 137.109132 
L 126.85 135.001858 
L 136.615 134.027484 
L 146.38 134.337159 
L 156.145 135.680305 
" style="fill:none;stroke:#ff7f0e;stroke-dasharray:5.55,2.4;stroke-dashoffset:0;stroke-width:1.5;"/>
   </g>
   <g id="line2d_85">
    <path clip-path="url(#p8a363e7569)" d="M 29.2 13.5 
L 34.0825 28.593455 
L 38.965 41.537653 
L 43.8475 51.166811 
L 48.73 63.033124 
L 53.6125 70.506076 
L 58.495 78.467297 
L 63.3775 89.566387 
L 68.26 93.607243 
L 73.1425 104.995349 
L 78.025 109.496138 
L 82.9075 116.187027 
L 87.79 120.17035 
L 92.6725 125.868236 
L 97.555 130.280736 
L 102.4375 129.236296 
L 107.32 133.398941 
L 112.2025 132.094208 
L 117.085 133.095445 
L 121.9675 131.112654 
L 126.85 131.081735 
L 131.7325 129.741485 
L 136.615 130.14409 
L 141.4975 129.454565 
L 146.38 130.042369 
L 151.2625 131.710587 
L 156.145 132.54963 
" style="fill:none;stroke:#1f77b4;stroke-linecap:square;stroke-width:1.5;"/>
   </g>
   <g id="line2d_86">
    <path clip-path="url(#p8a363e7569)" d="M 38.965 100.21097 
L 48.73 106.349458 
L 58.495 111.938021 
L 68.26 119.155787 
L 78.025 127.335849 
L 87.79 133.74673 
L 97.555 137.145956 
L 107.32 138.184653 
L 117.085 137.109132 
L 126.85 135.001858 
L 136.615 134.027484 
L 146.38 134.337159 
L 156.145 135.680305 
" style="fill:none;stroke:#ff7f0e;stroke-dasharray:5.55,2.4;stroke-dashoffset:0;stroke-width:1.5;"/>
   </g>
   <g id="line2d_87">
    <path clip-path="url(#p8a363e7569)" d="M 29.2 13.5 
L 34.0825 28.593455 
L 38.965 41.537653 
L 43.8475 51.166811 
L 48.73 63.033124 
L 53.6125 70.506076 
L 58.495 78.467297 
L 63.3775 89.566387 
L 68.26 93.607243 
L 73.1425 104.995349 
L 78.025 109.496138 
L 82.9075 116.187027 
L 87.79 120.17035 
L 92.6725 125.868236 
L 97.555 130.280736 
L 102.4375 129.236296 
L 107.32 133.398941 
L 112.2025 132.094208 
L 117.085 133.095445 
L 121.9675 131.112654 
L 126.85 131.081735 
L 131.7325 129.741485 
L 136.615 130.14409 
L 141.4975 129.454565 
L 146.38 130.042369 
L 151.2625 131.710587 
L 156.145 132.54963 
L 161.0275 133.116887 
" style="fill:none;stroke:#1f77b4;stroke-linecap:square;stroke-width:1.5;"/>
   </g>
   <g id="line2d_88">
    <path clip-path="url(#p8a363e7569)" d="M 38.965 100.21097 
L 48.73 106.349458 
L 58.495 111.938021 
L 68.26 119.155787 
L 78.025 127.335849 
L 87.79 133.74673 
L 97.555 137.145956 
L 107.32 138.184653 
L 117.085 137.109132 
L 126.85 135.001858 
L 136.615 134.027484 
L 146.38 134.337159 
L 156.145 135.680305 
" style="fill:none;stroke:#ff7f0e;stroke-dasharray:5.55,2.4;stroke-dashoffset:0;stroke-width:1.5;"/>
   </g>
   <g id="line2d_89">
    <path clip-path="url(#p8a363e7569)" d="M 29.2 13.5 
L 34.0825 28.593455 
L 38.965 41.537653 
L 43.8475 51.166811 
L 48.73 63.033124 
L 53.6125 70.506076 
L 58.495 78.467297 
L 63.3775 89.566387 
L 68.26 93.607243 
L 73.1425 104.995349 
L 78.025 109.496138 
L 82.9075 116.187027 
L 87.79 120.17035 
L 92.6725 125.868236 
L 97.555 130.280736 
L 102.4375 129.236296 
L 107.32 133.398941 
L 112.2025 132.094208 
L 117.085 133.095445 
L 121.9675 131.112654 
L 126.85 131.081735 
L 131.7325 129.741485 
L 136.615 130.14409 
L 141.4975 129.454565 
L 146.38 130.042369 
L 151.2625 131.710587 
L 156.145 132.54963 
L 161.0275 133.116887 
" style="fill:none;stroke:#1f77b4;stroke-linecap:square;stroke-width:1.5;"/>
   </g>
   <g id="line2d_90">
    <path clip-path="url(#p8a363e7569)" d="M 38.965 100.21097 
L 48.73 106.349458 
L 58.495 111.938021 
L 68.26 119.155787 
L 78.025 127.335849 
L 87.79 133.74673 
L 97.555 137.145956 
L 107.32 138.184653 
L 117.085 137.109132 
L 126.85 135.001858 
L 136.615 134.027484 
L 146.38 134.337159 
L 156.145 135.680305 
L 165.91 137.405768 
" style="fill:none;stroke:#ff7f0e;stroke-dasharray:5.55,2.4;stroke-dashoffset:0;stroke-width:1.5;"/>
   </g>
   <g id="line2d_91">
    <path clip-path="url(#p8a363e7569)" d="M 29.2 13.5 
L 34.0825 28.593455 
L 38.965 41.537653 
L 43.8475 51.166811 
L 48.73 63.033124 
L 53.6125 70.506076 
L 58.495 78.467297 
L 63.3775 89.566387 
L 68.26 93.607243 
L 73.1425 104.995349 
L 78.025 109.496138 
L 82.9075 116.187027 
L 87.79 120.17035 
L 92.6725 125.868236 
L 97.555 130.280736 
L 102.4375 129.236296 
L 107.32 133.398941 
L 112.2025 132.094208 
L 117.085 133.095445 
L 121.9675 131.112654 
L 126.85 131.081735 
L 131.7325 129.741485 
L 136.615 130.14409 
L 141.4975 129.454565 
L 146.38 130.042369 
L 151.2625 131.710587 
L 156.145 132.54963 
L 161.0275 133.116887 
L 165.91 134.618627 
" style="fill:none;stroke:#1f77b4;stroke-linecap:square;stroke-width:1.5;"/>
   </g>
   <g id="line2d_92">
    <path clip-path="url(#p8a363e7569)" d="M 38.965 100.21097 
L 48.73 106.349458 
L 58.495 111.938021 
L 68.26 119.155787 
L 78.025 127.335849 
L 87.79 133.74673 
L 97.555 137.145956 
L 107.32 138.184653 
L 117.085 137.109132 
L 126.85 135.001858 
L 136.615 134.027484 
L 146.38 134.337159 
L 156.145 135.680305 
L 165.91 137.405768 
" style="fill:none;stroke:#ff7f0e;stroke-dasharray:5.55,2.4;stroke-dashoffset:0;stroke-width:1.5;"/>
   </g>
   <g id="line2d_93">
    <path clip-path="url(#p8a363e7569)" d="M 29.2 13.5 
L 34.0825 28.593455 
L 38.965 41.537653 
L 43.8475 51.166811 
L 48.73 63.033124 
L 53.6125 70.506076 
L 58.495 78.467297 
L 63.3775 89.566387 
L 68.26 93.607243 
L 73.1425 104.995349 
L 78.025 109.496138 
L 82.9075 116.187027 
L 87.79 120.17035 
L 92.6725 125.868236 
L 97.555 130.280736 
L 102.4375 129.236296 
L 107.32 133.398941 
L 112.2025 132.094208 
L 117.085 133.095445 
L 121.9675 131.112654 
L 126.85 131.081735 
L 131.7325 129.741485 
L 136.615 130.14409 
L 141.4975 129.454565 
L 146.38 130.042369 
L 151.2625 131.710587 
L 156.145 132.54963 
L 161.0275 133.116887 
L 165.91 134.618627 
L 170.7925 135.069658 
" style="fill:none;stroke:#1f77b4;stroke-linecap:square;stroke-width:1.5;"/>
   </g>
   <g id="line2d_94">
    <path clip-path="url(#p8a363e7569)" d="M 38.965 100.21097 
L 48.73 106.349458 
L 58.495 111.938021 
L 68.26 119.155787 
L 78.025 127.335849 
L 87.79 133.74673 
L 97.555 137.145956 
L 107.32 138.184653 
L 117.085 137.109132 
L 126.85 135.001858 
L 136.615 134.027484 
L 146.38 134.337159 
L 156.145 135.680305 
L 165.91 137.405768 
" style="fill:none;stroke:#ff7f0e;stroke-dasharray:5.55,2.4;stroke-dashoffset:0;stroke-width:1.5;"/>
   </g>
   <g id="line2d_95">
    <path clip-path="url(#p8a363e7569)" d="M 29.2 13.5 
L 34.0825 28.593455 
L 38.965 41.537653 
L 43.8475 51.166811 
L 48.73 63.033124 
L 53.6125 70.506076 
L 58.495 78.467297 
L 63.3775 89.566387 
L 68.26 93.607243 
L 73.1425 104.995349 
L 78.025 109.496138 
L 82.9075 116.187027 
L 87.79 120.17035 
L 92.6725 125.868236 
L 97.555 130.280736 
L 102.4375 129.236296 
L 107.32 133.398941 
L 112.2025 132.094208 
L 117.085 133.095445 
L 121.9675 131.112654 
L 126.85 131.081735 
L 131.7325 129.741485 
L 136.615 130.14409 
L 141.4975 129.454565 
L 146.38 130.042369 
L 151.2625 131.710587 
L 156.145 132.54963 
L 161.0275 133.116887 
L 165.91 134.618627 
L 170.7925 135.069658 
" style="fill:none;stroke:#1f77b4;stroke-linecap:square;stroke-width:1.5;"/>
   </g>
   <g id="line2d_96">
    <path clip-path="url(#p8a363e7569)" d="M 38.965 100.21097 
L 48.73 106.349458 
L 58.495 111.938021 
L 68.26 119.155787 
L 78.025 127.335849 
L 87.79 133.74673 
L 97.555 137.145956 
L 107.32 138.184653 
L 117.085 137.109132 
L 126.85 135.001858 
L 136.615 134.027484 
L 146.38 134.337159 
L 156.145 135.680305 
L 165.91 137.405768 
L 175.675 138.597235 
" style="fill:none;stroke:#ff7f0e;stroke-dasharray:5.55,2.4;stroke-dashoffset:0;stroke-width:1.5;"/>
   </g>
   <g id="line2d_97">
    <path clip-path="url(#p8a363e7569)" d="M 29.2 13.5 
L 34.0825 28.593455 
L 38.965 41.537653 
L 43.8475 51.166811 
L 48.73 63.033124 
L 53.6125 70.506076 
L 58.495 78.467297 
L 63.3775 89.566387 
L 68.26 93.607243 
L 73.1425 104.995349 
L 78.025 109.496138 
L 82.9075 116.187027 
L 87.79 120.17035 
L 92.6725 125.868236 
L 97.555 130.280736 
L 102.4375 129.236296 
L 107.32 133.398941 
L 112.2025 132.094208 
L 117.085 133.095445 
L 121.9675 131.112654 
L 126.85 131.081735 
L 131.7325 129.741485 
L 136.615 130.14409 
L 141.4975 129.454565 
L 146.38 130.042369 
L 151.2625 131.710587 
L 156.145 132.54963 
L 161.0275 133.116887 
L 165.91 134.618627 
L 170.7925 135.069658 
L 175.675 135.477592 
" style="fill:none;stroke:#1f77b4;stroke-linecap:square;stroke-width:1.5;"/>
   </g>
   <g id="line2d_98">
    <path clip-path="url(#p8a363e7569)" d="M 38.965 100.21097 
L 48.73 106.349458 
L 58.495 111.938021 
L 68.26 119.155787 
L 78.025 127.335849 
L 87.79 133.74673 
L 97.555 137.145956 
L 107.32 138.184653 
L 117.085 137.109132 
L 126.85 135.001858 
L 136.615 134.027484 
L 146.38 134.337159 
L 156.145 135.680305 
L 165.91 137.405768 
L 175.675 138.597235 
" style="fill:none;stroke:#ff7f0e;stroke-dasharray:5.55,2.4;stroke-dashoffset:0;stroke-width:1.5;"/>
   </g>
   <g id="line2d_99">
    <path clip-path="url(#p8a363e7569)" d="M 29.2 13.5 
L 34.0825 28.593455 
L 38.965 41.537653 
L 43.8475 51.166811 
L 48.73 63.033124 
L 53.6125 70.506076 
L 58.495 78.467297 
L 63.3775 89.566387 
L 68.26 93.607243 
L 73.1425 104.995349 
L 78.025 109.496138 
L 82.9075 116.187027 
L 87.79 120.17035 
L 92.6725 125.868236 
L 97.555 130.280736 
L 102.4375 129.236296 
L 107.32 133.398941 
L 112.2025 132.094208 
L 117.085 133.095445 
L 121.9675 131.112654 
L 126.85 131.081735 
L 131.7325 129.741485 
L 136.615 130.14409 
L 141.4975 129.454565 
L 146.38 130.042369 
L 151.2625 131.710587 
L 156.145 132.54963 
L 161.0275 133.116887 
L 165.91 134.618627 
L 170.7925 135.069658 
L 175.675 135.477592 
L 180.5575 136.317436 
" style="fill:none;stroke:#1f77b4;stroke-linecap:square;stroke-width:1.5;"/>
   </g>
   <g id="line2d_100">
    <path clip-path="url(#p8a363e7569)" d="M 38.965 100.21097 
L 48.73 106.349458 
L 58.495 111.938021 
L 68.26 119.155787 
L 78.025 127.335849 
L 87.79 133.74673 
L 97.555 137.145956 
L 107.32 138.184653 
L 117.085 137.109132 
L 126.85 135.001858 
L 136.615 134.027484 
L 146.38 134.337159 
L 156.145 135.680305 
L 165.91 137.405768 
L 175.675 138.597235 
" style="fill:none;stroke:#ff7f0e;stroke-dasharray:5.55,2.4;stroke-dashoffset:0;stroke-width:1.5;"/>
   </g>
   <g id="line2d_101">
    <path clip-path="url(#p8a363e7569)" d="M 29.2 13.5 
L 34.0825 28.593455 
L 38.965 41.537653 
L 43.8475 51.166811 
L 48.73 63.033124 
L 53.6125 70.506076 
L 58.495 78.467297 
L 63.3775 89.566387 
L 68.26 93.607243 
L 73.1425 104.995349 
L 78.025 109.496138 
L 82.9075 116.187027 
L 87.79 120.17035 
L 92.6725 125.868236 
L 97.555 130.280736 
L 102.4375 129.236296 
L 107.32 133.398941 
L 112.2025 132.094208 
L 117.085 133.095445 
L 121.9675 131.112654 
L 126.85 131.081735 
L 131.7325 129.741485 
L 136.615 130.14409 
L 141.4975 129.454565 
L 146.38 130.042369 
L 151.2625 131.710587 
L 156.145 132.54963 
L 161.0275 133.116887 
L 165.91 134.618627 
L 170.7925 135.069658 
L 175.675 135.477592 
L 180.5575 136.317436 
" style="fill:none;stroke:#1f77b4;stroke-linecap:square;stroke-width:1.5;"/>
   </g>
   <g id="line2d_102">
    <path clip-path="url(#p8a363e7569)" d="M 38.965 100.21097 
L 48.73 106.349458 
L 58.495 111.938021 
L 68.26 119.155787 
L 78.025 127.335849 
L 87.79 133.74673 
L 97.555 137.145956 
L 107.32 138.184653 
L 117.085 137.109132 
L 126.85 135.001858 
L 136.615 134.027484 
L 146.38 134.337159 
L 156.145 135.680305 
L 165.91 137.405768 
L 175.675 138.597235 
L 185.44 139.0689 
" style="fill:none;stroke:#ff7f0e;stroke-dasharray:5.55,2.4;stroke-dashoffset:0;stroke-width:1.5;"/>
   </g>
   <g id="line2d_103">
    <path clip-path="url(#p8a363e7569)" d="M 29.2 13.5 
L 34.0825 28.593455 
L 38.965 41.537653 
L 43.8475 51.166811 
L 48.73 63.033124 
L 53.6125 70.506076 
L 58.495 78.467297 
L 63.3775 89.566387 
L 68.26 93.607243 
L 73.1425 104.995349 
L 78.025 109.496138 
L 82.9075 116.187027 
L 87.79 120.17035 
L 92.6725 125.868236 
L 97.555 130.280736 
L 102.4375 129.236296 
L 107.32 133.398941 
L 112.2025 132.094208 
L 117.085 133.095445 
L 121.9675 131.112654 
L 126.85 131.081735 
L 131.7325 129.741485 
L 136.615 130.14409 
L 141.4975 129.454565 
L 146.38 130.042369 
L 151.2625 131.710587 
L 156.145 132.54963 
L 161.0275 133.116887 
L 165.91 134.618627 
L 170.7925 135.069658 
L 175.675 135.477592 
L 180.5575 136.317436 
L 185.44 135.501838 
" style="fill:none;stroke:#1f77b4;stroke-linecap:square;stroke-width:1.5;"/>
   </g>
   <g id="line2d_104">
    <path clip-path="url(#p8a363e7569)" d="M 38.965 100.21097 
L 48.73 106.349458 
L 58.495 111.938021 
L 68.26 119.155787 
L 78.025 127.335849 
L 87.79 133.74673 
L 97.555 137.145956 
L 107.32 138.184653 
L 117.085 137.109132 
L 126.85 135.001858 
L 136.615 134.027484 
L 146.38 134.337159 
L 156.145 135.680305 
L 165.91 137.405768 
L 175.675 138.597235 
L 185.44 139.0689 
" style="fill:none;stroke:#ff7f0e;stroke-dasharray:5.55,2.4;stroke-dashoffset:0;stroke-width:1.5;"/>
   </g>
   <g id="line2d_105">
    <path clip-path="url(#p8a363e7569)" d="M 29.2 13.5 
L 34.0825 28.593455 
L 38.965 41.537653 
L 43.8475 51.166811 
L 48.73 63.033124 
L 53.6125 70.506076 
L 58.495 78.467297 
L 63.3775 89.566387 
L 68.26 93.607243 
L 73.1425 104.995349 
L 78.025 109.496138 
L 82.9075 116.187027 
L 87.79 120.17035 
L 92.6725 125.868236 
L 97.555 130.280736 
L 102.4375 129.236296 
L 107.32 133.398941 
L 112.2025 132.094208 
L 117.085 133.095445 
L 121.9675 131.112654 
L 126.85 131.081735 
L 131.7325 129.741485 
L 136.615 130.14409 
L 141.4975 129.454565 
L 146.38 130.042369 
L 151.2625 131.710587 
L 156.145 132.54963 
L 161.0275 133.116887 
L 165.91 134.618627 
L 170.7925 135.069658 
L 175.675 135.477592 
L 180.5575 136.317436 
L 185.44 135.501838 
L 190.3225 136.805945 
" style="fill:none;stroke:#1f77b4;stroke-linecap:square;stroke-width:1.5;"/>
   </g>
   <g id="line2d_106">
    <path clip-path="url(#p8a363e7569)" d="M 38.965 100.21097 
L 48.73 106.349458 
L 58.495 111.938021 
L 68.26 119.155787 
L 78.025 127.335849 
L 87.79 133.74673 
L 97.555 137.145956 
L 107.32 138.184653 
L 117.085 137.109132 
L 126.85 135.001858 
L 136.615 134.027484 
L 146.38 134.337159 
L 156.145 135.680305 
L 165.91 137.405768 
L 175.675 138.597235 
L 185.44 139.0689 
" style="fill:none;stroke:#ff7f0e;stroke-dasharray:5.55,2.4;stroke-dashoffset:0;stroke-width:1.5;"/>
   </g>
   <g id="line2d_107">
    <path clip-path="url(#p8a363e7569)" d="M 29.2 13.5 
L 34.0825 28.593455 
L 38.965 41.537653 
L 43.8475 51.166811 
L 48.73 63.033124 
L 53.6125 70.506076 
L 58.495 78.467297 
L 63.3775 89.566387 
L 68.26 93.607243 
L 73.1425 104.995349 
L 78.025 109.496138 
L 82.9075 116.187027 
L 87.79 120.17035 
L 92.6725 125.868236 
L 97.555 130.280736 
L 102.4375 129.236296 
L 107.32 133.398941 
L 112.2025 132.094208 
L 117.085 133.095445 
L 121.9675 131.112654 
L 126.85 131.081735 
L 131.7325 129.741485 
L 136.615 130.14409 
L 141.4975 129.454565 
L 146.38 130.042369 
L 151.2625 131.710587 
L 156.145 132.54963 
L 161.0275 133.116887 
L 165.91 134.618627 
L 170.7925 135.069658 
L 175.675 135.477592 
L 180.5575 136.317436 
L 185.44 135.501838 
L 190.3225 136.805945 
" style="fill:none;stroke:#1f77b4;stroke-linecap:square;stroke-width:1.5;"/>
   </g>
   <g id="line2d_108">
    <path clip-path="url(#p8a363e7569)" d="M 38.965 100.21097 
L 48.73 106.349458 
L 58.495 111.938021 
L 68.26 119.155787 
L 78.025 127.335849 
L 87.79 133.74673 
L 97.555 137.145956 
L 107.32 138.184653 
L 117.085 137.109132 
L 126.85 135.001858 
L 136.615 134.027484 
L 146.38 134.337159 
L 156.145 135.680305 
L 165.91 137.405768 
L 175.675 138.597235 
L 185.44 139.0689 
L 195.205 139.216922 
" style="fill:none;stroke:#ff7f0e;stroke-dasharray:5.55,2.4;stroke-dashoffset:0;stroke-width:1.5;"/>
   </g>
   <g id="line2d_109">
    <path clip-path="url(#p8a363e7569)" d="M 29.2 13.5 
L 34.0825 28.593455 
L 38.965 41.537653 
L 43.8475 51.166811 
L 48.73 63.033124 
L 53.6125 70.506076 
L 58.495 78.467297 
L 63.3775 89.566387 
L 68.26 93.607243 
L 73.1425 104.995349 
L 78.025 109.496138 
L 82.9075 116.187027 
L 87.79 120.17035 
L 92.6725 125.868236 
L 97.555 130.280736 
L 102.4375 129.236296 
L 107.32 133.398941 
L 112.2025 132.094208 
L 117.085 133.095445 
L 121.9675 131.112654 
L 126.85 131.081735 
L 131.7325 129.741485 
L 136.615 130.14409 
L 141.4975 129.454565 
L 146.38 130.042369 
L 151.2625 131.710587 
L 156.145 132.54963 
L 161.0275 133.116887 
L 165.91 134.618627 
L 170.7925 135.069658 
L 175.675 135.477592 
L 180.5575 136.317436 
L 185.44 135.501838 
L 190.3225 136.805945 
L 195.205 136.032613 
" style="fill:none;stroke:#1f77b4;stroke-linecap:square;stroke-width:1.5;"/>
   </g>
   <g id="line2d_110">
    <path clip-path="url(#p8a363e7569)" d="M 38.965 100.21097 
L 48.73 106.349458 
L 58.495 111.938021 
L 68.26 119.155787 
L 78.025 127.335849 
L 87.79 133.74673 
L 97.555 137.145956 
L 107.32 138.184653 
L 117.085 137.109132 
L 126.85 135.001858 
L 136.615 134.027484 
L 146.38 134.337159 
L 156.145 135.680305 
L 165.91 137.405768 
L 175.675 138.597235 
L 185.44 139.0689 
L 195.205 139.216922 
" style="fill:none;stroke:#ff7f0e;stroke-dasharray:5.55,2.4;stroke-dashoffset:0;stroke-width:1.5;"/>
   </g>
   <g id="line2d_111">
    <path clip-path="url(#p8a363e7569)" d="M 29.2 13.5 
L 34.0825 28.593455 
L 38.965 41.537653 
L 43.8475 51.166811 
L 48.73 63.033124 
L 53.6125 70.506076 
L 58.495 78.467297 
L 63.3775 89.566387 
L 68.26 93.607243 
L 73.1425 104.995349 
L 78.025 109.496138 
L 82.9075 116.187027 
L 87.79 120.17035 
L 92.6725 125.868236 
L 97.555 130.280736 
L 102.4375 129.236296 
L 107.32 133.398941 
L 112.2025 132.094208 
L 117.085 133.095445 
L 121.9675 131.112654 
L 126.85 131.081735 
L 131.7325 129.741485 
L 136.615 130.14409 
L 141.4975 129.454565 
L 146.38 130.042369 
L 151.2625 131.710587 
L 156.145 132.54963 
L 161.0275 133.116887 
L 165.91 134.618627 
L 170.7925 135.069658 
L 175.675 135.477592 
L 180.5575 136.317436 
L 185.44 135.501838 
L 190.3225 136.805945 
L 195.205 136.032613 
L 200.0875 135.659742 
" style="fill:none;stroke:#1f77b4;stroke-linecap:square;stroke-width:1.5;"/>
   </g>
   <g id="line2d_112">
    <path clip-path="url(#p8a363e7569)" d="M 38.965 100.21097 
L 48.73 106.349458 
L 58.495 111.938021 
L 68.26 119.155787 
L 78.025 127.335849 
L 87.79 133.74673 
L 97.555 137.145956 
L 107.32 138.184653 
L 117.085 137.109132 
L 126.85 135.001858 
L 136.615 134.027484 
L 146.38 134.337159 
L 156.145 135.680305 
L 165.91 137.405768 
L 175.675 138.597235 
L 185.44 139.0689 
L 195.205 139.216922 
" style="fill:none;stroke:#ff7f0e;stroke-dasharray:5.55,2.4;stroke-dashoffset:0;stroke-width:1.5;"/>
   </g>
   <g id="line2d_113">
    <path clip-path="url(#p8a363e7569)" d="M 29.2 13.5 
L 34.0825 28.593455 
L 38.965 41.537653 
L 43.8475 51.166811 
L 48.73 63.033124 
L 53.6125 70.506076 
L 58.495 78.467297 
L 63.3775 89.566387 
L 68.26 93.607243 
L 73.1425 104.995349 
L 78.025 109.496138 
L 82.9075 116.187027 
L 87.79 120.17035 
L 92.6725 125.868236 
L 97.555 130.280736 
L 102.4375 129.236296 
L 107.32 133.398941 
L 112.2025 132.094208 
L 117.085 133.095445 
L 121.9675 131.112654 
L 126.85 131.081735 
L 131.7325 129.741485 
L 136.615 130.14409 
L 141.4975 129.454565 
L 146.38 130.042369 
L 151.2625 131.710587 
L 156.145 132.54963 
L 161.0275 133.116887 
L 165.91 134.618627 
L 170.7925 135.069658 
L 175.675 135.477592 
L 180.5575 136.317436 
L 185.44 135.501838 
L 190.3225 136.805945 
L 195.205 136.032613 
L 200.0875 135.659742 
" style="fill:none;stroke:#1f77b4;stroke-linecap:square;stroke-width:1.5;"/>
   </g>
   <g id="line2d_114">
    <path clip-path="url(#p8a363e7569)" d="M 38.965 100.21097 
L 48.73 106.349458 
L 58.495 111.938021 
L 68.26 119.155787 
L 78.025 127.335849 
L 87.79 133.74673 
L 97.555 137.145956 
L 107.32 138.184653 
L 117.085 137.109132 
L 126.85 135.001858 
L 136.615 134.027484 
L 146.38 134.337159 
L 156.145 135.680305 
L 165.91 137.405768 
L 175.675 138.597235 
L 185.44 139.0689 
L 195.205 139.216922 
L 204.97 139.282005 
" style="fill:none;stroke:#ff7f0e;stroke-dasharray:5.55,2.4;stroke-dashoffset:0;stroke-width:1.5;"/>
   </g>
   <g id="line2d_115">
    <path clip-path="url(#p8a363e7569)" d="M 29.2 13.5 
L 34.0825 28.593455 
L 38.965 41.537653 
L 43.8475 51.166811 
L 48.73 63.033124 
L 53.6125 70.506076 
L 58.495 78.467297 
L 63.3775 89.566387 
L 68.26 93.607243 
L 73.1425 104.995349 
L 78.025 109.496138 
L 82.9075 116.187027 
L 87.79 120.17035 
L 92.6725 125.868236 
L 97.555 130.280736 
L 102.4375 129.236296 
L 107.32 133.398941 
L 112.2025 132.094208 
L 117.085 133.095445 
L 121.9675 131.112654 
L 126.85 131.081735 
L 131.7325 129.741485 
L 136.615 130.14409 
L 141.4975 129.454565 
L 146.38 130.042369 
L 151.2625 131.710587 
L 156.145 132.54963 
L 161.0275 133.116887 
L 165.91 134.618627 
L 170.7925 135.069658 
L 175.675 135.477592 
L 180.5575 136.317436 
L 185.44 135.501838 
L 190.3225 136.805945 
L 195.205 136.032613 
L 200.0875 135.659742 
L 204.97 135.984383 
" style="fill:none;stroke:#1f77b4;stroke-linecap:square;stroke-width:1.5;"/>
   </g>
   <g id="line2d_116">
    <path clip-path="url(#p8a363e7569)" d="M 38.965 100.21097 
L 48.73 106.349458 
L 58.495 111.938021 
L 68.26 119.155787 
L 78.025 127.335849 
L 87.79 133.74673 
L 97.555 137.145956 
L 107.32 138.184653 
L 117.085 137.109132 
L 126.85 135.001858 
L 136.615 134.027484 
L 146.38 134.337159 
L 156.145 135.680305 
L 165.91 137.405768 
L 175.675 138.597235 
L 185.44 139.0689 
L 195.205 139.216922 
L 204.97 139.282005 
" style="fill:none;stroke:#ff7f0e;stroke-dasharray:5.55,2.4;stroke-dashoffset:0;stroke-width:1.5;"/>
   </g>
   <g id="line2d_117">
    <path clip-path="url(#p8a363e7569)" d="M 29.2 13.5 
L 34.0825 28.593455 
L 38.965 41.537653 
L 43.8475 51.166811 
L 48.73 63.033124 
L 53.6125 70.506076 
L 58.495 78.467297 
L 63.3775 89.566387 
L 68.26 93.607243 
L 73.1425 104.995349 
L 78.025 109.496138 
L 82.9075 116.187027 
L 87.79 120.17035 
L 92.6725 125.868236 
L 97.555 130.280736 
L 102.4375 129.236296 
L 107.32 133.398941 
L 112.2025 132.094208 
L 117.085 133.095445 
L 121.9675 131.112654 
L 126.85 131.081735 
L 131.7325 129.741485 
L 136.615 130.14409 
L 141.4975 129.454565 
L 146.38 130.042369 
L 151.2625 131.710587 
L 156.145 132.54963 
L 161.0275 133.116887 
L 165.91 134.618627 
L 170.7925 135.069658 
L 175.675 135.477592 
L 180.5575 136.317436 
L 185.44 135.501838 
L 190.3225 136.805945 
L 195.205 136.032613 
L 200.0875 135.659742 
L 204.97 135.984383 
L 209.8525 135.281563 
" style="fill:none;stroke:#1f77b4;stroke-linecap:square;stroke-width:1.5;"/>
   </g>
   <g id="line2d_118">
    <path clip-path="url(#p8a363e7569)" d="M 38.965 100.21097 
L 48.73 106.349458 
L 58.495 111.938021 
L 68.26 119.155787 
L 78.025 127.335849 
L 87.79 133.74673 
L 97.555 137.145956 
L 107.32 138.184653 
L 117.085 137.109132 
L 126.85 135.001858 
L 136.615 134.027484 
L 146.38 134.337159 
L 156.145 135.680305 
L 165.91 137.405768 
L 175.675 138.597235 
L 185.44 139.0689 
L 195.205 139.216922 
L 204.97 139.282005 
" style="fill:none;stroke:#ff7f0e;stroke-dasharray:5.55,2.4;stroke-dashoffset:0;stroke-width:1.5;"/>
   </g>
   <g id="line2d_119">
    <path clip-path="url(#p8a363e7569)" d="M 29.2 13.5 
L 34.0825 28.593455 
L 38.965 41.537653 
L 43.8475 51.166811 
L 48.73 63.033124 
L 53.6125 70.506076 
L 58.495 78.467297 
L 63.3775 89.566387 
L 68.26 93.607243 
L 73.1425 104.995349 
L 78.025 109.496138 
L 82.9075 116.187027 
L 87.79 120.17035 
L 92.6725 125.868236 
L 97.555 130.280736 
L 102.4375 129.236296 
L 107.32 133.398941 
L 112.2025 132.094208 
L 117.085 133.095445 
L 121.9675 131.112654 
L 126.85 131.081735 
L 131.7325 129.741485 
L 136.615 130.14409 
L 141.4975 129.454565 
L 146.38 130.042369 
L 151.2625 131.710587 
L 156.145 132.54963 
L 161.0275 133.116887 
L 165.91 134.618627 
L 170.7925 135.069658 
L 175.675 135.477592 
L 180.5575 136.317436 
L 185.44 135.501838 
L 190.3225 136.805945 
L 195.205 136.032613 
L 200.0875 135.659742 
L 204.97 135.984383 
L 209.8525 135.281563 
" style="fill:none;stroke:#1f77b4;stroke-linecap:square;stroke-width:1.5;"/>
   </g>
   <g id="line2d_120">
    <path clip-path="url(#p8a363e7569)" d="M 38.965 100.21097 
L 48.73 106.349458 
L 58.495 111.938021 
L 68.26 119.155787 
L 78.025 127.335849 
L 87.79 133.74673 
L 97.555 137.145956 
L 107.32 138.184653 
L 117.085 137.109132 
L 126.85 135.001858 
L 136.615 134.027484 
L 146.38 134.337159 
L 156.145 135.680305 
L 165.91 137.405768 
L 175.675 138.597235 
L 185.44 139.0689 
L 195.205 139.216922 
L 204.97 139.282005 
L 214.735 139.344483 
" style="fill:none;stroke:#ff7f0e;stroke-dasharray:5.55,2.4;stroke-dashoffset:0;stroke-width:1.5;"/>
   </g>
   <g id="line2d_121">
    <path clip-path="url(#p8a363e7569)" d="M 29.2 13.5 
L 34.0825 28.593455 
L 38.965 41.537653 
L 43.8475 51.166811 
L 48.73 63.033124 
L 53.6125 70.506076 
L 58.495 78.467297 
L 63.3775 89.566387 
L 68.26 93.607243 
L 73.1425 104.995349 
L 78.025 109.496138 
L 82.9075 116.187027 
L 87.79 120.17035 
L 92.6725 125.868236 
L 97.555 130.280736 
L 102.4375 129.236296 
L 107.32 133.398941 
L 112.2025 132.094208 
L 117.085 133.095445 
L 121.9675 131.112654 
L 126.85 131.081735 
L 131.7325 129.741485 
L 136.615 130.14409 
L 141.4975 129.454565 
L 146.38 130.042369 
L 151.2625 131.710587 
L 156.145 132.54963 
L 161.0275 133.116887 
L 165.91 134.618627 
L 170.7925 135.069658 
L 175.675 135.477592 
L 180.5575 136.317436 
L 185.44 135.501838 
L 190.3225 136.805945 
L 195.205 136.032613 
L 200.0875 135.659742 
L 204.97 135.984383 
L 209.8525 135.281563 
L 214.735 135.290671 
" style="fill:none;stroke:#1f77b4;stroke-linecap:square;stroke-width:1.5;"/>
   </g>
   <g id="line2d_122">
    <path clip-path="url(#p8a363e7569)" d="M 38.965 100.21097 
L 48.73 106.349458 
L 58.495 111.938021 
L 68.26 119.155787 
L 78.025 127.335849 
L 87.79 133.74673 
L 97.555 137.145956 
L 107.32 138.184653 
L 117.085 137.109132 
L 126.85 135.001858 
L 136.615 134.027484 
L 146.38 134.337159 
L 156.145 135.680305 
L 165.91 137.405768 
L 175.675 138.597235 
L 185.44 139.0689 
L 195.205 139.216922 
L 204.97 139.282005 
L 214.735 139.344483 
" style="fill:none;stroke:#ff7f0e;stroke-dasharray:5.55,2.4;stroke-dashoffset:0;stroke-width:1.5;"/>
   </g>
   <g id="line2d_123">
    <path clip-path="url(#p8a363e7569)" d="M 29.2 13.5 
L 34.0825 28.593455 
L 38.965 41.537653 
L 43.8475 51.166811 
L 48.73 63.033124 
L 53.6125 70.506076 
L 58.495 78.467297 
L 63.3775 89.566387 
L 68.26 93.607243 
L 73.1425 104.995349 
L 78.025 109.496138 
L 82.9075 116.187027 
L 87.79 120.17035 
L 92.6725 125.868236 
L 97.555 130.280736 
L 102.4375 129.236296 
L 107.32 133.398941 
L 112.2025 132.094208 
L 117.085 133.095445 
L 121.9675 131.112654 
L 126.85 131.081735 
L 131.7325 129.741485 
L 136.615 130.14409 
L 141.4975 129.454565 
L 146.38 130.042369 
L 151.2625 131.710587 
L 156.145 132.54963 
L 161.0275 133.116887 
L 165.91 134.618627 
L 170.7925 135.069658 
L 175.675 135.477592 
L 180.5575 136.317436 
L 185.44 135.501838 
L 190.3225 136.805945 
L 195.205 136.032613 
L 200.0875 135.659742 
L 204.97 135.984383 
L 209.8525 135.281563 
L 214.735 135.290671 
L 219.6175 136.242149 
" style="fill:none;stroke:#1f77b4;stroke-linecap:square;stroke-width:1.5;"/>
   </g>
   <g id="line2d_124">
    <path clip-path="url(#p8a363e7569)" d="M 38.965 100.21097 
L 48.73 106.349458 
L 58.495 111.938021 
L 68.26 119.155787 
L 78.025 127.335849 
L 87.79 133.74673 
L 97.555 137.145956 
L 107.32 138.184653 
L 117.085 137.109132 
L 126.85 135.001858 
L 136.615 134.027484 
L 146.38 134.337159 
L 156.145 135.680305 
L 165.91 137.405768 
L 175.675 138.597235 
L 185.44 139.0689 
L 195.205 139.216922 
L 204.97 139.282005 
L 214.735 139.344483 
" style="fill:none;stroke:#ff7f0e;stroke-dasharray:5.55,2.4;stroke-dashoffset:0;stroke-width:1.5;"/>
   </g>
   <g id="line2d_125">
    <path clip-path="url(#p8a363e7569)" d="M 29.2 13.5 
L 34.0825 28.593455 
L 38.965 41.537653 
L 43.8475 51.166811 
L 48.73 63.033124 
L 53.6125 70.506076 
L 58.495 78.467297 
L 63.3775 89.566387 
L 68.26 93.607243 
L 73.1425 104.995349 
L 78.025 109.496138 
L 82.9075 116.187027 
L 87.79 120.17035 
L 92.6725 125.868236 
L 97.555 130.280736 
L 102.4375 129.236296 
L 107.32 133.398941 
L 112.2025 132.094208 
L 117.085 133.095445 
L 121.9675 131.112654 
L 126.85 131.081735 
L 131.7325 129.741485 
L 136.615 130.14409 
L 141.4975 129.454565 
L 146.38 130.042369 
L 151.2625 131.710587 
L 156.145 132.54963 
L 161.0275 133.116887 
L 165.91 134.618627 
L 170.7925 135.069658 
L 175.675 135.477592 
L 180.5575 136.317436 
L 185.44 135.501838 
L 190.3225 136.805945 
L 195.205 136.032613 
L 200.0875 135.659742 
L 204.97 135.984383 
L 209.8525 135.281563 
L 214.735 135.290671 
L 219.6175 136.242149 
" style="fill:none;stroke:#1f77b4;stroke-linecap:square;stroke-width:1.5;"/>
   </g>
   <g id="line2d_126">
    <path clip-path="url(#p8a363e7569)" d="M 38.965 100.21097 
L 48.73 106.349458 
L 58.495 111.938021 
L 68.26 119.155787 
L 78.025 127.335849 
L 87.79 133.74673 
L 97.555 137.145956 
L 107.32 138.184653 
L 117.085 137.109132 
L 126.85 135.001858 
L 136.615 134.027484 
L 146.38 134.337159 
L 156.145 135.680305 
L 165.91 137.405768 
L 175.675 138.597235 
L 185.44 139.0689 
L 195.205 139.216922 
L 204.97 139.282005 
L 214.735 139.344483 
L 224.5 139.5 
" style="fill:none;stroke:#ff7f0e;stroke-dasharray:5.55,2.4;stroke-dashoffset:0;stroke-width:1.5;"/>
   </g>
   <g id="patch_3">
    <path d="M 29.2 145.8 
L 29.2 7.2 
" style="fill:none;stroke:#000000;stroke-linecap:square;stroke-linejoin:miter;stroke-width:0.8;"/>
   </g>
   <g id="patch_4">
    <path d="M 224.5 145.8 
L 224.5 7.2 
" style="fill:none;stroke:#000000;stroke-linecap:square;stroke-linejoin:miter;stroke-width:0.8;"/>
   </g>
   <g id="patch_5">
    <path d="M 29.2 145.8 
L 224.5 145.8 
" style="fill:none;stroke:#000000;stroke-linecap:square;stroke-linejoin:miter;stroke-width:0.8;"/>
   </g>
   <g id="patch_6">
    <path d="M 29.2 7.2 
L 224.5 7.2 
" style="fill:none;stroke:#000000;stroke-linecap:square;stroke-linejoin:miter;stroke-width:0.8;"/>
   </g>
   <g id="legend_1">
    <g id="patch_7">
     <path d="M 135.5 41.85625 
L 217.5 41.85625 
Q 219.5 41.85625 219.5 39.85625 
L 219.5 14.2 
Q 219.5 12.2 217.5 12.2 
L 135.5 12.2 
Q 133.5 12.2 133.5 14.2 
L 133.5 39.85625 
Q 133.5 41.85625 135.5 41.85625 
z
" style="fill:#ffffff;opacity:0.8;stroke:#cccccc;stroke-linejoin:miter;"/>
    </g>
    <g id="line2d_127">
     <path d="M 137.5 19.7 
L 157.5 19.7 
" style="fill:none;stroke:#1f77b4;stroke-linecap:square;stroke-width:1.5;"/>
    </g>
    <g id="line2d_128"/>
    <g id="text_10">
     <!-- train_loss -->
     <g transform="translate(165.5 23.2)scale(0.1 -0.1)">
      <defs>
       <path d="M 2750 200 
Q 2625 150 2462 112 
Q 2300 75 2025 75 
Q 1575 75 1300 325 
Q 1025 575 1025 1025 
L 1025 2525 
L 175 2525 
L 175 2925 
L 1025 2925 
L 1025 3900 
L 1525 3900 
L 1525 2925 
L 2550 2925 
L 2550 2525 
L 1525 2525 
L 1525 1000 
Q 1525 800 1625 662 
Q 1725 525 2000 525 
Q 2275 525 2450 575 
Q 2625 625 2750 700 
L 2750 200 
z
" id="SimHei-74" transform="scale(0.015625)"/>
       <path d="M 2500 2425 
Q 2025 2500 1700 2287 
Q 1375 2075 1150 1550 
L 1150 125 
L 650 125 
L 650 2925 
L 1150 2925 
L 1150 2200 
Q 1375 2600 1712 2787 
Q 2050 2975 2500 2975 
L 2500 2425 
z
" id="SimHei-72" transform="scale(0.015625)"/>
       <path d="M 2875 125 
L 2275 125 
Q 2225 175 2200 262 
Q 2175 350 2175 475 
Q 2000 275 1750 175 
Q 1500 75 1225 75 
Q 825 75 550 275 
Q 275 475 275 850 
Q 275 1225 525 1450 
Q 775 1675 1300 1750 
Q 1650 1800 1912 1875 
Q 2175 1950 2175 2075 
Q 2175 2225 2062 2375 
Q 1950 2525 1575 2525 
Q 1275 2525 1137 2412 
Q 1000 2300 950 2100 
L 400 2100 
Q 450 2500 762 2737 
Q 1075 2975 1575 2975 
Q 2125 2975 2400 2725 
Q 2675 2475 2675 2025 
L 2675 650 
Q 2675 500 2725 375 
Q 2775 250 2875 125 
z
M 2175 1050 
L 2175 1550 
Q 2025 1500 1887 1462 
Q 1750 1425 1425 1375 
Q 1050 1325 937 1200 
Q 825 1075 825 900 
Q 825 750 937 637 
Q 1050 525 1275 525 
Q 1500 525 1762 650 
Q 2025 775 2175 1050 
z
" id="SimHei-61" transform="scale(0.015625)"/>
       <path d="M 1800 3725 
L 1300 3725 
L 1300 4375 
L 1800 4375 
L 1800 3725 
z
M 1800 125 
L 1300 125 
L 1300 2925 
L 1800 2925 
L 1800 125 
z
" id="SimHei-69" transform="scale(0.015625)"/>
       <path d="M 2800 125 
L 2300 125 
L 2300 1925 
Q 2300 2225 2150 2400 
Q 2000 2575 1750 2575 
Q 1425 2575 1137 2237 
Q 850 1900 850 1400 
L 850 125 
L 350 125 
L 350 2925 
L 850 2925 
L 850 2400 
Q 1050 2675 1287 2825 
Q 1525 2975 1900 2975 
Q 2350 2975 2575 2725 
Q 2800 2475 2800 2100 
L 2800 125 
z
" id="SimHei-6e" transform="scale(0.015625)"/>
       <path d="M 3150 -850 
L 0 -850 
L 0 -550 
L 3150 -550 
L 3150 -850 
z
" id="SimHei-5f" transform="scale(0.015625)"/>
       <path d="M 1825 125 
L 1325 125 
L 1325 4400 
L 1825 4400 
L 1825 125 
z
" id="SimHei-6c" transform="scale(0.015625)"/>
       <path d="M 2750 900 
Q 2750 500 2437 287 
Q 2125 75 1650 75 
Q 1050 75 725 312 
Q 400 550 400 1000 
L 900 1000 
Q 900 700 1112 600 
Q 1325 500 1625 500 
Q 1925 500 2075 612 
Q 2225 725 2225 900 
Q 2225 1025 2100 1150 
Q 1975 1275 1475 1350 
Q 900 1425 687 1637 
Q 475 1850 475 2200 
Q 475 2500 762 2737 
Q 1050 2975 1600 2975 
Q 2100 2975 2387 2750 
Q 2675 2525 2675 2150 
L 2175 2150 
Q 2175 2375 2012 2462 
Q 1850 2550 1600 2550 
Q 1275 2550 1137 2437 
Q 1000 2325 1000 2175 
Q 1000 2000 1125 1900 
Q 1250 1800 1650 1750 
Q 2300 1650 2525 1437 
Q 2750 1225 2750 900 
z
" id="SimHei-73" transform="scale(0.015625)"/>
      </defs>
      <use xlink:href="#SimHei-74"/>
      <use x="50" xlink:href="#SimHei-72"/>
      <use x="100" xlink:href="#SimHei-61"/>
      <use x="150" xlink:href="#SimHei-69"/>
      <use x="200" xlink:href="#SimHei-6e"/>
      <use x="250" xlink:href="#SimHei-5f"/>
      <use x="300" xlink:href="#SimHei-6c"/>
      <use x="350" xlink:href="#SimHei-6f"/>
      <use x="400" xlink:href="#SimHei-73"/>
      <use x="450" xlink:href="#SimHei-73"/>
     </g>
    </g>
    <g id="line2d_129">
     <path d="M 137.5 33.028125 
L 157.5 33.028125 
" style="fill:none;stroke:#ff7f0e;stroke-dasharray:5.55,2.4;stroke-dashoffset:0;stroke-width:1.5;"/>
    </g>
    <g id="line2d_130"/>
    <g id="text_11">
     <!-- val_loss -->
     <g transform="translate(165.5 36.528125)scale(0.1 -0.1)">
      <defs>
       <path d="M 2875 2925 
L 1825 75 
L 1275 75 
L 225 2925 
L 750 2925 
L 1525 750 
L 1575 750 
L 2350 2925 
L 2875 2925 
z
" id="SimHei-76" transform="scale(0.015625)"/>
      </defs>
      <use xlink:href="#SimHei-76"/>
      <use x="50" xlink:href="#SimHei-61"/>
      <use x="100" xlink:href="#SimHei-6c"/>
      <use x="150" xlink:href="#SimHei-5f"/>
      <use x="200" xlink:href="#SimHei-6c"/>
      <use x="250" xlink:href="#SimHei-6f"/>
      <use x="300" xlink:href="#SimHei-73"/>
      <use x="350" xlink:href="#SimHei-73"/>
     </g>
    </g>
   </g>
  </g>
 </g>
 <defs>
  <clipPath id="p8a363e7569">
   <rect height="138.6" width="195.3" x="29.2" y="7.2"/>
  </clipPath>
 </defs>
</svg>
