<?xml version="1.0" encoding="utf-8" standalone="no"?>
<!DOCTYPE svg PUBLIC "-//W3C//DTD SVG 1.1//EN"
  "http://www.w3.org/Graphics/SVG/1.1/DTD/svg11.dtd">
<svg height="211.07625pt" version="1.1" viewBox="0 0 338.360937 211.07625" width="338.360937pt" xmlns="http://www.w3.org/2000/svg" xmlns:xlink="http://www.w3.org/1999/xlink">
 <metadata>
  <rdf:RDF xmlns:cc="http://creativecommons.org/ns#" xmlns:dc="http://purl.org/dc/elements/1.1/" xmlns:rdf="http://www.w3.org/1999/02/22-rdf-syntax-ns#">
   <cc:Work>
    <dc:type rdf:resource="http://purl.org/dc/dcmitype/StillImage"/>
    <dc:date>2023-08-15T09:05:23.251428</dc:date>
    <dc:format>image/svg+xml</dc:format>
    <dc:creator>
     <cc:Agent>
      <dc:title>Matplotlib v3.4.0, https://matplotlib.org/</dc:title>
     </cc:Agent>
    </dc:creator>
   </cc:Work>
  </rdf:RDF>
 </metadata>
 <defs>
  <style type="text/css">*{stroke-linecap:butt;stroke-linejoin:round;}</style>
 </defs>
 <g id="figure_1">
  <g id="patch_1">
   <path d="M 0 211.07625 
L 338.360937 211.07625 
L 338.360937 0 
L 0 0 
z
" style="fill:#ffffff;"/>
  </g>
  <g id="axes_1">
   <g id="patch_2">
    <path d="M 52.160938 173.52 
L 331.160937 173.52 
L 331.160937 7.2 
L 52.160938 7.2 
z
" style="fill:#ffffff;"/>
   </g>
   <g id="matplotlib.axis_1">
    <g id="xtick_1">
     <g id="line2d_1">
      <path clip-path="url(#p34ff676b88)" d="M 90.46259 173.52 
L 90.46259 7.2 
" style="fill:none;stroke:#b0b0b0;stroke-linecap:square;stroke-width:0.8;"/>
     </g>
     <g id="line2d_2">
      <defs>
       <path d="M 0 0 
L 0 3.5 
" id="mae50665966" style="stroke:#000000;stroke-width:0.8;"/>
      </defs>
      <g>
       <use style="stroke:#000000;stroke-width:0.8;" x="90.46259" xlink:href="#mae50665966" y="173.52"/>
      </g>
     </g>
     <g id="text_1">
      <!-- −4 -->
      <g transform="translate(83.091496 188.118438)scale(0.1 -0.1)">
       <defs>
        <path d="M 678 2272 
L 4684 2272 
L 4684 1741 
L 678 1741 
L 678 2272 
z
" id="DejaVuSans-2212" transform="scale(0.015625)"/>
        <path d="M 2419 4116 
L 825 1625 
L 2419 1625 
L 2419 4116 
z
M 2253 4666 
L 3047 4666 
L 3047 1625 
L 3713 1625 
L 3713 1100 
L 3047 1100 
L 3047 0 
L 2419 0 
L 2419 1100 
L 313 1100 
L 313 1709 
L 2253 4666 
z
" id="DejaVuSans-34" transform="scale(0.015625)"/>
       </defs>
       <use xlink:href="#DejaVuSans-2212"/>
       <use x="83.789062" xlink:href="#DejaVuSans-34"/>
      </g>
     </g>
    </g>
    <g id="xtick_2">
     <g id="line2d_3">
      <path clip-path="url(#p34ff676b88)" d="M 141.702259 173.52 
L 141.702259 7.2 
" style="fill:none;stroke:#b0b0b0;stroke-linecap:square;stroke-width:0.8;"/>
     </g>
     <g id="line2d_4">
      <g>
       <use style="stroke:#000000;stroke-width:0.8;" x="141.702259" xlink:href="#mae50665966" y="173.52"/>
      </g>
     </g>
     <g id="text_2">
      <!-- −2 -->
      <g transform="translate(134.331165 188.118438)scale(0.1 -0.1)">
       <defs>
        <path d="M 1228 531 
L 3431 531 
L 3431 0 
L 469 0 
L 469 531 
Q 828 903 1448 1529 
Q 2069 2156 2228 2338 
Q 2531 2678 2651 2914 
Q 2772 3150 2772 3378 
Q 2772 3750 2511 3984 
Q 2250 4219 1831 4219 
Q 1534 4219 1204 4116 
Q 875 4013 500 3803 
L 500 4441 
Q 881 4594 1212 4672 
Q 1544 4750 1819 4750 
Q 2544 4750 2975 4387 
Q 3406 4025 3406 3419 
Q 3406 3131 3298 2873 
Q 3191 2616 2906 2266 
Q 2828 2175 2409 1742 
Q 1991 1309 1228 531 
z
" id="DejaVuSans-32" transform="scale(0.015625)"/>
       </defs>
       <use xlink:href="#DejaVuSans-2212"/>
       <use x="83.789062" xlink:href="#DejaVuSans-32"/>
      </g>
     </g>
    </g>
    <g id="xtick_3">
     <g id="line2d_5">
      <path clip-path="url(#p34ff676b88)" d="M 192.941928 173.52 
L 192.941928 7.2 
" style="fill:none;stroke:#b0b0b0;stroke-linecap:square;stroke-width:0.8;"/>
     </g>
     <g id="line2d_6">
      <g>
       <use style="stroke:#000000;stroke-width:0.8;" x="192.941928" xlink:href="#mae50665966" y="173.52"/>
      </g>
     </g>
     <g id="text_3">
      <!-- 0 -->
      <g transform="translate(189.760678 188.118438)scale(0.1 -0.1)">
       <defs>
        <path d="M 2034 4250 
Q 1547 4250 1301 3770 
Q 1056 3291 1056 2328 
Q 1056 1369 1301 889 
Q 1547 409 2034 409 
Q 2525 409 2770 889 
Q 3016 1369 3016 2328 
Q 3016 3291 2770 3770 
Q 2525 4250 2034 4250 
z
M 2034 4750 
Q 2819 4750 3233 4129 
Q 3647 3509 3647 2328 
Q 3647 1150 3233 529 
Q 2819 -91 2034 -91 
Q 1250 -91 836 529 
Q 422 1150 422 2328 
Q 422 3509 836 4129 
Q 1250 4750 2034 4750 
z
" id="DejaVuSans-30" transform="scale(0.015625)"/>
       </defs>
       <use xlink:href="#DejaVuSans-30"/>
      </g>
     </g>
    </g>
    <g id="xtick_4">
     <g id="line2d_7">
      <path clip-path="url(#p34ff676b88)" d="M 244.181597 173.52 
L 244.181597 7.2 
" style="fill:none;stroke:#b0b0b0;stroke-linecap:square;stroke-width:0.8;"/>
     </g>
     <g id="line2d_8">
      <g>
       <use style="stroke:#000000;stroke-width:0.8;" x="244.181597" xlink:href="#mae50665966" y="173.52"/>
      </g>
     </g>
     <g id="text_4">
      <!-- 2 -->
      <g transform="translate(241.000347 188.118438)scale(0.1 -0.1)">
       <use xlink:href="#DejaVuSans-32"/>
      </g>
     </g>
    </g>
    <g id="xtick_5">
     <g id="line2d_9">
      <path clip-path="url(#p34ff676b88)" d="M 295.421266 173.52 
L 295.421266 7.2 
" style="fill:none;stroke:#b0b0b0;stroke-linecap:square;stroke-width:0.8;"/>
     </g>
     <g id="line2d_10">
      <g>
       <use style="stroke:#000000;stroke-width:0.8;" x="295.421266" xlink:href="#mae50665966" y="173.52"/>
      </g>
     </g>
     <g id="text_5">
      <!-- 4 -->
      <g transform="translate(292.240016 188.118438)scale(0.1 -0.1)">
       <use xlink:href="#DejaVuSans-34"/>
      </g>
     </g>
    </g>
    <g id="text_6">
     <!-- x -->
     <g transform="translate(188.701562 201.796563)scale(0.1 -0.1)">
      <defs>
       <path d="M 3513 3500 
L 2247 1797 
L 3578 0 
L 2900 0 
L 1881 1375 
L 863 0 
L 184 0 
L 1544 1831 
L 300 3500 
L 978 3500 
L 1906 2253 
L 2834 3500 
L 3513 3500 
z
" id="DejaVuSans-78" transform="scale(0.015625)"/>
      </defs>
      <use xlink:href="#DejaVuSans-78"/>
     </g>
    </g>
   </g>
   <g id="matplotlib.axis_2">
    <g id="ytick_1">
     <g id="line2d_11">
      <path clip-path="url(#p34ff676b88)" d="M 52.160938 165.965804 
L 331.160937 165.965804 
" style="fill:none;stroke:#b0b0b0;stroke-linecap:square;stroke-width:0.8;"/>
     </g>
     <g id="line2d_12">
      <defs>
       <path d="M 0 0 
L -3.5 0 
" id="ma2d459ed22" style="stroke:#000000;stroke-width:0.8;"/>
      </defs>
      <g>
       <use style="stroke:#000000;stroke-width:0.8;" x="52.160938" xlink:href="#ma2d459ed22" y="165.965804"/>
      </g>
     </g>
     <g id="text_7">
      <!-- −1.0 -->
      <g transform="translate(20.878125 169.765023)scale(0.1 -0.1)">
       <defs>
        <path d="M 794 531 
L 1825 531 
L 1825 4091 
L 703 3866 
L 703 4441 
L 1819 4666 
L 2450 4666 
L 2450 531 
L 3481 531 
L 3481 0 
L 794 0 
L 794 531 
z
" id="DejaVuSans-31" transform="scale(0.015625)"/>
        <path d="M 684 794 
L 1344 794 
L 1344 0 
L 684 0 
L 684 794 
z
" id="DejaVuSans-2e" transform="scale(0.015625)"/>
       </defs>
       <use xlink:href="#DejaVuSans-2212"/>
       <use x="83.789062" xlink:href="#DejaVuSans-31"/>
       <use x="147.412109" xlink:href="#DejaVuSans-2e"/>
       <use x="179.199219" xlink:href="#DejaVuSans-30"/>
      </g>
     </g>
    </g>
    <g id="ytick_2">
     <g id="line2d_13">
      <path clip-path="url(#p34ff676b88)" d="M 52.160938 128.164353 
L 331.160937 128.164353 
" style="fill:none;stroke:#b0b0b0;stroke-linecap:square;stroke-width:0.8;"/>
     </g>
     <g id="line2d_14">
      <g>
       <use style="stroke:#000000;stroke-width:0.8;" x="52.160938" xlink:href="#ma2d459ed22" y="128.164353"/>
      </g>
     </g>
     <g id="text_8">
      <!-- −0.5 -->
      <g transform="translate(20.878125 131.963572)scale(0.1 -0.1)">
       <defs>
        <path d="M 691 4666 
L 3169 4666 
L 3169 4134 
L 1269 4134 
L 1269 2991 
Q 1406 3038 1543 3061 
Q 1681 3084 1819 3084 
Q 2600 3084 3056 2656 
Q 3513 2228 3513 1497 
Q 3513 744 3044 326 
Q 2575 -91 1722 -91 
Q 1428 -91 1123 -41 
Q 819 9 494 109 
L 494 744 
Q 775 591 1075 516 
Q 1375 441 1709 441 
Q 2250 441 2565 725 
Q 2881 1009 2881 1497 
Q 2881 1984 2565 2268 
Q 2250 2553 1709 2553 
Q 1456 2553 1204 2497 
Q 953 2441 691 2322 
L 691 4666 
z
" id="DejaVuSans-35" transform="scale(0.015625)"/>
       </defs>
       <use xlink:href="#DejaVuSans-2212"/>
       <use x="83.789062" xlink:href="#DejaVuSans-30"/>
       <use x="147.412109" xlink:href="#DejaVuSans-2e"/>
       <use x="179.199219" xlink:href="#DejaVuSans-35"/>
      </g>
     </g>
    </g>
    <g id="ytick_3">
     <g id="line2d_15">
      <path clip-path="url(#p34ff676b88)" d="M 52.160938 90.362902 
L 331.160937 90.362902 
" style="fill:none;stroke:#b0b0b0;stroke-linecap:square;stroke-width:0.8;"/>
     </g>
     <g id="line2d_16">
      <g>
       <use style="stroke:#000000;stroke-width:0.8;" x="52.160938" xlink:href="#ma2d459ed22" y="90.362902"/>
      </g>
     </g>
     <g id="text_9">
      <!-- 0.0 -->
      <g transform="translate(29.257812 94.162121)scale(0.1 -0.1)">
       <use xlink:href="#DejaVuSans-30"/>
       <use x="63.623047" xlink:href="#DejaVuSans-2e"/>
       <use x="95.410156" xlink:href="#DejaVuSans-30"/>
      </g>
     </g>
    </g>
    <g id="ytick_4">
     <g id="line2d_17">
      <path clip-path="url(#p34ff676b88)" d="M 52.160938 52.561451 
L 331.160937 52.561451 
" style="fill:none;stroke:#b0b0b0;stroke-linecap:square;stroke-width:0.8;"/>
     </g>
     <g id="line2d_18">
      <g>
       <use style="stroke:#000000;stroke-width:0.8;" x="52.160938" xlink:href="#ma2d459ed22" y="52.561451"/>
      </g>
     </g>
     <g id="text_10">
      <!-- 0.5 -->
      <g transform="translate(29.257812 56.36067)scale(0.1 -0.1)">
       <use xlink:href="#DejaVuSans-30"/>
       <use x="63.623047" xlink:href="#DejaVuSans-2e"/>
       <use x="95.410156" xlink:href="#DejaVuSans-35"/>
      </g>
     </g>
    </g>
    <g id="ytick_5">
     <g id="line2d_19">
      <path clip-path="url(#p34ff676b88)" d="M 52.160938 14.76 
L 331.160937 14.76 
" style="fill:none;stroke:#b0b0b0;stroke-linecap:square;stroke-width:0.8;"/>
     </g>
     <g id="line2d_20">
      <g>
       <use style="stroke:#000000;stroke-width:0.8;" x="52.160938" xlink:href="#ma2d459ed22" y="14.76"/>
      </g>
     </g>
     <g id="text_11">
      <!-- 1.0 -->
      <g transform="translate(29.257812 18.559219)scale(0.1 -0.1)">
       <use xlink:href="#DejaVuSans-31"/>
       <use x="63.623047" xlink:href="#DejaVuSans-2e"/>
       <use x="95.410156" xlink:href="#DejaVuSans-30"/>
      </g>
     </g>
    </g>
    <g id="text_12">
     <!-- f(x) -->
     <g transform="translate(14.798438 98.981094)rotate(-90)scale(0.1 -0.1)">
      <defs>
       <path d="M 2375 4863 
L 2375 4384 
L 1825 4384 
Q 1516 4384 1395 4259 
Q 1275 4134 1275 3809 
L 1275 3500 
L 2222 3500 
L 2222 3053 
L 1275 3053 
L 1275 0 
L 697 0 
L 697 3053 
L 147 3053 
L 147 3500 
L 697 3500 
L 697 3744 
Q 697 4328 969 4595 
Q 1241 4863 1831 4863 
L 2375 4863 
z
" id="DejaVuSans-66" transform="scale(0.015625)"/>
       <path d="M 1984 4856 
Q 1566 4138 1362 3434 
Q 1159 2731 1159 2009 
Q 1159 1288 1364 580 
Q 1569 -128 1984 -844 
L 1484 -844 
Q 1016 -109 783 600 
Q 550 1309 550 2009 
Q 550 2706 781 3412 
Q 1013 4119 1484 4856 
L 1984 4856 
z
" id="DejaVuSans-28" transform="scale(0.015625)"/>
       <path d="M 513 4856 
L 1013 4856 
Q 1481 4119 1714 3412 
Q 1947 2706 1947 2009 
Q 1947 1309 1714 600 
Q 1481 -109 1013 -844 
L 513 -844 
Q 928 -128 1133 580 
Q 1338 1288 1338 2009 
Q 1338 2731 1133 3434 
Q 928 4138 513 4856 
z
" id="DejaVuSans-29" transform="scale(0.015625)"/>
      </defs>
      <use xlink:href="#DejaVuSans-66"/>
      <use x="35.205078" xlink:href="#DejaVuSans-28"/>
      <use x="74.21875" xlink:href="#DejaVuSans-78"/>
      <use x="133.398438" xlink:href="#DejaVuSans-29"/>
     </g>
    </g>
   </g>
   <g id="line2d_21">
    <path clip-path="url(#p34ff676b88)" d="M 64.842756 17.865443 
L 67.404737 16.086637 
L 69.966718 15.049966 
L 72.528711 14.765804 
L 75.090692 15.236981 
L 77.652673 16.458788 
L 80.214654 18.419022 
L 82.776635 21.098093 
L 85.338628 24.469253 
L 87.900609 28.498782 
L 90.462596 33.14645 
L 93.024577 38.365791 
L 95.586564 44.104688 
L 98.148545 50.305763 
L 100.710526 56.907079 
L 103.272513 63.84269 
L 105.834488 71.043245 
L 108.396469 78.436856 
L 110.958456 85.949644 
L 113.520437 93.50651 
L 116.082425 101.031984 
L 118.644406 108.450839 
L 121.206387 115.688965 
L 123.768374 122.674059 
L 126.330361 129.336307 
L 128.892342 135.609131 
L 131.454329 141.429885 
L 134.01631 146.740383 
L 136.578297 151.487586 
L 139.140278 155.62404 
L 141.702262 159.108429 
L 144.264246 161.90594 
L 146.826227 163.988609 
L 149.388211 165.335641 
L 151.950195 165.933566 
L 154.512176 165.776418 
L 157.07416 164.865762 
L 159.636144 163.210698 
L 162.198128 160.827761 
L 164.760113 157.740763 
L 167.322094 153.980548 
L 169.884078 149.584691 
L 172.44606 144.597104 
L 175.008044 139.067627 
L 177.570027 133.051513 
L 180.132011 126.608865 
L 182.693995 119.804058 
L 185.255978 112.705086 
L 187.817961 105.38288 
L 190.379945 97.910598 
L 192.941928 90.362902 
L 195.503911 82.815206 
L 198.065895 75.342924 
L 200.627879 68.020716 
L 203.189862 60.921746 
L 205.751845 54.116939 
L 208.313829 47.674291 
L 210.875813 41.658172 
L 213.437796 36.1287 
L 215.99978 31.141113 
L 218.561762 26.745256 
L 221.123747 22.985037 
L 223.685731 19.898043 
L 226.247715 17.515106 
L 228.809696 15.860043 
L 231.37168 14.949386 
L 233.933664 14.792238 
L 236.495645 15.390163 
L 239.057629 16.737195 
L 241.619613 18.819869 
L 244.181597 21.617379 
L 246.743578 25.101764 
L 249.305565 29.238231 
L 251.867546 33.985421 
L 254.429533 39.295928 
L 256.991514 45.116673 
L 259.553501 51.389511 
L 262.115482 58.051745 
L 264.677463 65.036821 
L 267.23945 72.274965 
L 269.801431 79.69382 
L 272.363412 87.219276 
L 274.9254 94.77616 
L 277.487381 102.288931 
L 280.049368 109.682559 
L 282.611349 116.883132 
L 285.17333 123.818725 
L 287.735317 130.420055 
L 290.297298 136.62113 
L 292.859279 142.360013 
L 295.421266 147.579367 
L 297.983247 152.227023 
L 300.545228 156.256551 
L 303.107221 159.627711 
L 305.669202 162.306783 
L 308.231183 164.267016 
L 310.793164 165.488823 
L 313.355145 165.96 
L 315.917138 165.675838 
L 318.479119 164.639168 
" style="fill:none;stroke:#1f77b4;stroke-linecap:square;stroke-width:1.5;"/>
   </g>
   <g id="line2d_22">
    <path clip-path="url(#p34ff676b88)" d="M 64.842756 68.917217 
L 67.404737 76.262018 
L 69.966718 83.747711 
L 72.528711 91.299535 
L 75.090692 98.841966 
L 77.652673 106.299677 
L 80.214654 113.598152 
L 82.776635 120.66447 
L 85.338628 127.428056 
L 87.900609 133.821267 
L 90.462596 139.780269 
L 93.024577 145.2455 
L 95.586564 150.162369 
L 98.148545 154.481733 
L 100.710526 158.160442 
L 103.272513 161.161754 
L 105.834488 163.455651 
L 108.396469 165.019237 
L 110.958456 165.836884 
L 113.520437 165.900418 
L 116.082425 165.209208 
L 118.644406 163.770158 
L 121.206387 161.597651 
L 123.768374 158.713381 
L 126.330361 155.146175 
L 128.892342 150.931682 
L 131.454329 146.111999 
L 134.01631 140.7353 
L 136.578297 134.855284 
L 139.140278 128.530727 
L 141.702262 121.824802 
L 144.264246 114.804521 
L 146.826227 107.540036 
L 149.388211 100.103914 
L 151.950195 92.570463 
L 154.512176 85.014965 
L 157.07416 77.512892 
L 159.636144 70.13921 
L 162.198128 62.967599 
L 164.760113 56.069713 
L 167.322094 49.514482 
L 169.884078 43.367383 
L 172.44606 37.689853 
L 175.008044 32.538611 
L 177.570027 27.965134 
L 180.132011 24.015114 
L 182.693995 20.728019 
L 185.255978 18.136689 
L 187.817961 16.267023 
L 190.379945 15.137699 
L 192.941928 14.76 
L 195.503911 15.137699 
L 198.065895 16.267023 
L 200.627879 18.136689 
L 203.189862 20.728019 
L 205.751845 24.015114 
L 208.313829 27.965134 
L 210.875813 32.538616 
L 213.437796 37.689853 
L 215.99978 43.367388 
L 218.561762 49.514482 
L 221.123747 56.069722 
L 223.685731 62.967608 
L 226.247715 70.139219 
L 228.809696 77.512892 
L 231.37168 85.014965 
L 233.933664 92.570472 
L 236.495645 100.103914 
L 239.057629 107.540036 
L 241.619613 114.80453 
L 244.181597 121.824811 
L 246.743578 128.530727 
L 249.305565 134.855297 
L 251.867546 140.7353 
L 254.429533 146.112013 
L 256.991514 150.931682 
L 259.553501 155.146184 
L 262.115482 158.713381 
L 264.677463 161.597642 
L 267.23945 163.770158 
L 269.801431 165.209208 
L 272.363412 165.900418 
L 274.9254 165.836884 
L 277.487381 165.019241 
L 280.049368 163.455651 
L 282.611349 161.161745 
L 285.17333 158.160442 
L 287.735317 154.481724 
L 290.297298 150.16236 
L 292.859279 145.2455 
L 295.421266 139.780256 
L 297.983247 133.821267 
L 300.545228 127.428056 
L 303.107221 120.66447 
L 305.669202 113.598152 
L 308.231183 106.299677 
L 310.793164 98.841966 
L 313.355145 91.299535 
L 315.917138 83.747711 
L 318.479119 76.262018 
" style="fill:none;stroke:#bf00bf;stroke-dasharray:5.55,2.4;stroke-dashoffset:0;stroke-width:1.5;"/>
   </g>
   <g id="line2d_23">
    <path clip-path="url(#p34ff676b88)" d="M 64.842756 162.860361 
L 67.404737 164.639168 
L 69.966718 165.675838 
L 72.528711 165.96 
L 75.090692 165.488823 
L 77.652673 164.267016 
L 80.214654 162.306783 
L 82.776635 159.627711 
L 85.338628 156.256551 
L 87.900609 152.227023 
L 90.462596 147.579354 
L 93.024577 142.360013 
L 95.586564 136.621116 
L 98.148545 130.420041 
L 100.710526 123.818725 
L 103.272513 116.883114 
L 105.834488 109.682559 
L 108.396469 102.288949 
L 110.958456 94.77616 
L 113.520437 87.219294 
L 116.082425 79.69382 
L 118.644406 72.274965 
L 121.206387 65.036839 
L 123.768374 58.051745 
L 126.330361 51.389497 
L 128.892342 45.116673 
L 131.454329 39.295919 
L 134.01631 33.985421 
L 136.578297 29.238218 
L 139.140278 25.101764 
L 141.702262 21.617375 
L 144.264246 18.819865 
L 146.826227 16.737195 
L 149.388211 15.390163 
L 151.950195 14.792238 
L 154.512176 14.949386 
L 157.07416 15.860043 
L 159.636144 17.515106 
L 162.198128 19.898043 
L 164.760113 22.985041 
L 167.322094 26.745256 
L 169.884078 31.141113 
L 172.44606 36.1287 
L 175.008044 41.658177 
L 177.570027 47.674291 
L 180.132011 54.116939 
L 182.693995 60.921746 
L 185.255978 68.020718 
L 187.817961 75.342924 
L 190.379945 82.815206 
L 192.941928 90.362902 
L 195.503911 97.910598 
L 198.065895 105.38288 
L 200.627879 112.705088 
L 203.189862 119.804058 
L 205.751845 126.608865 
L 208.313829 133.051513 
L 210.875813 139.067632 
L 213.437796 144.597104 
L 215.99978 149.584691 
L 218.561762 153.980548 
L 221.123747 157.740768 
L 223.685731 160.827761 
L 226.247715 163.210698 
L 228.809696 164.865762 
L 231.37168 165.776418 
L 233.933664 165.933566 
L 236.495645 165.335641 
L 239.057629 163.988609 
L 241.619613 161.905935 
L 244.181597 159.108425 
L 246.743578 155.62404 
L 249.305565 151.487573 
L 251.867546 146.740383 
L 254.429533 141.429876 
L 256.991514 135.609131 
L 259.553501 129.336293 
L 262.115482 122.674059 
L 264.677463 115.688983 
L 267.23945 108.450839 
L 269.801431 101.031984 
L 272.363412 93.506528 
L 274.9254 85.949644 
L 277.487381 78.436874 
L 280.049368 71.043245 
L 282.611349 63.842672 
L 285.17333 56.907079 
L 287.735317 50.305749 
L 290.297298 44.104674 
L 292.859279 38.365791 
L 295.421266 33.146437 
L 297.983247 28.498782 
L 300.545228 24.469253 
L 303.107221 21.098093 
L 305.669202 18.419022 
L 308.231183 16.458788 
L 310.793164 15.236981 
L 313.355145 14.765804 
L 315.917138 15.049966 
L 318.479119 16.086637 
" style="fill:none;stroke:#008000;stroke-dasharray:9.6,2.4,1.5,2.4;stroke-dashoffset:0;stroke-width:1.5;"/>
   </g>
   <g id="patch_3">
    <path d="M 52.160938 173.52 
L 52.160938 7.2 
" style="fill:none;stroke:#000000;stroke-linecap:square;stroke-linejoin:miter;stroke-width:0.8;"/>
   </g>
   <g id="patch_4">
    <path d="M 331.160937 173.52 
L 331.160937 7.2 
" style="fill:none;stroke:#000000;stroke-linecap:square;stroke-linejoin:miter;stroke-width:0.8;"/>
   </g>
   <g id="patch_5">
    <path d="M 52.160937 173.52 
L 331.160937 173.52 
" style="fill:none;stroke:#000000;stroke-linecap:square;stroke-linejoin:miter;stroke-width:0.8;"/>
   </g>
   <g id="patch_6">
    <path d="M 52.160937 7.2 
L 331.160937 7.2 
" style="fill:none;stroke:#000000;stroke-linecap:square;stroke-linejoin:miter;stroke-width:0.8;"/>
   </g>
   <g id="legend_1">
    <g id="patch_7">
     <path d="M 201.2875 59.790625 
L 324.160937 59.790625 
Q 326.160937 59.790625 326.160937 57.790625 
L 326.160937 14.2 
Q 326.160937 12.2 324.160937 12.2 
L 201.2875 12.2 
Q 199.2875 12.2 199.2875 14.2 
L 199.2875 57.790625 
Q 199.2875 59.790625 201.2875 59.790625 
z
" style="fill:#ffffff;opacity:0.8;stroke:#cccccc;stroke-linejoin:miter;"/>
    </g>
    <g id="line2d_24">
     <path d="M 203.2875 20.298438 
L 223.2875 20.298438 
" style="fill:none;stroke:#1f77b4;stroke-linecap:square;stroke-width:1.5;"/>
    </g>
    <g id="line2d_25"/>
    <g id="text_13">
     <!-- sinx -->
     <g transform="translate(231.2875 23.798438)scale(0.1 -0.1)">
      <defs>
       <path d="M 2834 3397 
L 2834 2853 
Q 2591 2978 2328 3040 
Q 2066 3103 1784 3103 
Q 1356 3103 1142 2972 
Q 928 2841 928 2578 
Q 928 2378 1081 2264 
Q 1234 2150 1697 2047 
L 1894 2003 
Q 2506 1872 2764 1633 
Q 3022 1394 3022 966 
Q 3022 478 2636 193 
Q 2250 -91 1575 -91 
Q 1294 -91 989 -36 
Q 684 19 347 128 
L 347 722 
Q 666 556 975 473 
Q 1284 391 1588 391 
Q 1994 391 2212 530 
Q 2431 669 2431 922 
Q 2431 1156 2273 1281 
Q 2116 1406 1581 1522 
L 1381 1569 
Q 847 1681 609 1914 
Q 372 2147 372 2553 
Q 372 3047 722 3315 
Q 1072 3584 1716 3584 
Q 2034 3584 2315 3537 
Q 2597 3491 2834 3397 
z
" id="DejaVuSans-73" transform="scale(0.015625)"/>
       <path d="M 603 3500 
L 1178 3500 
L 1178 0 
L 603 0 
L 603 3500 
z
M 603 4863 
L 1178 4863 
L 1178 4134 
L 603 4134 
L 603 4863 
z
" id="DejaVuSans-69" transform="scale(0.015625)"/>
       <path d="M 3513 2113 
L 3513 0 
L 2938 0 
L 2938 2094 
Q 2938 2591 2744 2837 
Q 2550 3084 2163 3084 
Q 1697 3084 1428 2787 
Q 1159 2491 1159 1978 
L 1159 0 
L 581 0 
L 581 3500 
L 1159 3500 
L 1159 2956 
Q 1366 3272 1645 3428 
Q 1925 3584 2291 3584 
Q 2894 3584 3203 3211 
Q 3513 2838 3513 2113 
z
" id="DejaVuSans-6e" transform="scale(0.015625)"/>
      </defs>
      <use xlink:href="#DejaVuSans-73"/>
      <use x="52.099609" xlink:href="#DejaVuSans-69"/>
      <use x="79.882812" xlink:href="#DejaVuSans-6e"/>
      <use x="143.261719" xlink:href="#DejaVuSans-78"/>
     </g>
    </g>
    <g id="line2d_26">
     <path d="M 203.2875 34.976562 
L 223.2875 34.976562 
" style="fill:none;stroke:#bf00bf;stroke-dasharray:5.55,2.4;stroke-dashoffset:0;stroke-width:1.5;"/>
    </g>
    <g id="line2d_27"/>
    <g id="text_14">
     <!-- first_derivative -->
     <g transform="translate(231.2875 38.476562)scale(0.1 -0.1)">
      <defs>
       <path d="M 2631 2963 
Q 2534 3019 2420 3045 
Q 2306 3072 2169 3072 
Q 1681 3072 1420 2755 
Q 1159 2438 1159 1844 
L 1159 0 
L 581 0 
L 581 3500 
L 1159 3500 
L 1159 2956 
Q 1341 3275 1631 3429 
Q 1922 3584 2338 3584 
Q 2397 3584 2469 3576 
Q 2541 3569 2628 3553 
L 2631 2963 
z
" id="DejaVuSans-72" transform="scale(0.015625)"/>
       <path d="M 1172 4494 
L 1172 3500 
L 2356 3500 
L 2356 3053 
L 1172 3053 
L 1172 1153 
Q 1172 725 1289 603 
Q 1406 481 1766 481 
L 2356 481 
L 2356 0 
L 1766 0 
Q 1100 0 847 248 
Q 594 497 594 1153 
L 594 3053 
L 172 3053 
L 172 3500 
L 594 3500 
L 594 4494 
L 1172 4494 
z
" id="DejaVuSans-74" transform="scale(0.015625)"/>
       <path d="M 3263 -1063 
L 3263 -1509 
L -63 -1509 
L -63 -1063 
L 3263 -1063 
z
" id="DejaVuSans-5f" transform="scale(0.015625)"/>
       <path d="M 2906 2969 
L 2906 4863 
L 3481 4863 
L 3481 0 
L 2906 0 
L 2906 525 
Q 2725 213 2448 61 
Q 2172 -91 1784 -91 
Q 1150 -91 751 415 
Q 353 922 353 1747 
Q 353 2572 751 3078 
Q 1150 3584 1784 3584 
Q 2172 3584 2448 3432 
Q 2725 3281 2906 2969 
z
M 947 1747 
Q 947 1113 1208 752 
Q 1469 391 1925 391 
Q 2381 391 2643 752 
Q 2906 1113 2906 1747 
Q 2906 2381 2643 2742 
Q 2381 3103 1925 3103 
Q 1469 3103 1208 2742 
Q 947 2381 947 1747 
z
" id="DejaVuSans-64" transform="scale(0.015625)"/>
       <path d="M 3597 1894 
L 3597 1613 
L 953 1613 
Q 991 1019 1311 708 
Q 1631 397 2203 397 
Q 2534 397 2845 478 
Q 3156 559 3463 722 
L 3463 178 
Q 3153 47 2828 -22 
Q 2503 -91 2169 -91 
Q 1331 -91 842 396 
Q 353 884 353 1716 
Q 353 2575 817 3079 
Q 1281 3584 2069 3584 
Q 2775 3584 3186 3129 
Q 3597 2675 3597 1894 
z
M 3022 2063 
Q 3016 2534 2758 2815 
Q 2500 3097 2075 3097 
Q 1594 3097 1305 2825 
Q 1016 2553 972 2059 
L 3022 2063 
z
" id="DejaVuSans-65" transform="scale(0.015625)"/>
       <path d="M 191 3500 
L 800 3500 
L 1894 563 
L 2988 3500 
L 3597 3500 
L 2284 0 
L 1503 0 
L 191 3500 
z
" id="DejaVuSans-76" transform="scale(0.015625)"/>
       <path d="M 2194 1759 
Q 1497 1759 1228 1600 
Q 959 1441 959 1056 
Q 959 750 1161 570 
Q 1363 391 1709 391 
Q 2188 391 2477 730 
Q 2766 1069 2766 1631 
L 2766 1759 
L 2194 1759 
z
M 3341 1997 
L 3341 0 
L 2766 0 
L 2766 531 
Q 2569 213 2275 61 
Q 1981 -91 1556 -91 
Q 1019 -91 701 211 
Q 384 513 384 1019 
Q 384 1609 779 1909 
Q 1175 2209 1959 2209 
L 2766 2209 
L 2766 2266 
Q 2766 2663 2505 2880 
Q 2244 3097 1772 3097 
Q 1472 3097 1187 3025 
Q 903 2953 641 2809 
L 641 3341 
Q 956 3463 1253 3523 
Q 1550 3584 1831 3584 
Q 2591 3584 2966 3190 
Q 3341 2797 3341 1997 
z
" id="DejaVuSans-61" transform="scale(0.015625)"/>
      </defs>
      <use xlink:href="#DejaVuSans-66"/>
      <use x="35.205078" xlink:href="#DejaVuSans-69"/>
      <use x="62.988281" xlink:href="#DejaVuSans-72"/>
      <use x="104.101562" xlink:href="#DejaVuSans-73"/>
      <use x="156.201172" xlink:href="#DejaVuSans-74"/>
      <use x="195.410156" xlink:href="#DejaVuSans-5f"/>
      <use x="245.410156" xlink:href="#DejaVuSans-64"/>
      <use x="308.886719" xlink:href="#DejaVuSans-65"/>
      <use x="370.410156" xlink:href="#DejaVuSans-72"/>
      <use x="411.523438" xlink:href="#DejaVuSans-69"/>
      <use x="439.306641" xlink:href="#DejaVuSans-76"/>
      <use x="498.486328" xlink:href="#DejaVuSans-61"/>
      <use x="559.765625" xlink:href="#DejaVuSans-74"/>
      <use x="598.974609" xlink:href="#DejaVuSans-69"/>
      <use x="626.757812" xlink:href="#DejaVuSans-76"/>
      <use x="685.9375" xlink:href="#DejaVuSans-65"/>
     </g>
    </g>
    <g id="line2d_28">
     <path d="M 203.2875 49.932813 
L 223.2875 49.932813 
" style="fill:none;stroke:#008000;stroke-dasharray:9.6,2.4,1.5,2.4;stroke-dashoffset:0;stroke-width:1.5;"/>
    </g>
    <g id="line2d_29"/>
    <g id="text_15">
     <!-- second_derivative -->
     <g transform="translate(231.2875 53.432813)scale(0.1 -0.1)">
      <defs>
       <path d="M 3122 3366 
L 3122 2828 
Q 2878 2963 2633 3030 
Q 2388 3097 2138 3097 
Q 1578 3097 1268 2742 
Q 959 2388 959 1747 
Q 959 1106 1268 751 
Q 1578 397 2138 397 
Q 2388 397 2633 464 
Q 2878 531 3122 666 
L 3122 134 
Q 2881 22 2623 -34 
Q 2366 -91 2075 -91 
Q 1284 -91 818 406 
Q 353 903 353 1747 
Q 353 2603 823 3093 
Q 1294 3584 2113 3584 
Q 2378 3584 2631 3529 
Q 2884 3475 3122 3366 
z
" id="DejaVuSans-63" transform="scale(0.015625)"/>
       <path d="M 1959 3097 
Q 1497 3097 1228 2736 
Q 959 2375 959 1747 
Q 959 1119 1226 758 
Q 1494 397 1959 397 
Q 2419 397 2687 759 
Q 2956 1122 2956 1747 
Q 2956 2369 2687 2733 
Q 2419 3097 1959 3097 
z
M 1959 3584 
Q 2709 3584 3137 3096 
Q 3566 2609 3566 1747 
Q 3566 888 3137 398 
Q 2709 -91 1959 -91 
Q 1206 -91 779 398 
Q 353 888 353 1747 
Q 353 2609 779 3096 
Q 1206 3584 1959 3584 
z
" id="DejaVuSans-6f" transform="scale(0.015625)"/>
      </defs>
      <use xlink:href="#DejaVuSans-73"/>
      <use x="52.099609" xlink:href="#DejaVuSans-65"/>
      <use x="113.623047" xlink:href="#DejaVuSans-63"/>
      <use x="168.603516" xlink:href="#DejaVuSans-6f"/>
      <use x="229.785156" xlink:href="#DejaVuSans-6e"/>
      <use x="293.164062" xlink:href="#DejaVuSans-64"/>
      <use x="356.640625" xlink:href="#DejaVuSans-5f"/>
      <use x="406.640625" xlink:href="#DejaVuSans-64"/>
      <use x="470.117188" xlink:href="#DejaVuSans-65"/>
      <use x="531.640625" xlink:href="#DejaVuSans-72"/>
      <use x="572.753906" xlink:href="#DejaVuSans-69"/>
      <use x="600.537109" xlink:href="#DejaVuSans-76"/>
      <use x="659.716797" xlink:href="#DejaVuSans-61"/>
      <use x="720.996094" xlink:href="#DejaVuSans-74"/>
      <use x="760.205078" xlink:href="#DejaVuSans-69"/>
      <use x="787.988281" xlink:href="#DejaVuSans-76"/>
      <use x="847.167969" xlink:href="#DejaVuSans-65"/>
     </g>
    </g>
   </g>
  </g>
 </g>
 <defs>
  <clipPath id="p34ff676b88">
   <rect height="166.32" width="279" x="52.160938" y="7.2"/>
  </clipPath>
 </defs>
</svg>
