<?xml version="1.0" encoding="utf-8" standalone="no"?>
<!DOCTYPE svg PUBLIC "-//W3C//DTD SVG 1.1//EN"
  "http://www.w3.org/Graphics/SVG/1.1/DTD/svg11.dtd">
<svg height="183.35625pt" version="1.1" viewBox="0 0 235.7875 183.35625" width="235.7875pt" xmlns="http://www.w3.org/2000/svg" xmlns:xlink="http://www.w3.org/1999/xlink">
 <metadata>
  <rdf:RDF xmlns:cc="http://creativecommons.org/ns#" xmlns:dc="http://purl.org/dc/elements/1.1/" xmlns:rdf="http://www.w3.org/1999/02/22-rdf-syntax-ns#">
   <cc:Work>
    <dc:type rdf:resource="http://purl.org/dc/dcmitype/StillImage"/>
    <dc:date>2023-08-15T09:43:14.992522</dc:date>
    <dc:format>image/svg+xml</dc:format>
    <dc:creator>
     <cc:Agent>
      <dc:title>Matplotlib v3.4.0, https://matplotlib.org/</dc:title>
     </cc:Agent>
    </dc:creator>
   </cc:Work>
  </rdf:RDF>
 </metadata>
 <defs>
  <style type="text/css">*{stroke-linecap:butt;stroke-linejoin:round;}</style>
 </defs>
 <g id="figure_1">
  <g id="patch_1">
   <path d="M 0 183.35625 
L 235.7875 183.35625 
L 235.7875 0 
L 0 0 
z
" style="fill:#ffffff;"/>
  </g>
  <g id="axes_1">
   <g id="patch_2">
    <path d="M 26.925 145.8 
L 222.225 145.8 
L 222.225 7.2 
L 26.925 7.2 
z
" style="fill:#ffffff;"/>
   </g>
   <g id="matplotlib.axis_1">
    <g id="xtick_1">
     <g id="line2d_1">
      <defs>
       <path d="M 0 0 
L 0 3.5 
" id="ma0d0b67142" style="stroke:#000000;stroke-width:0.8;"/>
      </defs>
      <g>
       <use style="stroke:#000000;stroke-width:0.8;" x="26.925" xlink:href="#ma0d0b67142" y="145.8"/>
      </g>
     </g>
     <g id="text_1">
      <!-- 0 -->
      <g transform="translate(23.74375 160.398438)scale(0.1 -0.1)">
       <defs>
        <path d="M 2034 4250 
Q 1547 4250 1301 3770 
Q 1056 3291 1056 2328 
Q 1056 1369 1301 889 
Q 1547 409 2034 409 
Q 2525 409 2770 889 
Q 3016 1369 3016 2328 
Q 3016 3291 2770 3770 
Q 2525 4250 2034 4250 
z
M 2034 4750 
Q 2819 4750 3233 4129 
Q 3647 3509 3647 2328 
Q 3647 1150 3233 529 
Q 2819 -91 2034 -91 
Q 1250 -91 836 529 
Q 422 1150 422 2328 
Q 422 3509 836 4129 
Q 1250 4750 2034 4750 
z
" id="DejaVuSans-30" transform="scale(0.015625)"/>
       </defs>
       <use xlink:href="#DejaVuSans-30"/>
      </g>
     </g>
    </g>
    <g id="xtick_2">
     <g id="line2d_2">
      <g>
       <use style="stroke:#000000;stroke-width:0.8;" x="75.75" xlink:href="#ma0d0b67142" y="145.8"/>
      </g>
     </g>
     <g id="text_2">
      <!-- 5 -->
      <g transform="translate(72.56875 160.398438)scale(0.1 -0.1)">
       <defs>
        <path d="M 691 4666 
L 3169 4666 
L 3169 4134 
L 1269 4134 
L 1269 2991 
Q 1406 3038 1543 3061 
Q 1681 3084 1819 3084 
Q 2600 3084 3056 2656 
Q 3513 2228 3513 1497 
Q 3513 744 3044 326 
Q 2575 -91 1722 -91 
Q 1428 -91 1123 -41 
Q 819 9 494 109 
L 494 744 
Q 775 591 1075 516 
Q 1375 441 1709 441 
Q 2250 441 2565 725 
Q 2881 1009 2881 1497 
Q 2881 1984 2565 2268 
Q 2250 2553 1709 2553 
Q 1456 2553 1204 2497 
Q 953 2441 691 2322 
L 691 4666 
z
" id="DejaVuSans-35" transform="scale(0.015625)"/>
       </defs>
       <use xlink:href="#DejaVuSans-35"/>
      </g>
     </g>
    </g>
    <g id="xtick_3">
     <g id="line2d_3">
      <g>
       <use style="stroke:#000000;stroke-width:0.8;" x="124.575" xlink:href="#ma0d0b67142" y="145.8"/>
      </g>
     </g>
     <g id="text_3">
      <!-- 10 -->
      <g transform="translate(118.2125 160.398438)scale(0.1 -0.1)">
       <defs>
        <path d="M 794 531 
L 1825 531 
L 1825 4091 
L 703 3866 
L 703 4441 
L 1819 4666 
L 2450 4666 
L 2450 531 
L 3481 531 
L 3481 0 
L 794 0 
L 794 531 
z
" id="DejaVuSans-31" transform="scale(0.015625)"/>
       </defs>
       <use xlink:href="#DejaVuSans-31"/>
       <use x="63.623047" xlink:href="#DejaVuSans-30"/>
      </g>
     </g>
    </g>
    <g id="xtick_4">
     <g id="line2d_4">
      <g>
       <use style="stroke:#000000;stroke-width:0.8;" x="173.4" xlink:href="#ma0d0b67142" y="145.8"/>
      </g>
     </g>
     <g id="text_4">
      <!-- 15 -->
      <g transform="translate(167.0375 160.398438)scale(0.1 -0.1)">
       <use xlink:href="#DejaVuSans-31"/>
       <use x="63.623047" xlink:href="#DejaVuSans-35"/>
      </g>
     </g>
    </g>
    <g id="xtick_5">
     <g id="line2d_5">
      <g>
       <use style="stroke:#000000;stroke-width:0.8;" x="222.225" xlink:href="#ma0d0b67142" y="145.8"/>
      </g>
     </g>
     <g id="text_5">
      <!-- 20 -->
      <g transform="translate(215.8625 160.398438)scale(0.1 -0.1)">
       <defs>
        <path d="M 1228 531 
L 3431 531 
L 3431 0 
L 469 0 
L 469 531 
Q 828 903 1448 1529 
Q 2069 2156 2228 2338 
Q 2531 2678 2651 2914 
Q 2772 3150 2772 3378 
Q 2772 3750 2511 3984 
Q 2250 4219 1831 4219 
Q 1534 4219 1204 4116 
Q 875 4013 500 3803 
L 500 4441 
Q 881 4594 1212 4672 
Q 1544 4750 1819 4750 
Q 2544 4750 2975 4387 
Q 3406 4025 3406 3419 
Q 3406 3131 3298 2873 
Q 3191 2616 2906 2266 
Q 2828 2175 2409 1742 
Q 1991 1309 1228 531 
z
" id="DejaVuSans-32" transform="scale(0.015625)"/>
       </defs>
       <use xlink:href="#DejaVuSans-32"/>
       <use x="63.623047" xlink:href="#DejaVuSans-30"/>
      </g>
     </g>
    </g>
    <g id="text_6">
     <!-- epoch -->
     <g transform="translate(109.346875 174.076563)scale(0.1 -0.1)">
      <defs>
       <path d="M 3597 1894 
L 3597 1613 
L 953 1613 
Q 991 1019 1311 708 
Q 1631 397 2203 397 
Q 2534 397 2845 478 
Q 3156 559 3463 722 
L 3463 178 
Q 3153 47 2828 -22 
Q 2503 -91 2169 -91 
Q 1331 -91 842 396 
Q 353 884 353 1716 
Q 353 2575 817 3079 
Q 1281 3584 2069 3584 
Q 2775 3584 3186 3129 
Q 3597 2675 3597 1894 
z
M 3022 2063 
Q 3016 2534 2758 2815 
Q 2500 3097 2075 3097 
Q 1594 3097 1305 2825 
Q 1016 2553 972 2059 
L 3022 2063 
z
" id="DejaVuSans-65" transform="scale(0.015625)"/>
       <path d="M 1159 525 
L 1159 -1331 
L 581 -1331 
L 581 3500 
L 1159 3500 
L 1159 2969 
Q 1341 3281 1617 3432 
Q 1894 3584 2278 3584 
Q 2916 3584 3314 3078 
Q 3713 2572 3713 1747 
Q 3713 922 3314 415 
Q 2916 -91 2278 -91 
Q 1894 -91 1617 61 
Q 1341 213 1159 525 
z
M 3116 1747 
Q 3116 2381 2855 2742 
Q 2594 3103 2138 3103 
Q 1681 3103 1420 2742 
Q 1159 2381 1159 1747 
Q 1159 1113 1420 752 
Q 1681 391 2138 391 
Q 2594 391 2855 752 
Q 3116 1113 3116 1747 
z
" id="DejaVuSans-70" transform="scale(0.015625)"/>
       <path d="M 1959 3097 
Q 1497 3097 1228 2736 
Q 959 2375 959 1747 
Q 959 1119 1226 758 
Q 1494 397 1959 397 
Q 2419 397 2687 759 
Q 2956 1122 2956 1747 
Q 2956 2369 2687 2733 
Q 2419 3097 1959 3097 
z
M 1959 3584 
Q 2709 3584 3137 3096 
Q 3566 2609 3566 1747 
Q 3566 888 3137 398 
Q 2709 -91 1959 -91 
Q 1206 -91 779 398 
Q 353 888 353 1747 
Q 353 2609 779 3096 
Q 1206 3584 1959 3584 
z
" id="DejaVuSans-6f" transform="scale(0.015625)"/>
       <path d="M 3122 3366 
L 3122 2828 
Q 2878 2963 2633 3030 
Q 2388 3097 2138 3097 
Q 1578 3097 1268 2742 
Q 959 2388 959 1747 
Q 959 1106 1268 751 
Q 1578 397 2138 397 
Q 2388 397 2633 464 
Q 2878 531 3122 666 
L 3122 134 
Q 2881 22 2623 -34 
Q 2366 -91 2075 -91 
Q 1284 -91 818 406 
Q 353 903 353 1747 
Q 353 2603 823 3093 
Q 1294 3584 2113 3584 
Q 2378 3584 2631 3529 
Q 2884 3475 3122 3366 
z
" id="DejaVuSans-63" transform="scale(0.015625)"/>
       <path d="M 3513 2113 
L 3513 0 
L 2938 0 
L 2938 2094 
Q 2938 2591 2744 2837 
Q 2550 3084 2163 3084 
Q 1697 3084 1428 2787 
Q 1159 2491 1159 1978 
L 1159 0 
L 581 0 
L 581 4863 
L 1159 4863 
L 1159 2956 
Q 1366 3272 1645 3428 
Q 1925 3584 2291 3584 
Q 2894 3584 3203 3211 
Q 3513 2838 3513 2113 
z
" id="DejaVuSans-68" transform="scale(0.015625)"/>
      </defs>
      <use xlink:href="#DejaVuSans-65"/>
      <use x="61.523438" xlink:href="#DejaVuSans-70"/>
      <use x="125" xlink:href="#DejaVuSans-6f"/>
      <use x="186.181641" xlink:href="#DejaVuSans-63"/>
      <use x="241.162109" xlink:href="#DejaVuSans-68"/>
     </g>
    </g>
   </g>
   <g id="matplotlib.axis_2">
    <g id="ytick_1">
     <g id="line2d_6">
      <defs>
       <path d="M 0 0 
L -3.5 0 
" id="mee4cfb6a74" style="stroke:#000000;stroke-width:0.8;"/>
      </defs>
      <g>
       <use style="stroke:#000000;stroke-width:0.8;" x="26.925" xlink:href="#mee4cfb6a74" y="107.204865"/>
      </g>
     </g>
     <g id="text_7">
      <!-- 5 -->
      <g transform="translate(13.5625 111.004084)scale(0.1 -0.1)">
       <use xlink:href="#DejaVuSans-35"/>
      </g>
     </g>
    </g>
    <g id="ytick_2">
     <g id="line2d_7">
      <g>
       <use style="stroke:#000000;stroke-width:0.8;" x="26.925" xlink:href="#mee4cfb6a74" y="65.931166"/>
      </g>
     </g>
     <g id="text_8">
      <!-- 10 -->
      <g transform="translate(7.2 69.730385)scale(0.1 -0.1)">
       <use xlink:href="#DejaVuSans-31"/>
       <use x="63.623047" xlink:href="#DejaVuSans-30"/>
      </g>
     </g>
    </g>
    <g id="ytick_3">
     <g id="line2d_8">
      <g>
       <use style="stroke:#000000;stroke-width:0.8;" x="26.925" xlink:href="#mee4cfb6a74" y="24.657467"/>
      </g>
     </g>
     <g id="text_9">
      <!-- 15 -->
      <g transform="translate(7.2 28.456686)scale(0.1 -0.1)">
       <use xlink:href="#DejaVuSans-31"/>
       <use x="63.623047" xlink:href="#DejaVuSans-35"/>
      </g>
     </g>
    </g>
   </g>
   <g id="line2d_9">
    <path clip-path="url(#pdddb387e97)" d="M 29.213672 13.5 
" style="fill:none;stroke:#1f77b4;stroke-linecap:square;stroke-width:1.5;"/>
   </g>
   <g id="line2d_10">
    <path clip-path="url(#pdddb387e97)" d="M 29.213672 13.5 
L 34.096172 34.221025 
" style="fill:none;stroke:#1f77b4;stroke-linecap:square;stroke-width:1.5;"/>
   </g>
   <g id="line2d_11">
    <path clip-path="url(#pdddb387e97)" d="M 29.213672 13.5 
L 34.096172 34.221025 
" style="fill:none;stroke:#1f77b4;stroke-linecap:square;stroke-width:1.5;"/>
   </g>
   <g id="line2d_12">
    <path clip-path="url(#pdddb387e97)" d="M 36.69 33.984397 
" style="fill:none;stroke:#ff7f0e;stroke-dasharray:5.55,2.4;stroke-dashoffset:0;stroke-width:1.5;"/>
   </g>
   <g id="line2d_13">
    <path clip-path="url(#pdddb387e97)" d="M 29.213672 13.5 
L 34.096172 34.221025 
L 38.978672 37.145984 
" style="fill:none;stroke:#1f77b4;stroke-linecap:square;stroke-width:1.5;"/>
   </g>
   <g id="line2d_14">
    <path clip-path="url(#pdddb387e97)" d="M 36.69 33.984397 
" style="fill:none;stroke:#ff7f0e;stroke-dasharray:5.55,2.4;stroke-dashoffset:0;stroke-width:1.5;"/>
   </g>
   <g id="line2d_15">
    <path clip-path="url(#pdddb387e97)" d="M 29.213672 13.5 
L 34.096172 34.221025 
L 38.978672 37.145984 
L 43.861172 51.733094 
" style="fill:none;stroke:#1f77b4;stroke-linecap:square;stroke-width:1.5;"/>
   </g>
   <g id="line2d_16">
    <path clip-path="url(#pdddb387e97)" d="M 36.69 33.984397 
" style="fill:none;stroke:#ff7f0e;stroke-dasharray:5.55,2.4;stroke-dashoffset:0;stroke-width:1.5;"/>
   </g>
   <g id="line2d_17">
    <path clip-path="url(#pdddb387e97)" d="M 29.213672 13.5 
L 34.096172 34.221025 
L 38.978672 37.145984 
L 43.861172 51.733094 
" style="fill:none;stroke:#1f77b4;stroke-linecap:square;stroke-width:1.5;"/>
   </g>
   <g id="line2d_18">
    <path clip-path="url(#pdddb387e97)" d="M 36.69 33.984397 
L 46.455 54.11837 
" style="fill:none;stroke:#ff7f0e;stroke-dasharray:5.55,2.4;stroke-dashoffset:0;stroke-width:1.5;"/>
   </g>
   <g id="line2d_19">
    <path clip-path="url(#pdddb387e97)" d="M 29.213672 13.5 
L 34.096172 34.221025 
L 38.978672 37.145984 
L 43.861172 51.733094 
L 48.743672 57.382023 
" style="fill:none;stroke:#1f77b4;stroke-linecap:square;stroke-width:1.5;"/>
   </g>
   <g id="line2d_20">
    <path clip-path="url(#pdddb387e97)" d="M 36.69 33.984397 
L 46.455 54.11837 
" style="fill:none;stroke:#ff7f0e;stroke-dasharray:5.55,2.4;stroke-dashoffset:0;stroke-width:1.5;"/>
   </g>
   <g id="line2d_21">
    <path clip-path="url(#pdddb387e97)" d="M 29.213672 13.5 
L 34.096172 34.221025 
L 38.978672 37.145984 
L 43.861172 51.733094 
L 48.743672 57.382023 
L 53.626172 66.795969 
" style="fill:none;stroke:#1f77b4;stroke-linecap:square;stroke-width:1.5;"/>
   </g>
   <g id="line2d_22">
    <path clip-path="url(#pdddb387e97)" d="M 36.69 33.984397 
L 46.455 54.11837 
" style="fill:none;stroke:#ff7f0e;stroke-dasharray:5.55,2.4;stroke-dashoffset:0;stroke-width:1.5;"/>
   </g>
   <g id="line2d_23">
    <path clip-path="url(#pdddb387e97)" d="M 29.213672 13.5 
L 34.096172 34.221025 
L 38.978672 37.145984 
L 43.861172 51.733094 
L 48.743672 57.382023 
L 53.626172 66.795969 
" style="fill:none;stroke:#1f77b4;stroke-linecap:square;stroke-width:1.5;"/>
   </g>
   <g id="line2d_24">
    <path clip-path="url(#pdddb387e97)" d="M 36.69 33.984397 
L 46.455 54.11837 
L 56.22 70.861535 
" style="fill:none;stroke:#ff7f0e;stroke-dasharray:5.55,2.4;stroke-dashoffset:0;stroke-width:1.5;"/>
   </g>
   <g id="line2d_25">
    <path clip-path="url(#pdddb387e97)" d="M 29.213672 13.5 
L 34.096172 34.221025 
L 38.978672 37.145984 
L 43.861172 51.733094 
L 48.743672 57.382023 
L 53.626172 66.795969 
L 58.508672 76.366494 
" style="fill:none;stroke:#1f77b4;stroke-linecap:square;stroke-width:1.5;"/>
   </g>
   <g id="line2d_26">
    <path clip-path="url(#pdddb387e97)" d="M 36.69 33.984397 
L 46.455 54.11837 
L 56.22 70.861535 
" style="fill:none;stroke:#ff7f0e;stroke-dasharray:5.55,2.4;stroke-dashoffset:0;stroke-width:1.5;"/>
   </g>
   <g id="line2d_27">
    <path clip-path="url(#pdddb387e97)" d="M 29.213672 13.5 
L 34.096172 34.221025 
L 38.978672 37.145984 
L 43.861172 51.733094 
L 48.743672 57.382023 
L 53.626172 66.795969 
L 58.508672 76.366494 
L 63.391172 81.087128 
" style="fill:none;stroke:#1f77b4;stroke-linecap:square;stroke-width:1.5;"/>
   </g>
   <g id="line2d_28">
    <path clip-path="url(#pdddb387e97)" d="M 36.69 33.984397 
L 46.455 54.11837 
L 56.22 70.861535 
" style="fill:none;stroke:#ff7f0e;stroke-dasharray:5.55,2.4;stroke-dashoffset:0;stroke-width:1.5;"/>
   </g>
   <g id="line2d_29">
    <path clip-path="url(#pdddb387e97)" d="M 29.213672 13.5 
L 34.096172 34.221025 
L 38.978672 37.145984 
L 43.861172 51.733094 
L 48.743672 57.382023 
L 53.626172 66.795969 
L 58.508672 76.366494 
L 63.391172 81.087128 
" style="fill:none;stroke:#1f77b4;stroke-linecap:square;stroke-width:1.5;"/>
   </g>
   <g id="line2d_30">
    <path clip-path="url(#pdddb387e97)" d="M 36.69 33.984397 
L 46.455 54.11837 
L 56.22 70.861535 
L 65.985 84.382027 
" style="fill:none;stroke:#ff7f0e;stroke-dasharray:5.55,2.4;stroke-dashoffset:0;stroke-width:1.5;"/>
   </g>
   <g id="line2d_31">
    <path clip-path="url(#pdddb387e97)" d="M 29.213672 13.5 
L 34.096172 34.221025 
L 38.978672 37.145984 
L 43.861172 51.733094 
L 48.743672 57.382023 
L 53.626172 66.795969 
L 58.508672 76.366494 
L 63.391172 81.087128 
L 68.273672 86.21505 
" style="fill:none;stroke:#1f77b4;stroke-linecap:square;stroke-width:1.5;"/>
   </g>
   <g id="line2d_32">
    <path clip-path="url(#pdddb387e97)" d="M 36.69 33.984397 
L 46.455 54.11837 
L 56.22 70.861535 
L 65.985 84.382027 
" style="fill:none;stroke:#ff7f0e;stroke-dasharray:5.55,2.4;stroke-dashoffset:0;stroke-width:1.5;"/>
   </g>
   <g id="line2d_33">
    <path clip-path="url(#pdddb387e97)" d="M 29.213672 13.5 
L 34.096172 34.221025 
L 38.978672 37.145984 
L 43.861172 51.733094 
L 48.743672 57.382023 
L 53.626172 66.795969 
L 58.508672 76.366494 
L 63.391172 81.087128 
L 68.273672 86.21505 
L 73.156172 96.150264 
" style="fill:none;stroke:#1f77b4;stroke-linecap:square;stroke-width:1.5;"/>
   </g>
   <g id="line2d_34">
    <path clip-path="url(#pdddb387e97)" d="M 36.69 33.984397 
L 46.455 54.11837 
L 56.22 70.861535 
L 65.985 84.382027 
" style="fill:none;stroke:#ff7f0e;stroke-dasharray:5.55,2.4;stroke-dashoffset:0;stroke-width:1.5;"/>
   </g>
   <g id="line2d_35">
    <path clip-path="url(#pdddb387e97)" d="M 29.213672 13.5 
L 34.096172 34.221025 
L 38.978672 37.145984 
L 43.861172 51.733094 
L 48.743672 57.382023 
L 53.626172 66.795969 
L 58.508672 76.366494 
L 63.391172 81.087128 
L 68.273672 86.21505 
L 73.156172 96.150264 
" style="fill:none;stroke:#1f77b4;stroke-linecap:square;stroke-width:1.5;"/>
   </g>
   <g id="line2d_36">
    <path clip-path="url(#pdddb387e97)" d="M 36.69 33.984397 
L 46.455 54.11837 
L 56.22 70.861535 
L 65.985 84.382027 
L 75.75 95.491892 
" style="fill:none;stroke:#ff7f0e;stroke-dasharray:5.55,2.4;stroke-dashoffset:0;stroke-width:1.5;"/>
   </g>
   <g id="line2d_37">
    <path clip-path="url(#pdddb387e97)" d="M 29.213672 13.5 
L 34.096172 34.221025 
L 38.978672 37.145984 
L 43.861172 51.733094 
L 48.743672 57.382023 
L 53.626172 66.795969 
L 58.508672 76.366494 
L 63.391172 81.087128 
L 68.273672 86.21505 
L 73.156172 96.150264 
L 78.038672 100.14782 
" style="fill:none;stroke:#1f77b4;stroke-linecap:square;stroke-width:1.5;"/>
   </g>
   <g id="line2d_38">
    <path clip-path="url(#pdddb387e97)" d="M 36.69 33.984397 
L 46.455 54.11837 
L 56.22 70.861535 
L 65.985 84.382027 
L 75.75 95.491892 
" style="fill:none;stroke:#ff7f0e;stroke-dasharray:5.55,2.4;stroke-dashoffset:0;stroke-width:1.5;"/>
   </g>
   <g id="line2d_39">
    <path clip-path="url(#pdddb387e97)" d="M 29.213672 13.5 
L 34.096172 34.221025 
L 38.978672 37.145984 
L 43.861172 51.733094 
L 48.743672 57.382023 
L 53.626172 66.795969 
L 58.508672 76.366494 
L 63.391172 81.087128 
L 68.273672 86.21505 
L 73.156172 96.150264 
L 78.038672 100.14782 
L 82.921172 103.040812 
" style="fill:none;stroke:#1f77b4;stroke-linecap:square;stroke-width:1.5;"/>
   </g>
   <g id="line2d_40">
    <path clip-path="url(#pdddb387e97)" d="M 36.69 33.984397 
L 46.455 54.11837 
L 56.22 70.861535 
L 65.985 84.382027 
L 75.75 95.491892 
" style="fill:none;stroke:#ff7f0e;stroke-dasharray:5.55,2.4;stroke-dashoffset:0;stroke-width:1.5;"/>
   </g>
   <g id="line2d_41">
    <path clip-path="url(#pdddb387e97)" d="M 29.213672 13.5 
L 34.096172 34.221025 
L 38.978672 37.145984 
L 43.861172 51.733094 
L 48.743672 57.382023 
L 53.626172 66.795969 
L 58.508672 76.366494 
L 63.391172 81.087128 
L 68.273672 86.21505 
L 73.156172 96.150264 
L 78.038672 100.14782 
L 82.921172 103.040812 
" style="fill:none;stroke:#1f77b4;stroke-linecap:square;stroke-width:1.5;"/>
   </g>
   <g id="line2d_42">
    <path clip-path="url(#pdddb387e97)" d="M 36.69 33.984397 
L 46.455 54.11837 
L 56.22 70.861535 
L 65.985 84.382027 
L 75.75 95.491892 
L 85.515 104.587222 
" style="fill:none;stroke:#ff7f0e;stroke-dasharray:5.55,2.4;stroke-dashoffset:0;stroke-width:1.5;"/>
   </g>
   <g id="line2d_43">
    <path clip-path="url(#pdddb387e97)" d="M 29.213672 13.5 
L 34.096172 34.221025 
L 38.978672 37.145984 
L 43.861172 51.733094 
L 48.743672 57.382023 
L 53.626172 66.795969 
L 58.508672 76.366494 
L 63.391172 81.087128 
L 68.273672 86.21505 
L 73.156172 96.150264 
L 78.038672 100.14782 
L 82.921172 103.040812 
L 87.803672 108.809222 
" style="fill:none;stroke:#1f77b4;stroke-linecap:square;stroke-width:1.5;"/>
   </g>
   <g id="line2d_44">
    <path clip-path="url(#pdddb387e97)" d="M 36.69 33.984397 
L 46.455 54.11837 
L 56.22 70.861535 
L 65.985 84.382027 
L 75.75 95.491892 
L 85.515 104.587222 
" style="fill:none;stroke:#ff7f0e;stroke-dasharray:5.55,2.4;stroke-dashoffset:0;stroke-width:1.5;"/>
   </g>
   <g id="line2d_45">
    <path clip-path="url(#pdddb387e97)" d="M 29.213672 13.5 
L 34.096172 34.221025 
L 38.978672 37.145984 
L 43.861172 51.733094 
L 48.743672 57.382023 
L 53.626172 66.795969 
L 58.508672 76.366494 
L 63.391172 81.087128 
L 68.273672 86.21505 
L 73.156172 96.150264 
L 78.038672 100.14782 
L 82.921172 103.040812 
L 87.803672 108.809222 
L 92.686172 109.754462 
" style="fill:none;stroke:#1f77b4;stroke-linecap:square;stroke-width:1.5;"/>
   </g>
   <g id="line2d_46">
    <path clip-path="url(#pdddb387e97)" d="M 36.69 33.984397 
L 46.455 54.11837 
L 56.22 70.861535 
L 65.985 84.382027 
L 75.75 95.491892 
L 85.515 104.587222 
" style="fill:none;stroke:#ff7f0e;stroke-dasharray:5.55,2.4;stroke-dashoffset:0;stroke-width:1.5;"/>
   </g>
   <g id="line2d_47">
    <path clip-path="url(#pdddb387e97)" d="M 29.213672 13.5 
L 34.096172 34.221025 
L 38.978672 37.145984 
L 43.861172 51.733094 
L 48.743672 57.382023 
L 53.626172 66.795969 
L 58.508672 76.366494 
L 63.391172 81.087128 
L 68.273672 86.21505 
L 73.156172 96.150264 
L 78.038672 100.14782 
L 82.921172 103.040812 
L 87.803672 108.809222 
L 92.686172 109.754462 
" style="fill:none;stroke:#1f77b4;stroke-linecap:square;stroke-width:1.5;"/>
   </g>
   <g id="line2d_48">
    <path clip-path="url(#pdddb387e97)" d="M 36.69 33.984397 
L 46.455 54.11837 
L 56.22 70.861535 
L 65.985 84.382027 
L 75.75 95.491892 
L 85.515 104.587222 
L 95.28 112.196102 
" style="fill:none;stroke:#ff7f0e;stroke-dasharray:5.55,2.4;stroke-dashoffset:0;stroke-width:1.5;"/>
   </g>
   <g id="line2d_49">
    <path clip-path="url(#pdddb387e97)" d="M 29.213672 13.5 
L 34.096172 34.221025 
L 38.978672 37.145984 
L 43.861172 51.733094 
L 48.743672 57.382023 
L 53.626172 66.795969 
L 58.508672 76.366494 
L 63.391172 81.087128 
L 68.273672 86.21505 
L 73.156172 96.150264 
L 78.038672 100.14782 
L 82.921172 103.040812 
L 87.803672 108.809222 
L 92.686172 109.754462 
L 97.568672 113.25841 
" style="fill:none;stroke:#1f77b4;stroke-linecap:square;stroke-width:1.5;"/>
   </g>
   <g id="line2d_50">
    <path clip-path="url(#pdddb387e97)" d="M 36.69 33.984397 
L 46.455 54.11837 
L 56.22 70.861535 
L 65.985 84.382027 
L 75.75 95.491892 
L 85.515 104.587222 
L 95.28 112.196102 
" style="fill:none;stroke:#ff7f0e;stroke-dasharray:5.55,2.4;stroke-dashoffset:0;stroke-width:1.5;"/>
   </g>
   <g id="line2d_51">
    <path clip-path="url(#pdddb387e97)" d="M 29.213672 13.5 
L 34.096172 34.221025 
L 38.978672 37.145984 
L 43.861172 51.733094 
L 48.743672 57.382023 
L 53.626172 66.795969 
L 58.508672 76.366494 
L 63.391172 81.087128 
L 68.273672 86.21505 
L 73.156172 96.150264 
L 78.038672 100.14782 
L 82.921172 103.040812 
L 87.803672 108.809222 
L 92.686172 109.754462 
L 97.568672 113.25841 
L 102.451172 118.781376 
" style="fill:none;stroke:#1f77b4;stroke-linecap:square;stroke-width:1.5;"/>
   </g>
   <g id="line2d_52">
    <path clip-path="url(#pdddb387e97)" d="M 36.69 33.984397 
L 46.455 54.11837 
L 56.22 70.861535 
L 65.985 84.382027 
L 75.75 95.491892 
L 85.515 104.587222 
L 95.28 112.196102 
" style="fill:none;stroke:#ff7f0e;stroke-dasharray:5.55,2.4;stroke-dashoffset:0;stroke-width:1.5;"/>
   </g>
   <g id="line2d_53">
    <path clip-path="url(#pdddb387e97)" d="M 29.213672 13.5 
L 34.096172 34.221025 
L 38.978672 37.145984 
L 43.861172 51.733094 
L 48.743672 57.382023 
L 53.626172 66.795969 
L 58.508672 76.366494 
L 63.391172 81.087128 
L 68.273672 86.21505 
L 73.156172 96.150264 
L 78.038672 100.14782 
L 82.921172 103.040812 
L 87.803672 108.809222 
L 92.686172 109.754462 
L 97.568672 113.25841 
L 102.451172 118.781376 
" style="fill:none;stroke:#1f77b4;stroke-linecap:square;stroke-width:1.5;"/>
   </g>
   <g id="line2d_54">
    <path clip-path="url(#pdddb387e97)" d="M 36.69 33.984397 
L 46.455 54.11837 
L 56.22 70.861535 
L 65.985 84.382027 
L 75.75 95.491892 
L 85.515 104.587222 
L 95.28 112.196102 
L 105.045 118.497543 
" style="fill:none;stroke:#ff7f0e;stroke-dasharray:5.55,2.4;stroke-dashoffset:0;stroke-width:1.5;"/>
   </g>
   <g id="line2d_55">
    <path clip-path="url(#pdddb387e97)" d="M 29.213672 13.5 
L 34.096172 34.221025 
L 38.978672 37.145984 
L 43.861172 51.733094 
L 48.743672 57.382023 
L 53.626172 66.795969 
L 58.508672 76.366494 
L 63.391172 81.087128 
L 68.273672 86.21505 
L 73.156172 96.150264 
L 78.038672 100.14782 
L 82.921172 103.040812 
L 87.803672 108.809222 
L 92.686172 109.754462 
L 97.568672 113.25841 
L 102.451172 118.781376 
L 107.333672 120.374031 
" style="fill:none;stroke:#1f77b4;stroke-linecap:square;stroke-width:1.5;"/>
   </g>
   <g id="line2d_56">
    <path clip-path="url(#pdddb387e97)" d="M 36.69 33.984397 
L 46.455 54.11837 
L 56.22 70.861535 
L 65.985 84.382027 
L 75.75 95.491892 
L 85.515 104.587222 
L 95.28 112.196102 
L 105.045 118.497543 
" style="fill:none;stroke:#ff7f0e;stroke-dasharray:5.55,2.4;stroke-dashoffset:0;stroke-width:1.5;"/>
   </g>
   <g id="line2d_57">
    <path clip-path="url(#pdddb387e97)" d="M 29.213672 13.5 
L 34.096172 34.221025 
L 38.978672 37.145984 
L 43.861172 51.733094 
L 48.743672 57.382023 
L 53.626172 66.795969 
L 58.508672 76.366494 
L 63.391172 81.087128 
L 68.273672 86.21505 
L 73.156172 96.150264 
L 78.038672 100.14782 
L 82.921172 103.040812 
L 87.803672 108.809222 
L 92.686172 109.754462 
L 97.568672 113.25841 
L 102.451172 118.781376 
L 107.333672 120.374031 
L 112.216172 123.801036 
" style="fill:none;stroke:#1f77b4;stroke-linecap:square;stroke-width:1.5;"/>
   </g>
   <g id="line2d_58">
    <path clip-path="url(#pdddb387e97)" d="M 36.69 33.984397 
L 46.455 54.11837 
L 56.22 70.861535 
L 65.985 84.382027 
L 75.75 95.491892 
L 85.515 104.587222 
L 95.28 112.196102 
L 105.045 118.497543 
" style="fill:none;stroke:#ff7f0e;stroke-dasharray:5.55,2.4;stroke-dashoffset:0;stroke-width:1.5;"/>
   </g>
   <g id="line2d_59">
    <path clip-path="url(#pdddb387e97)" d="M 29.213672 13.5 
L 34.096172 34.221025 
L 38.978672 37.145984 
L 43.861172 51.733094 
L 48.743672 57.382023 
L 53.626172 66.795969 
L 58.508672 76.366494 
L 63.391172 81.087128 
L 68.273672 86.21505 
L 73.156172 96.150264 
L 78.038672 100.14782 
L 82.921172 103.040812 
L 87.803672 108.809222 
L 92.686172 109.754462 
L 97.568672 113.25841 
L 102.451172 118.781376 
L 107.333672 120.374031 
L 112.216172 123.801036 
" style="fill:none;stroke:#1f77b4;stroke-linecap:square;stroke-width:1.5;"/>
   </g>
   <g id="line2d_60">
    <path clip-path="url(#pdddb387e97)" d="M 36.69 33.984397 
L 46.455 54.11837 
L 56.22 70.861535 
L 65.985 84.382027 
L 75.75 95.491892 
L 85.515 104.587222 
L 95.28 112.196102 
L 105.045 118.497543 
L 114.81 123.627408 
" style="fill:none;stroke:#ff7f0e;stroke-dasharray:5.55,2.4;stroke-dashoffset:0;stroke-width:1.5;"/>
   </g>
   <g id="line2d_61">
    <path clip-path="url(#pdddb387e97)" d="M 29.213672 13.5 
L 34.096172 34.221025 
L 38.978672 37.145984 
L 43.861172 51.733094 
L 48.743672 57.382023 
L 53.626172 66.795969 
L 58.508672 76.366494 
L 63.391172 81.087128 
L 68.273672 86.21505 
L 73.156172 96.150264 
L 78.038672 100.14782 
L 82.921172 103.040812 
L 87.803672 108.809222 
L 92.686172 109.754462 
L 97.568672 113.25841 
L 102.451172 118.781376 
L 107.333672 120.374031 
L 112.216172 123.801036 
L 117.098672 124.028817 
" style="fill:none;stroke:#1f77b4;stroke-linecap:square;stroke-width:1.5;"/>
   </g>
   <g id="line2d_62">
    <path clip-path="url(#pdddb387e97)" d="M 36.69 33.984397 
L 46.455 54.11837 
L 56.22 70.861535 
L 65.985 84.382027 
L 75.75 95.491892 
L 85.515 104.587222 
L 95.28 112.196102 
L 105.045 118.497543 
L 114.81 123.627408 
" style="fill:none;stroke:#ff7f0e;stroke-dasharray:5.55,2.4;stroke-dashoffset:0;stroke-width:1.5;"/>
   </g>
   <g id="line2d_63">
    <path clip-path="url(#pdddb387e97)" d="M 29.213672 13.5 
L 34.096172 34.221025 
L 38.978672 37.145984 
L 43.861172 51.733094 
L 48.743672 57.382023 
L 53.626172 66.795969 
L 58.508672 76.366494 
L 63.391172 81.087128 
L 68.273672 86.21505 
L 73.156172 96.150264 
L 78.038672 100.14782 
L 82.921172 103.040812 
L 87.803672 108.809222 
L 92.686172 109.754462 
L 97.568672 113.25841 
L 102.451172 118.781376 
L 107.333672 120.374031 
L 112.216172 123.801036 
L 117.098672 124.028817 
L 121.981172 128.616985 
" style="fill:none;stroke:#1f77b4;stroke-linecap:square;stroke-width:1.5;"/>
   </g>
   <g id="line2d_64">
    <path clip-path="url(#pdddb387e97)" d="M 36.69 33.984397 
L 46.455 54.11837 
L 56.22 70.861535 
L 65.985 84.382027 
L 75.75 95.491892 
L 85.515 104.587222 
L 95.28 112.196102 
L 105.045 118.497543 
L 114.81 123.627408 
" style="fill:none;stroke:#ff7f0e;stroke-dasharray:5.55,2.4;stroke-dashoffset:0;stroke-width:1.5;"/>
   </g>
   <g id="line2d_65">
    <path clip-path="url(#pdddb387e97)" d="M 29.213672 13.5 
L 34.096172 34.221025 
L 38.978672 37.145984 
L 43.861172 51.733094 
L 48.743672 57.382023 
L 53.626172 66.795969 
L 58.508672 76.366494 
L 63.391172 81.087128 
L 68.273672 86.21505 
L 73.156172 96.150264 
L 78.038672 100.14782 
L 82.921172 103.040812 
L 87.803672 108.809222 
L 92.686172 109.754462 
L 97.568672 113.25841 
L 102.451172 118.781376 
L 107.333672 120.374031 
L 112.216172 123.801036 
L 117.098672 124.028817 
L 121.981172 128.616985 
" style="fill:none;stroke:#1f77b4;stroke-linecap:square;stroke-width:1.5;"/>
   </g>
   <g id="line2d_66">
    <path clip-path="url(#pdddb387e97)" d="M 36.69 33.984397 
L 46.455 54.11837 
L 56.22 70.861535 
L 65.985 84.382027 
L 75.75 95.491892 
L 85.515 104.587222 
L 95.28 112.196102 
L 105.045 118.497543 
L 114.81 123.627408 
L 124.575 127.934529 
" style="fill:none;stroke:#ff7f0e;stroke-dasharray:5.55,2.4;stroke-dashoffset:0;stroke-width:1.5;"/>
   </g>
   <g id="line2d_67">
    <path clip-path="url(#pdddb387e97)" d="M 29.213672 13.5 
L 34.096172 34.221025 
L 38.978672 37.145984 
L 43.861172 51.733094 
L 48.743672 57.382023 
L 53.626172 66.795969 
L 58.508672 76.366494 
L 63.391172 81.087128 
L 68.273672 86.21505 
L 73.156172 96.150264 
L 78.038672 100.14782 
L 82.921172 103.040812 
L 87.803672 108.809222 
L 92.686172 109.754462 
L 97.568672 113.25841 
L 102.451172 118.781376 
L 107.333672 120.374031 
L 112.216172 123.801036 
L 117.098672 124.028817 
L 121.981172 128.616985 
L 126.863672 128.722142 
" style="fill:none;stroke:#1f77b4;stroke-linecap:square;stroke-width:1.5;"/>
   </g>
   <g id="line2d_68">
    <path clip-path="url(#pdddb387e97)" d="M 36.69 33.984397 
L 46.455 54.11837 
L 56.22 70.861535 
L 65.985 84.382027 
L 75.75 95.491892 
L 85.515 104.587222 
L 95.28 112.196102 
L 105.045 118.497543 
L 114.81 123.627408 
L 124.575 127.934529 
" style="fill:none;stroke:#ff7f0e;stroke-dasharray:5.55,2.4;stroke-dashoffset:0;stroke-width:1.5;"/>
   </g>
   <g id="line2d_69">
    <path clip-path="url(#pdddb387e97)" d="M 29.213672 13.5 
L 34.096172 34.221025 
L 38.978672 37.145984 
L 43.861172 51.733094 
L 48.743672 57.382023 
L 53.626172 66.795969 
L 58.508672 76.366494 
L 63.391172 81.087128 
L 68.273672 86.21505 
L 73.156172 96.150264 
L 78.038672 100.14782 
L 82.921172 103.040812 
L 87.803672 108.809222 
L 92.686172 109.754462 
L 97.568672 113.25841 
L 102.451172 118.781376 
L 107.333672 120.374031 
L 112.216172 123.801036 
L 117.098672 124.028817 
L 121.981172 128.616985 
L 126.863672 128.722142 
L 131.746172 131.934509 
" style="fill:none;stroke:#1f77b4;stroke-linecap:square;stroke-width:1.5;"/>
   </g>
   <g id="line2d_70">
    <path clip-path="url(#pdddb387e97)" d="M 36.69 33.984397 
L 46.455 54.11837 
L 56.22 70.861535 
L 65.985 84.382027 
L 75.75 95.491892 
L 85.515 104.587222 
L 95.28 112.196102 
L 105.045 118.497543 
L 114.81 123.627408 
L 124.575 127.934529 
" style="fill:none;stroke:#ff7f0e;stroke-dasharray:5.55,2.4;stroke-dashoffset:0;stroke-width:1.5;"/>
   </g>
   <g id="line2d_71">
    <path clip-path="url(#pdddb387e97)" d="M 29.213672 13.5 
L 34.096172 34.221025 
L 38.978672 37.145984 
L 43.861172 51.733094 
L 48.743672 57.382023 
L 53.626172 66.795969 
L 58.508672 76.366494 
L 63.391172 81.087128 
L 68.273672 86.21505 
L 73.156172 96.150264 
L 78.038672 100.14782 
L 82.921172 103.040812 
L 87.803672 108.809222 
L 92.686172 109.754462 
L 97.568672 113.25841 
L 102.451172 118.781376 
L 107.333672 120.374031 
L 112.216172 123.801036 
L 117.098672 124.028817 
L 121.981172 128.616985 
L 126.863672 128.722142 
L 131.746172 131.934509 
" style="fill:none;stroke:#1f77b4;stroke-linecap:square;stroke-width:1.5;"/>
   </g>
   <g id="line2d_72">
    <path clip-path="url(#pdddb387e97)" d="M 36.69 33.984397 
L 46.455 54.11837 
L 56.22 70.861535 
L 65.985 84.382027 
L 75.75 95.491892 
L 85.515 104.587222 
L 95.28 112.196102 
L 105.045 118.497543 
L 114.81 123.627408 
L 124.575 127.934529 
L 134.34 131.465839 
" style="fill:none;stroke:#ff7f0e;stroke-dasharray:5.55,2.4;stroke-dashoffset:0;stroke-width:1.5;"/>
   </g>
   <g id="line2d_73">
    <path clip-path="url(#pdddb387e97)" d="M 29.213672 13.5 
L 34.096172 34.221025 
L 38.978672 37.145984 
L 43.861172 51.733094 
L 48.743672 57.382023 
L 53.626172 66.795969 
L 58.508672 76.366494 
L 63.391172 81.087128 
L 68.273672 86.21505 
L 73.156172 96.150264 
L 78.038672 100.14782 
L 82.921172 103.040812 
L 87.803672 108.809222 
L 92.686172 109.754462 
L 97.568672 113.25841 
L 102.451172 118.781376 
L 107.333672 120.374031 
L 112.216172 123.801036 
L 117.098672 124.028817 
L 121.981172 128.616985 
L 126.863672 128.722142 
L 131.746172 131.934509 
L 136.628672 132.91765 
" style="fill:none;stroke:#1f77b4;stroke-linecap:square;stroke-width:1.5;"/>
   </g>
   <g id="line2d_74">
    <path clip-path="url(#pdddb387e97)" d="M 36.69 33.984397 
L 46.455 54.11837 
L 56.22 70.861535 
L 65.985 84.382027 
L 75.75 95.491892 
L 85.515 104.587222 
L 95.28 112.196102 
L 105.045 118.497543 
L 114.81 123.627408 
L 124.575 127.934529 
L 134.34 131.465839 
" style="fill:none;stroke:#ff7f0e;stroke-dasharray:5.55,2.4;stroke-dashoffset:0;stroke-width:1.5;"/>
   </g>
   <g id="line2d_75">
    <path clip-path="url(#pdddb387e97)" d="M 29.213672 13.5 
L 34.096172 34.221025 
L 38.978672 37.145984 
L 43.861172 51.733094 
L 48.743672 57.382023 
L 53.626172 66.795969 
L 58.508672 76.366494 
L 63.391172 81.087128 
L 68.273672 86.21505 
L 73.156172 96.150264 
L 78.038672 100.14782 
L 82.921172 103.040812 
L 87.803672 108.809222 
L 92.686172 109.754462 
L 97.568672 113.25841 
L 102.451172 118.781376 
L 107.333672 120.374031 
L 112.216172 123.801036 
L 117.098672 124.028817 
L 121.981172 128.616985 
L 126.863672 128.722142 
L 131.746172 131.934509 
L 136.628672 132.91765 
L 141.511172 133.762566 
" style="fill:none;stroke:#1f77b4;stroke-linecap:square;stroke-width:1.5;"/>
   </g>
   <g id="line2d_76">
    <path clip-path="url(#pdddb387e97)" d="M 36.69 33.984397 
L 46.455 54.11837 
L 56.22 70.861535 
L 65.985 84.382027 
L 75.75 95.491892 
L 85.515 104.587222 
L 95.28 112.196102 
L 105.045 118.497543 
L 114.81 123.627408 
L 124.575 127.934529 
L 134.34 131.465839 
" style="fill:none;stroke:#ff7f0e;stroke-dasharray:5.55,2.4;stroke-dashoffset:0;stroke-width:1.5;"/>
   </g>
   <g id="line2d_77">
    <path clip-path="url(#pdddb387e97)" d="M 29.213672 13.5 
L 34.096172 34.221025 
L 38.978672 37.145984 
L 43.861172 51.733094 
L 48.743672 57.382023 
L 53.626172 66.795969 
L 58.508672 76.366494 
L 63.391172 81.087128 
L 68.273672 86.21505 
L 73.156172 96.150264 
L 78.038672 100.14782 
L 82.921172 103.040812 
L 87.803672 108.809222 
L 92.686172 109.754462 
L 97.568672 113.25841 
L 102.451172 118.781376 
L 107.333672 120.374031 
L 112.216172 123.801036 
L 117.098672 124.028817 
L 121.981172 128.616985 
L 126.863672 128.722142 
L 131.746172 131.934509 
L 136.628672 132.91765 
L 141.511172 133.762566 
" style="fill:none;stroke:#1f77b4;stroke-linecap:square;stroke-width:1.5;"/>
   </g>
   <g id="line2d_78">
    <path clip-path="url(#pdddb387e97)" d="M 36.69 33.984397 
L 46.455 54.11837 
L 56.22 70.861535 
L 65.985 84.382027 
L 75.75 95.491892 
L 85.515 104.587222 
L 95.28 112.196102 
L 105.045 118.497543 
L 114.81 123.627408 
L 124.575 127.934529 
L 134.34 131.465839 
L 144.105 134.411456 
" style="fill:none;stroke:#ff7f0e;stroke-dasharray:5.55,2.4;stroke-dashoffset:0;stroke-width:1.5;"/>
   </g>
   <g id="line2d_79">
    <path clip-path="url(#pdddb387e97)" d="M 29.213672 13.5 
L 34.096172 34.221025 
L 38.978672 37.145984 
L 43.861172 51.733094 
L 48.743672 57.382023 
L 53.626172 66.795969 
L 58.508672 76.366494 
L 63.391172 81.087128 
L 68.273672 86.21505 
L 73.156172 96.150264 
L 78.038672 100.14782 
L 82.921172 103.040812 
L 87.803672 108.809222 
L 92.686172 109.754462 
L 97.568672 113.25841 
L 102.451172 118.781376 
L 107.333672 120.374031 
L 112.216172 123.801036 
L 117.098672 124.028817 
L 121.981172 128.616985 
L 126.863672 128.722142 
L 131.746172 131.934509 
L 136.628672 132.91765 
L 141.511172 133.762566 
L 146.393672 135.023618 
" style="fill:none;stroke:#1f77b4;stroke-linecap:square;stroke-width:1.5;"/>
   </g>
   <g id="line2d_80">
    <path clip-path="url(#pdddb387e97)" d="M 36.69 33.984397 
L 46.455 54.11837 
L 56.22 70.861535 
L 65.985 84.382027 
L 75.75 95.491892 
L 85.515 104.587222 
L 95.28 112.196102 
L 105.045 118.497543 
L 114.81 123.627408 
L 124.575 127.934529 
L 134.34 131.465839 
L 144.105 134.411456 
" style="fill:none;stroke:#ff7f0e;stroke-dasharray:5.55,2.4;stroke-dashoffset:0;stroke-width:1.5;"/>
   </g>
   <g id="line2d_81">
    <path clip-path="url(#pdddb387e97)" d="M 29.213672 13.5 
L 34.096172 34.221025 
L 38.978672 37.145984 
L 43.861172 51.733094 
L 48.743672 57.382023 
L 53.626172 66.795969 
L 58.508672 76.366494 
L 63.391172 81.087128 
L 68.273672 86.21505 
L 73.156172 96.150264 
L 78.038672 100.14782 
L 82.921172 103.040812 
L 87.803672 108.809222 
L 92.686172 109.754462 
L 97.568672 113.25841 
L 102.451172 118.781376 
L 107.333672 120.374031 
L 112.216172 123.801036 
L 117.098672 124.028817 
L 121.981172 128.616985 
L 126.863672 128.722142 
L 131.746172 131.934509 
L 136.628672 132.91765 
L 141.511172 133.762566 
L 146.393672 135.023618 
L 151.276172 137.108767 
" style="fill:none;stroke:#1f77b4;stroke-linecap:square;stroke-width:1.5;"/>
   </g>
   <g id="line2d_82">
    <path clip-path="url(#pdddb387e97)" d="M 36.69 33.984397 
L 46.455 54.11837 
L 56.22 70.861535 
L 65.985 84.382027 
L 75.75 95.491892 
L 85.515 104.587222 
L 95.28 112.196102 
L 105.045 118.497543 
L 114.81 123.627408 
L 124.575 127.934529 
L 134.34 131.465839 
L 144.105 134.411456 
" style="fill:none;stroke:#ff7f0e;stroke-dasharray:5.55,2.4;stroke-dashoffset:0;stroke-width:1.5;"/>
   </g>
   <g id="line2d_83">
    <path clip-path="url(#pdddb387e97)" d="M 29.213672 13.5 
L 34.096172 34.221025 
L 38.978672 37.145984 
L 43.861172 51.733094 
L 48.743672 57.382023 
L 53.626172 66.795969 
L 58.508672 76.366494 
L 63.391172 81.087128 
L 68.273672 86.21505 
L 73.156172 96.150264 
L 78.038672 100.14782 
L 82.921172 103.040812 
L 87.803672 108.809222 
L 92.686172 109.754462 
L 97.568672 113.25841 
L 102.451172 118.781376 
L 107.333672 120.374031 
L 112.216172 123.801036 
L 117.098672 124.028817 
L 121.981172 128.616985 
L 126.863672 128.722142 
L 131.746172 131.934509 
L 136.628672 132.91765 
L 141.511172 133.762566 
L 146.393672 135.023618 
L 151.276172 137.108767 
" style="fill:none;stroke:#1f77b4;stroke-linecap:square;stroke-width:1.5;"/>
   </g>
   <g id="line2d_84">
    <path clip-path="url(#pdddb387e97)" d="M 36.69 33.984397 
L 46.455 54.11837 
L 56.22 70.861535 
L 65.985 84.382027 
L 75.75 95.491892 
L 85.515 104.587222 
L 95.28 112.196102 
L 105.045 118.497543 
L 114.81 123.627408 
L 124.575 127.934529 
L 134.34 131.465839 
L 144.105 134.411456 
L 153.87 136.828169 
" style="fill:none;stroke:#ff7f0e;stroke-dasharray:5.55,2.4;stroke-dashoffset:0;stroke-width:1.5;"/>
   </g>
   <g id="line2d_85">
    <path clip-path="url(#pdddb387e97)" d="M 29.213672 13.5 
L 34.096172 34.221025 
L 38.978672 37.145984 
L 43.861172 51.733094 
L 48.743672 57.382023 
L 53.626172 66.795969 
L 58.508672 76.366494 
L 63.391172 81.087128 
L 68.273672 86.21505 
L 73.156172 96.150264 
L 78.038672 100.14782 
L 82.921172 103.040812 
L 87.803672 108.809222 
L 92.686172 109.754462 
L 97.568672 113.25841 
L 102.451172 118.781376 
L 107.333672 120.374031 
L 112.216172 123.801036 
L 117.098672 124.028817 
L 121.981172 128.616985 
L 126.863672 128.722142 
L 131.746172 131.934509 
L 136.628672 132.91765 
L 141.511172 133.762566 
L 146.393672 135.023618 
L 151.276172 137.108767 
L 156.158672 136.82805 
" style="fill:none;stroke:#1f77b4;stroke-linecap:square;stroke-width:1.5;"/>
   </g>
   <g id="line2d_86">
    <path clip-path="url(#pdddb387e97)" d="M 36.69 33.984397 
L 46.455 54.11837 
L 56.22 70.861535 
L 65.985 84.382027 
L 75.75 95.491892 
L 85.515 104.587222 
L 95.28 112.196102 
L 105.045 118.497543 
L 114.81 123.627408 
L 124.575 127.934529 
L 134.34 131.465839 
L 144.105 134.411456 
L 153.87 136.828169 
" style="fill:none;stroke:#ff7f0e;stroke-dasharray:5.55,2.4;stroke-dashoffset:0;stroke-width:1.5;"/>
   </g>
   <g id="line2d_87">
    <path clip-path="url(#pdddb387e97)" d="M 29.213672 13.5 
L 34.096172 34.221025 
L 38.978672 37.145984 
L 43.861172 51.733094 
L 48.743672 57.382023 
L 53.626172 66.795969 
L 58.508672 76.366494 
L 63.391172 81.087128 
L 68.273672 86.21505 
L 73.156172 96.150264 
L 78.038672 100.14782 
L 82.921172 103.040812 
L 87.803672 108.809222 
L 92.686172 109.754462 
L 97.568672 113.25841 
L 102.451172 118.781376 
L 107.333672 120.374031 
L 112.216172 123.801036 
L 117.098672 124.028817 
L 121.981172 128.616985 
L 126.863672 128.722142 
L 131.746172 131.934509 
L 136.628672 132.91765 
L 141.511172 133.762566 
L 146.393672 135.023618 
L 151.276172 137.108767 
L 156.158672 136.82805 
L 161.041172 139.5 
" style="fill:none;stroke:#1f77b4;stroke-linecap:square;stroke-width:1.5;"/>
   </g>
   <g id="line2d_88">
    <path clip-path="url(#pdddb387e97)" d="M 36.69 33.984397 
L 46.455 54.11837 
L 56.22 70.861535 
L 65.985 84.382027 
L 75.75 95.491892 
L 85.515 104.587222 
L 95.28 112.196102 
L 105.045 118.497543 
L 114.81 123.627408 
L 124.575 127.934529 
L 134.34 131.465839 
L 144.105 134.411456 
L 153.87 136.828169 
" style="fill:none;stroke:#ff7f0e;stroke-dasharray:5.55,2.4;stroke-dashoffset:0;stroke-width:1.5;"/>
   </g>
   <g id="patch_3">
    <path d="M 26.925 145.8 
L 26.925 7.2 
" style="fill:none;stroke:#000000;stroke-linecap:square;stroke-linejoin:miter;stroke-width:0.8;"/>
   </g>
   <g id="patch_4">
    <path d="M 222.225 145.8 
L 222.225 7.2 
" style="fill:none;stroke:#000000;stroke-linecap:square;stroke-linejoin:miter;stroke-width:0.8;"/>
   </g>
   <g id="patch_5">
    <path d="M 26.925 145.8 
L 222.225 145.8 
" style="fill:none;stroke:#000000;stroke-linecap:square;stroke-linejoin:miter;stroke-width:0.8;"/>
   </g>
   <g id="patch_6">
    <path d="M 26.925 7.2 
L 222.225 7.2 
" style="fill:none;stroke:#000000;stroke-linecap:square;stroke-linejoin:miter;stroke-width:0.8;"/>
   </g>
   <g id="legend_1">
    <g id="patch_7">
     <path d="M 135.634375 45.1125 
L 215.225 45.1125 
Q 217.225 45.1125 217.225 43.1125 
L 217.225 14.2 
Q 217.225 12.2 215.225 12.2 
L 135.634375 12.2 
Q 133.634375 12.2 133.634375 14.2 
L 133.634375 43.1125 
Q 133.634375 45.1125 135.634375 45.1125 
z
" style="fill:#ffffff;opacity:0.8;stroke:#cccccc;stroke-linejoin:miter;"/>
    </g>
    <g id="line2d_89">
     <path d="M 137.634375 20.298438 
L 157.634375 20.298438 
" style="fill:none;stroke:#1f77b4;stroke-linecap:square;stroke-width:1.5;"/>
    </g>
    <g id="line2d_90"/>
    <g id="text_10">
     <!-- train_loss -->
     <g transform="translate(165.634375 23.798438)scale(0.1 -0.1)">
      <defs>
       <path d="M 1172 4494 
L 1172 3500 
L 2356 3500 
L 2356 3053 
L 1172 3053 
L 1172 1153 
Q 1172 725 1289 603 
Q 1406 481 1766 481 
L 2356 481 
L 2356 0 
L 1766 0 
Q 1100 0 847 248 
Q 594 497 594 1153 
L 594 3053 
L 172 3053 
L 172 3500 
L 594 3500 
L 594 4494 
L 1172 4494 
z
" id="DejaVuSans-74" transform="scale(0.015625)"/>
       <path d="M 2631 2963 
Q 2534 3019 2420 3045 
Q 2306 3072 2169 3072 
Q 1681 3072 1420 2755 
Q 1159 2438 1159 1844 
L 1159 0 
L 581 0 
L 581 3500 
L 1159 3500 
L 1159 2956 
Q 1341 3275 1631 3429 
Q 1922 3584 2338 3584 
Q 2397 3584 2469 3576 
Q 2541 3569 2628 3553 
L 2631 2963 
z
" id="DejaVuSans-72" transform="scale(0.015625)"/>
       <path d="M 2194 1759 
Q 1497 1759 1228 1600 
Q 959 1441 959 1056 
Q 959 750 1161 570 
Q 1363 391 1709 391 
Q 2188 391 2477 730 
Q 2766 1069 2766 1631 
L 2766 1759 
L 2194 1759 
z
M 3341 1997 
L 3341 0 
L 2766 0 
L 2766 531 
Q 2569 213 2275 61 
Q 1981 -91 1556 -91 
Q 1019 -91 701 211 
Q 384 513 384 1019 
Q 384 1609 779 1909 
Q 1175 2209 1959 2209 
L 2766 2209 
L 2766 2266 
Q 2766 2663 2505 2880 
Q 2244 3097 1772 3097 
Q 1472 3097 1187 3025 
Q 903 2953 641 2809 
L 641 3341 
Q 956 3463 1253 3523 
Q 1550 3584 1831 3584 
Q 2591 3584 2966 3190 
Q 3341 2797 3341 1997 
z
" id="DejaVuSans-61" transform="scale(0.015625)"/>
       <path d="M 603 3500 
L 1178 3500 
L 1178 0 
L 603 0 
L 603 3500 
z
M 603 4863 
L 1178 4863 
L 1178 4134 
L 603 4134 
L 603 4863 
z
" id="DejaVuSans-69" transform="scale(0.015625)"/>
       <path d="M 3513 2113 
L 3513 0 
L 2938 0 
L 2938 2094 
Q 2938 2591 2744 2837 
Q 2550 3084 2163 3084 
Q 1697 3084 1428 2787 
Q 1159 2491 1159 1978 
L 1159 0 
L 581 0 
L 581 3500 
L 1159 3500 
L 1159 2956 
Q 1366 3272 1645 3428 
Q 1925 3584 2291 3584 
Q 2894 3584 3203 3211 
Q 3513 2838 3513 2113 
z
" id="DejaVuSans-6e" transform="scale(0.015625)"/>
       <path d="M 3263 -1063 
L 3263 -1509 
L -63 -1509 
L -63 -1063 
L 3263 -1063 
z
" id="DejaVuSans-5f" transform="scale(0.015625)"/>
       <path d="M 603 4863 
L 1178 4863 
L 1178 0 
L 603 0 
L 603 4863 
z
" id="DejaVuSans-6c" transform="scale(0.015625)"/>
       <path d="M 2834 3397 
L 2834 2853 
Q 2591 2978 2328 3040 
Q 2066 3103 1784 3103 
Q 1356 3103 1142 2972 
Q 928 2841 928 2578 
Q 928 2378 1081 2264 
Q 1234 2150 1697 2047 
L 1894 2003 
Q 2506 1872 2764 1633 
Q 3022 1394 3022 966 
Q 3022 478 2636 193 
Q 2250 -91 1575 -91 
Q 1294 -91 989 -36 
Q 684 19 347 128 
L 347 722 
Q 666 556 975 473 
Q 1284 391 1588 391 
Q 1994 391 2212 530 
Q 2431 669 2431 922 
Q 2431 1156 2273 1281 
Q 2116 1406 1581 1522 
L 1381 1569 
Q 847 1681 609 1914 
Q 372 2147 372 2553 
Q 372 3047 722 3315 
Q 1072 3584 1716 3584 
Q 2034 3584 2315 3537 
Q 2597 3491 2834 3397 
z
" id="DejaVuSans-73" transform="scale(0.015625)"/>
      </defs>
      <use xlink:href="#DejaVuSans-74"/>
      <use x="39.208984" xlink:href="#DejaVuSans-72"/>
      <use x="80.322266" xlink:href="#DejaVuSans-61"/>
      <use x="141.601562" xlink:href="#DejaVuSans-69"/>
      <use x="169.384766" xlink:href="#DejaVuSans-6e"/>
      <use x="232.763672" xlink:href="#DejaVuSans-5f"/>
      <use x="282.763672" xlink:href="#DejaVuSans-6c"/>
      <use x="310.546875" xlink:href="#DejaVuSans-6f"/>
      <use x="371.728516" xlink:href="#DejaVuSans-73"/>
      <use x="423.828125" xlink:href="#DejaVuSans-73"/>
     </g>
    </g>
    <g id="line2d_91">
     <path d="M 137.634375 35.254688 
L 157.634375 35.254688 
" style="fill:none;stroke:#ff7f0e;stroke-dasharray:5.55,2.4;stroke-dashoffset:0;stroke-width:1.5;"/>
    </g>
    <g id="line2d_92"/>
    <g id="text_11">
     <!-- val_loss -->
     <g transform="translate(165.634375 38.754688)scale(0.1 -0.1)">
      <defs>
       <path d="M 191 3500 
L 800 3500 
L 1894 563 
L 2988 3500 
L 3597 3500 
L 2284 0 
L 1503 0 
L 191 3500 
z
" id="DejaVuSans-76" transform="scale(0.015625)"/>
      </defs>
      <use xlink:href="#DejaVuSans-76"/>
      <use x="59.179688" xlink:href="#DejaVuSans-61"/>
      <use x="120.458984" xlink:href="#DejaVuSans-6c"/>
      <use x="148.242188" xlink:href="#DejaVuSans-5f"/>
      <use x="198.242188" xlink:href="#DejaVuSans-6c"/>
      <use x="226.025391" xlink:href="#DejaVuSans-6f"/>
      <use x="287.207031" xlink:href="#DejaVuSans-73"/>
      <use x="339.306641" xlink:href="#DejaVuSans-73"/>
     </g>
    </g>
   </g>
  </g>
 </g>
 <defs>
  <clipPath id="pdddb387e97">
   <rect height="138.6" width="195.3" x="26.925" y="7.2"/>
  </clipPath>
 </defs>
</svg>
